<svg width="402" height="402" viewBox="0 0 402 402" fill="none" xmlns="http://www.w3.org/2000/svg">
<path d="M330.214 0H71.7854C32.1589 0.0471093 0.0471093 32.1589 0 71.7854V330.214C0.0471093 369.84 32.1589 401.952 71.7854 401.999H330.214C369.84 401.952 401.952 369.84 401.999 330.214V71.7854C401.952 32.1589 369.84 0.0471093 330.214 0ZM272.786 215.357H215.357V272.786C215.357 280.715 208.929 287.143 201 287.143C193.07 287.143 186.642 280.715 186.642 272.786V215.357H129.214C121.285 215.357 114.857 208.929 114.857 201C114.857 193.07 121.285 186.642 129.214 186.642H186.643V129.214C186.643 121.285 193.071 114.857 201 114.857C208.93 114.857 215.357 121.285 215.357 129.214V186.643H272.786C280.715 186.643 287.143 193.071 287.143 201C287.143 208.93 280.714 215.357 272.786 215.357Z" fill="#A4A4A4"/>
</svg>
