<svg width="218" height="229" fill="none" xmlns="http://www.w3.org/2000/svg"><path d="M74.5 114.5c0 25.386-37.745 41.731-63.131 41.731-25.386 0 0-23.845 0-49.231 0-25.386-25.386-42.7 0-42.7S74.5 89.114 74.5 114.5z" fill="#2FDAE4"/><path d="M152.007 210.713c0 25.386-18.661 6.143-44.047 6.143-25.386 0-51.965 25.386-51.965 0s26.579-68.143 51.965-68.143c25.386 0 44.047 36.614 44.047 62z" fill="#C521FF"/><path d="M206.717 114.096c0 25.386 25.386 45.965 0 45.965s-61.287-20.579-61.287-45.965c0-25.386 35.901-45.965 61.287-45.965 25.386 0 0 20.579 0 45.965z" fill="#08E789"/><path d="M157 9.083c0 25.386-23.614 69-49 69s-56-43.614-56-69c0-25.386 30.614 10.5 56 10.5s49-35.886 49-10.5z" fill="#FF2D92"/></svg>