<svg width="512" height="512" viewBox="0 0 512 512" fill="none" xmlns="http://www.w3.org/2000/svg">
<g clip-path="url(#clip0)">
<path d="M97 0C79.4 0 65 14.4 65 32V480C65 497.6 79.4 512 97 512H417C434.6 512 449 497.6 449 480V128L321 0H97Z" fill="#EAECEF"/>
<g filter="url(#filter0_d)">
<path d="M353 128H449L321 0V96C321 113.6 335.4 128 353 128Z" fill="#1572B7"/>
</g>
<g filter="url(#filter1_d)">
<path d="M31 274C31 265.716 37.7157 259 46 259H466C474.284 259 481 265.716 481 274V431C481 439.284 474.284 446 466 446H46C37.7157 446 31 439.284 31 431V274Z" fill="url(#paint0_linear)"/>
</g>
<path d="M162.184 353C162.184 346.133 163.717 340 166.784 334.6C169.917 329.133 174.15 324.9 179.484 321.9C184.884 318.833 190.917 317.3 197.584 317.3C205.384 317.3 212.217 319.3 218.084 323.3C223.95 327.3 228.05 332.833 230.384 339.9H214.284C212.684 336.567 210.417 334.067 207.484 332.4C204.617 330.733 201.284 329.9 197.484 329.9C193.417 329.9 189.784 330.867 186.584 332.8C183.45 334.667 180.984 337.333 179.184 340.8C177.45 344.267 176.584 348.333 176.584 353C176.584 357.6 177.45 361.667 179.184 365.2C180.984 368.667 183.45 371.367 186.584 373.3C189.784 375.167 193.417 376.1 197.484 376.1C201.284 376.1 204.617 375.267 207.484 373.6C210.417 371.867 212.684 369.333 214.284 366H230.384C228.05 373.133 223.95 378.7 218.084 382.7C212.284 386.633 205.45 388.6 197.584 388.6C190.917 388.6 184.884 387.1 179.484 384.1C174.15 381.033 169.917 376.8 166.784 371.4C163.717 366 162.184 359.867 162.184 353ZM266.441 388.7C261.575 388.7 257.175 387.867 253.241 386.2C249.375 384.533 246.308 382.133 244.041 379C241.775 375.867 240.608 372.167 240.541 367.9H255.541C255.741 370.767 256.741 373.033 258.541 374.7C260.408 376.367 262.941 377.2 266.141 377.2C269.408 377.2 271.975 376.433 273.841 374.9C275.708 373.3 276.641 371.233 276.641 368.7C276.641 366.633 276.008 364.933 274.741 363.6C273.475 362.267 271.875 361.233 269.941 360.5C268.075 359.7 265.475 358.833 262.141 357.9C257.608 356.567 253.908 355.267 251.041 354C248.241 352.667 245.808 350.7 243.741 348.1C241.741 345.433 240.741 341.9 240.741 337.5C240.741 333.367 241.775 329.767 243.841 326.7C245.908 323.633 248.808 321.3 252.541 319.7C256.275 318.033 260.541 317.2 265.341 317.2C272.541 317.2 278.375 318.967 282.841 322.5C287.375 325.967 289.875 330.833 290.341 337.1H274.941C274.808 334.7 273.775 332.733 271.841 331.2C269.975 329.6 267.475 328.8 264.341 328.8C261.608 328.8 259.408 329.5 257.741 330.9C256.141 332.3 255.341 334.333 255.341 337C255.341 338.867 255.941 340.433 257.141 341.7C258.408 342.9 259.941 343.9 261.741 344.7C263.608 345.433 266.208 346.3 269.541 347.3C274.075 348.633 277.775 349.967 280.641 351.3C283.508 352.633 285.975 354.633 288.041 357.3C290.108 359.967 291.141 363.467 291.141 367.8C291.141 371.533 290.175 375 288.241 378.2C286.308 381.4 283.475 383.967 279.741 385.9C276.008 387.767 271.575 388.7 266.441 388.7ZM327.379 388.7C322.512 388.7 318.112 387.867 314.179 386.2C310.312 384.533 307.246 382.133 304.979 379C302.712 375.867 301.546 372.167 301.479 367.9H316.479C316.679 370.767 317.679 373.033 319.479 374.7C321.346 376.367 323.879 377.2 327.079 377.2C330.346 377.2 332.912 376.433 334.779 374.9C336.646 373.3 337.579 371.233 337.579 368.7C337.579 366.633 336.946 364.933 335.679 363.6C334.412 362.267 332.812 361.233 330.879 360.5C329.012 359.7 326.412 358.833 323.079 357.9C318.546 356.567 314.846 355.267 311.979 354C309.179 352.667 306.746 350.7 304.679 348.1C302.679 345.433 301.679 341.9 301.679 337.5C301.679 333.367 302.712 329.767 304.779 326.7C306.846 323.633 309.746 321.3 313.479 319.7C317.212 318.033 321.479 317.2 326.279 317.2C333.479 317.2 339.312 318.967 343.779 322.5C348.312 325.967 350.812 330.833 351.279 337.1H335.879C335.746 334.7 334.712 332.733 332.779 331.2C330.912 329.6 328.412 328.8 325.279 328.8C322.546 328.8 320.346 329.5 318.679 330.9C317.079 332.3 316.279 334.333 316.279 337C316.279 338.867 316.879 340.433 318.079 341.7C319.346 342.9 320.879 343.9 322.679 344.7C324.546 345.433 327.146 346.3 330.479 347.3C335.012 348.633 338.712 349.967 341.579 351.3C344.446 352.633 346.912 354.633 348.979 357.3C351.046 359.967 352.079 363.467 352.079 367.8C352.079 371.533 351.112 375 349.179 378.2C347.246 381.4 344.412 383.967 340.679 385.9C336.946 387.767 332.512 388.7 327.379 388.7Z" fill="#FEFDFE"/>
<rect opacity="0.4" x="109" y="147" width="212" height="11" fill="#121317"/>
<rect opacity="0.4" x="109" y="179" width="235" height="11" fill="#121317"/>
<rect opacity="0.4" x="109" y="211" width="244" height="11" fill="#121317"/>
</g>
<defs>
<filter id="filter0_d" x="311" y="-9" width="148" height="148" filterUnits="userSpaceOnUse" color-interpolation-filters="sRGB">
<feFlood flood-opacity="0" result="BackgroundImageFix"/>
<feColorMatrix in="SourceAlpha" type="matrix" values="0 0 0 0 0 0 0 0 0 0 0 0 0 0 0 0 0 0 127 0"/>
<feOffset dy="1"/>
<feGaussianBlur stdDeviation="5"/>
<feColorMatrix type="matrix" values="0 0 0 0 0 0 0 0 0 0 0 0 0 0 0 0 0 0 0.25 0"/>
<feBlend mode="normal" in2="BackgroundImageFix" result="effect1_dropShadow"/>
<feBlend mode="normal" in="SourceGraphic" in2="effect1_dropShadow" result="shape"/>
</filter>
<filter id="filter1_d" x="-15" y="213" width="550" height="287" filterUnits="userSpaceOnUse" color-interpolation-filters="sRGB">
<feFlood flood-opacity="0" result="BackgroundImageFix"/>
<feColorMatrix in="SourceAlpha" type="matrix" values="0 0 0 0 0 0 0 0 0 0 0 0 0 0 0 0 0 0 127 0"/>
<feOffset dx="4" dy="4"/>
<feGaussianBlur stdDeviation="25"/>
<feColorMatrix type="matrix" values="0 0 0 0 0 0 0 0 0 0 0 0 0 0 0 0 0 0 0.25 0"/>
<feBlend mode="normal" in2="BackgroundImageFix" result="effect1_dropShadow"/>
<feBlend mode="normal" in="SourceGraphic" in2="effect1_dropShadow" result="shape"/>
</filter>
<linearGradient id="paint0_linear" x1="31" y1="353" x2="481" y2="353" gradientUnits="userSpaceOnUse">
<stop stop-color="#35A6E0"/>
<stop offset="1" stop-color="#1572B7"/>
</linearGradient>
<clipPath id="clip0">
<rect width="512" height="512" fill="white"/>
</clipPath>
</defs>
</svg>
