<svg width="203" height="170" viewBox="0 0 203 170" fill="none" xmlns="http://www.w3.org/2000/svg">
<rect width="200" height="150" rx="10" fill="#3FDE9C"/>
<path d="M65.3086 19C61.493 19 58.3711 22.1219 58.3711 25.9375V123.062C58.3711 126.878 61.493 130 65.3086 130H134.684C138.499 130 141.621 126.878 141.621 123.062V46.75L113.871 19H65.3086Z" fill="#FEFDFE"/>
<g filter="url(#filter0_d)">
<path d="M120.809 46.75H141.621L113.871 19V39.8125C113.871 43.6281 116.993 46.75 120.809 46.75Z" fill="#004BB4"/>
</g>
<g filter="url(#filter1_d)">
<rect x="51" y="75.1504" width="97.5586" height="40.541" rx="10" fill="url(#paint0_linear)"/>
</g>
<path d="M79.2512 89.5864C80.5712 89.5864 81.7292 89.8444 82.7252 90.3604C83.7332 90.8764 84.5072 91.6144 85.0472 92.5744C85.5992 93.5224 85.8752 94.6264 85.8752 95.8864C85.8752 97.1464 85.5992 98.2504 85.0472 99.1984C84.5072 100.134 83.7332 100.86 82.7252 101.376C81.7292 101.892 80.5712 102.15 79.2512 102.15H74.8592V89.5864H79.2512ZM79.1612 100.008C80.4812 100.008 81.5012 99.6484 82.2212 98.9284C82.9412 98.2084 83.3012 97.1944 83.3012 95.8864C83.3012 94.5784 82.9412 93.5584 82.2212 92.8264C81.5012 92.0824 80.4812 91.7104 79.1612 91.7104H77.3792V100.008H79.1612ZM93.5935 102.276C92.4175 102.276 91.3375 102 90.3535 101.448C89.3695 100.896 88.5895 100.134 88.0135 99.1624C87.4375 98.1784 87.1495 97.0684 87.1495 95.8324C87.1495 94.6084 87.4375 93.5104 88.0135 92.5384C88.5895 91.5544 89.3695 90.7864 90.3535 90.2344C91.3375 89.6824 92.4175 89.4064 93.5935 89.4064C94.7815 89.4064 95.8615 89.6824 96.8335 90.2344C97.8175 90.7864 98.5915 91.5544 99.1555 92.5384C99.7315 93.5104 100.02 94.6084 100.02 95.8324C100.02 97.0684 99.7315 98.1784 99.1555 99.1624C98.5915 100.134 97.8175 100.896 96.8335 101.448C95.8495 102 94.7695 102.276 93.5935 102.276ZM93.5935 100.026C94.3495 100.026 95.0155 99.8584 95.5915 99.5224C96.1675 99.1744 96.6175 98.6824 96.9415 98.0464C97.2655 97.4104 97.4275 96.6724 97.4275 95.8324C97.4275 94.9924 97.2655 94.2604 96.9415 93.6364C96.6175 93.0004 96.1675 92.5144 95.5915 92.1784C95.0155 91.8424 94.3495 91.6744 93.5935 91.6744C92.8375 91.6744 92.1655 91.8424 91.5775 92.1784C91.0015 92.5144 90.5515 93.0004 90.2275 93.6364C89.9035 94.2604 89.7415 94.9924 89.7415 95.8324C89.7415 96.6724 89.9035 97.4104 90.2275 98.0464C90.5515 98.6824 91.0015 99.1744 91.5775 99.5224C92.1655 99.8584 92.8375 100.026 93.5935 100.026ZM101.282 95.8504C101.282 94.6144 101.558 93.5104 102.11 92.5384C102.674 91.5544 103.436 90.7924 104.396 90.2524C105.368 89.7004 106.454 89.4244 107.654 89.4244C109.058 89.4244 110.288 89.7844 111.344 90.5044C112.4 91.2244 113.138 92.2204 113.558 93.4924H110.66C110.372 92.8924 109.964 92.4424 109.436 92.1424C108.92 91.8424 108.32 91.6924 107.636 91.6924C106.904 91.6924 106.25 91.8664 105.674 92.2144C105.11 92.5504 104.666 93.0304 104.342 93.6544C104.03 94.2784 103.874 95.0104 103.874 95.8504C103.874 96.6784 104.03 97.4104 104.342 98.0464C104.666 98.6704 105.11 99.1564 105.674 99.5044C106.25 99.8404 106.904 100.008 107.636 100.008C108.32 100.008 108.92 99.8584 109.436 99.5584C109.964 99.2464 110.372 98.7904 110.66 98.1904H113.558C113.138 99.4744 112.4 100.476 111.344 101.196C110.3 101.904 109.07 102.258 107.654 102.258C106.454 102.258 105.368 101.988 104.396 101.448C103.436 100.896 102.674 100.134 102.11 99.1624C101.558 98.1904 101.282 97.0864 101.282 95.8504ZM123.235 102.15L120.517 97.9204L118.051 102.15H115.207L119.167 95.8144L115.153 89.5864H118.051L120.769 93.7984L123.217 89.5864H126.061L122.119 95.9044L126.133 102.15H123.235Z" fill="#FEFDFE"/>
<rect opacity="0.4" x="67.9102" y="50.8691" width="45.9609" height="2.38477" fill="#121317"/>
<rect opacity="0.4" x="67.9102" y="57.8066" width="50.9473" height="2.38477" fill="#121317"/>
<rect opacity="0.4" x="67.9102" y="64.7441" width="52.8984" height="2.38477" fill="#121317"/>
<defs>
<filter id="filter0_d" x="103.871" y="10" width="47.75" height="47.75" filterUnits="userSpaceOnUse" color-interpolation-filters="sRGB">
<feFlood flood-opacity="0" result="BackgroundImageFix"/>
<feColorMatrix in="SourceAlpha" type="matrix" values="0 0 0 0 0 0 0 0 0 0 0 0 0 0 0 0 0 0 127 0"/>
<feOffset dy="1"/>
<feGaussianBlur stdDeviation="5"/>
<feColorMatrix type="matrix" values="0 0 0 0 0 0 0 0 0 0 0 0 0 0 0 0 0 0 0.25 0"/>
<feBlend mode="normal" in2="BackgroundImageFix" result="effect1_dropShadow"/>
<feBlend mode="normal" in="SourceGraphic" in2="effect1_dropShadow" result="shape"/>
</filter>
<filter id="filter1_d" x="5" y="29.1504" width="197.559" height="140.541" filterUnits="userSpaceOnUse" color-interpolation-filters="sRGB">
<feFlood flood-opacity="0" result="BackgroundImageFix"/>
<feColorMatrix in="SourceAlpha" type="matrix" values="0 0 0 0 0 0 0 0 0 0 0 0 0 0 0 0 0 0 127 0"/>
<feOffset dx="4" dy="4"/>
<feGaussianBlur stdDeviation="25"/>
<feColorMatrix type="matrix" values="0 0 0 0 0 0 0 0 0 0 0 0 0 0 0 0 0 0 0.25 0"/>
<feBlend mode="normal" in2="BackgroundImageFix" result="effect1_dropShadow"/>
<feBlend mode="normal" in="SourceGraphic" in2="effect1_dropShadow" result="shape"/>
</filter>
<linearGradient id="paint0_linear" x1="51" y1="95.5293" x2="148.559" y2="95.5293" gradientUnits="userSpaceOnUse">
<stop stop-color="#005FE3"/>
<stop offset="1" stop-color="#004BB4"/>
</linearGradient>
</defs>
</svg>
