<svg width="588" height="588" viewBox="0 0 588 588" fill="none" xmlns="http://www.w3.org/2000/svg">
<g clip-path="url(#clip0)">
<path d="M162.141 70.938L131.743 101.336L101.345 131.735L70.947 162.133L474.228 565.414L486.387 516.777H516.785V486.379L565.483 474.281L162.141 70.938Z" fill="#E34B87"/>
<path d="M576.801 527.69L527.698 576.793L587.714 587.706L576.801 527.69Z" fill="#3269A1"/>
<path d="M565.483 474.281L516.785 486.379V516.777H486.387L474.228 565.414L476.255 567.441L527.698 576.793L576.801 527.69L567.449 476.246L565.483 474.281Z" fill="#FDA72F"/>
<path d="M131.74 40.5442L40.547 131.737L70.9473 162.138L162.141 70.9445L131.74 40.5442Z" fill="#FDA72F"/>
<path d="M64.5019 0.0090332C28.8859 0.0090332 0.0179443 28.877 0.0179443 64.493C0.0179443 81.597 6.80695 98.002 18.9049 110.09L40.5479 131.733L131.742 40.539L110.099 18.896C98.0109 6.79803 81.6059 0.0090332 64.5019 0.0090332Z" fill="#C1C7C9"/>
<path d="M47.864 77.4739C30.334 60.0249 23.191 34.6939 29.048 10.6589C-0.691004 30.2249 -8.929 70.1989 10.637 99.9279C13.049 103.586 15.815 106.99 18.915 110.091L40.548 131.734L71.331 100.951L47.864 77.4739Z" fill="#B8BDBF"/>
<path d="M70.947 162.133L474.228 565.414L486.387 516.777L101.345 131.735L70.947 162.133Z" fill="#BF3D75"/>
<path d="M385.052 293.859L293.859 385.052L314.121 405.314L405.314 314.121L385.052 293.859Z" fill="#BF3D75"/>
<path d="M582.729 96.189L497.746 181.172C485.87 193.037 466.639 193.037 454.763 181.172L406.552 132.961C394.687 121.096 394.687 101.843 406.552 89.978L491.535 4.99497C462.829 -3.25303 432.147 -1.22603 404.779 10.73C373.408 24.166 348.421 49.153 334.985 80.524C323.028 107.892 321.002 138.574 329.25 167.28L20.1109 476.419C10.2719 485.944 3.60495 498.265 1.03095 511.711C-5.28205 546.811 18.0439 580.38 53.1329 586.693C60.7019 588.051 68.4439 588.051 76.0129 586.693C89.4589 584.109 101.77 577.442 111.285 567.603L420.444 258.475C449.15 266.723 479.832 264.696 507.2 252.74C538.571 239.304 563.558 214.317 576.994 182.946C588.951 155.577 590.977 124.895 582.729 96.189ZM65.8799 547.175C51.8869 547.175 40.5479 535.836 40.5479 521.843C40.5479 507.85 51.8859 496.511 65.8799 496.511C79.8739 496.511 91.2119 507.85 91.2119 521.843C91.2119 535.837 79.8739 547.175 65.8799 547.175Z" fill="#4398D1"/>
<path d="M116.534 440.792L339.453 217.873C347.843 209.483 361.451 209.483 369.851 217.873L369.861 217.883C378.251 226.273 378.251 239.881 369.861 248.281L146.942 471.2C138.552 479.59 124.944 479.59 116.544 471.2L116.534 471.19C108.144 462.79 108.144 449.182 116.534 440.792Z" fill="#3E8CC7"/>
</g>
<defs>
<clipPath id="clip0">
<rect width="587.717" height="587.717" fill="white"/>
</clipPath>
</defs>
</svg>
