<svg width="588" height="588" fill="none" xmlns="http://www.w3.org/2000/svg"><g clip-path="url(#clip0)"><path d="M162.141 70.938l-30.398 30.398-30.398 30.399-30.398 30.398 403.281 403.281 12.159-48.637h30.398v-30.398l48.698-12.098L162.141 70.938z" fill="#E34B87"/><path d="M576.801 527.69l-49.103 49.103 60.016 10.913-10.913-60.016z" fill="#3269A1"/><path d="M565.483 474.281l-48.698 12.098v30.398h-30.398l-12.159 48.637 2.027 2.027 51.443 9.352 49.103-49.103-9.352-51.444-1.966-1.965zM131.74 40.544l-91.193 91.193 30.4 30.401 91.194-91.194-30.401-30.4z" fill="#FDA72F"/><path d="M64.502.009C28.886.009.018 28.877.018 64.493a64.451 64.451 0 0018.887 45.597l21.643 21.643 91.194-91.194-21.643-21.643A64.452 64.452 0 0064.502.009z" fill="#C1C7C9"/><path d="M47.864 77.474a70.66 70.66 0 01-18.816-66.815C-.691 30.225-8.929 70.199 10.637 99.928a64.86 64.86 0 008.278 10.163l21.633 21.643 30.783-30.783-23.467-23.477z" fill="#B8BDBF"/><path d="M70.947 162.133l403.281 403.281 12.159-48.637-385.042-385.042-30.398 30.398z" fill="#BF3D75"/><path d="M385.052 293.859l-91.193 91.193 20.262 20.262 91.193-91.193-20.262-20.262z" fill="#BF3D75"/><path d="M582.729 96.189l-84.983 84.983c-11.876 11.865-31.107 11.865-42.983 0l-48.211-48.211c-11.865-11.865-11.865-31.118 0-42.983l84.983-84.983a128.243 128.243 0 00-86.756 5.735 132.79 132.79 0 00-69.794 69.794 128.237 128.237 0 00-5.735 86.756L20.11 476.419a66.537 66.537 0 00-19.08 35.292c-6.312 35.1 17.014 68.669 52.103 74.982a64.757 64.757 0 0022.88 0 66.527 66.527 0 0035.272-19.09l309.159-309.128a128.243 128.243 0 0086.756-5.735 132.79 132.79 0 0069.794-69.794 128.24 128.24 0 005.735-86.757zM65.879 547.175c-13.992 0-25.331-11.339-25.331-25.332s11.338-25.332 25.332-25.332c13.994 0 25.332 11.339 25.332 25.332 0 13.994-11.338 25.332-25.332 25.332z" fill="#4398D1"/><path d="M116.534 440.792l222.919-222.919c8.39-8.39 21.998-8.39 30.398 0l.01.01c8.39 8.39 8.39 21.998 0 30.398L146.942 471.2c-8.39 8.39-21.998 8.39-30.398 0l-.01-.01c-8.39-8.4-8.39-22.008 0-30.398z" fill="#3E8CC7"/></g><defs><clipPath id="clip0"><path fill="#fff" d="M0 0h587.717v587.717H0z"/></clipPath></defs></svg>