<svg width="512" height="512" fill="none" xmlns="http://www.w3.org/2000/svg"><path d="M254.933 21.333c-122.41 0-222.805 93.76-233.6 213.334h190.934v-64c0-8.619 5.205-16.427 13.163-19.712 7.978-3.286 17.151-1.472 23.253 4.629l85.333 85.333c8.341 8.342 8.341 21.824 0 30.166l-85.333 85.333c-6.102 6.101-15.275 7.915-23.253 4.629a21.334 21.334 0 01-13.163-19.712v-64H21.334c10.794 119.574 111.189 213.334 233.599 213.334C384.533 490.667 489.6 385.6 489.6 256c0-129.6-105.067-234.667-234.667-234.667z" fill="#4CAF50"/><path d="M489.6 256H340.267a21.277 21.277 0 01-6.251 15.083l-85.333 85.333a21.377 21.377 0 01-15.083 6.251c-2.752 0-5.525-.534-8.17-1.622a21.334 21.334 0 01-13.163-19.712v-64H21.334c10.794 119.574 111.189 213.334 233.599 213.334C384.533 490.667 489.6 385.6 489.6 256z" fill="#429846"/></svg>