<svg width="62" height="14" fill="none" xmlns="http://www.w3.org/2000/svg"><path d="M19.235 13.836V.272h.736v2.133c.087-.094.168-.195.24-.3A3.647 3.647 0 0123.539.04c1.678-.05 3.04.571 3.842 2.064a6.633 6.633 0 01.16 6.08c-.746 1.674-2.59 2.505-4.563 2.2A3.691 3.691 0 0120.03 8.44v5.395h-.796zm.736-8.766c.065.661.09 1.132.166 1.593.29 1.813 1.362 2.89 3.045 3.086a3.461 3.461 0 003.802-2.2 5.895 5.895 0 00-.13-4.848A3.39 3.39 0 0023.282.727a3.3 3.3 0 00-2.95 2.44 16.737 16.737 0 00-.36 1.903zM43.218 6.913a3.967 3.967 0 01-3.877 3.507c-3.085.155-4.533-1.894-4.763-4.258a6.823 6.823 0 01.6-3.757 4.193 4.193 0 014.364-2.34 4.007 4.007 0 013.556 3.051c.157.745.272 1.497.346 2.255h-8.11c-.15 2.143 1.002 3.867 2.635 4.282 2.033.501 3.772-.38 4.403-2.314.14-.496.395-.566.846-.426zm-7.884-2.229h7.248C42.537 2.4 41.114.747 39.186.722c-2.184-.035-3.757 1.558-3.852 3.962zM44.711 6.964h.711a2.85 2.85 0 001.673 2.454 4.373 4.373 0 003.797-.1 1.708 1.708 0 001.002-1.678 1.548 1.548 0 00-1.042-1.548c-.781-.29-1.613-.45-2.41-.706a17.656 17.656 0 01-2.424-.887c-1.282-.626-1.362-3.065.09-3.837a5.115 5.115 0 014.89-.075A2.575 2.575 0 0152.3 3.212h-.611c0-.03-.056-.055-.056-.085-.075-1.949-1.708-2.55-3.46-2.38a4.593 4.593 0 00-1.503.456 1.503 1.503 0 00-.872 1.503A1.503 1.503 0 0046.8 4.119c.771.28 1.578.46 2.37.68.635.176 1.296.291 1.913.502a2.26 2.26 0 011.552 2.038 2.41 2.41 0 01-1.297 2.505c-1.673.947-4.428.696-5.655-.501a3.34 3.34 0 01-.972-2.38zM61.652 3.212h-.666c0-.09-.036-.17-.046-.246A2.179 2.179 0 0059.167.873a4.373 4.373 0 00-2.81.135 1.708 1.708 0 00-1.237 1.628 1.573 1.573 0 001.202 1.583c1.002.31 2.029.5 3.046.781.33.08.654.178.971.296a2.504 2.504 0 01.136 4.663 5.576 5.576 0 01-4.509.045 3.125 3.125 0 01-1.883-3.035h.651a3.651 3.651 0 005.56 2.324 1.787 1.787 0 00.962-1.673 1.548 1.548 0 00-1.057-1.538c-.781-.29-1.613-.446-2.41-.701a17.75 17.75 0 01-2.439-.877c-1.252-.616-1.352-3.035.075-3.807a5.044 5.044 0 014.97-.055 2.62 2.62 0 011.257 2.57zM18.018 10.174a1.147 1.147 0 01-1.423-.541c-.816-1.222-1.718-2.39-2.585-3.582l-.375-.5c-1.032 1.382-2.064 2.71-3.006 4.087a1.102 1.102 0 01-1.352.53l3.872-5.194L9.547.281a1.197 1.197 0 011.428.5c.836 1.223 1.763 2.39 2.685 3.627.926-1.227 1.843-2.399 2.7-3.611a1.077 1.077 0 011.342-.501l-1.397 1.853c-.627.827-1.243 1.658-1.894 2.465a.501.501 0 000 .746c1.197 1.588 2.385 3.18 3.607 4.814zM34.457.231v.701a3.632 3.632 0 00-3.867 3.752v5.51h-.716V.271h.701v2.034C31.442.822 32.78.27 34.457.23zM0 4.91c.105-.501.17-1.047.316-1.558C1.182.272 4.714-1.011 7.143.898 8.565 2.015 8.92 3.598 8.85 5.38H.837c-.13 3.185 2.168 5.109 5.109 4.127A3.05 3.05 0 007.884 7.35c.156-.5.406-.586.882-.44a4.068 4.068 0 01-1.944 2.97 4.708 4.708 0 01-5.485-.701A4.934 4.934 0 01.105 6.282c0-.17-.065-.34-.1-.5A77.606 77.606 0 010 4.91zm.847-.216h7.248C8.05 2.385 6.592.747 4.648.732 2.484.702.937 2.305.842 4.684l.005.01z" fill="#fff"/></svg>