<svg width="55" height="55" fill="none" xmlns="http://www.w3.org/2000/svg"><path d="M0 27.5C0 12.312 12.312 0 27.5 0S55 12.312 55 27.5 42.688 55 27.5 55 0 42.688 0 27.5z" fill="#333"/><path d="M22 44a5.5 5.5 0 005.5-5.5V33H22a5.5 5.5 0 000 11z" fill="#0ACF83"/><path d="M16.5 27.5A5.5 5.5 0 0122 22h5.5v11H22a5.5 5.5 0 01-5.5-5.5z" fill="#A259FF"/><path d="M16.5 16.5A5.5 5.5 0 0122 11h5.5v11H22a5.5 5.5 0 01-5.5-5.5z" fill="#F24E1E"/><path d="M27.5 11H33a5.5 5.5 0 110 11h-5.5V11z" fill="#FF7262"/><path d="M38.5 27.5a5.5 5.5 0 11-11 0 5.5 5.5 0 0111 0z" fill="#1ABCFE"/></svg>