<svg width="48" height="48" fill="none" xmlns="http://www.w3.org/2000/svg"><path d="M24 0C10.747 0 0 11.017 0 24.608c0 10.872 6.877 20.096 16.413 23.35 1.2.227 1.64-.534 1.64-1.184 0-.587-.023-2.525-.033-4.581-6.677 1.488-8.086-2.904-8.086-2.904-1.092-2.844-2.665-3.6-2.665-3.6-2.177-1.528.165-1.496.165-1.496 2.41.173 3.679 2.535 3.679 2.535 2.14 3.762 5.614 2.675 6.984 2.046.215-1.59.837-2.676 1.523-3.29-5.33-.623-10.934-2.733-10.934-12.162 0-2.686.937-4.881 2.473-6.605-.25-.62-1.071-3.122.232-6.512 0 0 2.016-.661 6.602 2.523 1.914-.546 3.968-.82 6.007-.828 2.04.009 4.095.282 6.013.828 4.58-3.184 6.593-2.523 6.593-2.523 1.306 3.39.484 5.893.235 6.512 1.54 1.724 2.47 3.919 2.47 6.605 0 9.452-5.614 11.533-10.959 12.142.861.764 1.628 2.261 1.628 4.557 0 3.292-.027 5.942-.027 6.753 0 .655.432 1.422 1.648 1.18C41.132 44.697 48 35.476 48 24.608 48 11.017 37.255 0 24 0z" fill="#fff"/><path d="M9.16 35.162c-.052.121-.24.157-.41.074-.173-.08-.271-.244-.215-.365.052-.125.24-.16.413-.076.174.08.273.246.213.367zM10.131 36.263c-.114.108-.337.058-.489-.113-.157-.17-.186-.397-.07-.506.118-.108.334-.057.491.113.157.172.188.397.068.506zM11.076 37.666c-.147.104-.387.007-.535-.21-.147-.216-.147-.476.003-.58.149-.104.385-.01.535.204.147.22.147.48-.003.586zM12.37 39.022c-.131.147-.411.108-.616-.093-.21-.197-.268-.476-.136-.623.133-.148.414-.106.62.093.208.197.272.477.132.623zM14.155 39.809c-.058.19-.327.278-.599.197-.27-.084-.448-.307-.393-.5.056-.192.327-.283.6-.196.27.083.448.305.392.499zM16.115 39.955c.007.201-.223.368-.508.371-.286.007-.518-.156-.521-.353 0-.203.225-.368.511-.373.285-.006.518.155.518.355zM17.94 39.64c.034.196-.164.397-.447.45-.278.052-.535-.069-.57-.263-.035-.201.166-.403.444-.455.283-.05.537.068.573.267z" fill="#161514"/></svg>