<svg width="48" height="48" fill="none" xmlns="http://www.w3.org/2000/svg"><path d="M0 24C0 10.745 10.745 0 24 0s24 10.745 24 24-10.745 24-24 24S0 37.255 0 24z" fill="#fff"/><path d="M34.47 33.23H13.5a1.502 1.502 0 01-1.497-1.498V16.583c0-.813.663-1.497 1.498-1.497h20.968c.814 0 1.498.663 1.498 1.497v15.15c0 .834-.663 1.497-1.498 1.497z" fill="#E3E3E3"/><path opacity=".1" d="M14.999 33.23l8.965-7.21.064-.386-9.243-6.654-.022 13.93.236.32z" fill="#231F20"/><path d="M13.5 33.23a1.489 1.489 0 01-1.497-1.498v-15.17c0-.835.663-.984 1.498-.984.834 0 1.498.17 1.498.984V33.23H13.5z" fill="#D54B3D"/><path fill-rule="evenodd" clip-rule="evenodd" d="M12.003 16.562c0-.813.663-.984 1.498-.984.834 0 1.498.15 1.498.984V33.23H13.5a1.489 1.489 0 01-1.498-1.498v-15.17zm2.781 0c0-.45-.214-.77-1.283-.77-1.07 0-1.284.3-1.284.77v15.17c0 .706.578 1.284 1.284 1.284h1.284V16.562z" fill="#D72B27"/><path d="M34.47 33.23h-1.498V16.52c0-.835.663-.942 1.497-.942.835 0 1.498.107 1.498.941v15.235c0 .813-.663 1.476-1.498 1.476z" fill="#D54B3D"/><path fill-rule="evenodd" clip-rule="evenodd" d="M32.972 16.52c0-.835.663-.942 1.497-.942.835 0 1.498.107 1.498.941v15.235c0 .834-.663 1.497-1.498 1.497h-1.497V16.52zm2.781 0c0-.536-.32-.728-1.284-.728-.962 0-1.283.17-1.283.727v16.518h1.283c.707 0 1.284-.577 1.284-1.283V16.519z" fill="#D72B27"/><path d="M28.05 33.23L12.129 17.184l.838.34 11.083 7.982 11.918-8.74v14.988c0 .813-.663 1.476-1.497 1.476h-6.42z" fill="url(#paint0_linear)"/><path d="M23.964 26.02l-11.319-8.217c-.663-.492-.856-1.434-.364-2.097a1.552 1.552 0 012.14-.32l9.564 6.953 9.629-7.04a1.488 1.488 0 012.097.343 1.488 1.488 0 01-.343 2.097l-11.404 8.28z" fill="#D54B3D"/><path fill-rule="evenodd" clip-rule="evenodd" d="M33.592 15.278c.257-.192.578-.278.878-.278.47 0 .92.214 1.22.642.47.685.32 1.605-.343 2.097L23.964 26.04l-11.319-8.238c-.663-.492-.856-1.434-.385-2.097.3-.406.77-.62 1.24-.62.322 0 .643.085.9.278l9.564 6.954 9.628-7.04zm1.926.47a1.307 1.307 0 00-1.048-.534c-.279 0-.535.086-.77.235l-9.608 7.04-.128.085-.128-.085-9.543-6.933a1.237 1.237 0 00-.77-.256c-.429 0-.835.213-1.07.534-.407.557-.257 1.37.32 1.798l11.19 8.13 11.277-8.216c.556-.428.685-1.22.278-1.797z" fill="#D72B27"/><defs><linearGradient id="paint0_linear" x1="12.129" y1="33.232" x2="35.975" y2="33.232" gradientUnits="userSpaceOnUse"><stop stop-opacity=".1"/><stop offset="1" stop-opacity=".2"/></linearGradient></defs></svg>