<svg width="48" height="48" viewBox="0 0 48 48" fill="none" xmlns="http://www.w3.org/2000/svg">
<path d="M0 24C0 10.7452 10.7452 0 24 0C37.2548 0 48 10.7452 48 24C48 37.2548 37.2548 48 24 48C10.7452 48 0 37.2548 0 24Z" fill="white"/>
<path d="M24.0001 17.6214C25.953 17.6214 27.2704 18.465 28.0215 19.1699L30.9566 16.3041C29.1539 14.6285 26.8081 13.6001 24.0001 13.6001C19.9326 13.6001 16.4197 15.9343 14.7095 19.3317L18.0721 21.9432C18.9157 19.4357 21.2499 17.6214 24.0001 17.6214Z" fill="#EA4335"/>
<path d="M33.984 24.2312C33.984 23.3761 33.9147 22.7521 33.7644 22.105H24V25.9645H29.7316C29.616 26.9236 28.992 28.3681 27.6053 29.3388L30.8871 31.881C32.8516 30.0668 33.984 27.3974 33.984 24.2312Z" fill="#4285F4"/>
<path d="M18.0837 26.0569C17.8641 25.4098 17.737 24.7164 17.737 24C17.737 23.2835 17.8641 22.5902 18.0721 21.9431L14.7094 19.3315C14.0045 20.7413 13.6001 22.3244 13.6001 24C13.6001 25.6755 14.0045 27.2587 14.7094 28.6684L18.0837 26.0569Z" fill="#FBBC05"/>
<path d="M24.0001 34.4002C26.8081 34.4002 29.1654 33.4758 30.8872 31.8811L27.6054 29.3389C26.7272 29.9514 25.5485 30.3789 24.0001 30.3789C21.2498 30.3789 18.9156 28.5647 18.0836 26.0571L14.7209 28.6687C16.4312 32.066 19.9325 34.4002 24.0001 34.4002Z" fill="#34A853"/>
</svg>
