<svg width="50" height="50" viewBox="0 0 50 50" fill="none" xmlns="http://www.w3.org/2000/svg">
    <g clip-path="url(#clip0)">
    <path d="M39.5834 25.0002C39.5834 29.5002 37.5417 33.6668 34.0209 36.4585C32.5834 37.5835 31.6459 39.0627 31.3542 40.646C31.3126 40.6252 31.2917 40.6252 31.2501 40.6252H18.7501C18.7084 40.6252 18.6459 40.6252 18.6042 40.646C18.3126 39.0002 17.4584 37.5627 16.2292 36.646C11.6876 33.2085 9.56257 27.5835 10.7292 21.9168C11.8751 16.396 16.3542 11.896 21.8751 10.7502C26.2709 9.81265 30.7709 10.896 34.1876 13.6668C37.6251 16.4585 39.5834 20.5835 39.5834 25.0002Z" fill="#FFC107"/>
    <path d="M31.354 40.6458C31.2915 41 31.2498 41.3542 31.2498 41.7292V46.3542C31.2498 48.3542 29.604 50 27.604 50H22.3957C20.6457 50 18.7498 48.6667 18.7498 45.75V42.0625C18.7498 41.5833 18.7082 41.1042 18.604 40.6458C18.6457 40.625 18.7082 40.625 18.7498 40.625H31.2498C31.2915 40.625 31.3123 40.625 31.354 40.6458Z" fill="#607D8B"/>
    <path d="M29.6875 43.75H20.3125C19.45 43.75 18.75 43.05 18.75 42.1875C18.75 41.325 19.45 40.625 20.3125 40.625H29.6875C30.55 40.625 31.25 41.325 31.25 42.1875C31.25 43.05 30.55 43.75 29.6875 43.75Z" fill="black"/>
    <path d="M25 7.20208C24.1375 7.20208 23.4375 6.50208 23.4375 5.63958V1.5625C23.4375 0.7 24.1375 0 25 0C25.8625 0 26.5625 0.7 26.5625 1.5625V5.63958C26.5625 6.50208 25.8625 7.20208 25 7.20208Z" fill="#EAECEF"/>
    <path d="M38.6894 12.8729C38.2894 12.8729 37.8894 12.7208 37.5853 12.4146C36.9748 11.8042 36.9748 10.8146 37.5853 10.2042L40.4686 7.32085C41.079 6.71043 42.0686 6.71043 42.679 7.32085C43.2894 7.93127 43.2894 8.92085 42.679 9.53126L39.7957 12.4146C39.4894 12.7188 39.0894 12.8729 38.6894 12.8729Z" fill="#EAECEF"/>
    <path d="M48.4375 26.5625H44.3604C43.4979 26.5625 42.7979 25.8625 42.7979 25C42.7979 24.1375 43.4979 23.4375 44.3604 23.4375H48.4375C49.3 23.4375 50 24.1375 50 25C50 25.8625 49.3 26.5625 48.4375 26.5625Z" fill="#EAECEF"/>
    <path d="M41.5727 43.1354C41.1727 43.1354 40.7727 42.9833 40.4686 42.677L37.5853 39.7937C36.9748 39.1833 36.9748 38.1937 37.5853 37.5833C38.1957 36.9729 39.1852 36.9729 39.7957 37.5833L42.679 40.4666C43.2894 41.077 43.2894 42.0666 42.679 42.677C42.3727 42.9833 41.9727 43.1354 41.5727 43.1354Z" fill="#EAECEF"/>
    <path d="M8.42721 43.1354C8.02721 43.1354 7.62721 42.9833 7.32305 42.677C6.71263 42.0666 6.71263 41.077 7.32305 40.4666L10.2064 37.5833C10.8168 36.9729 11.8064 36.9729 12.4168 37.5833C13.0272 38.1937 13.0272 39.1833 12.4168 39.7937L9.53346 42.677C9.22721 42.9833 8.82721 43.1354 8.42721 43.1354Z" fill="#EAECEF"/>
    <path d="M5.63958 26.5625H1.5625C0.7 26.5625 0 25.8625 0 25C0 24.1375 0.7 23.4375 1.5625 23.4375H5.63958C6.50208 23.4375 7.20208 24.1375 7.20208 25C7.20208 25.8625 6.50208 26.5625 5.63958 26.5625Z" fill="#EAECEF"/>
    <path d="M11.3105 12.8729C10.9105 12.8729 10.5105 12.7208 10.2064 12.4146L7.32305 9.53126C6.71263 8.92085 6.71263 7.93127 7.32305 7.32085C7.93346 6.71043 8.92304 6.71043 9.53346 7.32085L12.4168 10.2042C13.0272 10.8146 13.0272 11.8042 12.4168 12.4146C12.1085 12.7188 11.7105 12.8729 11.3105 12.8729Z" fill="#EAECEF"/>
    <path d="M32.8127 26.0417C31.9502 26.0417 31.2502 25.3417 31.2502 24.4792C31.2502 21.3187 28.6814 18.75 25.521 18.75C24.6585 18.75 23.9585 18.05 23.9585 17.1875C23.9585 16.325 24.6585 15.625 25.521 15.625C30.4022 15.625 34.3751 19.5979 34.3751 24.4792C34.3751 25.3417 33.6751 26.0417 32.8127 26.0417Z" fill="black"/>
    <path d="M27.6042 50H22.3959C20.6396 50 18.75 48.6667 18.75 45.7417V42.0667C18.75 39.8563 17.8084 37.8271 16.2313 36.6396C11.6792 33.2125 9.57294 27.575 10.7334 21.9271C11.8688 16.3938 16.3459 11.9 21.8729 10.7438C26.2688 9.81879 30.7646 10.8896 34.1938 13.6771C37.6188 16.4605 39.5834 20.5875 39.5834 25C39.5834 29.4959 37.5521 33.6688 34.0104 36.4542C32.2563 37.8334 31.25 39.7542 31.25 41.723V46.3542C31.25 48.3646 29.6146 50 27.6042 50ZM24.9709 13.5459C24.1542 13.5459 23.3313 13.6313 22.5084 13.8021C18.1834 14.7063 14.6813 18.223 13.7917 22.5542C12.8771 27.0063 14.5313 31.448 18.1084 34.1417C20.4646 35.9167 21.8729 38.8792 21.8729 42.0667V45.7417C21.8729 45.9313 21.8979 46.875 22.3938 46.875H27.6021C27.8896 46.875 28.1229 46.6417 28.1229 46.3542V41.723C28.1229 38.7875 29.5646 35.973 32.0771 33.9959C34.8625 31.8084 36.4584 28.5292 36.4584 25C36.4584 21.5334 34.9125 18.2896 32.2209 16.1021C30.1625 14.4313 27.6104 13.5459 24.9709 13.5459Z" fill="black"/>
    </g>
    <defs>
    <clipPath id="clip0">
    <rect width="50" height="50" fill="white"/>
    </clipPath>
    </defs>
    </svg>
