<svg width="512" height="512" viewBox="0 0 512 512" fill="none" xmlns="http://www.w3.org/2000/svg">
<g clip-path="url(#clip0)">
<path d="M405.333 256C405.333 302.08 384.427 344.747 348.373 373.333C333.653 384.853 324.053 400 321.067 416.213C320.64 416 320.427 416 320 416H192C191.573 416 190.933 416 190.507 416.213C187.52 399.36 178.773 384.64 166.187 375.253C119.68 340.053 97.92 282.453 109.867 224.427C121.6 167.893 167.467 121.813 224 110.08C269.013 100.48 315.093 111.573 350.08 139.947C385.28 168.533 405.333 210.773 405.333 256Z" fill="#FFC107"/>
<path d="M321.067 416.213C320.427 419.84 320 423.467 320 427.307V474.667C320 495.147 303.147 512 282.667 512H229.333C211.413 512 192 498.347 192 468.48V430.72C192 425.813 191.573 420.907 190.507 416.213C190.933 416 191.573 416 192 416H320C320.427 416 320.64 416 321.067 416.213Z" fill="#607D8B"/>
<path d="M304 448H208C199.168 448 192 440.832 192 432C192 423.168 199.168 416 208 416H304C312.832 416 320 423.168 320 432C320 440.832 312.832 448 304 448Z" fill="black"/>
<path d="M256 73.7493C247.168 73.7493 240 66.5813 240 57.7493V16C240 7.168 247.168 0 256 0C264.832 0 272 7.168 272 16V57.7493C272 66.5813 264.832 73.7493 256 73.7493Z" fill="black"/>
<path d="M396.181 131.819C392.085 131.819 387.989 130.261 384.875 127.125C378.624 120.875 378.624 110.741 384.875 104.491L414.4 74.9653C420.651 68.7147 430.784 68.7147 437.035 74.9653C443.285 81.216 443.285 91.3493 437.035 97.6L407.509 127.125C404.373 130.24 400.277 131.819 396.181 131.819Z" fill="black"/>
<path d="M496 272H454.251C445.419 272 438.251 264.832 438.251 256C438.251 247.168 445.419 240 454.251 240H496C504.832 240 512 247.168 512 256C512 264.832 504.832 272 496 272Z" fill="black"/>
<path d="M425.707 441.707C421.611 441.707 417.515 440.149 414.4 437.013L384.875 407.488C378.624 401.237 378.624 391.104 384.875 384.853C391.125 378.603 401.259 378.603 407.509 384.853L437.035 414.379C443.285 420.629 443.285 430.763 437.035 437.013C433.899 440.149 429.803 441.707 425.707 441.707Z" fill="black"/>
<path d="M86.2934 441.707C82.1974 441.707 78.1014 440.149 74.9867 437.013C68.736 430.763 68.736 420.629 74.9867 414.379L104.512 384.853C110.763 378.603 120.896 378.603 127.147 384.853C133.397 391.104 133.397 401.237 127.147 407.488L97.6214 437.013C94.4854 440.149 90.3894 441.707 86.2934 441.707Z" fill="black"/>
<path d="M57.7493 272H16C7.168 272 0 264.832 0 256C0 247.168 7.168 240 16 240H57.7493C66.5813 240 73.7493 247.168 73.7493 256C73.7493 264.832 66.5813 272 57.7493 272Z" fill="black"/>
<path d="M115.819 131.819C111.723 131.819 107.627 130.261 104.512 127.125L74.9867 97.6C68.736 91.3493 68.736 81.216 74.9867 74.9653C81.2374 68.7147 91.3707 68.7147 97.6214 74.9653L127.147 104.491C133.397 110.741 133.397 120.875 127.147 127.125C123.989 130.24 119.915 131.819 115.819 131.819Z" fill="black"/>
<path d="M336 266.667C327.168 266.667 320 259.499 320 250.667C320 218.304 293.696 192 261.333 192C252.501 192 245.333 184.832 245.333 176C245.333 167.168 252.501 160 261.333 160C311.317 160 352 200.683 352 250.667C352 259.499 344.832 266.667 336 266.667Z" fill="black"/>
<path d="M282.667 512H229.333C211.349 512 192 498.347 192 468.395V430.763C192 408.128 182.357 387.349 166.208 375.189C119.595 340.096 98.0267 282.368 109.909 224.533C121.536 167.872 167.381 121.856 223.979 110.016C268.992 100.544 315.029 111.509 350.144 140.053C385.216 168.555 405.333 210.816 405.333 256C405.333 302.037 384.533 344.768 348.267 373.291C330.304 387.413 320 407.083 320 427.243V474.667C320 495.253 303.253 512 282.667 512ZM255.701 138.709C247.339 138.709 238.912 139.584 230.485 141.333C186.197 150.592 150.336 186.603 141.227 230.955C131.861 276.544 148.8 322.027 185.429 349.611C209.557 367.787 223.979 398.123 223.979 430.763V468.395C223.979 470.336 224.235 480 229.312 480H282.645C285.589 480 287.979 477.611 287.979 474.667V427.243C287.979 397.184 302.741 368.363 328.469 348.117C356.992 325.717 373.333 292.139 373.333 256C373.333 220.501 357.504 187.285 329.941 164.885C308.864 147.776 282.731 138.709 255.701 138.709Z" fill="black"/>
</g>
<defs>
<clipPath id="clip0">
<rect width="512" height="512" fill="white"/>
</clipPath>
</defs>
</svg>
