<svg width="48" height="48" fill="none" xmlns="http://www.w3.org/2000/svg"><path d="M0 24C0 10.745 10.745 0 24 0s24 10.745 24 24-10.745 24-24 24S0 37.255 0 24z" fill="#fff"/><mask id="a" maskUnits="userSpaceOnUse" x="0" y="0" width="48" height="48"><path fill-rule="evenodd" clip-rule="evenodd" d="M0 24C0 10.745 10.745 0 24 0s24 10.745 24 24-10.745 24-24 24S0 37.255 0 24z" fill="#fff"/></mask><g mask="url(#a)"><path fill-rule="evenodd" clip-rule="evenodd" d="M24.001 11.2c-3.476 0-3.912.015-5.278.077-1.363.063-2.293.279-3.106.595a6.27 6.27 0 00-2.268 1.476 6.283 6.283 0 00-1.477 2.267c-.318.814-.534 1.745-.595 3.107-.061 1.365-.077 1.802-.077 5.278 0 3.476.015 3.911.077 5.277.063 1.362.279 2.293.595 3.106a6.272 6.272 0 001.476 2.268 6.27 6.27 0 002.267 1.477c.814.317 1.745.532 3.107.595 1.365.062 1.801.077 5.278.077 3.476 0 3.911-.015 5.276-.077 1.363-.063 2.294-.278 3.109-.595a6.264 6.264 0 002.266-1.477 6.284 6.284 0 001.477-2.267c.315-.814.53-1.745.595-3.107.061-1.365.077-1.8.077-5.277 0-3.476-.016-3.912-.077-5.278-.064-1.363-.28-2.293-.595-3.107a6.282 6.282 0 00-1.477-2.267 6.256 6.256 0 00-2.267-1.476c-.816-.316-1.747-.532-3.11-.595-1.365-.062-1.8-.077-5.277-.077h.004zm-.427 2.307h.427c3.418 0 3.823.012 5.172.073 1.249.057 1.926.266 2.377.441.597.232 1.023.51 1.471.957.448.449.725.875.958 1.473.175.45.384 1.127.44 2.375.062 1.35.075 1.755.075 5.171 0 3.416-.013 3.822-.074 5.17-.057 1.249-.266 1.926-.441 2.377a3.959 3.959 0 01-.958 1.47 3.959 3.959 0 01-1.471.958c-.45.176-1.128.384-2.377.44-1.349.062-1.754.075-5.172.075-3.418 0-3.823-.013-5.172-.074-1.248-.058-1.925-.266-2.377-.441a3.966 3.966 0 01-1.472-.958 3.967 3.967 0 01-.958-1.471c-.175-.45-.384-1.128-.44-2.376-.062-1.35-.074-1.755-.074-5.173s.012-3.821.073-5.17c.057-1.249.266-1.926.441-2.377.232-.598.51-1.024.958-1.472a3.974 3.974 0 011.472-.958c.451-.176 1.129-.384 2.377-.441 1.18-.054 1.638-.07 4.024-.072v.003h.721zm5.724 3.66a1.536 1.536 0 113.071 0 1.536 1.536 0 01-3.071 0zm-5.297.26a6.574 6.574 0 10.001 13.147 6.574 6.574 0 00-.001-13.147zM28.268 24a4.267 4.267 0 10-8.534 0 4.267 4.267 0 008.534 0z" fill="#000"/></g></svg>