<svg width="1920" height="1080" fill="none" xmlns="http://www.w3.org/2000/svg"><g opacity=".2" stroke-width="5" clip-path="url(#clip0)"><path opacity=".96" d="M491.104 34.136l3.114-25.357c.234-1.91 2.448-2.85 3.985-1.692l20.404 15.375c1.537 1.158 1.244 3.546-.528 4.298l-23.517 9.982c-1.771.752-3.692-.695-3.458-2.606z" stroke="#FF2D92"/><path opacity=".99" d="M301.922 124.252l21.699 7.472c1.82.626 2.279 2.988.826 4.25l-17.32 15.057c-1.453 1.262-3.727.479-4.094-1.41l-4.379-22.528c-.368-1.889 1.448-3.467 3.268-2.841z" stroke="#FF2D92"/><path opacity=".86" d="M1770.66 294.954l.87 16.432c.1 1.922-1.92 3.232-3.64 2.359l-14.66-7.471c-1.71-.873-1.84-3.276-.22-4.324l13.8-8.962c1.61-1.048 3.75.044 3.85 1.966z" stroke="#FF2D92"/><path opacity=".78" d="M1559.67 364.352l1.06 12.078c.17 1.917-1.8 3.297-3.55 2.484l-10.99-5.124c-1.74-.813-1.95-3.21-.37-4.314l9.93-6.954c1.57-1.104 3.75-.087 3.92 1.83z" stroke="#FF2D92"/><path opacity=".87" d="M1375.25 562.49l16.48 7.686c1.75.813 1.96 3.209.38 4.313l-14.9 10.432c-1.57 1.104-3.75.087-3.92-1.83l-1.59-18.118c-.16-1.917 1.81-3.297 3.55-2.483z" stroke="#FF2D92"/><path opacity=".91" d="M1119.05 613.894l15.42 11.199c1.56 1.131 1.3 3.523-.45 4.306l-17.41 7.749c-1.76.783-3.7-.631-3.5-2.545l1.99-18.948c.2-1.914 2.4-2.892 3.95-1.761z" stroke="#FF2D92"/><path d="M796.448 733.303l-10.431-22.369c-.813-1.744.567-3.715 2.484-3.547l24.588 2.151c1.917.168 2.933 2.348 1.83 3.925l-14.157 20.218c-1.104 1.576-3.501 1.367-4.314-.378z" stroke="#FF2D92"/><path opacity=".93" d="M645.37 931.374l-10.684 14.179c-1.158 1.537-3.546 1.244-4.298-.528l-6.937-16.342c-.752-1.771.696-3.693 2.606-3.458l17.621 2.163c1.911.235 2.851 2.449 1.692 3.986z" stroke="#FF2D92"/><path opacity=".82" d="M392.694 1005.27l-28.643 17.9c-1.632 1.02-3.756-.11-3.823-2.03l-1.179-33.756c-.067-1.923 1.973-3.198 3.672-2.294l29.822 15.86c1.699.9 1.783 3.3.151 4.32z" stroke="#FF2D92"/><path opacity=".89" d="M1291.89 122.379l20.04 23.883c1.24 1.474.42 3.735-1.48 4.069l-30.7 5.414c-1.9.334-3.44-1.509-2.78-3.317l10.66-29.297c.66-1.809 3.03-2.226 4.26-.752z" stroke="#C521FF"/><path opacity=".75" d="M906.724 174.682l-7.574 17.01c-.782 1.758-3.175 2.009-4.306.452L883.9 177.081c-1.131-1.557-.153-3.755 1.761-3.956l18.518-1.946c1.914-.202 3.328 1.745 2.545 3.503z" stroke="#C521FF"/><path opacity=".78" d="M746.503 302.412l-25.923 18.834c-1.557 1.131-3.755.153-3.956-1.761l-3.349-31.868c-.201-1.914 1.745-3.328 3.503-2.545l29.273 13.033c1.758.783 2.009 3.176.452 4.307z" stroke="#C521FF"/><path opacity=".84" d="M621.512 393.088l3.613-11.119c.595-1.83 2.948-2.33 4.236-.9l7.823 8.688c1.287 1.431.544 3.718-1.338 4.119l-11.436 2.43c-1.883.401-3.492-1.387-2.898-3.218z" stroke="#C521FF"/><path opacity=".94" d="M324.547 502.098l-1.314-25.08c-.101-1.922 1.917-3.232 3.631-2.359l22.378 11.402c1.714.874 1.84 3.276.226 4.324l-21.063 13.679c-1.614 1.048-3.757-.044-3.858-1.966z" stroke="#C521FF"/><path opacity=".75" d="M122.515 732.086l-9.501 29.24c-.595 1.83-2.948 2.33-4.235.9l-20.572-22.847c-1.288-1.431-.544-3.718 1.338-4.119l30.072-6.392c1.883-.4 3.492 1.388 2.898 3.218z" stroke="#C521FF"/><path opacity=".74" d="M1807.12 720.708l-29.83-13.908c-1.74-.813-1.95-3.21-.37-4.313l26.95-18.876c1.58-1.104 3.76-.087 3.93 1.83l2.87 32.784c.16 1.917-1.81 3.297-3.55 2.483z" stroke="#C521FF"/><path opacity=".82" d="M1541.7 844.349l-10.37 28.483c-.66 1.809-3.03 2.226-4.26.752l-19.49-23.219c-1.23-1.475-.41-3.735 1.49-4.069l29.85-5.264c1.89-.334 3.44 1.509 2.78 3.317z" stroke="#C521FF"/><path opacity=".71" d="M1443.16 857.77l5.87-30.179c.37-1.889 2.64-2.672 4.09-1.409l23.21 20.17c1.45 1.262.99 3.624-.83 4.25l-29.07 10.009c-1.82.627-3.63-.951-3.27-2.841z" stroke="#C521FF"/><path opacity=".94" d="M1213.08 1085.84l-26.35-1.85c-1.92-.13-2.97-2.29-1.9-3.89l14.77-21.9c1.08-1.59 3.48-1.42 4.32.31l11.58 23.74c.85 1.73-.5 3.72-2.42 3.59z" stroke="#C521FF"/><path opacity=".93" d="M648.021 110.232l-18.377 17.747c-1.385 1.337-3.697.674-4.163-1.193l-6.18-24.789c-.466-1.867 1.265-3.538 3.115-3.008l24.558 7.042c1.85.53 2.432 2.865 1.047 4.201z" stroke="#2FDAE4"/><path opacity=".91" d="M1575.24 29.014l7.01-5.09c1.56-1.131 3.75-.153 3.95 1.761l.91 8.613c.2 1.914-1.75 3.328-3.5 2.545l-7.92-3.522c-1.75-.783-2.01-3.175-.45-4.307z" stroke="#2FDAE4"/><path opacity=".85" d="M563.347 182.678l-9.179 14.689c-1.02 1.632-3.424 1.548-4.327-.151l-8.132-15.293c-.903-1.699.371-3.739 2.295-3.672l17.31.604c1.923.067 3.052 2.191 2.033 3.823z" stroke="#2FDAE4"/><path opacity=".89" d="M1410.31 215.831l11.72 15.562c1.16 1.537.22 3.751-1.69 3.986l-19.34 2.375c-1.91.234-3.36-1.687-2.6-3.459l7.61-17.936c.75-1.772 3.14-2.065 4.3-.528z" stroke="#2FDAE4"/><path opacity=".81" d="M264.279 335.315l-.95 9.044c-.201 1.914-2.399 2.892-3.956 1.761l-7.356-5.345c-1.557-1.131-1.306-3.524.452-4.306l8.307-3.699c1.758-.783 3.705.631 3.503 2.545z" stroke="#2FDAE4"/><path opacity=".89" d="M1165.58 354.458l-5.95 19.462c-.57 1.841-2.91 2.382-4.22.974l-13.88-14.884c-1.31-1.407-.61-3.708 1.26-4.141l19.83-4.578c1.88-.433 3.52 1.326 2.96 3.167zM96.994 448.955l-5.085 15.649c-.594 1.831-2.947 2.331-4.235.901l-11.01-12.228c-1.288-1.431-.544-3.719 1.338-4.119l16.095-3.421c1.882-.4 3.492 1.388 2.897 3.218z" stroke="#2FDAE4"/><path opacity=".75" d="M1035.07 387.362l-14.24-6.341c-1.76-.783-2.01-3.175-.46-4.306l12.62-9.163c1.55-1.131 3.75-.153 3.95 1.761l1.63 15.503c.2 1.914-1.74 3.328-3.5 2.546z" stroke="#2FDAE4"/><path opacity=".98" d="M1696.42 444.218l-24.56-8.458c-1.82-.627-2.28-2.988-.83-4.251l19.61-17.045c1.45-1.262 3.73-.479 4.1 1.41l4.95 25.503c.37 1.89-1.45 3.468-3.27 2.841z" stroke="#2FDAE4"/><path opacity=".81" d="M838.268 475.662l4.142-19.483c.4-1.882 2.688-2.626 4.118-1.338l14.802 13.328c1.43 1.288.93 3.641-.9 4.236l-18.944 6.155c-1.83.595-3.618-1.015-3.218-2.898z" stroke="#2FDAE4"/><path opacity=".95" d="M1590.42 575.25l-5.85-10.125c-.96-1.667.24-3.75 2.17-3.75h11.69c1.92 0 3.13 2.083 2.16 3.75l-5.84 10.125c-.96 1.666-3.37 1.666-4.33 0z" stroke="#2FDAE4"/><path opacity=".98" d="M602.848 710.463l-25.1-22.6c-1.43-1.288-.93-3.641.9-4.235l32.122-10.437c1.831-.595 3.618 1.015 3.218 2.897l-7.022 33.037c-.4 1.882-2.688 2.626-4.118 1.338z" stroke="#2FDAE4"/><path opacity=".72" d="M1452.86 655.137l33.46 7.112c1.88.401 2.62 2.688 1.34 4.119l-22.89 25.421c-1.29 1.43-3.64.93-4.24-.9l-10.57-32.534c-.59-1.83 1.02-3.618 2.9-3.218z" stroke="#2FDAE4"/><path opacity=".94" d="M425.596 787.199l-8.235 17.66c-.813 1.744-3.21 1.954-4.313.377l-11.177-15.961c-1.104-1.577-.087-3.757 1.83-3.925l19.412-1.698c1.917-.168 3.297 1.803 2.483 3.547z" stroke="#2FDAE4"/><path opacity=".91" d="M1205.02 733.809l29.65 6.302c1.88.4 2.62 2.688 1.34 4.118l-20.29 22.526c-1.28 1.43-3.64.93-4.23-.901l-9.37-28.827c-.59-1.83 1.02-3.618 2.9-3.218z" stroke="#2FDAE4"/><path opacity=".75" d="M123.85 822.438l10.097-16.157c1.02-1.632 3.424-1.548 4.327.151l8.945 16.822c.903 1.7-.371 3.74-2.295 3.673l-19.041-.665c-1.923-.068-3.052-2.192-2.033-3.824z" stroke="#2FDAE4"/><path opacity=".97" d="M911.655 939.338l-11.599 22.763c-.874 1.715-3.276 1.841-4.324.227l-13.914-21.426c-1.048-1.614.044-3.758 1.966-3.858l25.512-1.337c1.922-.101 3.232 1.916 2.359 3.631z" stroke="#2FDAE4"/><path opacity=".77" d="M1722.17 825.21l20.68-4.773c1.87-.433 3.51 1.326 2.95 3.167l-6.2 20.29c-.57 1.841-2.91 2.382-4.22.974l-14.47-15.517c-1.32-1.408-.61-3.708 1.26-4.141z" stroke="#2FDAE4"/><path opacity=".76" d="M824.081 965.92l28.326-18.395c1.614-1.048 3.757.044 3.858 1.966l1.768 33.729c.1 1.921-1.917 3.232-3.632 2.358l-30.094-15.334c-1.714-.873-1.84-3.276-.226-4.324z" stroke="#2FDAE4"/><path opacity=".7" d="M1657.27 1013.28l10.86 28.3c.69 1.8-.83 3.67-2.73 3.37l-29.94-4.75c-1.9-.3-2.76-2.54-1.55-4.04l19.08-23.55c1.21-1.5 3.59-1.12 4.28.67z" stroke="#2FDAE4"/><path opacity=".72" d="M82.592 74.15l33.754-1.18c1.923-.067 3.198 1.974 2.295 3.673l-15.857 29.821c-.903 1.699-3.307 1.783-4.327.151L80.559 77.973c-1.02-1.632.11-3.757 2.033-3.824z" stroke="#3FDE9C"/><path opacity=".8" d="M634.718 37.2l6.767 19.652c.626 1.82-.952 3.636-2.841 3.268l-20.403-3.965c-1.889-.368-2.672-2.642-1.409-4.095l13.635-15.686c1.263-1.453 3.624-.994 4.251.826z" stroke="#3FDE9C"/><path opacity=".73" d="M938.435 14.252l-9.419-4.393c-1.744-.813-1.954-3.21-.377-4.313l8.513-5.96c1.576-1.105 3.756-.088 3.924 1.829l.906 10.353c.168 1.917-1.803 3.297-3.547 2.483z" stroke="#3FDE9C"/><path opacity=".81" d="M1425.49 4.767l15.3 2.974c1.89.368 2.67 2.642 1.41 4.095L1431.97 23.6c-1.26 1.453-3.62.994-4.25-.826l-5.07-14.739c-.63-1.82.95-3.635 2.84-3.268z" stroke="#3FDE9C"/><path opacity=".74" d="M269.597 163.159l-11.167 26.307c-.752 1.771-3.14 2.064-4.298.527l-17.199-22.824c-1.158-1.537-.218-3.751 1.692-3.985l28.366-3.483c1.91-.235 3.357 1.686 2.606 3.458z" stroke="#3FDE9C"/><path opacity=".94" d="M623.501 149.446l-5.762-23.108c-.465-1.868 1.265-3.539 3.115-3.008l22.893 6.564c1.85.531 2.432 2.865 1.048 4.202l-17.132 16.543c-1.384 1.337-3.697.674-4.162-1.193z" stroke="#3FDE9C"/><path opacity=".86" d="M1133.22 129.684l29.1 12.351c1.77.752 2.06 3.139.53 4.298l-25.25 19.023c-1.53 1.158-3.75.218-3.98-1.692l-3.86-31.374c-.23-1.91 1.69-3.358 3.46-2.606z" stroke="#3FDE9C"/><path opacity=".97" d="M1519.62 175.227l21.78-16.418c1.54-1.158 3.75-.218 3.99 1.692l3.32 27.077c.24 1.91-1.68 3.358-3.45 2.606l-25.12-10.659c-1.77-.752-2.06-3.14-.52-4.298z" stroke="#3FDE9C"/><path opacity=".82" d="M21.777 270.437L45.07 268.4c1.918-.168 3.297 1.802 2.484 3.547l-9.882 21.191c-.813 1.745-3.21 1.954-4.313.378l-13.412-19.154c-1.104-1.577-.087-3.757 1.83-3.925z" stroke="#3FDE9C"/><path opacity=".95" d="M581.485 260.89l-26.684-5.672c-1.882-.4-2.625-2.688-1.338-4.118l18.254-20.273c1.288-1.43 3.641-.93 4.236.9l8.43 25.945c.594 1.83-1.015 3.618-2.898 3.218z" stroke="#3FDE9C"/><path opacity=".72" d="M999.556 274.195l-4.169 33.953c-.234 1.91-2.449 2.85-3.986 1.692l-27.319-20.587c-1.537-1.158-1.244-3.546.527-4.298l31.489-13.366c1.771-.752 3.693.696 3.458 2.606z" stroke="#3FDE9C"/><path opacity=".75" d="M1379.17 251.755l10.37 4.399c1.77.752 2.06 3.14.52 4.298l-8.99 6.775c-1.53 1.159-3.75.219-3.98-1.692l-1.38-11.174c-.23-1.91 1.69-3.358 3.46-2.606z" stroke="#3FDE9C"/><path opacity=".71" d="M1901.14 286.035v18.62c0 1.924-2.09 3.127-3.75 2.165l-16.13-9.31c-1.67-.962-1.67-3.368 0-4.33l16.13-9.31c1.66-.962 3.75.241 3.75 2.165z" stroke="#3FDE9C"/><path d="M277.041 436.607l-2.933 11.765c-.465 1.867-2.778 2.53-4.162 1.193l-8.722-8.422c-1.384-1.337-.802-3.671 1.048-4.202l11.655-3.342c1.85-.53 3.58 1.141 3.114 3.008z" stroke="#3FDE9C"/><path opacity=".7" d="M738.709 436.104l-3.718-19.128c-.367-1.889 1.449-3.467 3.268-2.841l18.424 6.344c1.82.627 2.279 2.988.827 4.251l-14.706 12.783c-1.453 1.263-3.727.48-4.095-1.409z" stroke="#3FDE9C"/><path opacity=".85" d="M1289.17 424.683l18.09 21.561c1.24 1.474.42 3.735-1.48 4.069l-27.72 4.887c-1.89.334-3.44-1.508-2.78-3.317l9.62-26.448c.66-1.809 3.03-2.226 4.27-.752z" stroke="#3FDE9C"/><path opacity=".82" d="M1617.46 363.555l17.51-12.726c1.56-1.131 3.76-.152 3.96 1.762l2.26 21.532c.2 1.914-1.74 3.328-3.5 2.545l-19.78-8.806c-1.76-.783-2.01-3.175-.45-4.307z" stroke="#3FDE9C"/><path opacity=".89" d="M-14.936 514.048l-6.842-32.19c-.4-1.883 1.388-3.492 3.218-2.898l31.298 10.17c1.83.595 2.33 2.948.9 4.235l-24.456 22.021c-1.43 1.288-3.718.544-4.118-1.338z" stroke="#3FDE9C"/><path opacity=".95" d="M640.408 509.646l-5.184 14.242c-.658 1.808-3.027 2.226-4.264.752l-9.742-11.61c-1.237-1.474-.414-3.735 1.481-4.069l14.925-2.632c1.895-.334 3.442 1.509 2.784 3.317z" stroke="#3FDE9C"/><path d="M1079.94 536.745l28.05-5.453c1.89-.367 3.47 1.449 2.84 3.268l-9.3 27.022c-.63 1.82-2.99 2.279-4.25.826l-18.75-21.568c-1.26-1.453-.48-3.727 1.41-4.095z" stroke="#3FDE9C"/><path opacity=".81" d="M1457.21 511.526l4.68-7.794c.99-1.65 3.4-1.608 4.33.075l4.41 7.954c.93 1.683-.3 3.745-2.23 3.711l-9.09-.158c-1.92-.034-3.09-2.138-2.1-3.788z" stroke="#3FDE9C"/><path opacity=".93" d="M1853.6 470.517l9.15-7.954c1.45-1.262 3.73-.479 4.09 1.41l2.32 11.902c.36 1.889-1.45 3.467-3.27 2.84l-11.46-3.947c-1.82-.627-2.28-2.988-.83-4.251z" stroke="#3FDE9C"/><path d="M262.737 732.098l-26.398.922c-1.923.067-3.198-1.973-2.294-3.672l12.4-23.322c.904-1.699 3.308-1.783 4.328-.151l13.997 22.4c1.02 1.632-.11 3.756-2.033 3.823z" stroke="#3FDE9C"/><path opacity=".88" d="M717.841 703.767l-23.004 6.164c-1.859.498-3.56-1.203-3.062-3.062l6.164-23.004c.498-1.859 2.821-2.481 4.182-1.12l16.841 16.84c1.36 1.361.738 3.684-1.121 4.182z" stroke="#3FDE9C"/><path opacity=".89" d="M1083.62 656.784l9.55-33.299c.53-1.85 2.86-2.432 4.2-1.048l24.06 24.919c1.34 1.385.67 3.697-1.19 4.163l-33.62 8.38c-1.86.466-3.53-1.265-3-3.115z" stroke="#3FDE9C"/><path opacity=".93" d="M1656.79 678.284l-9.59 15.96c-.99 1.65-3.4 1.608-4.33-.075l-9.03-16.285c-.93-1.684.31-3.746 2.23-3.712l18.62.325c1.92.033 3.09 2.137 2.1 3.787z" stroke="#3FDE9C"/><path opacity=".77" d="M51.34 784.22l-4.198 7.574c-.933 1.684-3.338 1.726-4.33.076l-4.46-7.423c-.991-1.65.175-3.754 2.1-3.788l8.658-.151c1.925-.033 3.163 2.029 2.23 3.712z" stroke="#3FDE9C"/><path opacity=".86" d="M425.437 733.814l3.114-25.357c.234-1.91 2.448-2.85 3.985-1.692l20.404 15.375c1.537 1.158 1.244 3.546-.528 4.298l-23.517 9.982c-1.771.752-3.692-.696-3.458-2.606z" stroke="#3FDE9C"/><path opacity=".94" d="M889.196 749.668l19.315 10.706c1.683.933 1.725 3.339.076 4.33l-18.93 11.374c-1.649.991-3.753-.175-3.787-2.1l-.385-22.08c-.034-1.924 2.028-3.163 3.711-2.23z" stroke="#3FDE9C"/><path opacity=".86" d="M1398.09 827.771l-15.51-14.471c-1.41-1.312-.87-3.656.97-4.219l20.29-6.203c1.84-.563 3.6 1.078 3.17 2.953l-4.78 20.674c-.43 1.875-2.73 2.578-4.14 1.266z" stroke="#3FDE9C"/><path opacity=".72" d="M1860.51 739.482l25.84 5.491c1.88.4 2.63 2.688 1.34 4.118l-17.68 19.63c-1.28 1.43-3.64.93-4.23-.901l-8.16-25.121c-.6-1.83 1.01-3.618 2.89-3.217z" stroke="#3FDE9C"/><path opacity=".87" d="M241.359 876.301l-7.127-9.809c-1.131-1.557-.152-3.754 1.762-3.955l12.057-1.268c1.914-.201 3.328 1.745 2.546 3.503l-4.932 11.077c-.783 1.758-3.175 2.009-4.306.452z" stroke="#3FDE9C"/><path opacity=".98" d="M693.768 855.312l20.376-21.851c1.313-1.408 3.657-.867 4.219.974l8.736 28.572c.562 1.841-1.078 3.6-2.953 3.167l-29.112-6.721c-1.876-.433-2.579-2.734-1.266-4.141z" stroke="#3FDE9C"/><path d="M1056.33 917.173l11.14-32.344c.63-1.82 2.99-2.279 4.25-.827l22.44 25.817c1.26 1.453.48 3.727-1.41 4.095l-33.58 6.527c-1.89.367-3.46-1.448-2.84-3.268zM1572.03 872.297l10.01 29.069c.63 1.82-.95 3.635-2.84 3.268l-30.18-5.866c-1.89-.367-2.67-2.642-1.41-4.094l20.17-23.203c1.26-1.452 3.62-.993 4.25.826z" stroke="#3FDE9C"/><path opacity=".88" d="M182.685 1065.62l-8.028-13.36c-.991-1.65.175-3.75 2.099-3.79l15.586-.27c1.924-.03 3.163 2.03 2.23 3.71l-7.557 13.64c-.933 1.68-3.338 1.72-4.33.07z" stroke="#3FDE9C"/><path opacity=".83" d="M604.805 1039.58l29.04 13.54c1.745.81 1.954 3.21.378 4.31l-26.248 18.38c-1.577 1.11-3.757.09-3.925-1.83l-2.792-31.92c-.168-1.91 1.802-3.29 3.547-2.48z" stroke="#3FDE9C"/><path opacity=".92" d="M1053.9 946.637l9.24-16.664c.93-1.683 3.34-1.725 4.33-.075l9.81 16.331c.99 1.65-.17 3.754-2.1 3.787l-19.05.333c-1.92.033-3.16-2.029-2.23-3.712z" stroke="#3FDE9C"/><path opacity=".82" d="M1284.79 986.117l4.86-12.045c.73-1.784 3.11-2.119 4.29-.602l8 10.236c1.18 1.517.28 3.747-1.62 4.015l-12.87 1.808c-1.9.268-3.38-1.628-2.66-3.412z" stroke="#3FDE9C"/><path opacity=".92" d="M1798.06 1058.84l-17.03 11.92c-1.58 1.1-3.76.08-3.92-1.83l-1.82-20.71c-.16-1.92 1.81-3.3 3.55-2.48l18.84 8.78c1.74.82 1.95 3.21.38 4.32z" stroke="#3FDE9C"/><circle opacity=".82" cx="1435.45" cy="103.445" r="5" transform="rotate(55 1435.45 103.445)" stroke="#3FDE9C"/><circle opacity=".97" cx="32.389" cy="490.611" r="7.4" transform="rotate(-118 32.389 490.611)" stroke="#3FDE9C"/><circle opacity=".94" cx="658.938" cy="588.37" r="7.1" transform="rotate(55 658.938 588.37)" stroke="#3FDE9C"/><circle opacity=".88" cx="1345.84" cy="834.476" r="5.6" transform="rotate(-22 1345.84 834.476)" stroke="#3FDE9C"/><circle opacity=".88" cx="286.935" cy="40.468" r="4.4" transform="rotate(59 286.935 40.468)" stroke="#2FDAE4"/><circle opacity=".96" cx="623.991" cy="244.405" r="9.3" transform="rotate(166 623.991 244.405)" stroke="#2FDAE4"/><circle opacity=".91" cx="1475.81" cy="385.217" r="5.2" transform="rotate(-127 1475.81 385.217)" stroke="#2FDAE4"/><circle opacity=".94" cx="236.985" cy="799.686" r="5" transform="rotate(-69 236.985 799.686)" stroke="#2FDAE4"/><circle opacity=".86" cx="766.419" cy="954.156" r="4.4" transform="rotate(-110 766.419 954.156)" stroke="#2FDAE4"/><circle opacity=".79" cx="934.744" cy="170.4" r="5.6" transform="rotate(-43 934.744 170.4)" stroke="#C521FF"/><circle opacity=".89" cx="156.502" cy="308.744" r="7.6" transform="rotate(-173 156.502 308.744)" stroke="#C521FF"/><circle opacity=".94" cx="1267.69" cy="311.997" r="8.7" transform="rotate(-89 1267.69 311.997)" stroke="#C521FF"/><circle cx="825.02" cy="460.845" r="3.8" transform="rotate(-4 825.02 460.845)" stroke="#C521FF"/><circle opacity=".7" cx="77" cy="542.926" r="5.9" transform="rotate(-167 77 542.926)" stroke="#C521FF"/><circle opacity=".94" cx="1515.57" cy="700.255" r="6.6" transform="rotate(-82 1515.57 700.255)" stroke="#C521FF"/><circle opacity=".83" cx="721.298" cy="768.662" r="5.3" transform="rotate(110 721.298 768.662)" stroke="#C521FF"/><circle opacity=".76" cx="194.229" cy="921.555" r="7.7" transform="rotate(25 194.229 921.555)" stroke="#C521FF"/><circle opacity=".83" cx="1285.84" cy="937.978" r="8.7" transform="rotate(-56 1285.84 937.978)" stroke="#C521FF"/><circle opacity=".89" cx="392.107" cy="146.889" r="6.7" transform="rotate(-174 392.107 146.889)" stroke="#FF2D92"/><circle opacity=".77" cx="969.134" cy="100.512" r="5.5" transform="rotate(-168 969.134 100.512)" stroke="#FF2D92"/><circle opacity=".87" cx="1649.99" cy="149.704" r="6.7" transform="rotate(-19 1649.99 149.704)" stroke="#FF2D92"/><circle opacity=".93" cx="318.353" cy="188.614" r="7.9" transform="rotate(-123 318.353 188.614)" stroke="#FF2D92"/><circle opacity=".95" cx="1042.29" cy="335.265" r="8.4" transform="rotate(-108 1042.29 335.265)" stroke="#FF2D92"/><circle opacity=".79" cx="1609.95" cy="196.511" r="9.1" transform="rotate(64 1609.95 196.511)" stroke="#FF2D92"/><circle opacity=".93" cx="446.13" cy="379.45" r="8.6" transform="rotate(168 446.13 379.45)" stroke="#FF2D92"/><circle opacity=".76" cx="1002.64" cy="553.752" r="8.7" transform="rotate(51 1002.64 553.752)" stroke="#FF2D92"/><circle opacity=".95" cx="1664.99" cy="409.515" r="9.5" transform="rotate(-75 1664.99 409.515)" stroke="#FF2D92"/><circle opacity=".99" cx="499.608" cy="553.482" r="6.4" transform="rotate(-71 499.608 553.482)" stroke="#FF2D92"/><circle opacity=".8" cx="1229.54" cy="650.863" r="5.2" transform="rotate(49 1229.54 650.863)" stroke="#FF2D92"/></g><defs><clipPath id="clip0"><path fill="#fff" d="M0 0h1920v1080H0z"/></clipPath></defs></svg>