<svg width="1920" height="1080" viewBox="0 0 1920 1080" fill="none" xmlns="http://www.w3.org/2000/svg">
<g clip-path="url(#clip0)">
<g opacity="0.2">
<path opacity="0.96" d="M491.104 34.1363L494.218 8.77899C494.452 6.86884 496.666 5.92888 498.203 7.08708L518.607 22.4621C520.144 23.6203 519.851 26.008 518.079 26.7599L494.562 36.7423C492.791 37.4942 490.87 36.0465 491.104 34.1363Z" stroke="#FF2D92" stroke-width="5"/>
<path opacity="0.99" d="M301.922 124.252L323.621 131.724C325.441 132.35 325.9 134.712 324.447 135.974L307.127 151.031C305.674 152.293 303.4 151.51 303.033 149.621L298.654 127.093C298.286 125.204 300.102 123.626 301.922 124.252Z" stroke="#FF2D92" stroke-width="5"/>
<path opacity="0.86" d="M1770.66 294.954L1771.53 311.386C1771.63 313.308 1769.61 314.618 1767.89 313.745L1753.23 306.274C1751.52 305.401 1751.39 302.998 1753.01 301.95L1766.81 292.988C1768.42 291.94 1770.56 293.032 1770.66 294.954Z" stroke="#FF2D92" stroke-width="5"/>
<path opacity="0.78" d="M1559.67 364.352L1560.73 376.43C1560.9 378.347 1558.93 379.727 1557.18 378.914L1546.19 373.79C1544.45 372.977 1544.24 370.58 1545.82 369.476L1555.75 362.522C1557.32 361.418 1559.5 362.435 1559.67 364.352Z" stroke="#FF2D92" stroke-width="5"/>
<path opacity="0.87" d="M1375.25 562.49L1391.73 570.176C1393.48 570.989 1393.69 573.385 1392.11 574.489L1377.21 584.921C1375.64 586.025 1373.46 585.008 1373.29 583.091L1371.7 564.973C1371.54 563.056 1373.51 561.676 1375.25 562.49Z" stroke="#FF2D92" stroke-width="5"/>
<path opacity="0.91" d="M1119.05 613.894L1134.47 625.093C1136.03 626.224 1135.77 628.616 1134.02 629.399L1116.61 637.148C1114.85 637.931 1112.91 636.517 1113.11 634.603L1115.1 615.655C1115.3 613.741 1117.5 612.763 1119.05 613.894Z" stroke="#FF2D92" stroke-width="5"/>
<path d="M796.448 733.303L786.017 710.934C785.204 709.19 786.584 707.219 788.501 707.387L813.089 709.538C815.006 709.706 816.022 711.886 814.919 713.463L800.762 733.681C799.658 735.257 797.261 735.048 796.448 733.303Z" stroke="#FF2D92" stroke-width="5"/>
<path opacity="0.93" d="M645.37 931.374L634.686 945.553C633.528 947.09 631.14 946.797 630.388 945.025L623.451 928.683C622.699 926.912 624.147 924.99 626.057 925.225L643.678 927.388C645.589 927.623 646.529 929.837 645.37 931.374Z" stroke="#FF2D92" stroke-width="5"/>
<path opacity="0.82" d="M392.694 1005.27L364.051 1023.17C362.419 1024.19 360.295 1023.06 360.228 1021.14L359.049 987.384C358.982 985.461 361.022 984.186 362.721 985.09L392.543 1000.95C394.242 1001.85 394.326 1004.25 392.694 1005.27Z" stroke="#FF2D92" stroke-width="5"/>
<path opacity="0.89" d="M1291.89 122.379L1311.93 146.262C1313.17 147.736 1312.35 149.997 1310.45 150.331L1279.75 155.745C1277.85 156.079 1276.31 154.236 1276.97 152.428L1287.63 123.131C1288.29 121.322 1290.66 120.905 1291.89 122.379Z" stroke="#C521FF" stroke-width="5"/>
<path opacity="0.75" d="M906.724 174.682L899.15 191.692C898.368 193.45 895.975 193.701 894.844 192.144L883.9 177.081C882.769 175.524 883.747 173.326 885.661 173.125L904.179 171.179C906.093 170.977 907.507 172.924 906.724 174.682Z" stroke="#C521FF" stroke-width="5"/>
<path opacity="0.78" d="M746.503 302.412L720.58 321.246C719.023 322.377 716.825 321.399 716.624 319.485L713.275 287.617C713.074 285.703 715.02 284.289 716.778 285.072L746.051 298.105C747.809 298.888 748.06 301.281 746.503 302.412Z" stroke="#C521FF" stroke-width="5"/>
<path opacity="0.84" d="M621.512 393.088L625.125 381.969C625.72 380.139 628.073 379.639 629.361 381.069L637.184 389.757C638.471 391.188 637.728 393.475 635.846 393.876L624.41 396.306C622.527 396.707 620.918 394.919 621.512 393.088Z" stroke="#C521FF" stroke-width="5"/>
<path opacity="0.94" d="M324.547 502.098L323.233 477.018C323.132 475.096 325.15 473.786 326.864 474.659L349.242 486.061C350.956 486.935 351.082 489.337 349.468 490.385L328.405 504.064C326.791 505.112 324.648 504.02 324.547 502.098Z" stroke="#C521FF" stroke-width="5"/>
<path opacity="0.75" d="M122.515 732.086L113.014 761.326C112.419 763.156 110.066 763.656 108.779 762.226L88.207 739.379C86.9192 737.948 87.6626 735.661 89.5451 735.26L119.617 728.868C121.5 728.468 123.109 730.256 122.515 732.086Z" stroke="#C521FF" stroke-width="5"/>
<path opacity="0.74" d="M1807.12 720.708L1777.29 706.8C1775.55 705.987 1775.34 703.59 1776.92 702.487L1803.87 683.611C1805.45 682.507 1807.63 683.524 1807.8 685.441L1810.67 718.225C1810.83 720.142 1808.86 721.522 1807.12 720.708Z" stroke="#C521FF" stroke-width="5"/>
<path opacity="0.82" d="M1541.7 844.349L1531.33 872.832C1530.67 874.641 1528.3 875.058 1527.07 873.584L1507.58 850.365C1506.35 848.89 1507.17 846.63 1509.07 846.296L1538.92 841.032C1540.81 840.698 1542.36 842.541 1541.7 844.349Z" stroke="#C521FF" stroke-width="5"/>
<path opacity="0.71" d="M1443.16 857.77L1449.03 827.591C1449.4 825.702 1451.67 824.919 1453.12 826.182L1476.33 846.352C1477.78 847.614 1477.32 849.976 1475.5 850.602L1446.43 860.611C1444.61 861.238 1442.8 859.66 1443.16 857.77Z" stroke="#C521FF" stroke-width="5"/>
<path opacity="0.94" d="M1213.08 1085.84L1186.73 1083.99C1184.81 1083.86 1183.76 1081.7 1184.83 1080.1L1199.6 1058.2C1200.68 1056.61 1203.08 1056.78 1203.92 1058.51L1215.5 1082.25C1216.35 1083.98 1215 1085.97 1213.08 1085.84Z" stroke="#C521FF" stroke-width="5"/>
<path opacity="0.93" d="M648.021 110.232L629.644 127.979C628.259 129.316 625.947 128.653 625.481 126.786L619.301 101.997C618.835 100.13 620.566 98.4585 622.416 98.989L646.974 106.031C648.824 106.561 649.406 108.896 648.021 110.232Z" stroke="#2FDAE4" stroke-width="5"/>
<path opacity="0.91" d="M1575.24 29.0143L1582.25 23.924C1583.81 22.7928 1586 23.7712 1586.2 25.6852L1587.11 34.298C1587.31 36.212 1585.36 37.626 1583.61 36.8432L1575.69 33.3207C1573.94 32.538 1573.68 30.1455 1575.24 29.0143Z" stroke="#2FDAE4" stroke-width="5"/>
<path opacity="0.85" d="M563.347 182.678L554.168 197.367C553.148 198.999 550.744 198.915 549.841 197.216L541.709 181.923C540.806 180.224 542.08 178.184 544.004 178.251L561.314 178.855C563.237 178.922 564.366 181.046 563.347 182.678Z" stroke="#2FDAE4" stroke-width="5"/>
<path opacity="0.89" d="M1410.31 215.831L1422.03 231.393C1423.19 232.93 1422.25 235.144 1420.34 235.379L1401 237.754C1399.09 237.988 1397.64 236.067 1398.4 234.295L1406.01 216.359C1406.76 214.587 1409.15 214.294 1410.31 215.831Z" stroke="#2FDAE4" stroke-width="5"/>
<path opacity="0.81" d="M264.279 335.315L263.329 344.359C263.128 346.273 260.93 347.251 259.373 346.12L252.017 340.775C250.46 339.644 250.711 337.251 252.469 336.469L260.776 332.77C262.534 331.987 264.481 333.401 264.279 335.315Z" stroke="#2FDAE4" stroke-width="5"/>
<path opacity="0.89" d="M1165.58 354.458L1159.63 373.92C1159.06 375.761 1156.72 376.302 1155.41 374.894L1141.53 360.01C1140.22 358.603 1140.92 356.302 1142.79 355.869L1162.62 351.291C1164.5 350.858 1166.14 352.617 1165.58 354.458Z" stroke="#2FDAE4" stroke-width="5"/>
<path opacity="0.89" d="M96.9942 448.955L91.9095 464.604C91.3148 466.435 88.9618 466.935 87.674 465.505L76.6638 453.277C75.3761 451.846 76.1195 449.558 78.0019 449.158L94.0968 445.737C95.9793 445.337 97.5889 447.125 96.9942 448.955Z" stroke="#2FDAE4" stroke-width="5"/>
<path opacity="0.75" d="M1035.07 387.362L1020.83 381.021C1019.07 380.238 1018.82 377.846 1020.37 376.715L1032.99 367.552C1034.54 366.421 1036.74 367.399 1036.94 369.313L1038.57 384.816C1038.77 386.73 1036.83 388.144 1035.07 387.362Z" stroke="#2FDAE4" stroke-width="5"/>
<path opacity="0.98" d="M1696.42 444.218L1671.86 435.76C1670.04 435.133 1669.58 432.772 1671.03 431.509L1690.64 414.464C1692.09 413.202 1694.37 413.985 1694.74 415.874L1699.69 441.377C1700.06 443.267 1698.24 444.845 1696.42 444.218Z" stroke="#2FDAE4" stroke-width="5"/>
<path opacity="0.81" d="M838.268 475.662L842.41 456.179C842.81 454.297 845.098 453.553 846.528 454.841L861.33 468.169C862.76 469.457 862.26 471.81 860.43 472.405L841.486 478.56C839.656 479.155 837.868 477.545 838.268 475.662Z" stroke="#2FDAE4" stroke-width="5"/>
<path opacity="0.95" d="M1590.42 575.25L1584.57 565.125C1583.61 563.458 1584.81 561.375 1586.74 561.375H1598.43C1600.35 561.375 1601.56 563.458 1600.59 565.125L1594.75 575.25C1593.79 576.916 1591.38 576.916 1590.42 575.25Z" stroke="#2FDAE4" stroke-width="5"/>
<path opacity="0.98" d="M602.848 710.463L577.748 687.863C576.318 686.575 576.818 684.222 578.648 683.628L610.77 673.191C612.601 672.596 614.388 674.206 613.988 676.088L606.966 709.125C606.566 711.007 604.278 711.751 602.848 710.463Z" stroke="#2FDAE4" stroke-width="5"/>
<path opacity="0.72" d="M1452.86 655.137L1486.32 662.249C1488.2 662.65 1488.94 664.937 1487.66 666.368L1464.77 691.789C1463.48 693.219 1461.13 692.719 1460.53 690.889L1449.96 658.355C1449.37 656.525 1450.98 654.737 1452.86 655.137Z" stroke="#2FDAE4" stroke-width="5"/>
<path opacity="0.94" d="M425.596 787.199L417.361 804.859C416.548 806.603 414.151 806.813 413.048 805.236L401.871 789.275C400.767 787.698 401.784 785.518 403.701 785.35L423.113 783.652C425.03 783.484 426.41 785.455 425.596 787.199Z" stroke="#2FDAE4" stroke-width="5"/>
<path opacity="0.91" d="M1205.02 733.809L1234.67 740.111C1236.55 740.511 1237.29 742.799 1236.01 744.229L1215.72 766.755C1214.44 768.185 1212.08 767.685 1211.49 765.854L1202.12 737.027C1201.53 735.197 1203.14 733.409 1205.02 733.809Z" stroke="#2FDAE4" stroke-width="5"/>
<path opacity="0.75" d="M123.85 822.438L133.947 806.281C134.967 804.649 137.371 804.733 138.274 806.432L147.219 823.254C148.122 824.954 146.848 826.994 144.924 826.927L125.883 826.262C123.96 826.194 122.831 824.07 123.85 822.438Z" stroke="#2FDAE4" stroke-width="5"/>
<path opacity="0.97" d="M911.655 939.338L900.056 962.101C899.182 963.816 896.78 963.942 895.732 962.328L881.818 940.902C880.77 939.288 881.862 937.144 883.784 937.044L909.296 935.707C911.218 935.606 912.528 937.623 911.655 939.338Z" stroke="#2FDAE4" stroke-width="5"/>
<path opacity="0.77" d="M1722.17 825.21L1742.85 820.437C1744.72 820.004 1746.36 821.763 1745.8 823.604L1739.6 843.894C1739.03 845.735 1736.69 846.276 1735.38 844.868L1720.91 829.351C1719.59 827.943 1720.3 825.643 1722.17 825.21Z" stroke="#2FDAE4" stroke-width="5"/>
<path opacity="0.76" d="M824.081 965.92L852.407 947.525C854.021 946.477 856.164 947.569 856.265 949.491L858.033 983.22C858.133 985.141 856.116 986.452 854.401 985.578L824.307 970.244C822.593 969.371 822.467 966.968 824.081 965.92Z" stroke="#2FDAE4" stroke-width="5"/>
<path opacity="0.7" d="M1657.27 1013.28L1668.13 1041.58C1668.82 1043.38 1667.3 1045.25 1665.4 1044.95L1635.46 1040.2C1633.56 1039.9 1632.7 1037.66 1633.91 1036.16L1652.99 1012.61C1654.2 1011.11 1656.58 1011.49 1657.27 1013.28Z" stroke="#2FDAE4" stroke-width="5"/>
<path opacity="0.72" d="M82.5916 74.1493L116.346 72.9706C118.269 72.9034 119.544 74.9435 118.641 76.6427L102.784 106.464C101.881 108.163 99.4766 108.247 98.4568 106.615L80.5588 77.9726C79.5389 76.3405 80.6683 74.2164 82.5916 74.1493Z" stroke="#3FDE9C" stroke-width="5"/>
<path opacity="0.8" d="M634.718 37.2002L641.485 56.8524C642.111 58.672 640.533 60.4876 638.644 60.1204L618.241 56.1545C616.352 55.7873 615.569 53.5127 616.832 52.0603L630.467 36.3739C631.73 34.9215 634.091 35.3805 634.718 37.2002Z" stroke="#3FDE9C" stroke-width="5"/>
<path opacity="0.73" d="M938.435 14.2515L929.016 9.85949C927.272 9.04616 927.062 6.6497 928.639 5.54585L937.152 -0.41494C938.728 -1.51879 940.908 -0.502127 941.076 1.41505L941.982 11.7678C942.15 13.685 940.179 15.0648 938.435 14.2515Z" stroke="#3FDE9C" stroke-width="5"/>
<path opacity="0.81" d="M1425.49 4.76704L1440.79 7.74146C1442.68 8.10867 1443.46 10.3832 1442.2 11.8357L1431.97 23.6004C1430.71 25.0529 1428.35 24.5938 1427.72 22.7742L1422.65 8.03504C1422.02 6.21538 1423.6 4.39983 1425.49 4.76704Z" stroke="#3FDE9C" stroke-width="5"/>
<path opacity="0.74" d="M269.597 163.159L258.43 189.466C257.678 191.237 255.29 191.53 254.132 189.993L236.933 167.169C235.775 165.632 236.715 163.418 238.625 163.184L266.991 159.701C268.901 159.466 270.348 161.387 269.597 163.159Z" stroke="#3FDE9C" stroke-width="5"/>
<path opacity="0.94" d="M623.501 149.446L617.739 126.338C617.274 124.47 619.004 122.799 620.854 123.33L643.747 129.894C645.597 130.425 646.179 132.759 644.795 134.096L627.663 150.639C626.279 151.976 623.966 151.313 623.501 149.446Z" stroke="#3FDE9C" stroke-width="5"/>
<path opacity="0.86" d="M1133.22 129.684L1162.32 142.035C1164.09 142.787 1164.38 145.174 1162.85 146.333L1137.6 165.356C1136.07 166.514 1133.85 165.574 1133.62 163.664L1129.76 132.29C1129.53 130.38 1131.45 128.932 1133.22 129.684Z" stroke="#3FDE9C" stroke-width="5"/>
<path opacity="0.97" d="M1519.62 175.227L1541.4 158.809C1542.94 157.651 1545.15 158.591 1545.39 160.501L1548.71 187.578C1548.95 189.488 1547.03 190.936 1545.26 190.184L1520.14 179.525C1518.37 178.773 1518.08 176.385 1519.62 175.227Z" stroke="#3FDE9C" stroke-width="5"/>
<path opacity="0.82" d="M21.7767 270.437L45.0704 268.4C46.9876 268.232 48.3674 270.202 47.5541 271.947L37.6721 293.138C36.8588 294.883 34.4623 295.092 33.3585 293.516L19.9467 274.362C18.8429 272.785 19.8595 270.605 21.7767 270.437Z" stroke="#3FDE9C" stroke-width="5"/>
<path opacity="0.95" d="M581.485 260.89L554.801 255.218C552.919 254.818 552.176 252.53 553.463 251.1L571.717 230.827C573.005 229.397 575.358 229.897 575.953 231.727L584.383 257.672C584.977 259.502 583.368 261.29 581.485 260.89Z" stroke="#3FDE9C" stroke-width="5"/>
<path opacity="0.72" d="M999.556 274.195L995.387 308.148C995.153 310.058 992.938 310.998 991.401 309.84L964.082 289.253C962.545 288.095 962.838 285.707 964.609 284.955L996.098 271.589C997.869 270.837 999.791 272.285 999.556 274.195Z" stroke="#3FDE9C" stroke-width="5"/>
<path opacity="0.75" d="M1379.17 251.755L1389.54 256.154C1391.31 256.906 1391.6 259.294 1390.06 260.452L1381.07 267.227C1379.54 268.386 1377.32 267.446 1377.09 265.535L1375.71 254.361C1375.48 252.451 1377.4 251.003 1379.17 251.755Z" stroke="#3FDE9C" stroke-width="5"/>
<path opacity="0.71" d="M1901.14 286.035L1901.14 304.655C1901.14 306.579 1899.05 307.782 1897.39 306.82L1881.26 297.51C1879.59 296.548 1879.59 294.142 1881.26 293.18L1897.39 283.87C1899.05 282.908 1901.14 284.111 1901.14 286.035Z" stroke="#3FDE9C" stroke-width="5"/>
<path d="M277.041 436.607L274.108 448.372C273.643 450.239 271.33 450.902 269.946 449.565L261.224 441.143C259.84 439.806 260.422 437.472 262.272 436.941L273.927 433.599C275.777 433.069 277.507 434.74 277.041 436.607Z" stroke="#3FDE9C" stroke-width="5"/>
<path opacity="0.7" d="M738.709 436.104L734.991 416.976C734.624 415.087 736.44 413.509 738.259 414.135L756.683 420.479C758.503 421.106 758.962 423.467 757.51 424.73L742.804 437.513C741.351 438.776 739.077 437.993 738.709 436.104Z" stroke="#3FDE9C" stroke-width="5"/>
<path opacity="0.85" d="M1289.17 424.683L1307.26 446.244C1308.5 447.718 1307.68 449.979 1305.78 450.313L1278.06 455.2C1276.17 455.534 1274.62 453.692 1275.28 451.883L1284.9 425.435C1285.56 423.626 1287.93 423.209 1289.17 424.683Z" stroke="#3FDE9C" stroke-width="5"/>
<path opacity="0.82" d="M1617.46 363.555L1634.97 350.829C1636.53 349.698 1638.73 350.677 1638.93 352.591L1641.19 374.123C1641.39 376.037 1639.45 377.451 1637.69 376.668L1617.91 367.862C1616.15 367.079 1615.9 364.687 1617.46 363.555Z" stroke="#3FDE9C" stroke-width="5"/>
<path opacity="0.89" d="M-14.9358 514.048L-21.778 481.858C-22.1781 479.975 -20.3904 478.366 -18.5601 478.96L12.7382 489.13C14.5685 489.725 15.0687 492.078 13.6385 493.365L-10.8176 515.386C-12.2478 516.674 -14.5357 515.93 -14.9358 514.048Z" stroke="#3FDE9C" stroke-width="5"/>
<path opacity="0.95" d="M640.408 509.646L635.224 523.888C634.566 525.696 632.197 526.114 630.96 524.64L621.218 513.03C619.981 511.556 620.804 509.295 622.699 508.961L637.624 506.329C639.519 505.995 641.066 507.838 640.408 509.646Z" stroke="#3FDE9C" stroke-width="5"/>
<path d="M1079.94 536.745L1107.99 531.292C1109.88 530.925 1111.46 532.741 1110.83 534.56L1101.53 561.582C1100.9 563.402 1098.54 563.861 1097.28 562.408L1078.53 540.84C1077.27 539.387 1078.05 537.113 1079.94 536.745Z" stroke="#3FDE9C" stroke-width="5"/>
<path opacity="0.81" d="M1457.21 511.526L1461.89 503.732C1462.88 502.082 1465.29 502.124 1466.22 503.807L1470.63 511.761C1471.56 513.444 1470.33 515.506 1468.4 515.472L1459.31 515.314C1457.39 515.28 1456.22 513.176 1457.21 511.526Z" stroke="#3FDE9C" stroke-width="5"/>
<path opacity="0.93" d="M1853.6 470.517L1862.75 462.563C1864.2 461.301 1866.48 462.084 1866.84 463.973L1869.16 475.875C1869.52 477.764 1867.71 479.342 1865.89 478.715L1854.43 474.768C1852.61 474.141 1852.15 471.78 1853.6 470.517Z" stroke="#3FDE9C" stroke-width="5"/>
<path d="M262.737 732.098L236.339 733.02C234.416 733.087 233.141 731.047 234.045 729.348L246.445 706.026C247.349 704.327 249.753 704.243 250.773 705.875L264.77 728.275C265.79 729.907 264.66 732.031 262.737 732.098Z" stroke="#3FDE9C" stroke-width="5"/>
<path opacity="0.88" d="M717.841 703.767L694.837 709.931C692.978 710.429 691.277 708.728 691.775 706.869L697.939 683.865C698.437 682.006 700.76 681.384 702.121 682.745L718.962 699.585C720.322 700.946 719.7 703.269 717.841 703.767Z" stroke="#3FDE9C" stroke-width="5"/>
<path opacity="0.89" d="M1083.62 656.784L1093.17 623.485C1093.7 621.635 1096.03 621.053 1097.37 622.437L1121.43 647.356C1122.77 648.741 1122.1 651.053 1120.24 651.519L1086.62 659.899C1084.76 660.365 1083.09 658.634 1083.62 656.784Z" stroke="#3FDE9C" stroke-width="5"/>
<path opacity="0.93" d="M1656.79 678.284L1647.2 694.244C1646.21 695.894 1643.8 695.852 1642.87 694.169L1633.84 677.884C1632.91 676.2 1634.15 674.138 1636.07 674.172L1654.69 674.497C1656.61 674.53 1657.78 676.634 1656.79 678.284Z" stroke="#3FDE9C" stroke-width="5"/>
<path opacity="0.77" d="M51.3404 784.22L47.1419 791.794C46.2089 793.478 43.8036 793.52 42.8124 791.87L38.352 784.447C37.3609 782.797 38.5271 780.693 40.4513 780.659L49.1103 780.508C51.0345 780.475 52.2735 782.537 51.3404 784.22Z" stroke="#3FDE9C" stroke-width="5"/>
<path opacity="0.86" d="M425.437 733.814L428.551 708.457C428.785 706.547 430.999 705.607 432.536 706.765L452.94 722.14C454.477 723.298 454.184 725.686 452.412 726.438L428.895 736.42C427.124 737.172 425.203 735.724 425.437 733.814Z" stroke="#3FDE9C" stroke-width="5"/>
<path opacity="0.94" d="M889.196 749.668L908.511 760.374C910.194 761.307 910.236 763.713 908.587 764.704L889.657 776.078C888.008 777.069 885.904 775.903 885.87 773.978L885.485 751.898C885.451 749.974 887.513 748.735 889.196 749.668Z" stroke="#3FDE9C" stroke-width="5"/>
<path opacity="0.86" d="M1398.09 827.771L1382.58 813.3C1381.17 811.988 1381.71 809.644 1383.55 809.081L1403.84 802.878C1405.68 802.315 1407.44 803.956 1407.01 805.831L1402.23 826.505C1401.8 828.38 1399.5 829.083 1398.09 827.771Z" stroke="#3FDE9C" stroke-width="5"/>
<path opacity="0.72" d="M1860.51 739.482L1886.35 744.973C1888.23 745.373 1888.98 747.661 1887.69 749.091L1870.01 768.721C1868.73 770.151 1866.37 769.651 1865.78 767.82L1857.62 742.699C1857.02 740.869 1858.63 739.081 1860.51 739.482Z" stroke="#3FDE9C" stroke-width="5"/>
<path opacity="0.87" d="M241.359 876.301L234.232 866.492C233.101 864.935 234.08 862.738 235.994 862.537L248.051 861.269C249.965 861.068 251.379 863.014 250.597 864.772L245.665 875.849C244.882 877.607 242.49 877.858 241.359 876.301Z" stroke="#3FDE9C" stroke-width="5"/>
<path opacity="0.98" d="M693.768 855.312L714.144 833.461C715.457 832.053 717.801 832.594 718.363 834.435L727.099 863.007C727.661 864.848 726.021 866.607 724.146 866.174L695.034 859.453C693.158 859.02 692.455 856.719 693.768 855.312Z" stroke="#3FDE9C" stroke-width="5"/>
<path d="M1056.33 917.173L1067.47 884.829C1068.1 883.009 1070.46 882.55 1071.72 884.002L1094.16 909.819C1095.42 911.272 1094.64 913.546 1092.75 913.914L1059.17 920.441C1057.28 920.808 1055.71 918.993 1056.33 917.173Z" stroke="#3FDE9C" stroke-width="5"/>
<path d="M1572.03 872.297L1582.04 901.366C1582.67 903.186 1581.09 905.001 1579.2 904.634L1549.02 898.768C1547.13 898.401 1546.35 896.126 1547.61 894.674L1567.78 871.471C1569.04 870.019 1571.4 870.478 1572.03 872.297Z" stroke="#3FDE9C" stroke-width="5"/>
<path opacity="0.88" d="M182.685 1065.62L174.657 1052.26C173.666 1050.61 174.832 1048.51 176.756 1048.47L192.342 1048.2C194.266 1048.17 195.505 1050.23 194.572 1051.91L187.015 1065.55C186.082 1067.23 183.677 1067.27 182.685 1065.62Z" stroke="#3FDE9C" stroke-width="5"/>
<path opacity="0.83" d="M604.805 1039.58L633.845 1053.12C635.59 1053.93 635.799 1056.33 634.223 1057.43L607.975 1075.81C606.398 1076.92 604.218 1075.9 604.05 1073.98L601.258 1042.06C601.09 1040.15 603.06 1038.77 604.805 1039.58Z" stroke="#3FDE9C" stroke-width="5"/>
<path opacity="0.92" d="M1053.9 946.637L1063.14 929.973C1064.07 928.29 1066.48 928.248 1067.47 929.898L1077.28 946.229C1078.27 947.879 1077.11 949.983 1075.18 950.016L1056.13 950.349C1054.21 950.382 1052.97 948.32 1053.9 946.637Z" stroke="#3FDE9C" stroke-width="5"/>
<path opacity="0.82" d="M1284.79 986.117L1289.65 974.072C1290.38 972.288 1292.76 971.953 1293.94 973.47L1301.94 983.706C1303.12 985.223 1302.22 987.453 1300.32 987.721L1287.45 989.529C1285.55 989.797 1284.07 987.901 1284.79 986.117Z" stroke="#3FDE9C" stroke-width="5"/>
<path opacity="0.92" d="M1798.06 1058.84L1781.03 1070.76C1779.45 1071.86 1777.27 1070.84 1777.11 1068.93L1775.29 1048.22C1775.13 1046.3 1777.1 1044.92 1778.84 1045.74L1797.68 1054.52C1799.42 1055.34 1799.63 1057.73 1798.06 1058.84Z" stroke="#3FDE9C" stroke-width="5"/>
<circle opacity="0.82" cx="1435.45" cy="103.445" r="5" transform="rotate(55 1435.45 103.445)" stroke="#3FDE9C" stroke-width="5"/>
<circle opacity="0.97" cx="32.3888" cy="490.611" r="7.4" transform="rotate(-118 32.3888 490.611)" stroke="#3FDE9C" stroke-width="5"/>
<circle opacity="0.94" cx="658.938" cy="588.37" r="7.1" transform="rotate(55 658.938 588.37)" stroke="#3FDE9C" stroke-width="5"/>
<circle opacity="0.88" cx="1345.84" cy="834.476" r="5.6" transform="rotate(-22 1345.84 834.476)" stroke="#3FDE9C" stroke-width="5"/>
<circle opacity="0.88" cx="286.935" cy="40.4682" r="4.4" transform="rotate(59 286.935 40.4682)" stroke="#2FDAE4" stroke-width="5"/>
<circle opacity="0.96" cx="623.991" cy="244.405" r="9.3" transform="rotate(166 623.991 244.405)" stroke="#2FDAE4" stroke-width="5"/>
<circle opacity="0.91" cx="1475.81" cy="385.217" r="5.2" transform="rotate(-127 1475.81 385.217)" stroke="#2FDAE4" stroke-width="5"/>
<circle opacity="0.94" cx="236.985" cy="799.686" r="5" transform="rotate(-69 236.985 799.686)" stroke="#2FDAE4" stroke-width="5"/>
<circle opacity="0.86" cx="766.419" cy="954.156" r="4.4" transform="rotate(-110 766.419 954.156)" stroke="#2FDAE4" stroke-width="5"/>
<circle opacity="0.79" cx="934.744" cy="170.4" r="5.6" transform="rotate(-43 934.744 170.4)" stroke="#C521FF" stroke-width="5"/>
<circle opacity="0.89" cx="156.502" cy="308.744" r="7.6" transform="rotate(-173 156.502 308.744)" stroke="#C521FF" stroke-width="5"/>
<circle opacity="0.94" cx="1267.69" cy="311.997" r="8.7" transform="rotate(-89 1267.69 311.997)" stroke="#C521FF" stroke-width="5"/>
<circle cx="825.02" cy="460.845" r="3.8" transform="rotate(-4 825.02 460.845)" stroke="#C521FF" stroke-width="5"/>
<circle opacity="0.7" cx="77.0003" cy="542.926" r="5.9" transform="rotate(-167 77.0003 542.926)" stroke="#C521FF" stroke-width="5"/>
<circle opacity="0.94" cx="1515.57" cy="700.255" r="6.6" transform="rotate(-82 1515.57 700.255)" stroke="#C521FF" stroke-width="5"/>
<circle opacity="0.83" cx="721.298" cy="768.662" r="5.3" transform="rotate(110 721.298 768.662)" stroke="#C521FF" stroke-width="5"/>
<circle opacity="0.76" cx="194.229" cy="921.555" r="7.7" transform="rotate(25 194.229 921.555)" stroke="#C521FF" stroke-width="5"/>
<circle opacity="0.83" cx="1285.84" cy="937.978" r="8.7" transform="rotate(-56 1285.84 937.978)" stroke="#C521FF" stroke-width="5"/>
<circle opacity="0.89" cx="392.107" cy="146.889" r="6.7" transform="rotate(-174 392.107 146.889)" stroke="#FF2D92" stroke-width="5"/>
<circle opacity="0.77" cx="969.134" cy="100.512" r="5.5" transform="rotate(-168 969.134 100.512)" stroke="#FF2D92" stroke-width="5"/>
<circle opacity="0.87" cx="1649.99" cy="149.704" r="6.7" transform="rotate(-19 1649.99 149.704)" stroke="#FF2D92" stroke-width="5"/>
<circle opacity="0.93" cx="318.353" cy="188.614" r="7.9" transform="rotate(-123 318.353 188.614)" stroke="#FF2D92" stroke-width="5"/>
<circle opacity="0.95" cx="1042.29" cy="335.265" r="8.4" transform="rotate(-108 1042.29 335.265)" stroke="#FF2D92" stroke-width="5"/>
<circle opacity="0.79" cx="1609.95" cy="196.511" r="9.1" transform="rotate(64 1609.95 196.511)" stroke="#FF2D92" stroke-width="5"/>
<circle opacity="0.93" cx="446.13" cy="379.45" r="8.6" transform="rotate(168 446.13 379.45)" stroke="#FF2D92" stroke-width="5"/>
<circle opacity="0.76" cx="1002.64" cy="553.752" r="8.7" transform="rotate(51 1002.64 553.752)" stroke="#FF2D92" stroke-width="5"/>
<circle opacity="0.95" cx="1664.99" cy="409.515" r="9.5" transform="rotate(-75 1664.99 409.515)" stroke="#FF2D92" stroke-width="5"/>
<circle opacity="0.99" cx="499.608" cy="553.482" r="6.4" transform="rotate(-71 499.608 553.482)" stroke="#FF2D92" stroke-width="5"/>
<circle opacity="0.8" cx="1229.54" cy="650.863" r="5.2" transform="rotate(49 1229.54 650.863)" stroke="#FF2D92" stroke-width="5"/>
</g>
</g>
<defs>
<clipPath id="clip0">
<rect width="1920" height="1080" fill="white"/>
</clipPath>
</defs>
</svg>
