<svg width="1920" height="1105" viewBox="0 0 1920 1105" fill="none" xmlns="http://www.w3.org/2000/svg">
<path opacity="0.96" d="M494.723 51.9552C492.952 52.7072 491.031 51.2594 491.265 49.3493L494.379 23.9919C494.613 22.0818 496.828 21.1418 498.365 22.3L518.768 37.6751C520.305 38.8332 520.012 41.2209 518.24 41.9729L494.723 51.9552Z" stroke="#FF2D92" stroke-width="5"/>
<path opacity="0.99" d="M298.815 142.306C298.447 140.417 300.263 138.839 302.083 139.465L323.782 146.937C325.602 147.563 326.061 149.925 324.608 151.187L307.288 166.244C305.835 167.506 303.561 166.723 303.194 164.834L298.815 142.306Z" stroke="#FF2D92" stroke-width="5"/>
<path opacity="0.86" d="M1766.97 308.201C1768.58 307.153 1770.73 308.245 1770.83 310.167L1771.69 326.599C1771.79 328.521 1769.77 329.831 1768.06 328.958L1753.39 321.487C1751.68 320.614 1751.55 318.211 1753.17 317.163L1766.97 308.201Z" stroke="#FF2D92" stroke-width="5"/>
<path opacity="0.78" d="M1555.91 377.735C1557.48 376.631 1559.66 377.648 1559.83 379.565L1560.89 391.643C1561.06 393.56 1559.09 394.94 1557.34 394.127L1546.35 389.003C1544.61 388.189 1544.4 385.793 1545.98 384.689L1555.91 377.735Z" stroke="#FF2D92" stroke-width="5"/>
<path opacity="0.87" d="M1371.87 580.186C1371.7 578.269 1373.67 576.889 1375.41 577.703L1391.9 585.389C1393.64 586.202 1393.85 588.598 1392.27 589.702L1377.38 600.134C1375.8 601.237 1373.62 600.221 1373.45 598.304L1371.87 580.186Z" stroke="#FF2D92" stroke-width="5"/>
<path opacity="0.91" d="M1115.26 630.868C1115.46 628.954 1117.66 627.975 1119.22 629.107L1134.63 640.305C1136.19 641.437 1135.94 643.829 1134.18 644.612L1116.77 652.361C1115.01 653.144 1113.07 651.73 1113.27 649.816L1115.26 630.868Z" stroke="#FF2D92" stroke-width="5"/>
<path d="M800.923 748.894C799.819 750.47 797.423 750.26 796.609 748.516L786.178 726.147C785.365 724.403 786.745 722.432 788.662 722.6L813.25 724.751C815.167 724.919 816.184 727.099 815.08 728.676L800.923 748.894Z" stroke="#FF2D92" stroke-width="5"/>
<path opacity="0.93" d="M643.84 942.601C645.75 942.836 646.69 945.05 645.531 946.587L634.847 960.766C633.689 962.303 631.301 962.01 630.549 960.238L623.612 943.896C622.86 942.124 624.308 940.203 626.218 940.438L643.84 942.601Z" stroke="#FF2D92" stroke-width="5"/>
<path opacity="0.82" d="M392.704 1016.16C394.403 1017.06 394.487 1019.47 392.855 1020.49L364.212 1038.38C362.58 1039.4 360.456 1038.27 360.389 1036.35L359.21 1002.6C359.143 1000.67 361.183 999.399 362.882 1000.3L392.704 1016.16Z" stroke="#FF2D92" stroke-width="5"/>
<path opacity="0.89" d="M1287.79 138.344C1288.45 136.536 1290.82 136.118 1292.05 137.592L1312.09 161.475C1313.33 162.949 1312.51 165.21 1310.61 165.544L1279.91 170.958C1278.01 171.292 1276.47 169.449 1277.13 167.641L1287.79 138.344Z" stroke="#C521FF" stroke-width="5"/>
<path opacity="0.75" d="M904.34 186.392C906.254 186.191 907.668 188.137 906.885 189.895L899.312 206.905C898.529 208.663 896.136 208.914 895.005 207.357L884.061 192.294C882.93 190.737 883.908 188.539 885.822 188.338L904.34 186.392Z" stroke="#C521FF" stroke-width="5"/>
<path opacity="0.78" d="M746.212 313.318C747.97 314.101 748.221 316.494 746.664 317.625L720.741 336.459C719.184 337.59 716.987 336.612 716.785 334.698L713.436 302.831C713.235 300.917 715.181 299.503 716.939 300.285L746.212 313.318Z" stroke="#C521FF" stroke-width="5"/>
<path opacity="0.84" d="M624.571 411.519C622.688 411.92 621.079 410.132 621.674 408.302L625.286 397.182C625.881 395.352 628.234 394.852 629.522 396.282L637.345 404.97C638.633 406.401 637.889 408.689 636.007 409.089L624.571 411.519Z" stroke="#C521FF" stroke-width="5"/>
<path opacity="0.94" d="M328.566 519.277C326.952 520.325 324.809 519.233 324.708 517.311L323.394 492.231C323.293 490.309 325.311 488.999 327.025 489.872L349.403 501.274C351.118 502.148 351.243 504.55 349.629 505.598L328.566 519.277Z" stroke="#C521FF" stroke-width="5"/>
<path opacity="0.75" d="M119.778 744.081C121.661 743.681 123.27 745.469 122.676 747.299L113.175 776.538C112.581 778.369 110.228 778.869 108.94 777.439L88.3681 754.591C87.0804 753.161 87.8237 750.873 89.7062 750.473L119.778 744.081Z" stroke="#C521FF" stroke-width="5"/>
<path opacity="0.74" d="M1810.83 733.437C1810.99 735.355 1809.02 736.734 1807.28 735.921L1777.45 722.013C1775.71 721.2 1775.5 718.803 1777.08 717.699L1804.03 698.824C1805.61 697.72 1807.79 698.736 1807.96 700.654L1810.83 733.437Z" stroke="#C521FF" stroke-width="5"/>
<path opacity="0.82" d="M1539.08 856.245C1540.97 855.911 1542.52 857.754 1541.86 859.562L1531.49 888.045C1530.83 889.854 1528.47 890.271 1527.23 888.797L1507.75 865.578C1506.51 864.103 1507.33 861.843 1509.23 861.509L1539.08 856.245Z" stroke="#C521FF" stroke-width="5"/>
<path opacity="0.71" d="M1446.59 875.824C1444.77 876.451 1442.96 874.872 1443.32 872.983L1449.19 842.804C1449.56 840.915 1451.83 840.132 1453.28 841.395L1476.49 861.564C1477.94 862.827 1477.48 865.188 1475.66 865.815L1446.59 875.824Z" stroke="#C521FF" stroke-width="5"/>
<path opacity="0.94" d="M1215.66 1097.46C1216.51 1099.19 1215.16 1101.18 1213.24 1101.05L1186.89 1099.21C1184.97 1099.07 1183.92 1096.91 1185 1095.31L1199.77 1073.42C1200.84 1071.82 1203.24 1071.99 1204.09 1073.72L1215.66 1097.46Z" stroke="#C521FF" stroke-width="5"/>
<path opacity="0.93" d="M647.135 121.244C648.985 121.774 649.567 124.108 648.182 125.445L629.805 143.192C628.421 144.529 626.108 143.866 625.642 141.999L619.462 117.21C618.996 115.342 620.727 113.671 622.577 114.202L647.135 121.244Z" stroke="#2FDAE4" stroke-width="5"/>
<path opacity="0.91" d="M1575.86 48.5335C1574.1 47.7507 1573.85 45.3582 1575.4 44.2271L1582.41 39.1367C1583.97 38.0055 1586.16 38.9839 1586.37 40.8979L1587.27 49.5107C1587.47 51.4247 1585.53 52.8387 1583.77 52.0559L1575.86 48.5335Z" stroke="#2FDAE4" stroke-width="5"/>
<path opacity="0.85" d="M561.475 194.068C563.398 194.135 564.528 196.259 563.508 197.891L554.329 212.58C553.309 214.212 550.905 214.128 550.002 212.429L541.87 197.136C540.967 195.436 542.242 193.396 544.165 193.463L561.475 194.068Z" stroke="#2FDAE4" stroke-width="5"/>
<path opacity="0.89" d="M1406.17 231.572C1406.92 229.8 1409.31 229.507 1410.47 231.044L1422.19 246.606C1423.35 248.143 1422.41 250.357 1420.5 250.592L1401.16 252.966C1399.25 253.201 1397.8 251.28 1398.56 249.508L1406.17 231.572Z" stroke="#2FDAE4" stroke-width="5"/>
<path opacity="0.81" d="M260.937 347.983C262.696 347.2 264.642 348.614 264.441 350.528L263.49 359.571C263.289 361.485 261.091 362.464 259.534 361.333L252.178 355.988C250.621 354.857 250.872 352.464 252.63 351.681L260.937 347.983Z" stroke="#2FDAE4" stroke-width="5"/>
<path opacity="0.89" d="M1162.79 366.504C1164.66 366.071 1166.3 367.83 1165.74 369.671L1159.79 389.133C1159.23 390.973 1156.88 391.514 1155.57 390.107L1141.69 375.223C1140.38 373.815 1141.08 371.515 1142.96 371.082L1162.79 366.504Z" stroke="#2FDAE4" stroke-width="5"/>
<path opacity="0.89" d="M94.2579 460.95C96.1404 460.55 97.7501 462.338 97.1554 464.168L92.0707 479.817C91.476 481.647 89.1229 482.147 87.8352 480.717L76.825 468.489C75.5372 467.059 76.2806 464.771 78.163 464.371L94.2579 460.95Z" stroke="#2FDAE4" stroke-width="5"/>
<path opacity="0.75" d="M1038.73 400.029C1038.93 401.943 1036.99 403.357 1035.23 402.574L1020.99 396.234C1019.23 395.451 1018.98 393.059 1020.54 391.928L1033.15 382.765C1034.7 381.634 1036.9 382.612 1037.1 384.526L1038.73 400.029Z" stroke="#2FDAE4" stroke-width="5"/>
<path opacity="0.98" d="M1699.85 456.59C1700.22 458.479 1698.41 460.057 1696.59 459.431L1672.02 450.972C1670.2 450.346 1669.74 447.984 1671.19 446.722L1690.8 429.677C1692.25 428.414 1694.53 429.198 1694.9 431.087L1699.85 456.59Z" stroke="#2FDAE4" stroke-width="5"/>
<path opacity="0.81" d="M841.647 493.773C839.817 494.367 838.029 492.758 838.429 490.875L842.571 471.392C842.971 469.509 845.259 468.766 846.689 470.054L861.491 483.382C862.922 484.67 862.421 487.023 860.591 487.617L841.647 493.773Z" stroke="#2FDAE4" stroke-width="5"/>
<path opacity="0.95" d="M1594.91 590.463C1593.95 592.129 1591.54 592.129 1590.58 590.463L1584.73 580.338C1583.77 578.671 1584.97 576.588 1586.9 576.588H1598.59C1600.52 576.588 1601.72 578.671 1600.76 580.338L1594.91 590.463Z" stroke="#2FDAE4" stroke-width="5"/>
<path opacity="0.98" d="M607.127 724.338C606.727 726.22 604.439 726.964 603.009 725.676L577.909 703.076C576.479 701.788 576.979 699.435 578.81 698.841L610.931 688.404C612.762 687.809 614.549 689.419 614.149 691.301L607.127 724.338Z" stroke="#2FDAE4" stroke-width="5"/>
<path opacity="0.72" d="M1450.12 673.568C1449.53 671.738 1451.14 669.95 1453.02 670.35L1486.48 677.462C1488.36 677.862 1489.11 680.15 1487.82 681.581L1464.93 707.002C1463.64 708.432 1461.29 707.932 1460.69 706.102L1450.12 673.568Z" stroke="#2FDAE4" stroke-width="5"/>
<path opacity="0.94" d="M423.274 798.865C425.191 798.697 426.571 800.668 425.757 802.412L417.522 820.072C416.709 821.816 414.313 822.026 413.209 820.449L402.032 804.488C400.928 802.911 401.945 800.731 403.862 800.563L423.274 798.865Z" stroke="#2FDAE4" stroke-width="5"/>
<path opacity="0.91" d="M1202.28 752.24C1201.69 750.41 1203.3 748.622 1205.18 749.022L1234.83 755.324C1236.71 755.724 1237.45 758.012 1236.17 759.442L1215.89 781.968C1214.6 783.398 1212.24 782.898 1211.65 781.067L1202.28 752.24Z" stroke="#2FDAE4" stroke-width="5"/>
<path opacity="0.75" d="M126.044 841.475C124.121 841.407 122.992 839.283 124.012 837.651L134.108 821.494C135.128 819.862 137.532 819.946 138.435 821.645L147.38 838.467C148.284 840.167 147.009 842.207 145.085 842.139L126.044 841.475Z" stroke="#2FDAE4" stroke-width="5"/>
<path opacity="0.97" d="M909.457 950.92C911.379 950.819 912.689 952.836 911.816 954.551L900.217 977.314C899.344 979.029 896.941 979.155 895.893 977.541L881.979 956.115C880.931 954.501 882.023 952.357 883.945 952.257L909.457 950.92Z" stroke="#2FDAE4" stroke-width="5"/>
<path opacity="0.77" d="M1721.07 844.564C1719.76 843.156 1720.46 840.856 1722.33 840.423L1743.01 835.65C1744.88 835.217 1746.52 836.976 1745.96 838.817L1739.76 859.107C1739.19 860.948 1736.85 861.489 1735.54 860.081L1721.07 844.564Z" stroke="#2FDAE4" stroke-width="5"/>
<path opacity="0.76" d="M824.469 985.457C822.754 984.584 822.628 982.181 824.242 981.133L852.568 962.738C854.182 961.69 856.325 962.782 856.426 964.704L858.194 998.432C858.295 1000.35 856.277 1001.66 854.562 1000.79L824.469 985.457Z" stroke="#2FDAE4" stroke-width="5"/>
<path opacity="0.7" d="M1653.15 1027.82C1654.36 1026.32 1656.74 1026.7 1657.43 1028.5L1668.29 1056.79C1668.98 1058.59 1667.46 1060.46 1665.56 1060.16L1635.63 1055.42C1633.73 1055.12 1632.86 1052.87 1634.07 1051.37L1653.15 1027.82Z" stroke="#2FDAE4" stroke-width="5"/>
<path opacity="0.72" d="M80.7199 93.1854C79.7001 91.5534 80.8295 89.4293 82.7528 89.3621L116.507 88.1834C118.431 88.1162 119.705 90.1563 118.802 91.8556L102.945 121.677C102.042 123.376 99.6377 123.46 98.6179 121.828L80.7199 93.1854Z" stroke="#3FDE9C" stroke-width="5"/>
<path opacity="0.8" d="M630.629 51.5868C631.891 50.1344 634.253 50.5934 634.879 52.413L641.646 72.0653C642.273 73.8849 640.694 75.7005 638.805 75.3333L618.402 71.3674C616.513 71.0002 615.73 68.7256 616.993 67.2732L630.629 51.5868Z" stroke="#3FDE9C" stroke-width="5"/>
<path opacity="0.73" d="M942.143 26.9807C942.311 28.8979 940.34 30.2777 938.596 29.4644L929.177 25.0724C927.433 24.2591 927.223 21.8626 928.8 20.7587L937.313 14.798C938.889 13.6941 941.069 14.7108 941.237 16.6279L942.143 26.9807Z" stroke="#3FDE9C" stroke-width="5"/>
<path opacity="0.81" d="M1422.81 23.2479C1422.18 21.4283 1423.76 19.6127 1425.65 19.9799L1440.95 22.9543C1442.84 23.3216 1443.62 25.5961 1442.36 27.0486L1432.14 38.8133C1430.87 40.2658 1428.51 39.8067 1427.88 37.9871L1422.81 23.2479Z" stroke="#3FDE9C" stroke-width="5"/>
<path opacity="0.74" d="M267.152 174.913C269.062 174.679 270.51 176.6 269.758 178.372L258.591 204.679C257.839 206.45 255.451 206.743 254.293 205.206L237.094 182.382C235.936 180.845 236.876 178.631 238.786 178.396L267.152 174.913Z" stroke="#3FDE9C" stroke-width="5"/>
<path opacity="0.94" d="M627.824 165.852C626.44 167.189 624.127 166.526 623.662 164.659L617.9 141.55C617.435 139.683 619.165 138.012 621.015 138.542L643.908 145.107C645.758 145.637 646.34 147.972 644.956 149.308L627.824 165.852Z" stroke="#3FDE9C" stroke-width="5"/>
<path opacity="0.86" d="M1129.93 147.503C1129.69 145.592 1131.61 144.145 1133.38 144.897L1162.48 157.248C1164.25 158 1164.55 160.387 1163.01 161.546L1137.76 180.569C1136.23 181.727 1134.01 180.787 1133.78 178.877L1129.93 147.503Z" stroke="#3FDE9C" stroke-width="5"/>
<path opacity="0.97" d="M1520.31 194.737C1518.53 193.985 1518.24 191.598 1519.78 190.44L1541.56 174.022C1543.1 172.864 1545.32 173.804 1545.55 175.714L1548.87 202.791C1549.11 204.701 1547.19 206.148 1545.42 205.396L1520.31 194.737Z" stroke="#3FDE9C" stroke-width="5"/>
<path opacity="0.82" d="M20.1079 289.575C19.004 287.998 20.0207 285.818 21.9378 285.65L45.2316 283.612C47.1487 283.445 48.5286 285.415 47.7152 287.159L37.8333 308.351C37.0199 310.096 34.6235 310.305 33.5196 308.729L20.1079 289.575Z" stroke="#3FDE9C" stroke-width="5"/>
<path opacity="0.95" d="M584.544 272.885C585.138 274.715 583.529 276.503 581.646 276.103L554.963 270.431C553.08 270.031 552.337 267.743 553.625 266.313L571.878 246.04C573.166 244.61 575.519 245.11 576.114 246.94L584.544 272.885Z" stroke="#3FDE9C" stroke-width="5"/>
<path opacity="0.72" d="M996.259 286.802C998.031 286.05 999.952 287.498 999.717 289.408L995.548 323.361C995.314 325.271 993.099 326.211 991.562 325.053L964.243 304.466C962.706 303.308 962.999 300.92 964.77 300.168L996.259 286.802Z" stroke="#3FDE9C" stroke-width="5"/>
<path opacity="0.75" d="M1375.88 269.574C1375.64 267.664 1377.56 266.216 1379.33 266.968L1389.7 271.367C1391.47 272.119 1391.76 274.507 1390.22 275.665L1381.23 282.44C1379.7 283.598 1377.48 282.659 1377.25 280.748L1375.88 269.574Z" stroke="#3FDE9C" stroke-width="5"/>
<path opacity="0.71" d="M1897.55 299.083C1899.21 298.121 1901.3 299.324 1901.3 301.248L1901.3 319.868C1901.3 321.792 1899.21 322.995 1897.55 322.033L1881.42 312.723C1879.76 311.761 1879.76 309.355 1881.42 308.393L1897.55 299.083Z" stroke="#3FDE9C" stroke-width="5"/>
<path d="M274.088 448.812C275.938 448.282 277.668 449.953 277.203 451.82L274.269 463.584C273.804 465.452 271.491 466.115 270.107 464.778L261.385 456.356C260.001 455.019 260.583 452.685 262.433 452.154L274.088 448.812Z" stroke="#3FDE9C" stroke-width="5"/>
<path opacity="0.7" d="M742.965 452.726C741.512 453.989 739.238 453.206 738.87 451.316L735.152 432.189C734.785 430.3 736.601 428.721 738.42 429.348L756.844 435.692C758.664 436.318 759.123 438.68 757.671 439.942L742.965 452.726Z" stroke="#3FDE9C" stroke-width="5"/>
<path opacity="0.85" d="M1285.07 440.648C1285.72 438.839 1288.09 438.421 1289.33 439.896L1307.42 461.457C1308.66 462.931 1307.84 465.191 1305.94 465.526L1278.22 470.413C1276.33 470.747 1274.78 468.904 1275.44 467.096L1285.07 440.648Z" stroke="#3FDE9C" stroke-width="5"/>
<path opacity="0.82" d="M1618.07 383.075C1616.31 382.292 1616.06 379.899 1617.62 378.768L1635.13 366.042C1636.69 364.911 1638.89 365.89 1639.09 367.804L1641.35 389.336C1641.55 391.25 1639.61 392.664 1637.85 391.881L1618.07 383.075Z" stroke="#3FDE9C" stroke-width="5"/>
<path opacity="0.89" d="M-10.6565 530.599C-12.0867 531.886 -14.3746 531.143 -14.7747 529.261L-21.6169 497.071C-22.017 495.188 -20.2293 493.579 -18.399 494.173L12.8993 504.343C14.7296 504.937 15.2298 507.291 13.7996 508.578L-10.6565 530.599Z" stroke="#3FDE9C" stroke-width="5"/>
<path opacity="0.95" d="M637.785 521.542C639.681 521.208 641.227 523.051 640.569 524.859L635.385 539.101C634.727 540.909 632.358 541.327 631.121 539.853L621.379 528.243C620.142 526.769 620.965 524.508 622.86 524.174L637.785 521.542Z" stroke="#3FDE9C" stroke-width="5"/>
<path d="M1078.69 556.052C1077.43 554.6 1078.21 552.325 1080.1 551.958L1108.15 546.505C1110.04 546.138 1111.62 547.954 1110.99 549.773L1101.69 576.795C1101.06 578.615 1098.7 579.074 1097.44 577.621L1078.69 556.052Z" stroke="#3FDE9C" stroke-width="5"/>
<path opacity="0.81" d="M1459.47 530.526C1457.55 530.493 1456.38 528.389 1457.37 526.739L1462.05 518.945C1463.05 517.295 1465.45 517.337 1466.38 519.02L1470.79 526.974C1471.73 528.657 1470.49 530.719 1468.56 530.685L1459.47 530.526Z" stroke="#3FDE9C" stroke-width="5"/>
<path opacity="0.93" d="M1854.59 489.981C1852.77 489.354 1852.31 486.993 1853.76 485.73L1862.91 477.776C1864.36 476.513 1866.64 477.297 1867 479.186L1869.32 491.087C1869.69 492.977 1867.87 494.555 1866.05 493.928L1854.59 489.981Z" stroke="#3FDE9C" stroke-width="5"/>
<path d="M264.931 743.488C265.951 745.12 264.822 747.244 262.898 747.311L236.501 748.233C234.577 748.3 233.302 746.26 234.206 744.561L246.606 721.239C247.51 719.54 249.914 719.456 250.934 721.088L264.931 743.488Z" stroke="#3FDE9C" stroke-width="5"/>
<path opacity="0.88" d="M719.123 714.798C720.484 716.159 719.861 718.482 718.002 718.98L694.998 725.144C693.139 725.642 691.438 723.941 691.936 722.082L698.1 699.078C698.598 697.219 700.922 696.597 702.282 697.957L719.123 714.798Z" stroke="#3FDE9C" stroke-width="5"/>
<path opacity="0.89" d="M1086.79 675.112C1084.92 675.577 1083.25 673.847 1083.78 671.997L1093.33 638.698C1093.86 636.848 1096.19 636.266 1097.53 637.65L1121.59 662.569C1122.93 663.953 1122.27 666.266 1120.4 666.731L1086.79 675.112Z" stroke="#3FDE9C" stroke-width="5"/>
<path opacity="0.93" d="M1654.85 689.71C1656.78 689.743 1657.94 691.847 1656.95 693.497L1647.36 709.457C1646.37 711.107 1643.96 711.065 1643.03 709.381L1634 693.096C1633.07 691.413 1634.31 689.351 1636.24 689.385L1654.85 689.71Z" stroke="#3FDE9C" stroke-width="5"/>
<path opacity="0.77" d="M49.2714 795.721C51.1956 795.688 52.4346 797.75 51.5016 799.433L47.303 807.007C46.37 808.69 43.9647 808.732 42.9735 807.083L38.5132 799.66C37.522 798.01 38.6883 795.906 40.6125 795.872L49.2714 795.721Z" stroke="#3FDE9C" stroke-width="5"/>
<path opacity="0.86" d="M429.056 751.633C427.285 752.385 425.364 750.937 425.598 749.027L428.712 723.67C428.946 721.759 431.161 720.82 432.698 721.978L453.101 737.353C454.638 738.511 454.345 740.899 452.573 741.651L429.056 751.633Z" stroke="#3FDE9C" stroke-width="5"/>
<path opacity="0.94" d="M885.646 767.111C885.612 765.187 887.674 763.948 889.358 764.881L908.672 775.587C910.356 776.52 910.398 778.926 908.748 779.917L889.819 791.291C888.169 792.282 886.065 791.116 886.031 789.191L885.646 767.111Z" stroke="#3FDE9C" stroke-width="5"/>
<path opacity="0.86" d="M1402.4 841.717C1401.96 843.593 1399.66 844.296 1398.25 842.983L1382.74 828.513C1381.33 827.201 1381.87 824.857 1383.71 824.294L1404 818.091C1405.84 817.528 1407.6 819.169 1407.17 821.044L1402.4 841.717Z" stroke="#3FDE9C" stroke-width="5"/>
<path opacity="0.72" d="M1857.78 757.912C1857.18 756.082 1858.79 754.294 1860.67 754.694L1886.51 760.186C1888.39 760.586 1889.14 762.874 1887.85 764.304L1870.17 783.934C1868.89 785.364 1866.53 784.864 1865.94 783.033L1857.78 757.912Z" stroke="#3FDE9C" stroke-width="5"/>
<path opacity="0.87" d="M245.826 891.062C245.044 892.82 242.651 893.071 241.52 891.514L234.393 881.705C233.262 880.148 234.241 877.951 236.155 877.75L248.213 876.482C250.127 876.281 251.541 878.227 250.758 879.985L245.826 891.062Z" stroke="#3FDE9C" stroke-width="5"/>
<path opacity="0.98" d="M695.195 874.666C693.319 874.233 692.616 871.932 693.929 870.525L714.305 848.674C715.618 847.266 717.962 847.807 718.524 849.648L727.26 878.22C727.823 880.06 726.182 881.82 724.307 881.387L695.195 874.666Z" stroke="#3FDE9C" stroke-width="5"/>
<path d="M1059.33 935.654C1057.44 936.021 1055.87 934.205 1056.49 932.386L1067.63 900.041C1068.26 898.222 1070.62 897.763 1071.88 899.215L1094.32 925.032C1095.59 926.485 1094.8 928.759 1092.91 929.127L1059.33 935.654Z" stroke="#3FDE9C" stroke-width="5"/>
<path d="M1567.94 886.684C1569.2 885.232 1571.56 885.691 1572.19 887.51L1582.2 916.579C1582.83 918.399 1581.25 920.214 1579.36 919.847L1549.18 913.981C1547.29 913.614 1546.51 911.339 1547.77 909.887L1567.94 886.684Z" stroke="#3FDE9C" stroke-width="5"/>
<path opacity="0.88" d="M187.176 1080.76C186.243 1082.44 183.838 1082.48 182.847 1080.83L174.818 1067.47C173.827 1065.82 174.993 1063.72 176.917 1063.68L192.503 1063.41C194.428 1063.38 195.666 1065.44 194.733 1067.12L187.176 1080.76Z" stroke="#3FDE9C" stroke-width="5"/>
<path opacity="0.83" d="M601.419 1057.28C601.251 1055.36 603.222 1053.98 604.966 1054.79L634.007 1068.33C635.751 1069.15 635.96 1071.54 634.384 1072.65L608.136 1091.03C606.559 1092.13 604.379 1091.11 604.211 1089.2L601.419 1057.28Z" stroke="#3FDE9C" stroke-width="5"/>
<path opacity="0.92" d="M1056.29 965.562C1054.37 965.595 1053.13 963.533 1054.06 961.85L1063.3 945.186C1064.23 943.503 1066.64 943.461 1067.63 945.111L1077.44 961.442C1078.43 963.092 1077.27 965.196 1075.34 965.229L1056.29 965.562Z" stroke="#3FDE9C" stroke-width="5"/>
<path opacity="0.82" d="M1287.62 1004.74C1285.71 1005.01 1284.23 1003.11 1284.95 1001.33L1289.82 989.285C1290.54 987.501 1292.92 987.166 1294.1 988.682L1302.1 998.919C1303.29 1000.44 1302.38 1002.67 1300.48 1002.93L1287.62 1004.74Z" stroke="#3FDE9C" stroke-width="5"/>
<path opacity="0.92" d="M1797.84 1069.73C1799.58 1070.55 1799.79 1072.94 1798.22 1074.05L1781.19 1085.97C1779.61 1087.07 1777.43 1086.06 1777.27 1084.14L1775.46 1063.43C1775.29 1061.52 1777.26 1060.14 1779 1060.95L1797.84 1069.73Z" stroke="#3FDE9C" stroke-width="5"/>
<circle opacity="0.82" cx="1435.61" cy="118.658" r="5" transform="rotate(55 1435.61 118.658)" stroke="#3FDE9C" stroke-width="5"/>
<circle opacity="0.97" cx="32.55" cy="505.824" r="7.4" transform="rotate(-118 32.55 505.824)" stroke="#3FDE9C" stroke-width="5"/>
<circle opacity="0.94" cx="659.099" cy="603.583" r="7.1" transform="rotate(55 659.099 603.583)" stroke="#3FDE9C" stroke-width="5"/>
<circle opacity="0.88" cx="1346" cy="849.689" r="5.6" transform="rotate(-22 1346 849.689)" stroke="#3FDE9C" stroke-width="5"/>
<circle opacity="0.88" cx="287.096" cy="55.6811" r="4.4" transform="rotate(59 287.096 55.6811)" stroke="#2FDAE4" stroke-width="5"/>
<circle opacity="0.96" cx="624.152" cy="259.618" r="9.3" transform="rotate(166 624.152 259.618)" stroke="#2FDAE4" stroke-width="5"/>
<circle opacity="0.91" cx="1475.97" cy="400.429" r="5.2" transform="rotate(-127 1475.97 400.429)" stroke="#2FDAE4" stroke-width="5"/>
<circle opacity="0.94" cx="237.146" cy="814.899" r="5" transform="rotate(-69 237.146 814.899)" stroke="#2FDAE4" stroke-width="5"/>
<circle opacity="0.86" cx="766.581" cy="969.369" r="4.4" transform="rotate(-110 766.581 969.369)" stroke="#2FDAE4" stroke-width="5"/>
<circle opacity="0.79" cx="934.905" cy="185.613" r="5.6" transform="rotate(-43 934.905 185.613)" stroke="#C521FF" stroke-width="5"/>
<circle opacity="0.89" cx="156.663" cy="323.957" r="7.6" transform="rotate(-173 156.663 323.957)" stroke="#C521FF" stroke-width="5"/>
<circle opacity="0.94" cx="1267.85" cy="327.21" r="8.7" transform="rotate(-89 1267.85 327.21)" stroke="#C521FF" stroke-width="5"/>
<circle cx="825.181" cy="476.058" r="3.8" transform="rotate(-4 825.181 476.058)" stroke="#C521FF" stroke-width="5"/>
<circle opacity="0.7" cx="77.1614" cy="558.139" r="5.9" transform="rotate(-167 77.1614 558.139)" stroke="#C521FF" stroke-width="5"/>
<circle opacity="0.94" cx="1515.73" cy="715.468" r="6.6" transform="rotate(-82 1515.73 715.468)" stroke="#C521FF" stroke-width="5"/>
<circle opacity="0.83" cx="721.459" cy="783.875" r="5.3" transform="rotate(110 721.459 783.875)" stroke="#C521FF" stroke-width="5"/>
<circle opacity="0.76" cx="194.39" cy="936.768" r="7.7" transform="rotate(25 194.39 936.768)" stroke="#C521FF" stroke-width="5"/>
<circle opacity="0.83" cx="1286" cy="953.191" r="8.7" transform="rotate(-56 1286 953.191)" stroke="#C521FF" stroke-width="5"/>
<circle opacity="0.89" cx="392.269" cy="162.102" r="6.7" transform="rotate(-174 392.269 162.102)" stroke="#FF2D92" stroke-width="5"/>
<circle opacity="0.77" cx="969.295" cy="115.724" r="5.5" transform="rotate(-168 969.295 115.724)" stroke="#FF2D92" stroke-width="5"/>
<circle opacity="0.87" cx="1650.15" cy="164.916" r="6.7" transform="rotate(-19 1650.15 164.916)" stroke="#FF2D92" stroke-width="5"/>
<circle opacity="0.93" cx="318.514" cy="203.826" r="7.9" transform="rotate(-123 318.514 203.826)" stroke="#FF2D92" stroke-width="5"/>
<circle opacity="0.95" cx="1042.45" cy="350.478" r="8.4" transform="rotate(-108 1042.45 350.478)" stroke="#FF2D92" stroke-width="5"/>
<circle opacity="0.79" cx="1610.12" cy="211.724" r="9.1" transform="rotate(64 1610.12 211.724)" stroke="#FF2D92" stroke-width="5"/>
<circle opacity="0.93" cx="446.291" cy="394.663" r="8.6" transform="rotate(168 446.291 394.663)" stroke="#FF2D92" stroke-width="5"/>
<circle opacity="0.76" cx="1002.8" cy="568.965" r="8.7" transform="rotate(51 1002.8 568.965)" stroke="#FF2D92" stroke-width="5"/>
<circle opacity="0.95" cx="1665.15" cy="424.728" r="9.5" transform="rotate(-75 1665.15 424.728)" stroke="#FF2D92" stroke-width="5"/>
<circle opacity="0.99" cx="499.769" cy="568.695" r="6.4" transform="rotate(-71 499.769 568.695)" stroke="#FF2D92" stroke-width="5"/>
<circle opacity="0.8" cx="1229.7" cy="666.076" r="5.2" transform="rotate(49 1229.7 666.076)" stroke="#FF2D92" stroke-width="5"/>
</svg>
