<svg width="700" height="700" viewBox="0 0 1016 932" fill="none" xmlns="http://www.w3.org/2000/svg">
<g filter="url(#filter0_ddddii)">
<path d="M449.414 354.5C449.414 379.886 411.669 396.232 386.283 396.232C360.897 396.232 386.283 372.386 386.283 347C386.283 321.614 360.897 304.301 386.283 304.301C411.669 304.301 449.414 329.114 449.414 354.5Z" fill="url(#paint0_linear)"/>
</g>
<g filter="url(#filter1_ddddii)">
<path d="M526.92 450.713C526.92 476.099 508.26 456.856 482.874 456.856C457.488 456.856 430.908 482.242 430.908 456.856C430.908 431.47 457.488 388.713 482.874 388.713C508.26 388.713 526.92 425.327 526.92 450.713Z" fill="url(#paint1_linear)"/>
</g>
<g filter="url(#filter2_ddddii)">
<path d="M581.631 354.096C581.631 379.482 607.017 400.062 581.631 400.062C556.245 400.062 520.344 379.482 520.344 354.096C520.344 328.71 556.245 308.131 581.631 308.131C607.017 308.131 581.631 328.71 581.631 354.096Z" fill="url(#paint2_linear)"/>
</g>
<g filter="url(#filter3_ddddii)">
<path d="M531.914 249.083C531.914 274.469 508.3 318.083 482.914 318.083C457.528 318.083 426.914 274.469 426.914 249.083C426.914 223.697 457.528 259.583 482.914 259.583C508.3 259.583 531.914 223.697 531.914 249.083Z" fill="url(#paint3_linear)"/>
</g>
<g filter="url(#filter4_bddddii)">
<path d="M345.129 577.24C343.316 578.36 341.049 579.4 338.329 580.36C335.662 581.267 332.676 581.693 329.369 581.64C325.049 581.64 321.129 580.893 317.609 579.4C314.089 577.853 311.076 575.773 308.569 573.16C306.062 570.493 304.116 567.453 302.729 564.04C301.396 560.573 300.729 556.893 300.729 553C300.729 548.84 301.449 544.973 302.889 541.4C304.329 537.827 306.356 534.707 308.969 532.04C311.582 529.373 314.622 527.293 318.089 525.8C321.556 524.307 325.316 523.56 329.369 523.56C332.356 523.56 335.156 523.96 337.769 524.76C340.382 525.56 342.756 526.6 344.889 527.88L343.209 531.48C341.342 530.307 339.236 529.32 336.889 528.52C334.542 527.72 332.062 527.32 329.449 527.32C326.089 527.32 322.916 527.987 319.929 529.32C316.942 530.6 314.302 532.413 312.009 534.76C309.769 537.053 308.009 539.747 306.729 542.84C305.449 545.933 304.809 549.267 304.809 552.84C304.809 557.427 305.822 561.613 307.849 565.4C309.876 569.187 312.729 572.227 316.409 574.52C320.089 576.76 324.436 577.88 329.449 577.88C332.222 577.88 334.756 577.507 337.049 576.76C339.396 575.96 341.476 574.973 343.289 573.8L345.129 577.24ZM361.002 549.72L361.322 557.16C362.122 555.453 363.242 553.987 364.682 552.76C366.175 551.48 367.775 550.52 369.482 549.88C371.242 549.187 372.922 548.84 374.522 548.84L374.362 552.52C371.962 552.52 369.775 553.053 367.802 554.12C365.882 555.187 364.335 556.627 363.162 558.44C362.042 560.2 361.482 562.2 361.482 564.44V581H357.722V549.72H361.002ZM397.635 581.64C394.648 581.64 391.928 580.973 389.475 579.64C387.075 578.253 385.155 576.333 383.715 573.88C382.328 571.427 381.635 568.573 381.635 565.32C381.635 561.853 382.381 558.893 383.875 556.44C385.368 553.933 387.395 552.04 389.955 550.76C392.515 549.427 395.421 548.76 398.675 548.76C401.235 548.76 403.688 549.507 406.035 551C408.435 552.44 410.221 554.28 411.395 556.52L411.795 549.72H415.155V581H411.395V574.36C410.221 576.227 408.408 577.907 405.955 579.4C403.501 580.893 400.728 581.64 397.635 581.64ZM398.435 578.44C400.781 578.44 402.888 577.96 404.755 577C406.675 575.987 408.221 574.6 409.395 572.84C410.568 571.08 411.235 569.053 411.395 566.76V562.28C410.968 560.307 410.115 558.547 408.835 557C407.608 555.453 406.088 554.227 404.275 553.32C402.461 552.413 400.488 551.96 398.355 551.96C396.008 551.96 393.848 552.52 391.875 553.64C389.901 554.707 388.328 556.227 387.155 558.2C385.981 560.173 385.395 562.493 385.395 565.16C385.395 567.613 385.981 569.853 387.155 571.88C388.328 573.853 389.901 575.453 391.875 576.68C393.901 577.853 396.088 578.44 398.435 578.44ZM431.442 581V553.24H426.002V549.8H431.442V534.04C431.442 529.027 432.296 525.427 434.002 523.24C435.762 521 438.349 519.88 441.762 519.88C442.509 519.88 443.309 519.987 444.162 520.2C445.016 520.36 445.789 520.653 446.482 521.08L444.882 523.8C444.189 523.267 443.256 523 442.082 523C439.789 523 438.056 523.8 436.882 525.4C435.762 527 435.202 529.853 435.202 533.96V549.8H445.682V553.24H435.202V581H431.442ZM458.42 535.96H462.26V550.12H471.94V553.16H462.26V581H458.42V553.16H451.78V550.12H458.42V535.96ZM507.767 581V524.2H521.767C527.26 524.2 531.927 525.08 535.767 526.84C539.66 528.547 542.807 530.813 545.207 533.64C547.607 536.467 549.367 539.56 550.487 542.92C551.607 546.28 552.167 549.613 552.167 552.92C552.167 557.24 551.42 561.133 549.927 564.6C548.433 568.013 546.38 570.947 543.767 573.4C541.207 575.853 538.273 577.747 534.967 579.08C531.66 580.36 528.167 581 524.487 581H507.767ZM511.687 577.24H523.447C528.033 577.24 532.193 576.253 535.927 574.28C539.66 572.307 542.62 569.48 544.807 565.8C547.047 562.12 548.167 557.747 548.167 552.68C548.167 549.427 547.607 546.333 546.487 543.4C545.42 540.413 543.793 537.773 541.607 535.48C539.42 533.187 536.727 531.373 533.527 530.04C530.327 528.707 526.593 528.04 522.327 528.04H511.687V577.24ZM577.713 581.64C574.726 581.64 572.006 580.973 569.553 579.64C567.153 578.253 565.233 576.333 563.793 573.88C562.406 571.427 561.713 568.573 561.713 565.32C561.713 561.853 562.459 558.893 563.953 556.44C565.446 553.933 567.473 552.04 570.033 550.76C572.593 549.427 575.499 548.76 578.753 548.76C581.313 548.76 583.766 549.507 586.113 551C588.513 552.44 590.299 554.28 591.473 556.52L591.873 549.72H595.233V581H591.473V574.36C590.299 576.227 588.486 577.907 586.033 579.4C583.579 580.893 580.806 581.64 577.713 581.64ZM578.513 578.44C580.859 578.44 582.966 577.96 584.833 577C586.753 575.987 588.299 574.6 589.473 572.84C590.646 571.08 591.313 569.053 591.473 566.76V562.28C591.046 560.307 590.193 558.547 588.913 557C587.686 555.453 586.166 554.227 584.353 553.32C582.539 552.413 580.566 551.96 578.433 551.96C576.086 551.96 573.926 552.52 571.953 553.64C569.979 554.707 568.406 556.227 567.233 558.2C566.059 560.173 565.473 562.493 565.473 565.16C565.473 567.613 566.059 569.853 567.233 571.88C568.406 573.853 569.979 575.453 571.953 576.68C573.979 577.853 576.166 578.44 578.513 578.44ZM616.8 581.64C614.987 581.64 613.094 581.32 611.12 580.68C609.147 579.987 607.547 578.893 606.32 577.4L608.08 574.92C609.147 576.04 610.4 576.947 611.84 577.64C613.334 578.28 614.907 578.6 616.56 578.6C618.374 578.6 620.027 578.173 621.52 577.32C623.014 576.467 623.76 574.973 623.76 572.84C623.76 571.347 623.334 570.2 622.48 569.4C621.68 568.6 620.64 567.96 619.36 567.48C618.134 566.947 616.827 566.467 615.44 566.04C613.147 565.293 611.254 564.28 609.76 563C608.32 561.72 607.6 559.907 607.6 557.56C607.6 555 608.48 552.947 610.24 551.4C612.054 549.8 614.347 549 617.12 549C618.774 549 620.4 549.267 622 549.8C623.654 550.333 625.147 551.24 626.48 552.52L624.8 555.16C623.947 553.987 622.8 553.187 621.36 552.76C619.974 552.333 618.747 552.093 617.68 552.04C616.294 552.04 614.88 552.467 613.44 553.32C612.054 554.12 611.36 555.373 611.36 557.08C611.36 558.307 611.707 559.32 612.4 560.12C613.094 560.867 613.974 561.48 615.04 561.96C616.16 562.44 617.307 562.893 618.48 563.32C620.027 563.8 621.467 564.387 622.8 565.08C624.187 565.72 625.307 566.6 626.16 567.72C627.067 568.787 627.52 570.227 627.52 572.04C627.52 574.813 626.614 577.107 624.8 578.92C623.04 580.733 620.374 581.64 616.8 581.64ZM638.893 581V520.2H642.573V556.2C643.693 554.12 645.4 552.387 647.693 551C650.04 549.56 652.707 548.84 655.693 548.84C658.627 548.84 661 549.72 662.813 551.48C664.627 553.187 665.56 555.427 665.613 558.2V581H661.773V559.24C661.72 557.213 661.08 555.533 659.853 554.2C658.627 552.867 656.84 552.173 654.493 552.12C652.413 552.12 650.467 552.653 648.653 553.72C646.84 554.787 645.373 556.227 644.253 558.04C643.187 559.853 642.653 561.907 642.653 564.2V581H638.893Z" fill="#EAECEF"/>
</g>
<defs>
<filter id="filter0_ddddii" x="135" y="24.3008" width="594.414" height="611.931" filterUnits="userSpaceOnUse" color-interpolation-filters="sRGB">
<feFlood flood-opacity="0" result="BackgroundImageFix"/>
<feColorMatrix in="SourceAlpha" type="matrix" values="0 0 0 0 0 0 0 0 0 0 0 0 0 0 0 0 0 0 127 0"/>
<feOffset dx="80" dy="-80"/>
<feGaussianBlur stdDeviation="100"/>
<feColorMatrix type="matrix" values="0 0 0 0 0.184314 0 0 0 0 0.847059 0 0 0 0 0.886275 0 0 0 0.9 0"/>
<feBlend mode="normal" in2="BackgroundImageFix" result="effect1_dropShadow"/>
<feColorMatrix in="SourceAlpha" type="matrix" values="0 0 0 0 0 0 0 0 0 0 0 0 0 0 0 0 0 0 127 0"/>
<feOffset dx="-80" dy="80"/>
<feGaussianBlur stdDeviation="80"/>
<feColorMatrix type="matrix" values="0 0 0 0 0.184314 0 0 0 0 0.862745 0 0 0 0 0.901961 0 0 0 0.9 0"/>
<feBlend mode="normal" in2="effect1_dropShadow" result="effect2_dropShadow"/>
<feColorMatrix in="SourceAlpha" type="matrix" values="0 0 0 0 0 0 0 0 0 0 0 0 0 0 0 0 0 0 127 0"/>
<feOffset dx="80" dy="80"/>
<feGaussianBlur stdDeviation="80"/>
<feColorMatrix type="matrix" values="0 0 0 0 0.184314 0 0 0 0 0.847059 0 0 0 0 0.886275 0 0 0 0.2 0"/>
<feBlend mode="normal" in2="effect2_dropShadow" result="effect3_dropShadow"/>
<feColorMatrix in="SourceAlpha" type="matrix" values="0 0 0 0 0 0 0 0 0 0 0 0 0 0 0 0 0 0 127 0"/>
<feOffset dx="-80" dy="-80"/>
<feGaussianBlur stdDeviation="80"/>
<feColorMatrix type="matrix" values="0 0 0 0 0.184314 0 0 0 0 0.847059 0 0 0 0 0.886275 0 0 0 0.2 0"/>
<feBlend mode="normal" in2="effect3_dropShadow" result="effect4_dropShadow"/>
<feBlend mode="normal" in="SourceGraphic" in2="effect4_dropShadow" result="shape"/>
<feColorMatrix in="SourceAlpha" type="matrix" values="0 0 0 0 0 0 0 0 0 0 0 0 0 0 0 0 0 0 127 0" result="hardAlpha"/>
<feOffset dx="-3" dy="3"/>
<feGaussianBlur stdDeviation="1"/>
<feComposite in2="hardAlpha" operator="arithmetic" k2="-1" k3="1"/>
<feColorMatrix type="matrix" values="0 0 0 0 0.184314 0 0 0 0 0.847059 0 0 0 0 0.886275 0 0 0 0.5 0"/>
<feBlend mode="normal" in2="shape" result="effect5_innerShadow"/>
<feColorMatrix in="SourceAlpha" type="matrix" values="0 0 0 0 0 0 0 0 0 0 0 0 0 0 0 0 0 0 127 0" result="hardAlpha"/>
<feOffset dx="3" dy="-3"/>
<feGaussianBlur stdDeviation="1"/>
<feComposite in2="hardAlpha" operator="arithmetic" k2="-1" k3="1"/>
<feColorMatrix type="matrix" values="0 0 0 0 0.184314 0 0 0 0 0.862745 0 0 0 0 0.901961 0 0 0 0.3 0"/>
<feBlend mode="normal" in2="effect5_innerShadow" result="effect6_innerShadow"/>
</filter>
<filter id="filter1_ddddii" x="150.908" y="108.713" width="616.012" height="599.426" filterUnits="userSpaceOnUse" color-interpolation-filters="sRGB">
<feFlood flood-opacity="0" result="BackgroundImageFix"/>
<feColorMatrix in="SourceAlpha" type="matrix" values="0 0 0 0 0 0 0 0 0 0 0 0 0 0 0 0 0 0 127 0"/>
<feOffset dx="-80" dy="-80"/>
<feGaussianBlur stdDeviation="100"/>
<feColorMatrix type="matrix" values="0 0 0 0 0.764706 0 0 0 0 0.129412 0 0 0 0 0.956863 0 0 0 0.9 0"/>
<feBlend mode="normal" in2="BackgroundImageFix" result="effect1_dropShadow"/>
<feColorMatrix in="SourceAlpha" type="matrix" values="0 0 0 0 0 0 0 0 0 0 0 0 0 0 0 0 0 0 127 0"/>
<feOffset dx="80" dy="80"/>
<feGaussianBlur stdDeviation="80"/>
<feColorMatrix type="matrix" values="0 0 0 0 0.780392 0 0 0 0 0.129412 0 0 0 0 0.972549 0 0 0 0.9 0"/>
<feBlend mode="normal" in2="effect1_dropShadow" result="effect2_dropShadow"/>
<feColorMatrix in="SourceAlpha" type="matrix" values="0 0 0 0 0 0 0 0 0 0 0 0 0 0 0 0 0 0 127 0"/>
<feOffset dx="-80" dy="80"/>
<feGaussianBlur stdDeviation="80"/>
<feColorMatrix type="matrix" values="0 0 0 0 0.764706 0 0 0 0 0.129412 0 0 0 0 0.956863 0 0 0 0.2 0"/>
<feBlend mode="normal" in2="effect2_dropShadow" result="effect3_dropShadow"/>
<feColorMatrix in="SourceAlpha" type="matrix" values="0 0 0 0 0 0 0 0 0 0 0 0 0 0 0 0 0 0 127 0"/>
<feOffset dx="80" dy="-80"/>
<feGaussianBlur stdDeviation="80"/>
<feColorMatrix type="matrix" values="0 0 0 0 0.764706 0 0 0 0 0.129412 0 0 0 0 0.956863 0 0 0 0.2 0"/>
<feBlend mode="normal" in2="effect3_dropShadow" result="effect4_dropShadow"/>
<feBlend mode="normal" in="SourceGraphic" in2="effect4_dropShadow" result="shape"/>
<feColorMatrix in="SourceAlpha" type="matrix" values="0 0 0 0 0 0 0 0 0 0 0 0 0 0 0 0 0 0 127 0" result="hardAlpha"/>
<feOffset dx="3" dy="3"/>
<feGaussianBlur stdDeviation="1"/>
<feComposite in2="hardAlpha" operator="arithmetic" k2="-1" k3="1"/>
<feColorMatrix type="matrix" values="0 0 0 0 0.764706 0 0 0 0 0.129412 0 0 0 0 0.956863 0 0 0 0.5 0"/>
<feBlend mode="normal" in2="shape" result="effect5_innerShadow"/>
<feColorMatrix in="SourceAlpha" type="matrix" values="0 0 0 0 0 0 0 0 0 0 0 0 0 0 0 0 0 0 127 0" result="hardAlpha"/>
<feOffset dx="-3" dy="-3"/>
<feGaussianBlur stdDeviation="1"/>
<feComposite in2="hardAlpha" operator="arithmetic" k2="-1" k3="1"/>
<feColorMatrix type="matrix" values="0 0 0 0 0.780392 0 0 0 0 0.129412 0 0 0 0 0.972549 0 0 0 0.3 0"/>
<feBlend mode="normal" in2="effect5_innerShadow" result="effect6_innerShadow"/>
</filter>
<filter id="filter2_ddddii" x="240.344" y="68.1309" width="592.57" height="611.931" filterUnits="userSpaceOnUse" color-interpolation-filters="sRGB">
<feFlood flood-opacity="0" result="BackgroundImageFix"/>
<feColorMatrix in="SourceAlpha" type="matrix" values="0 0 0 0 0 0 0 0 0 0 0 0 0 0 0 0 0 0 127 0"/>
<feOffset dx="-80" dy="80"/>
<feGaussianBlur stdDeviation="100"/>
<feColorMatrix type="matrix" values="0 0 0 0 0.0313726 0 0 0 0 0.898039 0 0 0 0 0.533333 0 0 0 0.9 0"/>
<feBlend mode="normal" in2="BackgroundImageFix" result="effect1_dropShadow"/>
<feColorMatrix in="SourceAlpha" type="matrix" values="0 0 0 0 0 0 0 0 0 0 0 0 0 0 0 0 0 0 127 0"/>
<feOffset dx="80" dy="-80"/>
<feGaussianBlur stdDeviation="80"/>
<feColorMatrix type="matrix" values="0 0 0 0 0.0313726 0 0 0 0 0.913725 0 0 0 0 0.541176 0 0 0 0.9 0"/>
<feBlend mode="normal" in2="effect1_dropShadow" result="effect2_dropShadow"/>
<feColorMatrix in="SourceAlpha" type="matrix" values="0 0 0 0 0 0 0 0 0 0 0 0 0 0 0 0 0 0 127 0"/>
<feOffset dx="-80" dy="-80"/>
<feGaussianBlur stdDeviation="80"/>
<feColorMatrix type="matrix" values="0 0 0 0 0.0313726 0 0 0 0 0.898039 0 0 0 0 0.533333 0 0 0 0.2 0"/>
<feBlend mode="normal" in2="effect2_dropShadow" result="effect3_dropShadow"/>
<feColorMatrix in="SourceAlpha" type="matrix" values="0 0 0 0 0 0 0 0 0 0 0 0 0 0 0 0 0 0 127 0"/>
<feOffset dx="80" dy="80"/>
<feGaussianBlur stdDeviation="80"/>
<feColorMatrix type="matrix" values="0 0 0 0 0.0313726 0 0 0 0 0.898039 0 0 0 0 0.533333 0 0 0 0.2 0"/>
<feBlend mode="normal" in2="effect3_dropShadow" result="effect4_dropShadow"/>
<feBlend mode="normal" in="SourceGraphic" in2="effect4_dropShadow" result="shape"/>
<feColorMatrix in="SourceAlpha" type="matrix" values="0 0 0 0 0 0 0 0 0 0 0 0 0 0 0 0 0 0 127 0" result="hardAlpha"/>
<feOffset dx="3" dy="-3"/>
<feGaussianBlur stdDeviation="1"/>
<feComposite in2="hardAlpha" operator="arithmetic" k2="-1" k3="1"/>
<feColorMatrix type="matrix" values="0 0 0 0 0.0313726 0 0 0 0 0.898039 0 0 0 0 0.533333 0 0 0 0.5 0"/>
<feBlend mode="normal" in2="shape" result="effect5_innerShadow"/>
<feColorMatrix in="SourceAlpha" type="matrix" values="0 0 0 0 0 0 0 0 0 0 0 0 0 0 0 0 0 0 127 0" result="hardAlpha"/>
<feOffset dx="-3" dy="3"/>
<feGaussianBlur stdDeviation="1"/>
<feComposite in2="hardAlpha" operator="arithmetic" k2="-1" k3="1"/>
<feColorMatrix type="matrix" values="0 0 0 0 0.0313726 0 0 0 0 0.913725 0 0 0 0 0.541176 0 0 0 0.3 0"/>
<feBlend mode="normal" in2="effect5_innerShadow" result="effect6_innerShadow"/>
</filter>
<filter id="filter3_ddddii" x="186.914" y="0" width="625" height="598.083" filterUnits="userSpaceOnUse" color-interpolation-filters="sRGB">
<feFlood flood-opacity="0" result="BackgroundImageFix"/>
<feColorMatrix in="SourceAlpha" type="matrix" values="0 0 0 0 0 0 0 0 0 0 0 0 0 0 0 0 0 0 127 0"/>
<feOffset dx="80" dy="80"/>
<feGaussianBlur stdDeviation="100"/>
<feColorMatrix type="matrix" values="0 0 0 0 0.94902 0 0 0 0 0.176471 0 0 0 0 0.568627 0 0 0 0.9 0"/>
<feBlend mode="normal" in2="BackgroundImageFix" result="effect1_dropShadow"/>
<feColorMatrix in="SourceAlpha" type="matrix" values="0 0 0 0 0 0 0 0 0 0 0 0 0 0 0 0 0 0 127 0"/>
<feOffset dx="-80" dy="-80"/>
<feGaussianBlur stdDeviation="80"/>
<feColorMatrix type="matrix" values="0 0 0 0 0.964706 0 0 0 0 0.176471 0 0 0 0 0.576471 0 0 0 0.9 0"/>
<feBlend mode="normal" in2="effect1_dropShadow" result="effect2_dropShadow"/>
<feColorMatrix in="SourceAlpha" type="matrix" values="0 0 0 0 0 0 0 0 0 0 0 0 0 0 0 0 0 0 127 0"/>
<feOffset dx="80" dy="-80"/>
<feGaussianBlur stdDeviation="80"/>
<feColorMatrix type="matrix" values="0 0 0 0 0.94902 0 0 0 0 0.176471 0 0 0 0 0.568627 0 0 0 0.2 0"/>
<feBlend mode="normal" in2="effect2_dropShadow" result="effect3_dropShadow"/>
<feColorMatrix in="SourceAlpha" type="matrix" values="0 0 0 0 0 0 0 0 0 0 0 0 0 0 0 0 0 0 127 0"/>
<feOffset dx="-80" dy="80"/>
<feGaussianBlur stdDeviation="80"/>
<feColorMatrix type="matrix" values="0 0 0 0 0.94902 0 0 0 0 0.176471 0 0 0 0 0.568627 0 0 0 0.2 0"/>
<feBlend mode="normal" in2="effect3_dropShadow" result="effect4_dropShadow"/>
<feBlend mode="normal" in="SourceGraphic" in2="effect4_dropShadow" result="shape"/>
<feColorMatrix in="SourceAlpha" type="matrix" values="0 0 0 0 0 0 0 0 0 0 0 0 0 0 0 0 0 0 127 0" result="hardAlpha"/>
<feOffset dx="-3" dy="-3"/>
<feGaussianBlur stdDeviation="2"/>
<feComposite in2="hardAlpha" operator="arithmetic" k2="-1" k3="1"/>
<feColorMatrix type="matrix" values="0 0 0 0 0.94902 0 0 0 0 0.176471 0 0 0 0 0.568627 0 0 0 0.5 0"/>
<feBlend mode="normal" in2="shape" result="effect5_innerShadow"/>
<feColorMatrix in="SourceAlpha" type="matrix" values="0 0 0 0 0 0 0 0 0 0 0 0 0 0 0 0 0 0 127 0" result="hardAlpha"/>
<feOffset dx="3" dy="3"/>
<feGaussianBlur stdDeviation="2"/>
<feComposite in2="hardAlpha" operator="arithmetic" k2="-1" k3="1"/>
<feColorMatrix type="matrix" values="0 0 0 0 0.964706 0 0 0 0 0.176471 0 0 0 0 0.576471 0 0 0 0.3 0"/>
<feBlend mode="normal" in2="effect5_innerShadow" result="effect6_innerShadow"/>
</filter>
<filter id="filter4_bddddii" x="0.729004" y="219.88" width="1014.88" height="711.764" filterUnits="userSpaceOnUse" color-interpolation-filters="sRGB">
<feFlood flood-opacity="0" result="BackgroundImageFix"/>
<feGaussianBlur in="BackgroundImage" stdDeviation="125"/>
<feComposite in2="SourceAlpha" operator="in" result="effect1_backgroundBlur"/>
<feColorMatrix in="SourceAlpha" type="matrix" values="0 0 0 0 0 0 0 0 0 0 0 0 0 0 0 0 0 0 127 0"/>
<feOffset dx="100" dy="100"/>
<feGaussianBlur stdDeviation="125"/>
<feColorMatrix type="matrix" values="0 0 0 0 0.368627 0 0 0 0 0.368627 0 0 0 0 0.376471 0 0 0 0.9 0"/>
<feBlend mode="normal" in2="effect1_backgroundBlur" result="effect2_dropShadow"/>
<feColorMatrix in="SourceAlpha" type="matrix" values="0 0 0 0 0 0 0 0 0 0 0 0 0 0 0 0 0 0 127 0"/>
<feOffset dx="-100" dy="-100"/>
<feGaussianBlur stdDeviation="100"/>
<feColorMatrix type="matrix" values="0 0 0 0 1 0 0 0 0 1 0 0 0 0 1 0 0 0 0.9 0"/>
<feBlend mode="normal" in2="effect2_dropShadow" result="effect3_dropShadow"/>
<feColorMatrix in="SourceAlpha" type="matrix" values="0 0 0 0 0 0 0 0 0 0 0 0 0 0 0 0 0 0 127 0"/>
<feOffset dx="100" dy="-100"/>
<feGaussianBlur stdDeviation="100"/>
<feColorMatrix type="matrix" values="0 0 0 0 0.368627 0 0 0 0 0.368627 0 0 0 0 0.376471 0 0 0 0.2 0"/>
<feBlend mode="normal" in2="effect3_dropShadow" result="effect4_dropShadow"/>
<feColorMatrix in="SourceAlpha" type="matrix" values="0 0 0 0 0 0 0 0 0 0 0 0 0 0 0 0 0 0 127 0"/>
<feOffset dx="-100" dy="100"/>
<feGaussianBlur stdDeviation="100"/>
<feColorMatrix type="matrix" values="0 0 0 0 0.368627 0 0 0 0 0.368627 0 0 0 0 0.376471 0 0 0 0.2 0"/>
<feBlend mode="normal" in2="effect4_dropShadow" result="effect5_dropShadow"/>
<feBlend mode="normal" in="SourceGraphic" in2="effect5_dropShadow" result="shape"/>
<feColorMatrix in="SourceAlpha" type="matrix" values="0 0 0 0 0 0 0 0 0 0 0 0 0 0 0 0 0 0 127 0" result="hardAlpha"/>
<feOffset dx="-4" dy="-4"/>
<feGaussianBlur stdDeviation="2.5"/>
<feComposite in2="hardAlpha" operator="arithmetic" k2="-1" k3="1"/>
<feColorMatrix type="matrix" values="0 0 0 0 0.368627 0 0 0 0 0.368627 0 0 0 0 0.376471 0 0 0 0.5 0"/>
<feBlend mode="normal" in2="shape" result="effect6_innerShadow"/>
<feColorMatrix in="SourceAlpha" type="matrix" values="0 0 0 0 0 0 0 0 0 0 0 0 0 0 0 0 0 0 127 0" result="hardAlpha"/>
<feOffset dx="4" dy="4"/>
<feGaussianBlur stdDeviation="2.5"/>
<feComposite in2="hardAlpha" operator="arithmetic" k2="-1" k3="1"/>
<feColorMatrix type="matrix" values="0 0 0 0 1 0 0 0 0 1 0 0 0 0 1 0 0 0 0.3 0"/>
<feBlend mode="normal" in2="effect6_innerShadow" result="effect7_innerShadow"/>
</filter>
<linearGradient id="paint0_linear" x1="375" y1="304.301" x2="464.914" y2="377.083" gradientUnits="userSpaceOnUse">
<stop stop-color="#2DCFD9"/>
<stop offset="1" stop-color="#31E5EF"/>
</linearGradient>
<linearGradient id="paint1_linear" x1="430.908" y1="388.713" x2="508.927" y2="483.024" gradientUnits="userSpaceOnUse">
<stop stop-color="#BB1FED"/>
<stop offset="1" stop-color="#CF23FF"/>
</linearGradient>
<linearGradient id="paint2_linear" x1="520.344" y1="308.131" x2="609.762" y2="378.718" gradientUnits="userSpaceOnUse">
<stop stop-color="#08DB82"/>
<stop offset="1" stop-color="#08F390"/>
</linearGradient>
<linearGradient id="paint3_linear" x1="426.914" y1="240" x2="501.693" y2="340.557" gradientUnits="userSpaceOnUse">
<stop stop-color="#E92B8B"/>
<stop offset="1" stop-color="#FF2F99"/>
</linearGradient>
</defs>
</svg>
