<svg width="700" height="700" viewBox="0 0 1016 932" fill="none" xmlns="http://www.w3.org/2000/svg"><g filter="url(#filter0_ddddii)"><path d="M449.414 354.5c0 25.386-37.745 41.732-63.131 41.732-25.386 0 0-23.846 0-49.232s-25.386-42.699 0-42.699 63.131 24.813 63.131 50.199z" fill="url(#paint0_linear)"/></g><g filter="url(#filter1_ddddii)"><path d="M526.92 450.713c0 25.386-18.66 6.143-44.046 6.143s-51.966 25.386-51.966 0 26.58-68.143 51.966-68.143c25.386 0 44.046 36.614 44.046 62z" fill="url(#paint1_linear)"/></g><g filter="url(#filter2_ddddii)"><path d="M581.631 354.096c0 25.386 25.386 45.966 0 45.966s-61.287-20.58-61.287-45.966c0-25.386 35.901-45.965 61.287-45.965 25.386 0 0 20.579 0 45.965z" fill="url(#paint2_linear)"/></g><g filter="url(#filter3_ddddii)"><path d="M531.914 249.083c0 25.386-23.614 69-49 69s-56-43.614-56-69c0-25.386 30.614 10.5 56 10.5s49-35.886 49-10.5z" fill="url(#paint3_linear)"/></g><g filter="url(#filter4_bddddii)"><path d="M345.129 577.24c-1.813 1.12-4.08 2.16-6.8 3.12-2.667.907-5.653 1.333-8.96 1.28-4.32 0-8.24-.747-11.76-2.24-3.52-1.547-6.533-3.627-9.04-6.24a29.307 29.307 0 01-5.84-9.12c-1.333-3.467-2-7.147-2-11.04 0-4.16.72-8.027 2.16-11.6 1.44-3.573 3.467-6.693 6.08-9.36a28.321 28.321 0 019.12-6.24c3.467-1.493 7.227-2.24 11.28-2.24 2.987 0 5.787.4 8.4 1.2 2.613.8 4.987 1.84 7.12 3.12l-1.68 3.6c-1.867-1.173-3.973-2.16-6.32-2.96-2.347-.8-4.827-1.2-7.44-1.2-3.36 0-6.533.667-9.52 2a24.423 24.423 0 00-7.92 5.44c-2.24 2.293-4 4.987-5.28 8.08-1.28 3.093-1.92 6.427-1.92 10 0 4.587 1.013 8.773 3.04 12.56 2.027 3.787 4.88 6.827 8.56 9.12 3.68 2.24 8.027 3.36 13.04 3.36 2.773 0 5.307-.373 7.6-1.12 2.347-.8 4.427-1.787 6.24-2.96l1.84 3.44zm15.873-27.52l.32 7.44c.8-1.707 1.92-3.173 3.36-4.4 1.493-1.28 3.093-2.24 4.8-2.88 1.76-.693 3.44-1.04 5.04-1.04l-.16 3.68c-2.4 0-4.587.533-6.56 1.6a12.896 12.896 0 00-4.64 4.32c-1.12 1.76-1.68 3.76-1.68 6V581h-3.76v-31.28h3.28zm36.633 31.92c-2.987 0-5.707-.667-8.16-2-2.4-1.387-4.32-3.307-5.76-5.76-1.387-2.453-2.08-5.307-2.08-8.56 0-3.467.746-6.427 2.24-8.88 1.493-2.507 3.52-4.4 6.08-5.68 2.56-1.333 5.466-2 8.72-2 2.56 0 5.013.747 7.36 2.24 2.4 1.44 4.186 3.28 5.36 5.52l.4-6.8h3.36V581h-3.76v-6.64c-1.174 1.867-2.987 3.547-5.44 5.04-2.454 1.493-5.227 2.24-8.32 2.24zm.8-3.2c2.346 0 4.453-.48 6.32-1.44 1.92-1.013 3.466-2.4 4.64-4.16 1.173-1.76 1.84-3.787 2-6.08v-4.48a12.217 12.217 0 00-2.56-5.28 13.377 13.377 0 00-4.56-3.68c-1.814-.907-3.787-1.36-5.92-1.36-2.347 0-4.507.56-6.48 1.68-1.974 1.067-3.547 2.587-4.72 4.56-1.174 1.973-1.76 4.293-1.76 6.96 0 2.453.586 4.693 1.76 6.72a14.01 14.01 0 004.72 4.8 12.872 12.872 0 006.56 1.76zm33.007 2.56v-27.76h-5.44v-3.44h5.44v-15.76c0-5.013.854-8.613 2.56-10.8 1.76-2.24 4.347-3.36 7.76-3.36.747 0 1.547.107 2.4.32.854.16 1.627.453 2.32.88l-1.6 2.72c-.693-.533-1.626-.8-2.8-.8-2.293 0-4.026.8-5.2 2.4-1.12 1.6-1.68 4.453-1.68 8.56v15.84h10.48v3.44h-10.48V581h-3.76zm26.978-45.04h3.84v14.16h9.68v3.04h-9.68V581h-3.84v-27.84h-6.64v-3.04h6.64v-14.16zM507.767 581v-56.8h14c5.493 0 10.16.88 14 2.64 3.893 1.707 7.04 3.973 9.44 6.8 2.4 2.827 4.16 5.92 5.28 9.28 1.12 3.36 1.68 6.693 1.68 10 0 4.32-.747 8.213-2.24 11.68-1.494 3.413-3.547 6.347-6.16 8.8a27.429 27.429 0 01-8.8 5.68c-3.307 1.28-6.8 1.92-10.48 1.92h-16.72zm3.92-3.76h11.76c4.586 0 8.746-.987 12.48-2.96 3.733-1.973 6.693-4.8 8.88-8.48 2.24-3.68 3.36-8.053 3.36-13.12 0-3.253-.56-6.347-1.68-9.28a22.155 22.155 0 00-4.88-7.92c-2.187-2.293-4.88-4.107-8.08-5.44-3.2-1.333-6.934-2-11.2-2h-10.64v49.2zm66.026 4.4c-2.987 0-5.707-.667-8.16-2-2.4-1.387-4.32-3.307-5.76-5.76-1.387-2.453-2.08-5.307-2.08-8.56 0-3.467.746-6.427 2.24-8.88 1.493-2.507 3.52-4.4 6.08-5.68 2.56-1.333 5.466-2 8.72-2 2.56 0 5.013.747 7.36 2.24 2.4 1.44 4.186 3.28 5.36 5.52l.4-6.8h3.36V581h-3.76v-6.64c-1.174 1.867-2.987 3.547-5.44 5.04-2.454 1.493-5.227 2.24-8.32 2.24zm.8-3.2c2.346 0 4.453-.48 6.32-1.44 1.92-1.013 3.466-2.4 4.64-4.16 1.173-1.76 1.84-3.787 2-6.08v-4.48a12.217 12.217 0 00-2.56-5.28 13.377 13.377 0 00-4.56-3.68c-1.814-.907-3.787-1.36-5.92-1.36-2.347 0-4.507.56-6.48 1.68-1.974 1.067-3.547 2.587-4.72 4.56-1.174 1.973-1.76 4.293-1.76 6.96 0 2.453.586 4.693 1.76 6.72a14.01 14.01 0 004.72 4.8 12.872 12.872 0 006.56 1.76zm38.287 3.2c-1.813 0-3.706-.32-5.68-.96-1.973-.693-3.573-1.787-4.8-3.28l1.76-2.48a12.82 12.82 0 003.76 2.72c1.494.64 3.067.96 4.72.96 1.814 0 3.467-.427 4.96-1.28 1.494-.853 2.24-2.347 2.24-4.48 0-1.493-.426-2.64-1.28-3.44-.8-.8-1.84-1.44-3.12-1.92a37.515 37.515 0 00-3.92-1.44c-2.293-.747-4.186-1.76-5.68-3.04-1.44-1.28-2.16-3.093-2.16-5.44 0-2.56.88-4.613 2.64-6.16 1.814-1.6 4.107-2.4 6.88-2.4 1.654 0 3.28.267 4.88.8 1.654.533 3.147 1.44 4.48 2.72l-1.68 2.64c-.853-1.173-2-1.973-3.44-2.4-1.386-.427-2.613-.667-3.68-.72-1.386 0-2.8.427-4.24 1.28-1.386.8-2.08 2.053-2.08 3.76 0 1.227.347 2.24 1.04 3.04.694.747 1.574 1.36 2.64 1.84 1.12.48 2.267.933 3.44 1.36a26.134 26.134 0 014.32 1.76c1.387.64 2.507 1.52 3.36 2.64.907 1.067 1.36 2.507 1.36 4.32 0 2.773-.906 5.067-2.72 6.88-1.76 1.813-4.426 2.72-8 2.72zm22.093-.64v-60.8h3.68v36c1.12-2.08 2.827-3.813 5.12-5.2 2.347-1.44 5.014-2.16 8-2.16 2.934 0 5.307.88 7.12 2.64 1.814 1.707 2.747 3.947 2.8 6.72V581h-3.84v-21.76c-.053-2.027-.693-3.707-1.92-5.04-1.226-1.333-3.013-2.027-5.36-2.08-2.08 0-4.026.533-5.84 1.6a12.643 12.643 0 00-4.4 4.32c-1.066 1.813-1.6 3.867-1.6 6.16V581h-3.76z" fill="#EAECEF"/></g><defs><filter id="filter0_ddddii" x="135" y="24.301" width="594.414" height="611.931" filterUnits="userSpaceOnUse" color-interpolation-filters="sRGB"><feFlood flood-opacity="0" result="BackgroundImageFix"/><feColorMatrix in="SourceAlpha" values="0 0 0 0 0 0 0 0 0 0 0 0 0 0 0 0 0 0 127 0"/><feOffset dx="80" dy="-80"/><feGaussianBlur stdDeviation="100"/><feColorMatrix values="0 0 0 0 0.184314 0 0 0 0 0.847059 0 0 0 0 0.886275 0 0 0 0.9 0"/><feBlend in2="BackgroundImageFix" result="effect1_dropShadow"/><feColorMatrix in="SourceAlpha" values="0 0 0 0 0 0 0 0 0 0 0 0 0 0 0 0 0 0 127 0"/><feOffset dx="-80" dy="80"/><feGaussianBlur stdDeviation="80"/><feColorMatrix values="0 0 0 0 0.184314 0 0 0 0 0.862745 0 0 0 0 0.901961 0 0 0 0.9 0"/><feBlend in2="effect1_dropShadow" result="effect2_dropShadow"/><feColorMatrix in="SourceAlpha" values="0 0 0 0 0 0 0 0 0 0 0 0 0 0 0 0 0 0 127 0"/><feOffset dx="80" dy="80"/><feGaussianBlur stdDeviation="80"/><feColorMatrix values="0 0 0 0 0.184314 0 0 0 0 0.847059 0 0 0 0 0.886275 0 0 0 0.2 0"/><feBlend in2="effect2_dropShadow" result="effect3_dropShadow"/><feColorMatrix in="SourceAlpha" values="0 0 0 0 0 0 0 0 0 0 0 0 0 0 0 0 0 0 127 0"/><feOffset dx="-80" dy="-80"/><feGaussianBlur stdDeviation="80"/><feColorMatrix values="0 0 0 0 0.184314 0 0 0 0 0.847059 0 0 0 0 0.886275 0 0 0 0.2 0"/><feBlend in2="effect3_dropShadow" result="effect4_dropShadow"/><feBlend in="SourceGraphic" in2="effect4_dropShadow" result="shape"/><feColorMatrix in="SourceAlpha" values="0 0 0 0 0 0 0 0 0 0 0 0 0 0 0 0 0 0 127 0" result="hardAlpha"/><feOffset dx="-3" dy="3"/><feGaussianBlur stdDeviation="1"/><feComposite in2="hardAlpha" operator="arithmetic" k2="-1" k3="1"/><feColorMatrix values="0 0 0 0 0.184314 0 0 0 0 0.847059 0 0 0 0 0.886275 0 0 0 0.5 0"/><feBlend in2="shape" result="effect5_innerShadow"/><feColorMatrix in="SourceAlpha" values="0 0 0 0 0 0 0 0 0 0 0 0 0 0 0 0 0 0 127 0" result="hardAlpha"/><feOffset dx="3" dy="-3"/><feGaussianBlur stdDeviation="1"/><feComposite in2="hardAlpha" operator="arithmetic" k2="-1" k3="1"/><feColorMatrix values="0 0 0 0 0.184314 0 0 0 0 0.862745 0 0 0 0 0.901961 0 0 0 0.3 0"/><feBlend in2="effect5_innerShadow" result="effect6_innerShadow"/></filter><filter id="filter1_ddddii" x="150.908" y="108.713" width="616.012" height="599.426" filterUnits="userSpaceOnUse" color-interpolation-filters="sRGB"><feFlood flood-opacity="0" result="BackgroundImageFix"/><feColorMatrix in="SourceAlpha" values="0 0 0 0 0 0 0 0 0 0 0 0 0 0 0 0 0 0 127 0"/><feOffset dx="-80" dy="-80"/><feGaussianBlur stdDeviation="100"/><feColorMatrix values="0 0 0 0 0.764706 0 0 0 0 0.129412 0 0 0 0 0.956863 0 0 0 0.9 0"/><feBlend in2="BackgroundImageFix" result="effect1_dropShadow"/><feColorMatrix in="SourceAlpha" values="0 0 0 0 0 0 0 0 0 0 0 0 0 0 0 0 0 0 127 0"/><feOffset dx="80" dy="80"/><feGaussianBlur stdDeviation="80"/><feColorMatrix values="0 0 0 0 0.780392 0 0 0 0 0.129412 0 0 0 0 0.972549 0 0 0 0.9 0"/><feBlend in2="effect1_dropShadow" result="effect2_dropShadow"/><feColorMatrix in="SourceAlpha" values="0 0 0 0 0 0 0 0 0 0 0 0 0 0 0 0 0 0 127 0"/><feOffset dx="-80" dy="80"/><feGaussianBlur stdDeviation="80"/><feColorMatrix values="0 0 0 0 0.764706 0 0 0 0 0.129412 0 0 0 0 0.956863 0 0 0 0.2 0"/><feBlend in2="effect2_dropShadow" result="effect3_dropShadow"/><feColorMatrix in="SourceAlpha" values="0 0 0 0 0 0 0 0 0 0 0 0 0 0 0 0 0 0 127 0"/><feOffset dx="80" dy="-80"/><feGaussianBlur stdDeviation="80"/><feColorMatrix values="0 0 0 0 0.764706 0 0 0 0 0.129412 0 0 0 0 0.956863 0 0 0 0.2 0"/><feBlend in2="effect3_dropShadow" result="effect4_dropShadow"/><feBlend in="SourceGraphic" in2="effect4_dropShadow" result="shape"/><feColorMatrix in="SourceAlpha" values="0 0 0 0 0 0 0 0 0 0 0 0 0 0 0 0 0 0 127 0" result="hardAlpha"/><feOffset dx="3" dy="3"/><feGaussianBlur stdDeviation="1"/><feComposite in2="hardAlpha" operator="arithmetic" k2="-1" k3="1"/><feColorMatrix values="0 0 0 0 0.764706 0 0 0 0 0.129412 0 0 0 0 0.956863 0 0 0 0.5 0"/><feBlend in2="shape" result="effect5_innerShadow"/><feColorMatrix in="SourceAlpha" values="0 0 0 0 0 0 0 0 0 0 0 0 0 0 0 0 0 0 127 0" result="hardAlpha"/><feOffset dx="-3" dy="-3"/><feGaussianBlur stdDeviation="1"/><feComposite in2="hardAlpha" operator="arithmetic" k2="-1" k3="1"/><feColorMatrix values="0 0 0 0 0.780392 0 0 0 0 0.129412 0 0 0 0 0.972549 0 0 0 0.3 0"/><feBlend in2="effect5_innerShadow" result="effect6_innerShadow"/></filter><filter id="filter2_ddddii" x="240.344" y="68.131" width="592.57" height="611.931" filterUnits="userSpaceOnUse" color-interpolation-filters="sRGB"><feFlood flood-opacity="0" result="BackgroundImageFix"/><feColorMatrix in="SourceAlpha" values="0 0 0 0 0 0 0 0 0 0 0 0 0 0 0 0 0 0 127 0"/><feOffset dx="-80" dy="80"/><feGaussianBlur stdDeviation="100"/><feColorMatrix values="0 0 0 0 0.0313726 0 0 0 0 0.898039 0 0 0 0 0.533333 0 0 0 0.9 0"/><feBlend in2="BackgroundImageFix" result="effect1_dropShadow"/><feColorMatrix in="SourceAlpha" values="0 0 0 0 0 0 0 0 0 0 0 0 0 0 0 0 0 0 127 0"/><feOffset dx="80" dy="-80"/><feGaussianBlur stdDeviation="80"/><feColorMatrix values="0 0 0 0 0.0313726 0 0 0 0 0.913725 0 0 0 0 0.541176 0 0 0 0.9 0"/><feBlend in2="effect1_dropShadow" result="effect2_dropShadow"/><feColorMatrix in="SourceAlpha" values="0 0 0 0 0 0 0 0 0 0 0 0 0 0 0 0 0 0 127 0"/><feOffset dx="-80" dy="-80"/><feGaussianBlur stdDeviation="80"/><feColorMatrix values="0 0 0 0 0.0313726 0 0 0 0 0.898039 0 0 0 0 0.533333 0 0 0 0.2 0"/><feBlend in2="effect2_dropShadow" result="effect3_dropShadow"/><feColorMatrix in="SourceAlpha" values="0 0 0 0 0 0 0 0 0 0 0 0 0 0 0 0 0 0 127 0"/><feOffset dx="80" dy="80"/><feGaussianBlur stdDeviation="80"/><feColorMatrix values="0 0 0 0 0.0313726 0 0 0 0 0.898039 0 0 0 0 0.533333 0 0 0 0.2 0"/><feBlend in2="effect3_dropShadow" result="effect4_dropShadow"/><feBlend in="SourceGraphic" in2="effect4_dropShadow" result="shape"/><feColorMatrix in="SourceAlpha" values="0 0 0 0 0 0 0 0 0 0 0 0 0 0 0 0 0 0 127 0" result="hardAlpha"/><feOffset dx="3" dy="-3"/><feGaussianBlur stdDeviation="1"/><feComposite in2="hardAlpha" operator="arithmetic" k2="-1" k3="1"/><feColorMatrix values="0 0 0 0 0.0313726 0 0 0 0 0.898039 0 0 0 0 0.533333 0 0 0 0.5 0"/><feBlend in2="shape" result="effect5_innerShadow"/><feColorMatrix in="SourceAlpha" values="0 0 0 0 0 0 0 0 0 0 0 0 0 0 0 0 0 0 127 0" result="hardAlpha"/><feOffset dx="-3" dy="3"/><feGaussianBlur stdDeviation="1"/><feComposite in2="hardAlpha" operator="arithmetic" k2="-1" k3="1"/><feColorMatrix values="0 0 0 0 0.0313726 0 0 0 0 0.913725 0 0 0 0 0.541176 0 0 0 0.3 0"/><feBlend in2="effect5_innerShadow" result="effect6_innerShadow"/></filter><filter id="filter3_ddddii" x="186.914" y="0" width="625" height="598.083" filterUnits="userSpaceOnUse" color-interpolation-filters="sRGB"><feFlood flood-opacity="0" result="BackgroundImageFix"/><feColorMatrix in="SourceAlpha" values="0 0 0 0 0 0 0 0 0 0 0 0 0 0 0 0 0 0 127 0"/><feOffset dx="80" dy="80"/><feGaussianBlur stdDeviation="100"/><feColorMatrix values="0 0 0 0 0.94902 0 0 0 0 0.176471 0 0 0 0 0.568627 0 0 0 0.9 0"/><feBlend in2="BackgroundImageFix" result="effect1_dropShadow"/><feColorMatrix in="SourceAlpha" values="0 0 0 0 0 0 0 0 0 0 0 0 0 0 0 0 0 0 127 0"/><feOffset dx="-80" dy="-80"/><feGaussianBlur stdDeviation="80"/><feColorMatrix values="0 0 0 0 0.964706 0 0 0 0 0.176471 0 0 0 0 0.576471 0 0 0 0.9 0"/><feBlend in2="effect1_dropShadow" result="effect2_dropShadow"/><feColorMatrix in="SourceAlpha" values="0 0 0 0 0 0 0 0 0 0 0 0 0 0 0 0 0 0 127 0"/><feOffset dx="80" dy="-80"/><feGaussianBlur stdDeviation="80"/><feColorMatrix values="0 0 0 0 0.94902 0 0 0 0 0.176471 0 0 0 0 0.568627 0 0 0 0.2 0"/><feBlend in2="effect2_dropShadow" result="effect3_dropShadow"/><feColorMatrix in="SourceAlpha" values="0 0 0 0 0 0 0 0 0 0 0 0 0 0 0 0 0 0 127 0"/><feOffset dx="-80" dy="80"/><feGaussianBlur stdDeviation="80"/><feColorMatrix values="0 0 0 0 0.94902 0 0 0 0 0.176471 0 0 0 0 0.568627 0 0 0 0.2 0"/><feBlend in2="effect3_dropShadow" result="effect4_dropShadow"/><feBlend in="SourceGraphic" in2="effect4_dropShadow" result="shape"/><feColorMatrix in="SourceAlpha" values="0 0 0 0 0 0 0 0 0 0 0 0 0 0 0 0 0 0 127 0" result="hardAlpha"/><feOffset dx="-3" dy="-3"/><feGaussianBlur stdDeviation="2"/><feComposite in2="hardAlpha" operator="arithmetic" k2="-1" k3="1"/><feColorMatrix values="0 0 0 0 0.94902 0 0 0 0 0.176471 0 0 0 0 0.568627 0 0 0 0.5 0"/><feBlend in2="shape" result="effect5_innerShadow"/><feColorMatrix in="SourceAlpha" values="0 0 0 0 0 0 0 0 0 0 0 0 0 0 0 0 0 0 127 0" result="hardAlpha"/><feOffset dx="3" dy="3"/><feGaussianBlur stdDeviation="2"/><feComposite in2="hardAlpha" operator="arithmetic" k2="-1" k3="1"/><feColorMatrix values="0 0 0 0 0.964706 0 0 0 0 0.176471 0 0 0 0 0.576471 0 0 0 0.3 0"/><feBlend in2="effect5_innerShadow" result="effect6_innerShadow"/></filter><filter id="filter4_bddddii" x=".729" y="219.88" width="1014.88" height="711.764" filterUnits="userSpaceOnUse" color-interpolation-filters="sRGB"><feFlood flood-opacity="0" result="BackgroundImageFix"/><feGaussianBlur in="BackgroundImage" stdDeviation="125"/><feComposite in2="SourceAlpha" operator="in" result="effect1_backgroundBlur"/><feColorMatrix in="SourceAlpha" values="0 0 0 0 0 0 0 0 0 0 0 0 0 0 0 0 0 0 127 0"/><feOffset dx="100" dy="100"/><feGaussianBlur stdDeviation="125"/><feColorMatrix values="0 0 0 0 0.368627 0 0 0 0 0.368627 0 0 0 0 0.376471 0 0 0 0.9 0"/><feBlend in2="effect1_backgroundBlur" result="effect2_dropShadow"/><feColorMatrix in="SourceAlpha" values="0 0 0 0 0 0 0 0 0 0 0 0 0 0 0 0 0 0 127 0"/><feOffset dx="-100" dy="-100"/><feGaussianBlur stdDeviation="100"/><feColorMatrix values="0 0 0 0 1 0 0 0 0 1 0 0 0 0 1 0 0 0 0.9 0"/><feBlend in2="effect2_dropShadow" result="effect3_dropShadow"/><feColorMatrix in="SourceAlpha" values="0 0 0 0 0 0 0 0 0 0 0 0 0 0 0 0 0 0 127 0"/><feOffset dx="100" dy="-100"/><feGaussianBlur stdDeviation="100"/><feColorMatrix values="0 0 0 0 0.368627 0 0 0 0 0.368627 0 0 0 0 0.376471 0 0 0 0.2 0"/><feBlend in2="effect3_dropShadow" result="effect4_dropShadow"/><feColorMatrix in="SourceAlpha" values="0 0 0 0 0 0 0 0 0 0 0 0 0 0 0 0 0 0 127 0"/><feOffset dx="-100" dy="100"/><feGaussianBlur stdDeviation="100"/><feColorMatrix values="0 0 0 0 0.368627 0 0 0 0 0.368627 0 0 0 0 0.376471 0 0 0 0.2 0"/><feBlend in2="effect4_dropShadow" result="effect5_dropShadow"/><feBlend in="SourceGraphic" in2="effect5_dropShadow" result="shape"/><feColorMatrix in="SourceAlpha" values="0 0 0 0 0 0 0 0 0 0 0 0 0 0 0 0 0 0 127 0" result="hardAlpha"/><feOffset dx="-4" dy="-4"/><feGaussianBlur stdDeviation="2.5"/><feComposite in2="hardAlpha" operator="arithmetic" k2="-1" k3="1"/><feColorMatrix values="0 0 0 0 0.368627 0 0 0 0 0.368627 0 0 0 0 0.376471 0 0 0 0.5 0"/><feBlend in2="shape" result="effect6_innerShadow"/><feColorMatrix in="SourceAlpha" values="0 0 0 0 0 0 0 0 0 0 0 0 0 0 0 0 0 0 127 0" result="hardAlpha"/><feOffset dx="4" dy="4"/><feGaussianBlur stdDeviation="2.5"/><feComposite in2="hardAlpha" operator="arithmetic" k2="-1" k3="1"/><feColorMatrix values="0 0 0 0 1 0 0 0 0 1 0 0 0 0 1 0 0 0 0.3 0"/><feBlend in2="effect6_innerShadow" result="effect7_innerShadow"/></filter><linearGradient id="paint0_linear" x1="375" y1="304.301" x2="464.914" y2="377.083" gradientUnits="userSpaceOnUse"><stop stop-color="#2DCFD9"/><stop offset="1" stop-color="#31E5EF"/></linearGradient><linearGradient id="paint1_linear" x1="430.908" y1="388.713" x2="508.927" y2="483.024" gradientUnits="userSpaceOnUse"><stop stop-color="#BB1FED"/><stop offset="1" stop-color="#CF23FF"/></linearGradient><linearGradient id="paint2_linear" x1="520.344" y1="308.131" x2="609.762" y2="378.718" gradientUnits="userSpaceOnUse"><stop stop-color="#08DB82"/><stop offset="1" stop-color="#08F390"/></linearGradient><linearGradient id="paint3_linear" x1="426.914" y1="240" x2="501.693" y2="340.557" gradientUnits="userSpaceOnUse"><stop stop-color="#E92B8B"/><stop offset="1" stop-color="#FF2F99"/></linearGradient></defs></svg>