<svg width="55" height="55" viewBox="0 0 55 55" fill="none" xmlns="http://www.w3.org/2000/svg">
<path fill-rule="evenodd" clip-rule="evenodd" d="M35.9163 13.9352C34.7507 10.3058 32.881 7.0936 30.2462 4.32948C29.5801 3.63028 28.8398 2.98972 28.3751 2.11998C28.0815 1.56939 27.8017 1.0112 27.5157 0.457031L27.3339 0L27.2833 0.179947C27.2596 1.08416 26.7475 1.69697 26.1101 2.26949C25.3921 2.91318 24.7242 3.61238 24.0349 4.28785L21.9149 7.07614L20.2009 10.2284L19.0546 13.3237L19.0201 13.3716C18.3894 15.4437 18.0783 17.5744 17.9256 19.7257C17.8679 20.5346 17.9341 21.3547 17.9793 22.1676C18.0443 23.3296 18.2461 24.4715 18.5487 25.5964C19.6486 29.6815 21.8809 33.0696 24.9333 35.9487C25.5 36.4837 26.1128 36.9702 26.7041 37.4787L26.966 38.3776L27.2095 39.7724L27.3259 41.2285C27.3245 41.524 27.3124 41.8208 27.3299 42.1153C27.3348 42.191 27.4333 42.2608 27.4888 42.3333L27.983 42.507L28.4973 42.7071L28.4091 41.413L28.4051 40.1381L28.5828 38.1963L28.7117 37.7737L29.081 37.1198C29.5367 36.7536 30.0251 36.4206 30.44 36.0128C31.1907 35.2755 31.94 34.528 32.6119 33.72C33.4835 32.6721 34.2337 31.5284 34.8362 30.3019C35.2386 29.4814 35.6182 28.6443 35.932 27.7871C36.2086 27.0315 36.3801 26.237 36.5981 25.4594L36.6554 25.2916C37.1053 23.1931 37.1809 21.0731 37.0157 18.9397C36.8828 17.2203 36.4786 15.561 35.9163 13.9352ZM27.0085 36.4398C27.0774 36.0947 27.1629 35.7513 27.2252 35.4049C27.1629 35.7513 27.0779 36.0947 27.0085 36.4398ZM28.5381 36.6779L28.2489 36.0445L28.5381 36.6779L28.9629 37.041L28.5381 36.6779ZM46.5122 44.7026C46.1425 43.994 45.5999 43.456 44.8828 43.1028C44.2821 42.8073 43.6362 42.6775 42.9719 42.6587C42.4741 42.6444 41.9746 42.6699 41.4759 42.6762C41.0332 42.6816 40.59 42.6892 40.1473 42.6851C39.6268 42.6798 39.1062 42.6641 38.5856 42.6493C38.4992 42.6466 38.4378 42.6641 38.3976 42.7518C38.3344 42.8884 38.2597 43.02 38.1822 43.1695L38.2691 43.1972C38.5274 43.2429 38.787 43.2818 39.0439 43.3333C39.3743 43.3991 39.5229 43.5889 39.5381 43.8673C39.5605 44.2639 39.5695 44.6614 39.5681 45.0589C39.5614 46.6319 39.5502 48.2049 39.5386 49.7774C39.5377 49.8812 39.5359 49.9896 39.5077 50.0872C39.475 50.2 39.4396 50.3459 39.3555 50.4014C39.21 50.4981 39.0296 50.5634 38.8564 50.5916C38.6053 50.6328 38.5632 50.644 38.4848 50.8911L38.4508 51.0146C38.4132 51.1494 38.4334 51.1758 38.5739 51.1771C39.3806 51.1861 40.1867 51.2035 40.9929 51.2009C41.7284 51.1982 42.4638 51.2429 43.1966 51.1046C43.8891 50.9744 44.5355 50.7461 45.1254 50.3598C45.8909 49.858 46.4415 49.1874 46.732 48.3123C46.9665 47.6055 47.0189 46.8844 46.9392 46.1453C46.8851 45.6355 46.7481 45.1552 46.5122 44.7026ZM45.099 49.0272C44.6675 49.8302 44.0238 50.3665 43.1039 50.5079C42.5278 50.5961 41.9508 50.5706 41.4016 50.3526C41.0538 50.2147 40.9244 49.9144 40.9137 49.5594C40.9034 49.2116 40.8994 48.8633 40.8989 48.5155C40.8971 47.2917 40.8971 46.0679 40.8989 44.8445C40.8998 44.4591 40.9065 44.0728 40.9128 43.6869C40.9173 43.4157 40.9741 43.3248 41.2387 43.3029C42.4007 43.2053 43.5095 43.3306 44.4303 44.1484C44.9997 44.6543 45.3237 45.2993 45.4585 46.0401C45.5144 46.349 45.5314 46.665 45.5664 46.9784C45.5382 47.6937 45.4415 48.3897 45.099 49.0272ZM54.8525 47.7017C54.6233 47.144 54.1891 46.7944 53.6434 46.5706C53.4572 46.494 53.2652 46.4309 53.0642 46.3566L53.1344 46.3118C53.3515 46.1726 53.5933 46.0603 53.7804 45.8888C54.2352 45.4721 54.4241 44.9479 54.3354 44.3253C54.2513 43.733 53.9558 43.2984 53.4281 43.0164C52.9491 42.7612 52.4326 42.6681 51.8981 42.6686C50.9733 42.6695 50.048 42.6833 49.1232 42.6851C48.8045 42.6856 48.4858 42.6619 48.1671 42.6574C48.1053 42.6565 48.0136 42.6722 47.9871 42.7133C47.9142 42.8252 47.8658 42.9542 47.8139 43.0786C47.7839 43.1511 47.8135 43.191 47.8963 43.2017C48.1187 43.2321 48.3408 43.2702 48.5637 43.3033C48.8717 43.3494 49.0207 43.5097 49.0395 43.8199L49.0436 44.0039C49.044 44.9685 49.0471 45.9331 49.0431 46.8978C49.0382 47.8606 49.0274 48.8244 49.0158 49.7877C49.0145 49.909 48.9979 50.0308 48.9804 50.1512C48.954 50.3329 48.8569 50.4582 48.6707 50.4976L48.1438 50.6015C48.0816 50.614 47.9916 50.6122 47.9661 50.6507C47.8694 50.7953 47.7915 50.9533 47.8023 51.144L47.8564 51.1588L49.6259 51.2022L49.9809 51.2009C50.5932 51.1937 51.2065 51.2058 51.818 51.1744C52.48 51.1413 53.1018 50.9448 53.6765 50.6069C54.2884 50.2465 54.7593 49.7716 54.9268 49.0572C55.0342 48.601 55.0346 48.1422 54.8525 47.7017ZM50.3569 43.592C50.3596 43.3982 50.4451 43.3141 50.6376 43.3091C51.1116 43.2962 51.5825 43.2988 52.04 43.4622C52.6318 43.6735 52.9957 44.1838 52.989 44.8074C52.9858 45.0468 52.9894 45.2841 52.9012 45.5142C52.7271 45.9672 52.3932 46.2062 51.9196 46.2528C51.6725 46.2778 51.4232 46.2805 51.2029 46.2921L50.4679 46.2599C50.3703 46.2563 50.3278 46.2134 50.3283 46.1131L50.3569 43.592ZM53.4035 49.6324C53.1667 50.1476 52.7352 50.4184 52.1949 50.5124C51.7629 50.5876 51.3274 50.5657 50.9003 50.4556C50.5843 50.3745 50.4554 50.1207 50.3923 49.8392C50.3497 49.6507 50.3569 49.4265 50.3533 49.2304C50.3475 48.9278 50.352 48.2998 50.352 48.2998H50.3457C50.3457 47.8521 50.3471 47.4645 50.3444 47.0352C50.3439 46.9426 50.3596 46.8964 50.4728 46.9C50.8748 46.9121 51.2781 46.9188 51.6801 46.9345C52.0395 46.9484 52.3762 47.0549 52.6926 47.2255C53.1743 47.4851 53.4643 47.8826 53.544 48.4287C53.6049 48.8427 53.5789 49.2501 53.4035 49.6324ZM9.27294 50.1149L9.28144 47.6811C9.28278 47.315 9.23623 46.956 9.11627 46.6086C8.78547 45.652 7.8732 45.2165 6.92333 45.5598C6.49136 45.716 6.10416 45.9528 5.73442 46.2214C5.51911 46.3781 5.51911 46.3781 5.36333 46.1547C4.92242 45.5227 4.2926 45.3065 3.55938 45.5397C3.08534 45.6901 2.67084 45.9475 2.27826 46.2465C2.24156 46.2742 2.1677 46.3051 2.14577 46.2886C2.10906 46.2613 2.08355 46.1964 2.08444 46.1476L2.1113 45.7151C2.11354 45.6243 2.09608 45.533 2.08713 45.4376C1.90986 45.4989 1.76841 45.5603 1.62025 45.5961C1.16232 45.708 0.701263 45.8109 0.240651 45.9161C0.129191 45.9417 0.0114645 45.9752 0.000721394 46.1032C-0.0104694 46.229 0.110838 46.2501 0.204841 46.2877C0.402693 46.3673 0.599203 46.452 0.794818 46.5379C0.959098 46.6104 1.02042 46.7416 1.01953 46.9179C1.01639 47.6722 1.02132 48.4256 1.01684 49.1798C1.01505 49.4864 1.00073 49.7926 0.986851 50.0992C0.974317 50.3709 0.881658 50.4846 0.618451 50.5531C0.478791 50.5898 0.336892 50.6145 0.196336 50.6476C0.165449 50.6548 0.112629 50.6744 0.112181 50.6897C0.106362 50.8226 0.0992001 50.9587 0.121582 51.0881C0.126058 51.1113 0.266614 51.1113 0.344501 51.1203L0.396874 51.1171C0.939402 51.1091 1.48193 51.1006 2.02491 51.0948C2.31273 51.0916 2.60011 51.0943 2.91256 51.0943L2.94613 50.6601C2.76708 50.6274 2.60727 50.6028 2.44971 50.5684C2.20396 50.5146 2.09921 50.3844 2.09295 50.1364L2.08847 49.7814C2.08578 48.8606 2.0822 47.9403 2.0822 47.0195C2.0822 46.8857 2.13771 46.7796 2.25544 46.6995C2.50477 46.5312 2.76797 46.3973 3.05938 46.3226C3.67353 46.1655 4.20621 46.3839 4.44256 46.9063C4.51731 47.071 4.57595 47.2532 4.59251 47.4323C4.67935 48.3553 4.64175 49.2792 4.58938 50.2022C4.57819 50.4014 4.48463 50.5017 4.28813 50.5504L3.82617 50.648C3.78902 50.6574 3.73485 50.6324 3.73217 50.6633C3.72187 50.7908 3.72769 50.9864 3.72769 50.9864H3.83781L5.24426 51.0326C5.62967 51.0317 6.01553 51.0782 6.40049 51.0881C6.46943 51.0894 6.53075 51.0997 6.53478 51.02C6.54105 50.8938 6.53568 50.7752 6.52986 50.6489L6.45645 50.6359L6.06029 50.5469C5.79306 50.4838 5.70085 50.3821 5.69995 50.1118C5.69682 49.4453 5.70577 48.7792 5.69995 48.1131C5.69682 47.7322 5.68205 47.3512 5.65743 46.9712C5.65071 46.87 5.66638 46.8038 5.74695 46.7469C5.9842 46.5777 6.24069 46.4475 6.52225 46.3732C7.38841 46.1449 8.09746 46.6198 8.14222 47.5128C8.18609 48.3741 8.16774 49.2384 8.16102 50.1015C8.15878 50.4018 8.05941 50.4927 7.76353 50.5733L7.66147 50.5997C7.35842 50.6722 7.36111 50.6722 7.37901 50.9941C7.38483 51.0948 7.41258 51.1207 7.52002 51.118C8.1373 51.1042 8.75458 51.1006 9.37186 51.0952C9.62433 51.093 9.87679 51.0952 10.1516 51.0952L10.2076 50.6762C9.96632 50.6122 9.74384 50.5648 9.52898 50.4945C9.33919 50.43 9.27204 50.3154 9.27294 50.1149ZM30.5305 46.426C30.7847 46.1901 30.7865 45.8785 30.7153 45.5325C30.5139 45.7433 30.2883 45.8405 30.0309 45.8588C29.6858 45.8835 29.3469 45.8535 29.0255 45.716C28.1562 45.3427 27.3004 45.3691 26.4472 45.7787C25.7296 46.1225 25.2883 46.6583 25.2439 47.4708C25.2157 47.9913 25.3133 48.4842 25.6607 48.8982C25.8688 49.1462 26.1361 49.3069 26.4373 49.4179C26.5671 49.4658 26.577 49.5276 26.4682 49.6104C26.3885 49.6718 26.3039 49.7273 26.2189 49.7805C26.0371 49.8947 25.8541 50.0075 25.6701 50.118C25.5622 50.1834 25.5255 50.2667 25.5609 50.3942C25.6643 50.7693 25.9306 50.986 26.2636 51.144L26.385 51.2286L26.2789 51.3347C25.9525 51.5992 25.6132 51.849 25.3008 52.1297C25.0385 52.3656 24.9539 52.6816 25.0331 53.0303C25.1929 53.7264 25.6544 54.157 26.3093 54.3549C27.4539 54.7013 28.5287 54.5026 29.5085 53.8244C30.0895 53.422 30.5063 52.8983 30.633 52.1776C30.7749 51.3678 30.325 50.665 29.5197 50.52C28.987 50.4233 28.4418 50.3956 27.9029 50.3338C27.6513 50.3051 27.3961 50.2881 27.1513 50.2304C26.9431 50.1812 26.8397 50.0115 26.859 49.8459C26.8782 49.6829 27.0515 49.5312 27.2498 49.5155C27.6491 49.4833 28.0403 49.4211 28.4082 49.2528C29.3832 48.8069 29.8357 48.0263 29.7225 46.9752C29.7077 46.8338 29.6755 46.6941 29.6464 46.5294C29.9584 46.5818 30.2775 46.661 30.5305 46.426ZM27.5721 51.3575C27.9687 51.3692 28.4199 51.3938 28.8559 51.5214C29.2395 51.6333 29.5551 51.8293 29.6482 52.2577C29.7605 52.7752 29.5116 53.2899 29.0107 53.5666C28.5416 53.8253 28.0322 53.8468 27.5157 53.7935C27.0734 53.7479 26.6755 53.5948 26.3568 53.268C25.9369 52.8378 25.9346 52.2425 26.355 51.8137C26.7305 51.4305 26.9315 51.3513 27.5721 51.3575ZM28.5645 48.2411C28.3335 48.9802 27.6611 49.0822 27.1343 48.8459C26.6853 48.6449 26.4897 48.2492 26.3872 47.7975C26.3474 47.6238 26.3379 47.4435 26.3147 47.2657C26.3241 47.011 26.3662 46.7666 26.4758 46.5374C26.812 45.8315 27.6379 45.8736 28.0949 46.1932C28.291 46.3302 28.4275 46.5164 28.513 46.7371C28.7028 47.2313 28.722 47.7349 28.5645 48.2411ZM24.3702 50.597C24.2113 50.5715 24.0515 50.5384 23.897 50.4914C23.6249 50.4081 23.5917 50.3571 23.5886 50.0692C23.5805 49.2671 23.5752 48.4649 23.5662 47.6632C23.5617 47.3024 23.5188 46.9466 23.4082 46.6019C23.1173 45.6932 22.226 45.2053 21.3343 45.4734C20.8402 45.6225 20.4158 45.8996 20.0205 46.225L19.8764 46.3356L19.8769 46.1874C19.8863 46.0168 19.9046 45.8463 19.9033 45.6758C19.9024 45.5867 19.8683 45.4972 19.8518 45.4188C19.5147 45.5204 19.2126 45.6225 18.9042 45.7004C18.5948 45.7783 18.2793 45.8311 17.9664 45.8946C17.811 45.926 17.6969 46.02 17.6996 46.127C17.7036 46.2778 17.8285 46.3069 17.9377 46.3521C18.1356 46.4331 18.333 46.5151 18.5286 46.6019C18.6683 46.6641 18.7251 46.7796 18.7238 46.9296C18.7139 47.9721 18.7076 49.0151 18.6924 50.0581C18.6879 50.3875 18.6047 50.4744 18.2806 50.5469L18.1392 50.5751C17.8392 50.6265 17.8307 50.6386 17.8513 50.9551L17.8531 51.0075C17.8495 51.1292 17.9028 51.1686 18.0281 51.1673C18.8249 51.1579 19.6222 51.1534 20.4189 51.1565C20.7605 51.1579 20.7972 51.131 20.79 50.7801L20.7739 50.6292C20.5787 50.5966 20.3921 50.5728 20.2094 50.5325C20.0183 50.49 19.9498 50.4117 19.9319 50.2174C19.9153 50.0397 19.91 49.8593 19.9082 49.6803C19.8992 48.8606 19.8921 48.041 19.888 47.2219C19.8871 47.0155 19.9252 46.8239 20.115 46.691C20.4028 46.49 20.718 46.3736 21.0662 46.3499C21.777 46.3011 22.3173 46.7223 22.3558 47.4309C22.4033 48.3051 22.389 49.1825 22.4001 50.0585C22.401 50.1239 22.3894 50.1897 22.3804 50.2546C22.3634 50.3826 22.3008 50.4788 22.171 50.512C22.0443 50.5451 21.9158 50.5746 21.7864 50.5943C21.5935 50.623 21.5895 50.6216 21.5747 50.8163L21.5796 50.9475C21.6025 51.174 21.6029 51.1673 21.8321 51.165C22.6029 51.1588 23.3733 51.1548 24.1437 51.1556C24.466 51.1565 24.4888 51.1413 24.4915 50.8092L24.4906 50.7304C24.4955 50.6453 24.4575 50.6109 24.3702 50.597ZM35.1366 45.5285C34.3286 45.3311 33.5623 45.4779 32.8344 45.8544C32.1272 46.2201 31.6545 46.7854 31.4745 47.5661C31.2928 48.3553 31.3796 49.1252 31.7283 49.858C31.9553 50.3338 32.3044 50.7018 32.7798 50.9408C33.8926 51.5012 35.2539 51.247 36.1267 50.4972C36.8156 49.9059 37.0685 49.1185 37.0838 48.144C37.0744 48.0464 37.065 47.8584 37.039 47.6722C36.8926 46.6113 36.1581 45.7783 35.1366 45.5285ZM35.7485 49.6265C35.5341 50.4708 34.804 50.8459 33.9803 50.5558C33.56 50.4081 33.2458 50.1256 33.0345 49.7438C32.5484 48.8665 32.4548 47.9336 32.7315 46.9766C32.9159 46.3391 33.4405 45.9904 34.0645 46.0343C34.6222 46.0733 35.0511 46.3409 35.3658 46.7948C35.6975 47.2738 35.8255 47.8186 35.8595 48.3906C35.8653 48.4824 35.8604 48.5742 35.8604 48.6664L35.8998 48.6709C35.8505 48.99 35.8273 49.3154 35.7485 49.6265ZM14.8155 45.5146C13.9654 45.3203 13.1691 45.5124 12.4314 45.9443C11.7935 46.3177 11.3813 46.8754 11.2233 47.6041C11.0751 48.285 11.1355 48.9542 11.3768 49.6064C11.5236 50.0039 11.7461 50.3535 12.0724 50.6261C12.7595 51.1995 13.5626 51.3445 14.4171 51.1847C15.1405 51.0491 15.7761 50.7277 16.2381 50.1265C16.6705 49.5643 16.8352 48.9188 16.8522 48.2192C16.8267 47.9976 16.8204 47.772 16.7734 47.5558C16.5398 46.4766 15.9086 45.7639 14.8155 45.5146ZM15.5089 49.6239C15.3016 50.4636 14.5599 50.8481 13.7421 50.5581C13.217 50.3714 12.875 49.9869 12.6588 49.494C12.3123 48.7022 12.2416 47.8781 12.4659 47.0428C12.6378 46.4041 13.1557 45.9336 13.9484 46.0464C14.435 46.1153 14.8146 46.3638 15.0975 46.759C15.4798 47.2921 15.6056 47.9027 15.623 48.5442V48.6753L15.6553 48.6803C15.6083 48.9954 15.585 49.3159 15.5089 49.6239Z" fill="#4FAA41"/>
</svg>
