<svg width="55" height="55" viewBox="0 0 55 55" fill="none" xmlns="http://www.w3.org/2000/svg">
<path d="M53.1195 14.5126L34.1518 3.51047C32.9568 2.82984 31.3914 2.82984 30.187 3.51047L11.0711 14.5126C9.83832 15.222 9 16.5554 9 17.9815V39.9566C9 41.3827 9.85594 42.7164 11.0891 43.4297L16.1289 46.3035C18.5468 47.4946 19.2167 47.4946 20.3167 47.4946C23.8977 47.4946 25.7574 45.3294 25.7574 41.5529V19.8579C25.7578 19.5516 25.949 19.0957 25.6478 19.0957H23.2321C22.9262 19.0957 22.3203 19.5516 22.3203 19.8575V41.5524C22.3203 43.2265 20.7666 44.8924 17.9366 43.4774L12.728 40.464C12.5466 40.3652 12.4375 40.1663 12.4375 39.9566V17.9815C12.4375 17.7744 12.6364 17.5664 12.8204 17.4603L31.889 6.47703C32.0673 6.37605 32.3196 6.37605 32.497 6.47703L51.3874 17.4577C51.5683 17.5664 51.5395 17.7679 51.5395 17.9815V39.9566C51.5395 40.1663 51.579 40.3704 51.4007 40.4713L32.4373 51.461C32.2749 51.5586 32.0635 51.5586 31.8852 51.461L27.0224 48.5611C26.8759 48.476 26.6993 48.4455 26.5583 48.5241C25.207 49.2902 24.956 49.3921 23.6884 49.8316C23.3761 49.9403 22.9154 50.129 23.8638 50.6605L30.2223 54.422C30.8307 54.7743 31.5229 54.9574 32.219 54.9574C32.9246 54.9574 33.6151 54.7743 34.2239 54.422L53.1199 43.4297C54.3535 42.7113 54.977 41.3827 54.977 39.9566V17.9815C54.9766 16.5554 54.3531 15.2255 53.1195 14.5126ZM38.1014 36.4744C33.0625 36.4744 31.953 35.0843 31.5831 32.5788C31.5393 32.309 31.3107 31.9863 31.0357 31.9863H28.5736C28.2689 31.9863 28.0236 32.3558 28.0236 32.6592C28.0236 35.8672 29.7681 39.7542 38.1014 39.7542C44.1334 39.7542 47.5924 37.4102 47.5924 33.262C47.5924 29.1491 44.8136 28.0697 38.9634 27.2954C33.05 26.5138 32.4493 26.1189 32.4493 24.7336C32.4493 23.5915 32.9581 22.0682 37.3366 22.0682C41.2485 22.0682 42.6905 22.9079 43.2839 25.5448C43.335 25.7928 43.5615 25.9707 43.8172 25.9707H46.2896C46.4417 25.9707 46.5865 25.9092 46.6931 25.8005C46.7966 25.6836 46.8507 25.5371 46.8374 25.3798C46.4537 20.8385 43.4373 18.7223 37.3362 18.7223C31.9084 18.7223 28.6711 21.0142 28.6711 24.8561C28.6711 29.0232 31.8925 30.1747 37.1024 30.6899C43.335 31.3009 43.8197 32.2119 43.8197 33.4378C43.8197 35.5673 42.1104 36.4744 38.1014 36.4744Z" fill="#83CD29"/>
</svg>
