<svg width="512" height="512" viewBox="0 0 512 512" fill="none" xmlns="http://www.w3.org/2000/svg">
<g clip-path="url(#clip0)">
<path d="M97 0C79.4 0 65 14.4 65 32V480C65 497.6 79.4 512 97 512H417C434.6 512 449 497.6 449 480V128L321 0H97Z" fill="#EAECEF"/>
<g filter="url(#filter0_d)">
<path d="M353 128H449L321 0V96C321 113.6 335.4 128 353 128Z" fill="#08E789"/>
</g>
<g filter="url(#filter1_d)">
<path d="M31 274C31 265.716 37.7157 259 46 259H466C474.284 259 481 265.716 481 274V431C481 439.284 474.284 446 466 446H46C37.7157 446 31 439.284 31 431V274Z" fill="#3FDE9C"/>
</g>
<path d="M207.638 333.592C207.638 338.968 206.342 344.008 203.75 348.712C201.254 353.416 197.27 357.208 191.798 360.088C186.422 362.968 179.606 364.408 171.35 364.408H154.502V403H134.342V302.488H171.35C179.126 302.488 185.75 303.832 191.222 306.52C196.694 309.208 200.774 312.904 203.462 317.608C206.246 322.312 207.638 327.64 207.638 333.592ZM170.486 348.136C176.054 348.136 180.182 346.888 182.87 344.392C185.558 341.8 186.902 338.2 186.902 333.592C186.902 323.8 181.43 318.904 170.486 318.904H154.502V348.136H170.486ZM257.088 302.488C267.648 302.488 276.912 304.552 284.88 308.68C292.944 312.808 299.136 318.712 303.456 326.392C307.872 333.976 310.08 342.808 310.08 352.888C310.08 362.968 307.872 371.8 303.456 379.384C299.136 386.872 292.944 392.68 284.88 396.808C276.912 400.936 267.648 403 257.088 403H221.952V302.488H257.088ZM256.368 385.864C266.928 385.864 275.088 382.984 280.848 377.224C286.608 371.464 289.488 363.352 289.488 352.888C289.488 342.424 286.608 334.264 280.848 328.408C275.088 322.456 266.928 319.48 256.368 319.48H242.112V385.864H256.368ZM387.234 302.488V318.76H345.33V344.536H377.442V360.52H345.33V403H325.17V302.488H387.234Z" fill="#282C34"/>
<rect opacity="0.4" x="109" y="147" width="212" height="11" fill="#121317"/>
<rect opacity="0.4" x="109" y="179" width="235" height="11" fill="#121317"/>
<rect opacity="0.4" x="109" y="211" width="244" height="11" fill="#121317"/>
</g>
<defs>
<filter id="filter0_d" x="311" y="-9" width="148" height="148" filterUnits="userSpaceOnUse" color-interpolation-filters="sRGB">
<feFlood flood-opacity="0" result="BackgroundImageFix"/>
<feColorMatrix in="SourceAlpha" type="matrix" values="0 0 0 0 0 0 0 0 0 0 0 0 0 0 0 0 0 0 127 0"/>
<feOffset dy="1"/>
<feGaussianBlur stdDeviation="5"/>
<feColorMatrix type="matrix" values="0 0 0 0 0 0 0 0 0 0 0 0 0 0 0 0 0 0 0.25 0"/>
<feBlend mode="normal" in2="BackgroundImageFix" result="effect1_dropShadow"/>
<feBlend mode="normal" in="SourceGraphic" in2="effect1_dropShadow" result="shape"/>
</filter>
<filter id="filter1_d" x="-15" y="213" width="550" height="287" filterUnits="userSpaceOnUse" color-interpolation-filters="sRGB">
<feFlood flood-opacity="0" result="BackgroundImageFix"/>
<feColorMatrix in="SourceAlpha" type="matrix" values="0 0 0 0 0 0 0 0 0 0 0 0 0 0 0 0 0 0 127 0"/>
<feOffset dx="4" dy="4"/>
<feGaussianBlur stdDeviation="25"/>
<feColorMatrix type="matrix" values="0 0 0 0 0 0 0 0 0 0 0 0 0 0 0 0 0 0 0.25 0"/>
<feBlend mode="normal" in2="BackgroundImageFix" result="effect1_dropShadow"/>
<feBlend mode="normal" in="SourceGraphic" in2="effect1_dropShadow" result="shape"/>
</filter>
<clipPath id="clip0">
<rect width="512" height="512" fill="white"/>
</clipPath>
</defs>
</svg>
