<svg width="55" height="55" viewBox="0 0 55 55" fill="none" xmlns="http://www.w3.org/2000/svg">
<path d="M55 27.5C55 36.5604 50.6179 44.5972 43.8585 49.6077C41.0288 51.7045 37.7827 53.2714 34.2671 54.1604C32.1021 54.7093 29.8358 55 27.5 55C25.1642 55 22.8969 54.7093 20.7317 54.1604C17.2162 53.2714 13.97 51.7045 11.1403 49.6066C4.38088 44.596 0 36.5593 0 27.5C0 12.3122 12.3122 0 27.5 0C42.6878 0 55 12.3122 55 27.5Z" fill="#5ADAFD"/>
<path d="M43.8868 42.9842C43.7577 42.1188 43.5871 41.2275 43.3761 40.3161C43.1898 39.5158 42.9732 38.6997 42.7274 37.8714C42.0808 35.6961 41.229 33.4355 40.1963 31.1502C39.744 30.1512 39.2568 29.1478 38.7371 28.1454C38.2792 27.2621 37.7965 26.3776 37.288 25.4987C36.7806 24.6187 36.2576 23.7589 35.72 22.9204C35.1127 21.9697 34.4875 21.0471 33.8477 20.1558C32.3862 18.1186 30.8542 16.2497 29.2928 14.6019C28.6991 13.9744 28.1007 13.3795 27.5002 12.8194C26.8167 12.1796 26.1298 11.5859 25.4439 11.0415C20.9664 7.4867 16.9582 6.41925 14.1554 8.0367C11.3527 9.65523 10.2729 13.6601 11.1125 19.3162C11.2404 20.1816 11.4122 21.0729 11.6244 21.9842C11.8085 22.7845 12.0251 23.6006 12.272 24.429C12.9186 26.6042 13.7704 28.866 14.8043 31.1501C15.2556 32.1492 15.7426 33.1514 16.2623 34.1538C16.7202 35.0383 17.2041 35.9216 17.7114 36.8016C18.2188 37.6816 18.7418 38.5414 19.2795 39.3798C19.8878 40.3317 20.513 41.2543 21.1517 42.1455C22.6132 44.1828 24.1453 46.0505 25.7066 47.6983C26.3005 48.3257 26.8998 48.9217 27.5002 49.4818C28.1838 50.1216 28.8707 50.7142 29.5554 51.2586C31.2021 52.5663 32.7848 53.5372 34.2675 54.1602C37.783 53.2712 41.0292 51.7043 43.8588 49.6076C44.2538 47.7871 44.2684 45.5568 43.8868 42.9842ZM41.3657 49.1992C41.0391 50.6112 40.4386 51.5788 39.5799 52.0738C38.7224 52.5698 37.5843 52.6058 36.198 52.1838C34.6961 51.7246 32.9429 50.7212 31.1268 49.2789C30.5162 48.794 29.9045 48.2664 29.2927 47.6995C28.6933 47.1428 28.0939 46.5479 27.4991 45.9182C26.4776 44.8373 25.4674 43.6541 24.4819 42.3847C23.8242 41.5373 23.1765 40.6517 22.5446 39.7324C21.6275 38.4 20.7419 36.997 19.9 35.5378C19.0571 34.0786 18.2848 32.6104 17.59 31.1501C17.1097 30.1433 16.6662 29.1398 16.2622 28.1465C15.6549 26.6582 15.1352 25.1911 14.7098 23.7667C14.4629 22.9361 14.2463 22.1212 14.0655 21.3232C13.8792 20.5105 13.7277 19.7158 13.6132 18.9447C13.272 16.6516 13.2798 14.6312 13.6334 13.1013C13.96 11.6893 14.5616 10.7217 15.4192 10.2267C15.8827 9.95955 16.4271 9.82484 17.0478 9.82484C17.5776 9.82484 18.1635 9.92249 18.801 10.1178C20.3029 10.5757 22.0561 11.5803 23.8722 13.0216C24.4828 13.5065 25.0956 14.0341 25.7063 14.6032C26.3068 15.1588 26.9051 15.7537 27.4989 16.3823C28.5214 17.4632 29.5316 18.6463 30.5183 19.9169C31.176 20.7644 31.8237 21.65 32.4556 22.5693C33.3715 23.9016 34.2572 25.3047 35.099 26.7627C35.9419 28.2219 36.7141 29.69 37.409 31.1503C37.8893 32.1583 38.3328 33.1618 38.7368 34.1551C39.3441 35.6435 39.8638 37.1095 40.2891 38.5338C40.5361 39.3644 40.7527 40.1793 40.9345 40.9773C41.1197 41.7899 41.2713 42.5846 41.3858 43.3557C41.7272 45.6489 41.7194 47.6693 41.3657 49.1992Z" fill="#F2F2F2"/>
<path d="M45.942 22.8767C45.1282 22.5557 44.2706 22.2583 43.375 21.9843C42.5893 21.7452 41.7744 21.5241 40.9336 21.3233C38.7268 20.7957 36.3428 20.4029 33.8476 20.1559C32.7577 20.047 31.6453 19.9674 30.5184 19.9168C29.5239 19.8708 28.5159 19.8472 27.5002 19.8472C26.4844 19.8472 25.4763 19.8707 24.4807 19.9168C23.3527 19.9673 22.2403 20.0482 21.1504 20.1559C18.6553 20.4029 16.2723 20.7957 14.0655 21.3233C13.2249 21.5241 12.41 21.7453 11.6242 21.9843C10.7285 22.2571 9.87094 22.5557 9.05711 22.8767C3.74016 24.9756 0.810547 27.9142 0.810547 31.1502C0.810547 34.3862 3.74016 37.3248 9.05722 39.4249C9.87105 39.7459 10.7274 40.0433 11.6231 40.3173C12.4088 40.5564 13.2237 40.7775 14.0645 40.9773C16.2712 41.5059 18.6553 41.8977 21.1516 42.1457C22.2415 42.2534 23.3539 42.3331 24.4819 42.3848C25.4764 42.4308 26.4844 42.4532 27.5002 42.4532C28.5159 42.4532 29.5228 42.4308 30.5173 42.3848C31.6453 42.3331 32.7566 42.2534 33.8476 42.1457C36.3428 41.8987 38.728 41.5059 40.9348 40.9773C41.7754 40.7764 42.5903 40.5564 43.3761 40.3162C44.2707 40.0434 45.1283 39.746 45.942 39.4249C51.2602 37.3248 54.1887 34.3863 54.1887 31.1502C54.1886 27.9142 51.2602 24.9756 45.942 22.8767ZM50.0636 34.1336C48.9164 35.2056 47.17 36.2214 45.0137 37.0733C44.2875 37.3595 43.5242 37.6267 42.7272 37.8714C41.9449 38.1128 41.1311 38.3338 40.2893 38.5336C38.8424 38.8782 37.3125 39.1611 35.7198 39.38C34.6579 39.5271 33.568 39.6449 32.4556 39.7314C30.8427 39.8605 29.1849 39.9256 27.5 39.9256C25.8152 39.9256 24.1574 39.8605 22.5445 39.7326C21.4321 39.645 20.3411 39.5272 19.2793 39.3801C17.6865 39.1612 16.1566 38.8783 14.7098 38.5337C13.8679 38.3339 13.0542 38.1129 12.2718 37.8715C11.4749 37.6268 10.7116 37.3596 9.98534 37.0734C7.82917 36.2215 6.0826 35.2057 4.93544 34.1337C3.87583 33.1448 3.33818 32.1414 3.33818 31.1503C3.33818 30.1592 3.87583 29.1557 4.93544 28.1669C6.0826 27.0949 7.82906 26.0791 9.98534 25.2272C10.7115 24.941 11.4749 24.6738 12.2718 24.4291C13.0542 24.1878 13.8679 23.9667 14.7098 23.7669C16.1566 23.4223 17.6865 23.1394 19.2793 22.9205C20.3411 22.7734 21.4321 22.6556 22.5445 22.5681C24.1574 22.4401 25.8152 22.375 27.5 22.375C29.1849 22.375 30.8427 22.4401 32.4556 22.5692C33.568 22.6557 34.6579 22.7736 35.7198 22.9206C37.3125 23.1395 38.8424 23.4224 40.2893 23.767C41.1311 23.9668 41.9449 24.1879 42.7272 24.4292C43.5242 24.674 44.2874 24.9411 45.0137 25.2273C47.1698 26.0792 48.9164 27.095 50.0636 28.167C51.1232 29.1559 51.6608 30.1593 51.6608 31.1504C51.6608 32.1414 51.1232 33.1448 50.0636 34.1336Z" fill="#F2F2F2"/>
<path d="M40.8437 8.0367C38.041 6.41925 34.0327 7.4867 29.5553 11.0415C28.8706 11.5859 28.1836 12.1796 27.5001 12.8194C26.8996 13.3795 26.3002 13.9755 25.7065 14.603C24.1451 16.2507 22.613 18.1185 21.1505 20.1557C20.5119 21.0469 19.8866 21.9696 19.2794 22.9203C18.7418 23.7587 18.2187 24.6186 17.7114 25.4986C17.204 26.3786 16.7203 27.2619 16.2623 28.1464C15.7425 29.1488 15.2554 30.1522 14.8042 31.15C13.7704 33.4353 12.9185 35.6959 12.272 37.8712C12.025 38.7007 11.8084 39.5167 11.6231 40.317C11.4122 41.2285 11.2404 42.1185 11.1124 42.9839C10.7308 45.5555 10.7454 47.7858 11.1405 49.6064C13.9702 51.7042 17.2163 53.2712 20.7319 54.1602C22.2146 53.5373 23.7973 52.5663 25.4439 51.2586C26.1297 50.7142 26.8167 50.1205 27.5003 49.4818C28.1008 48.9217 28.6991 48.3268 29.2929 47.6993C30.853 46.0516 32.3863 44.1827 33.8478 42.1454C34.4864 41.2541 35.1117 40.3315 35.72 39.3797C36.2577 38.5413 36.7807 37.6815 37.288 36.8015C37.7965 35.9226 38.2791 35.0392 38.7372 34.1547C39.2569 33.1524 39.744 32.1489 40.1964 31.1499C41.229 28.8657 42.081 26.604 42.7275 24.4287C42.9732 23.6004 43.1899 22.7843 43.3751 21.984C43.5873 21.0726 43.7579 20.1814 43.887 19.316C44.7263 13.6601 43.6466 9.65523 40.8437 8.0367ZM40.2893 23.7667C39.8639 25.1911 39.3442 26.657 38.737 28.1453C38.3328 29.1387 37.8895 30.1422 37.4091 31.1501C36.7143 32.6104 35.942 34.0786 35.0991 35.5378C34.2572 36.9958 33.3717 38.3988 32.4558 39.7312C31.8227 40.6516 31.1751 41.5372 30.5174 42.3846C29.5319 43.6541 28.5217 44.8372 27.4991 45.9181C26.9054 46.5466 26.3071 47.1415 25.7066 47.6983C25.096 48.2662 24.4831 48.7937 23.8724 49.2786C22.0564 50.721 20.303 51.7244 18.8013 52.1835C17.4151 52.6056 16.2769 52.5696 15.4193 52.0735C14.5618 51.5785 13.9601 50.611 13.6335 49.1989C13.28 47.669 13.2721 45.6486 13.6133 43.3555C13.7279 42.5844 13.8793 41.7897 14.0645 40.9771C14.2464 40.179 14.4629 39.3641 14.7099 38.5336C15.1353 37.1091 15.655 35.6421 16.2623 34.1538C16.6664 33.1604 17.1097 32.1569 17.5901 31.1501C18.2849 29.6898 19.0572 28.2217 19.9001 26.7625C20.742 25.3033 21.6275 23.9002 22.5446 22.5679C23.1766 21.6486 23.823 20.763 24.4808 19.9167C25.4675 18.6461 26.4776 17.4631 27.499 16.3821C28.0939 15.7524 28.6933 15.1575 29.2926 14.6019C29.9044 14.034 30.5161 13.5064 31.1268 13.0215C32.9428 11.5803 34.6962 10.5757 36.1979 10.1177C36.8355 9.92238 37.4214 9.82474 37.9512 9.82474C38.5718 9.82474 39.1173 9.95944 39.5798 10.2266C40.4384 10.7216 41.039 11.6892 41.3656 13.1012C41.7191 14.6311 41.727 16.6515 41.3858 18.9446C41.2713 19.7157 41.1198 20.5104 40.9334 21.3231C40.7528 22.1211 40.5362 22.936 40.2893 23.7667Z" fill="#F2F2F2"/>
<path d="M27.5001 36.1662C30.2704 36.1662 32.5162 33.9204 32.5162 31.1501C32.5162 28.3797 30.2704 26.1339 27.5001 26.1339C24.7297 26.1339 22.4839 28.3797 22.4839 31.1501C22.4839 33.9204 24.7297 36.1662 27.5001 36.1662Z" fill="#F2F2F2"/>
</svg>
