<svg width="568" height="525" viewBox="0 0 568 525" fill="none" xmlns="http://www.w3.org/2000/svg">
<circle cx="215" cy="215" r="215" fill="#FC5364"/>
<path d="M180.019 322C176.099 322 172.924 318.812 172.924 314.88V114.12C172.924 110.188 176.099 107 180.019 107C183.938 107 187.114 110.188 187.114 114.12V314.88C187.114 318.812 183.938 322 180.019 322ZM145.039 296.95C141.119 296.95 137.943 293.762 137.943 289.83V139.17C137.943 135.238 141.119 132.05 145.039 132.05C148.958 132.05 152.134 135.238 152.134 139.17V289.83C152.134 293.762 148.957 296.95 145.039 296.95ZM249.981 278.452C246.062 278.452 242.886 275.264 242.886 271.332V157.668C242.886 153.736 246.062 150.548 249.981 150.548C253.901 150.548 257.076 153.736 257.076 157.668V271.332C257.076 275.264 253.9 278.452 249.981 278.452V278.452ZM110.057 277.392C106.137 277.392 102.961 274.204 102.961 270.272V158.728C102.961 154.796 106.137 151.608 110.057 151.608C113.976 151.608 117.152 154.796 117.152 158.728V270.271C117.152 274.204 113.976 277.392 110.057 277.392ZM319.943 267.481C316.024 267.481 312.848 264.293 312.848 260.36V168.641C312.848 164.708 316.024 161.52 319.943 161.52C323.863 161.52 327.039 164.708 327.039 168.641V260.36C327.039 264.293 323.862 267.481 319.943 267.481ZM215 262.565C211.081 262.565 207.905 259.377 207.905 255.445V173.554C207.905 169.622 211.081 166.434 215 166.434C218.919 166.434 222.095 169.622 222.095 173.554V255.445C222.095 259.377 218.919 262.565 215 262.565ZM284.961 257.581C281.042 257.581 277.866 254.393 277.866 250.461V178.539C277.866 174.606 281.042 171.418 284.961 171.418C288.881 171.418 292.057 174.606 292.057 178.539V250.461C292.057 254.393 288.881 257.581 284.961 257.581ZM75.0763 236.376C71.157 236.376 67.9811 233.188 67.9811 229.256V199.744C67.9811 195.812 71.157 192.624 75.0763 192.624C78.9957 192.624 82.1715 195.812 82.1715 199.744V229.256C82.1715 233.188 78.9948 236.376 75.0763 236.376ZM354.924 232.97C351.004 232.97 347.828 229.782 347.828 225.85V203.151C347.828 199.219 351.004 196.031 354.924 196.031C358.843 196.031 362.019 199.219 362.019 203.151V225.85C362.019 229.782 358.843 232.97 354.924 232.97ZM40.0952 228.021C36.1758 228.021 33 224.833 33 220.901V208.1C33 204.168 36.1758 200.98 40.0952 200.98C44.0146 200.98 47.1904 204.168 47.1904 208.1V220.901C47.1904 224.833 44.0146 228.021 40.0952 228.021ZM389.905 227.579C385.985 227.579 382.81 224.391 382.81 220.459V208.54C382.81 204.608 385.985 201.42 389.905 201.42C393.824 201.42 397 204.608 397 208.54V220.459C397 224.391 393.823 227.579 389.905 227.579Z" fill="#121317"/>
<g filter="url(#filter0_ddd)">
<circle cx="354" cy="391" r="134" fill="#FF2E42"/>
</g>
<path d="M353.811 452.622C387.948 452.622 415.622 424.948 415.622 390.811C415.622 356.674 387.948 329 353.811 329C319.674 329 292 356.674 292 390.811C292 424.948 319.674 452.622 353.811 452.622Z" fill="url(#paint0_linear)"/>
<defs>
<filter id="filter0_ddd" x="140" y="97" width="428" height="428" filterUnits="userSpaceOnUse" color-interpolation-filters="sRGB">
<feFlood flood-opacity="0" result="BackgroundImageFix"/>
<feColorMatrix in="SourceAlpha" type="matrix" values="0 0 0 0 0 0 0 0 0 0 0 0 0 0 0 0 0 0 127 0"/>
<feOffset dy="-6.51852"/>
<feGaussianBlur stdDeviation="3.25926"/>
<feColorMatrix type="matrix" values="0 0 0 0 0 0 0 0 0 0 0 0 0 0 0 0 0 0 0.0274815 0"/>
<feBlend mode="normal" in2="BackgroundImageFix" result="effect1_dropShadow"/>
<feColorMatrix in="SourceAlpha" type="matrix" values="0 0 0 0 0 0 0 0 0 0 0 0 0 0 0 0 0 0 127 0"/>
<feOffset dy="-30.8148"/>
<feGaussianBlur stdDeviation="12.7407"/>
<feColorMatrix type="matrix" values="0 0 0 0 0 0 0 0 0 0 0 0 0 0 0 0 0 0 0.0425185 0"/>
<feBlend mode="normal" in2="effect1_dropShadow" result="effect2_dropShadow"/>
<feColorMatrix in="SourceAlpha" type="matrix" values="0 0 0 0 0 0 0 0 0 0 0 0 0 0 0 0 0 0 127 0"/>
<feOffset dy="-80"/>
<feGaussianBlur stdDeviation="40"/>
<feColorMatrix type="matrix" values="0 0 0 0 0 0 0 0 0 0 0 0 0 0 0 0 0 0 0.07 0"/>
<feBlend mode="normal" in2="effect2_dropShadow" result="effect3_dropShadow"/>
<feBlend mode="normal" in="SourceGraphic" in2="effect3_dropShadow" result="shape"/>
</filter>
<linearGradient id="paint0_linear" x1="353.811" y1="329" x2="353.811" y2="452.622" gradientUnits="userSpaceOnUse">
<stop stop-color="#FEFDFE"/>
<stop offset="1" stop-color="#E7E7E7"/>
</linearGradient>
</defs>
</svg>
