<svg id="Capa_1" enable-background="new 0 0 497 497" height="512" viewBox="0 0 497 497" width="512" xmlns="http://www.w3.org/2000/svg"><g><path d="m218.5 0c-55.248 0-105.697 20.514-144.172 54.328-40.712 47.678-64.328 88.924-64.328 144.172 0 141.25 107.826 228.5 228.5 228.5.056 0 184.135-130.463 184.135-130.463 9.272-24.237 14.365-50.54 14.365-78.037 0-120.674-97.826-218.5-218.5-218.5z" fill="#d3effd"/><path d="m237 397c0 6.815.577 13.493 1.668 19.998-.056 0-.112.002-.168.002-120.674 0-218.5-97.826-218.5-218.5 0-55.248 20.514-105.697 54.328-144.172-45.563 40.045-74.328 98.745-74.328 164.172 0 120.674 97.826 218.5 218.5 218.5 93.178 0 172.719-58.331 204.135-140.463-18.861-12.349-41.407-19.537-65.635-19.537-66.274 0-120 53.726-120 120z" fill="#9ec8fc"/><path d="m181.523 331.735c-4.143 0-7.5-3.358-7.5-7.5v-211.47c0-4.142 3.357-7.5 7.5-7.5s7.5 3.358 7.5 7.5v211.47c0 4.142-3.357 7.5-7.5 7.5zm-36.976-26.386c-4.143 0-7.5-3.358-7.5-7.5v-158.698c0-4.142 3.357-7.5 7.5-7.5s7.5 3.358 7.5 7.5v158.698c0 4.142-3.358 7.5-7.5 7.5zm110.93-19.485c-4.143 0-7.5-3.358-7.5-7.5v-119.728c0-4.142 3.357-7.5 7.5-7.5s7.5 3.358 7.5 7.5v119.728c0 4.142-3.358 7.5-7.5 7.5zm-147.908-1.117c-4.143 0-7.5-3.358-7.5-7.5v-117.494c0-4.142 3.357-7.5 7.5-7.5s7.5 3.358 7.5 7.5v117.493c0 4.143-3.357 7.501-7.5 7.501zm221.862-10.44c-4.143 0-7.5-3.358-7.5-7.5v-96.613c0-4.142 3.357-7.5 7.5-7.5s7.5 3.358 7.5 7.5v96.613c0 4.142-3.358 7.5-7.5 7.5zm-110.931-5.178c-4.143 0-7.5-3.358-7.5-7.5v-86.259c0-4.142 3.357-7.5 7.5-7.5s7.5 3.358 7.5 7.5v86.259c0 4.142-3.357 7.5-7.5 7.5zm73.953-5.25c-4.143 0-7.5-3.358-7.5-7.5v-75.759c0-4.142 3.357-7.5 7.5-7.5s7.5 3.358 7.5 7.5v75.759c0 4.142-3.357 7.5-7.5 7.5zm-221.86-22.336c-4.143 0-7.5-3.358-7.5-7.5v-31.086c0-4.142 3.357-7.5 7.5-7.5s7.5 3.358 7.5 7.5v31.086c0 4.142-3.358 7.5-7.5 7.5zm295.814-3.588c-4.143 0-7.5-3.358-7.5-7.5v-23.909c0-4.142 3.357-7.5 7.5-7.5s7.5 3.358 7.5 7.5v23.909c0 4.142-3.357 7.5-7.5 7.5zm-332.791-5.213c-4.143 0-7.5-3.358-7.5-7.5v-13.483c0-4.142 3.357-7.5 7.5-7.5s7.5 3.358 7.5 7.5v13.483c0 4.142-3.357 7.5-7.5 7.5zm369.768-.465c-4.143 0-7.5-3.358-7.5-7.5v-12.555c0-4.142 3.357-7.5 7.5-7.5s7.5 3.358 7.5 7.5v12.555c0 4.142-3.358 7.5-7.5 7.5z" fill="#7398d4"/><path d="m377 257c-28.041 0-53.834 9.62-74.263 25.737-23.17 24.211-35.737 47.287-35.737 84.263 0 66.274 53.726 120 120 120 28.041 0 63.381-15.054 84.263-35.737 16.117-20.429 25.737-46.222 25.737-74.263 0-66.274-53.726-120-120-120z" fill="#f5fcff"/><path d="m277 357c0-28.041 9.62-53.834 25.737-74.263-27.855 21.975-45.737 56.03-45.737 94.263 0 66.274 53.726 120 120 120 38.233 0 72.288-17.882 94.263-45.737-20.429 16.117-46.222 25.737-74.263 25.737-66.274 0-120-53.726-120-120z" fill="#d3effd"/><circle cx="377" cy="377" fill="#d16161" r="60"/></g></svg>