<svg width="55" height="55" viewBox="0 0 55 55" fill="none" xmlns="http://www.w3.org/2000/svg">
<path d="M38.1088 37.8597C34.2416 45.7659 27.4697 51.0854 18.5107 52.8343C17.1371 53.1708 15.7269 53.3354 14.3127 53.3241C9.15644 53.3241 4.42987 51.1757 2.13534 47.6565C-0.945517 42.9687 -1.99395 33.03 8.16386 25.678C8.37011 26.7995 8.7912 28.3378 9.0705 29.2487C7.07646 30.7302 5.44427 32.6444 4.29667 34.8476C2.40605 38.5601 2.61659 42.2683 4.85526 45.6972C6.40214 48.0089 8.85136 49.414 12.001 49.8437C15.9349 50.3416 19.9258 49.59 23.4092 47.6952C28.8705 44.8249 32.51 41.396 34.8904 36.7081C34.2173 36.0125 33.8189 35.0966 33.7689 34.13C33.733 33.0927 34.11 32.0834 34.8173 31.3238C35.5246 30.5641 36.5043 30.1161 37.5416 30.078H37.6877C38.6966 30.073 39.6688 30.456 40.4032 31.1477C41.1376 31.8395 41.5779 32.7871 41.6331 33.7945C41.6883 34.8019 41.3542 35.792 40.6997 36.5598C40.0453 37.3277 39.1208 37.8146 38.1174 37.9198L38.1088 37.8597ZM50.4279 29.18C55.6744 35.1269 55.8162 42.1265 53.7881 46.187C51.8975 49.8952 46.9131 53.6077 40.21 53.6077C37.0808 53.5439 34.0026 52.8036 31.1865 51.4378C32.1705 50.7374 33.567 49.6159 34.3361 48.9155C36.5077 49.8563 38.8447 50.3558 41.2111 50.3851C45.551 50.3851 48.8381 48.3569 50.7975 44.6487C52.0564 42.1995 52.1295 39.3292 50.9393 36.3901C49.4788 32.6922 46.8799 29.5546 43.5185 27.4312C39.1085 24.4583 33.9096 22.8735 28.5912 22.8808H27.3322C27.0386 23.5589 26.561 24.1413 25.9535 24.562C25.346 24.9828 24.6328 25.225 23.8947 25.2612H23.7615C22.7406 25.2487 21.7649 24.8387 21.0415 24.1182C20.3181 23.3978 19.904 22.4238 19.8872 21.403C19.8704 20.3822 20.2523 19.395 20.9516 18.6512C21.6509 17.9074 22.6127 17.4655 23.6326 17.4194H23.7744C24.4851 17.42 25.182 17.6164 25.7884 17.987C26.3948 18.3577 26.8873 18.8883 27.2119 19.5206H28.3334C37.2709 19.5206 45.117 22.9495 50.4279 29.18ZM14.8713 39.0628C14.7977 38.3493 14.9706 37.632 15.3611 37.0304C11.4424 30.2413 9.3455 21.6347 12.5639 12.6757C14.8713 5.94248 20.6807 1.39209 26.9799 1.39209C33.7002 1.39209 40.6998 7.27451 41.5377 18.6097C40.4893 18.2616 38.9596 17.7503 38.04 17.5612C37.8123 13.853 34.6799 4.61475 27.2592 4.75225C24.5994 4.82529 20.6807 6.08428 18.6654 8.671C16.1726 11.7588 14.7225 15.5572 14.5232 19.5206C14.0509 24.9552 15.3259 30.3986 18.1627 35.0581C18.3193 35.0009 18.4862 34.9775 18.6525 34.9894H18.79C19.8293 34.9706 20.8336 35.3654 21.5818 36.087C22.33 36.8086 22.7609 37.7979 22.7797 38.8372C22.7985 39.8765 22.4036 40.8807 21.682 41.6289C20.9604 42.3772 19.9711 42.8081 18.9318 42.8269H18.79C17.7761 42.8233 16.8027 42.4285 16.0726 41.7249C15.3426 41.0212 14.9122 40.063 14.8713 39.0499V39.0628Z" fill="#764ABC"/>
</svg>
