<svg width="512" height="512" viewBox="0 0 512 512" fill="none" xmlns="http://www.w3.org/2000/svg">
<g clip-path="url(#clip0)">
<path d="M501.333 405.333H10.6667C4.77867 405.333 0 400.555 0 394.667C0 388.779 4.77867 384 10.6667 384H501.333C507.221 384 512 388.779 512 394.667C512 400.555 507.221 405.333 501.333 405.333Z" fill="#C521FF"/>
<path d="M458.667 405.333C452.779 405.333 448 400.555 448 394.667V202.667C448 196.779 452.779 192 458.667 192C464.555 192 469.333 196.779 469.333 202.667V394.667C469.333 400.555 464.555 405.333 458.667 405.333Z" fill="#C521FF"/>
<path d="M53.3334 405.333C47.4454 405.333 42.6667 400.555 42.6667 394.667V149.333C42.6667 125.803 61.8027 106.667 85.3334 106.667H160C165.888 106.667 170.667 111.445 170.667 117.333C170.667 123.221 165.888 128 160 128H85.3334C73.5574 128 64.0001 137.579 64.0001 149.333V394.667C64.0001 400.555 59.2214 405.333 53.3334 405.333Z" fill="#C521FF"/>
<path d="M325.525 252.544C322.795 252.544 320.064 251.499 317.973 249.429L241.216 172.693C237.205 168.683 237.035 162.219 240.832 158.016L303.701 88.2347C348.352 36.672 419.157 1.13067 479.787 0C483.648 0.0426667 485.504 1.088 487.531 3.11467C489.579 5.184 490.731 7.97867 490.667 10.8587C489.515 71.488 453.995 142.315 402.261 187.093L332.651 249.813C330.624 251.648 328.064 252.544 325.525 252.544V252.544ZM263.488 164.779L325.909 227.2L388.16 171.115C432.448 132.779 463.744 74.24 468.672 21.9947C416.448 26.944 357.931 58.2187 319.723 102.357L263.488 164.779Z" fill="#C521FF"/>
<path d="M354.219 303.147C353.259 303.147 352.277 303.019 351.317 302.741C347.584 301.696 344.725 298.731 343.829 294.955L328.768 232.021C327.403 226.283 330.944 220.544 336.661 219.157C342.443 217.749 348.139 221.333 349.525 227.051L359.531 268.821C378.048 239.851 381.76 202.752 382.144 181.035C382.251 175.168 386.603 170.859 393.003 170.56C398.869 170.667 403.563 175.552 403.456 181.419C402.56 231.893 387.755 274.005 361.749 300.011C359.723 302.059 356.992 303.147 354.219 303.147V303.147Z" fill="#C521FF"/>
<path d="M261.12 162.197C260.309 162.197 259.477 162.112 258.645 161.899L195.712 146.816C191.936 145.92 188.971 143.083 187.925 139.349C186.88 135.637 187.925 131.648 190.656 128.917C216.661 102.912 258.752 88.1067 309.248 87.2107C315.925 87.5094 320 91.7974 320.107 97.6854C320.213 103.573 315.52 108.437 309.632 108.544C287.915 108.928 250.837 112.619 221.867 131.157L263.637 141.163C269.376 142.528 272.917 148.288 271.531 154.027C270.336 158.912 265.963 162.197 261.12 162.197V162.197Z" fill="#C521FF"/>
<path d="M181.333 320C178.539 320 175.808 318.912 173.781 316.885C171.008 314.112 169.984 310.037 171.115 306.283C174.635 294.507 192.917 235.072 207.253 220.736C224.555 203.456 252.629 203.456 269.931 220.736C287.211 238.016 287.189 266.133 269.931 283.413C255.595 297.728 196.16 316.053 184.384 319.573C183.403 319.851 182.357 320 181.333 320ZM238.613 229.099C232.747 229.099 226.837 231.317 222.357 235.797C216.32 241.856 205.888 268.565 197.739 292.907C222.101 284.757 248.832 274.347 254.869 268.288C263.808 259.328 263.808 244.736 254.869 235.797C250.368 231.339 244.501 229.099 238.613 229.099V229.099ZM262.4 275.861H262.613H262.4Z" fill="#C521FF"/>
</g>
<defs>
<clipPath id="clip0">
<rect width="512" height="512" fill="white"/>
</clipPath>
</defs>
</svg>
