<svg width="512" height="512" viewBox="0 0 512 512" fill="none" xmlns="http://www.w3.org/2000/svg">
<g clip-path="url(#clip0)">
<path d="M490.667 362.667H21.3333C9.55733 362.667 0 372.203 0 384C0 395.797 9.55733 405.333 21.3333 405.333H490.667C502.443 405.333 512 395.797 512 384C512 372.203 502.443 362.667 490.667 362.667Z" fill="#C521FF"/>
<path d="M146.773 149.333H85.3332V362.667H42.6665V149.333C42.6665 125.867 61.8665 106.667 85.3332 106.667H156.8C147.413 118.827 143.573 134.4 146.773 149.333Z" fill="#C521FF"/>
<path d="M469.333 181.547V362.667H426.667V282.24C436.48 260.48 442.667 235.52 445.44 208.427C453.973 200.107 461.867 191.147 469.333 181.547Z" fill="#C521FF"/>
<path d="M488.32 5.80276C486.272 3.75476 483.222 2.58143 480.576 2.68809C420.267 3.81876 349.909 39.0188 305.237 90.1548C256.917 91.8828 216.576 106.453 191.424 131.605C188.693 134.315 187.648 138.304 188.693 142.016C189.739 145.749 192.725 148.608 196.48 149.504L241.899 160.384L241.622 160.683C237.824 164.885 237.995 171.349 242.005 175.36L318.741 252.096C320.811 254.187 323.542 255.211 326.294 255.211C328.854 255.211 331.392 254.315 333.419 252.48L333.717 252.203L344.597 297.621C345.493 301.376 348.352 304.363 352.085 305.408C353.045 305.685 354.005 305.813 354.987 305.813C357.781 305.813 360.491 304.725 362.539 302.699C387.712 277.525 402.262 237.205 403.99 188.864C455.19 144.043 490.326 73.7708 491.456 13.5254C491.499 10.6454 490.368 7.85076 488.32 5.80276V5.80276Z" fill="#C521FF"/>
<path d="M208.043 223.403C193.728 237.717 175.403 297.173 171.883 308.949C170.752 312.704 171.797 316.779 174.549 319.552C176.576 321.579 179.307 322.667 182.101 322.667C183.125 322.667 184.149 322.517 185.173 322.219C196.949 318.699 256.384 300.395 270.72 286.059C288 268.779 288 240.683 270.72 223.381C253.397 206.101 225.301 206.123 208.043 223.403V223.403Z" fill="#C521FF"/>
</g>
<defs>
<clipPath id="clip0">
<rect width="512" height="512" fill="white"/>
</clipPath>
</defs>
</svg>
