<svg width="55" height="55" viewBox="0 0 55 55" fill="none" xmlns="http://www.w3.org/2000/svg">
<path fill-rule="evenodd" clip-rule="evenodd" d="M0.523682 24.1295C0.523682 24.4316 0.612627 24.631 0.662471 24.8248C0.987314 26.085 1.68556 27.1666 2.51399 28.1531C3.69392 29.5591 5.13896 30.6909 6.61923 31.7552C7.90313 32.6782 9.21325 33.5805 10.5023 34.4966C10.7236 34.6539 10.9329 34.8348 11.1731 35.0277C10.9664 35.1394 10.7945 35.2378 10.6158 35.3285C8.91462 36.1913 7.27794 37.1585 5.76931 38.3303C4.86009 39.0367 3.98095 39.7873 3.36005 40.7683C2.36103 42.3461 2.00739 44.0271 2.75204 45.8219C2.96946 46.3461 3.30118 46.799 3.76911 47.1337C3.92079 47.242 4.09095 47.3494 4.26841 47.3915C4.72302 47.4985 5.18622 47.5686 5.64642 47.6532L6.94966 47.6523C8.39083 47.5239 9.70267 47.0302 10.8882 46.212C12.741 44.9333 13.9892 43.2188 14.5259 41.0184C14.9161 39.4191 14.932 37.8181 14.4722 36.2261C14.4297 36.0783 14.3759 35.9335 14.3201 35.7904C14.2642 35.6473 14.1985 35.5081 14.1211 35.3298L17.0757 33.6308L17.1199 33.6686C17.0662 33.8443 17.0091 34.0196 16.9605 34.1971C16.6095 35.4793 16.3761 36.7838 16.4599 38.1146C16.5493 39.5325 16.945 40.8598 17.7752 42.0445C18.4464 43.0027 20.0457 43.0384 20.759 42.0767C21.012 41.7351 21.2574 41.378 21.4417 40.9969C21.9234 40.0022 22.3694 38.9898 22.8296 37.9844L22.91 37.8005C22.8769 38.2766 22.8382 38.6946 22.8206 39.1132C22.7931 39.7667 22.8313 40.4164 23.0548 41.0382C23.246 41.5701 23.5713 41.9676 24.1806 42.0376C24.5974 42.0853 24.9295 41.8945 25.2359 41.6526C25.7145 41.2749 26.1034 40.8083 26.3922 40.278C27.209 38.778 28.0477 37.287 28.7881 35.7491C29.589 34.0858 30.2894 32.3739 31.0332 30.6823L31.1561 30.3823C31.3318 31.0729 31.4543 31.7492 31.6799 32.3894C31.942 33.1323 32.2664 33.8577 32.6196 34.5628C32.7868 34.8958 32.7674 35.1119 32.5358 35.3912C31.5665 36.56 30.6138 37.7429 29.6604 38.9245C29.4494 39.1854 29.2393 39.4509 29.0635 39.7358C28.9574 39.9089 28.8869 40.1199 28.8573 40.3219C28.8001 40.7077 29.0386 41.0798 29.4515 41.1688C29.8288 41.25 30.2306 41.2801 30.6151 41.2517C31.9459 41.1537 33.1541 40.6867 34.2224 39.8952C35.6064 38.87 36.0507 37.4709 35.7155 35.8127C35.6249 35.3629 35.4646 34.9254 35.3086 34.4919C35.2386 34.2964 35.2338 34.1593 35.3615 33.9771C36.4679 32.3971 37.4132 30.7209 38.2924 29.0061C38.3272 28.9386 38.3628 28.8711 38.4238 28.7989C38.7087 30.2814 39.1376 31.7101 39.9058 33.0064C39.514 33.3841 39.1259 33.7266 38.7749 34.1039C38.0019 34.9349 37.3316 35.8372 36.9818 36.9377C36.8314 37.412 36.7158 37.8941 36.7829 38.4007C36.8868 39.1875 37.5314 39.6988 38.3052 39.5196C39.9613 39.1364 41.3908 38.3561 42.4354 36.9737C43.1384 36.043 43.2024 35.0049 42.9081 33.9174C42.8273 33.6218 42.7315 33.3309 42.6283 32.9918C43.037 32.8651 43.4353 32.713 43.8474 32.6189C45.9868 32.1307 48.103 32.2158 50.1646 32.9884C51.3682 33.4396 52.3406 34.1945 52.9172 35.3822C53.6215 36.8341 53.2322 38.2117 51.8636 39.1295C51.736 39.215 51.5899 39.2825 51.4842 39.3895C51.4193 39.4552 51.3802 39.5867 51.3961 39.6773C51.4051 39.7302 51.5448 39.7964 51.6251 39.7955C52.075 39.7921 52.4398 39.5562 52.79 39.3138C53.6674 38.7067 54.3077 37.8898 54.4456 36.8143L54.4727 36.7336L54.4396 36.0332C54.4263 35.9928 54.4495 35.9528 54.4465 35.9223C54.26 34.3561 53.4234 33.1414 52.2065 32.1892C50.7971 31.087 49.1329 30.6333 47.3729 30.5615C45.9386 30.5031 44.5288 30.7162 43.177 31.2073C42.7916 31.347 42.4096 31.5124 42.022 31.6684C41.97 31.5743 41.9142 31.4841 41.8682 31.3908C41.4703 30.5761 40.9882 29.7975 40.8816 28.8634C40.806 28.2 40.7132 27.5374 40.8709 26.8813C41.0226 26.25 41.2202 25.6296 41.4063 25.007C41.5021 24.6864 41.4347 24.5068 41.1287 24.3624C41.0222 24.3121 40.9061 24.2683 40.791 24.2516C40.039 24.1424 39.2974 24.2047 38.5691 24.4166C38.3113 24.4918 38.1239 24.6361 38.0668 24.9214C38.0341 25.0852 37.9675 25.242 37.9211 25.4036C37.7308 26.0752 37.5958 26.7596 37.2882 27.3995C36.5173 29.0043 35.6373 30.5486 34.7367 32.0818C34.6392 32.2472 34.5365 32.4096 34.4136 32.6103C34.0973 31.9486 33.76 31.3547 33.6577 30.6586C33.5422 29.8714 33.4511 29.0855 33.647 28.3044C33.7927 27.7217 33.983 27.1498 34.1583 26.5749C34.2413 26.3016 34.203 26.1581 33.9555 26.0141C33.8305 25.9415 33.6891 25.8771 33.5482 25.856C32.7683 25.7404 32 25.801 31.2476 26.0442C31.0143 26.1198 30.8918 26.2707 30.8205 26.5113C30.6108 27.2211 30.4321 27.9482 30.1377 28.6232C28.9458 31.356 27.7195 34.0746 26.4944 36.7929C26.2388 37.3605 25.9393 37.9083 25.6509 38.4609C25.5779 38.601 25.4713 38.7243 25.3802 38.8558C25.3072 38.7694 25.2788 38.7101 25.2793 38.6508C25.2814 38.3015 25.2397 37.9418 25.3063 37.6041C25.5079 36.5823 25.7399 35.5661 25.9844 34.5538C26.1863 33.7176 26.4214 32.8891 26.6452 32.0586C26.7204 31.7805 26.7217 31.5206 26.5219 31.2868C26.1863 30.8954 25.4851 30.8095 25.0691 31.1111L24.8852 31.2151L24.9209 30.9186C25.0086 30.2831 25.0262 29.6497 24.8517 29.0237C24.6343 28.2434 24.0774 27.7943 23.2679 27.8193C22.8906 27.8309 22.4945 27.8953 22.1451 28.0328C20.676 28.6086 19.5464 29.6282 18.5847 30.855C18.4975 30.9663 18.3824 31.0677 18.2595 31.136C17.0164 31.8252 15.7694 32.5059 14.5229 33.1891L13.1354 33.9492C12.7633 33.5943 12.4252 33.226 12.0415 32.9136C10.8697 31.958 9.67903 31.026 8.49911 30.0811C7.45325 29.2437 6.44005 28.3714 5.66489 27.2624C5.08825 26.4374 4.71657 25.5346 4.68091 24.5145C4.63579 23.2147 5.00446 22.0271 5.66618 20.9215C6.51267 19.507 7.66724 18.3717 8.93653 17.3435C10.2793 16.2564 11.7317 15.3334 13.2368 14.4908C15.3427 13.3121 17.5088 12.2689 19.8313 11.5801C22.2126 10.8737 24.6287 10.4693 27.1209 10.7512C28.1006 10.8621 29.0519 11.0864 29.9255 11.5655C30.5945 11.932 31.1432 12.412 31.3984 13.1622C31.6502 13.9004 31.6425 14.6485 31.4681 15.3983C31.1136 16.9168 30.2821 18.1685 29.2358 19.287C27.5197 21.1204 25.4262 22.3687 23.0694 23.1932C21.7094 23.6689 20.3104 23.9675 18.8735 24.0883C17.7009 24.1867 16.5527 24.0827 15.4424 23.6749C14.7072 23.4046 14.067 22.9913 13.5522 22.3914C13.4603 22.284 13.3425 22.1676 13.1711 22.2681C13.0031 22.367 12.9734 22.5268 13.0297 22.6888C13.1238 22.9578 13.2106 23.2379 13.3572 23.4786C13.7254 24.0823 14.2625 24.5201 14.8538 24.8957C15.9894 25.618 17.2587 25.8607 18.5749 25.917C20.572 26.0034 22.5207 25.7052 24.4418 25.1694C27.1845 24.4045 29.5693 23.0536 31.4818 20.9223C33.0742 19.1477 34.2116 17.145 34.4552 14.7267C34.5743 13.5463 34.4475 12.39 33.8949 11.3132C33.2955 10.1466 32.3425 9.2791 31.2029 8.68141C29.5435 7.81129 27.7525 7.30469 25.904 7.30469H24.0521C21.8134 7.30469 19.6491 7.94621 17.5453 8.71148C15.9529 9.29113 14.3914 9.97519 12.8755 10.7323C9.57419 12.3819 6.49978 14.3709 3.9745 17.1059C2.71638 18.4684 1.65118 19.9719 1.03845 21.7422C0.859268 22.2604 0.689111 22.816 0.561064 23.3518L0.523682 24.1295ZM12.5231 38.8261C12.38 40.7421 11.5117 42.2954 10.0924 43.5536C9.29403 44.2608 8.37837 44.7644 7.31188 44.9414C6.92517 45.0055 6.52942 45.0209 6.15431 44.8607C5.61935 44.6321 5.49946 44.1573 5.48915 43.6515C5.47325 42.8454 5.75556 42.1167 6.1427 41.4232C6.64802 40.5191 7.3888 39.8299 8.17985 39.1862C9.42595 38.1717 10.7777 37.3132 12.1622 36.5028L12.2666 36.4598C12.4806 37.2505 12.5824 38.0312 12.5231 38.8261ZM23.3332 30.4992C23.2322 31.1111 23.1059 31.7234 22.9272 32.3164C22.3093 34.369 21.5156 36.358 20.6575 38.3204C20.499 38.6835 20.2683 39.0148 20.0676 39.3589C20.0366 39.4122 19.9907 39.4582 19.946 39.5025C19.6976 39.7478 19.4622 39.7349 19.3367 39.4139C19.1906 39.041 19.1008 38.6418 19.0234 38.2469C18.9715 37.9818 18.9839 37.7034 18.9676 37.4318C18.9843 35.5008 19.5734 33.7459 20.5729 32.1123C20.985 31.4385 21.4336 30.7966 22.1189 30.3703C22.3295 30.2393 22.5658 30.134 22.8043 30.067C23.1695 29.9643 23.3938 30.1331 23.3332 30.4992ZM30.7084 39.8956L33.3591 36.8006C33.4695 37.95 31.5158 40.2445 30.7084 39.8956ZM39.1745 37.8129C38.9872 37.9204 38.7831 37.9977 38.591 38.097C38.4152 38.188 38.3572 38.0961 38.3521 37.9448C38.3486 37.8421 38.3637 37.7347 38.392 37.635C38.75 36.3726 39.4087 35.295 40.3888 34.4184L40.4575 34.3832C40.9238 35.6873 40.3849 37.1194 39.1745 37.8129Z" fill="#CB6699"/>
</svg>
