<svg width="512" height="512" viewBox="0 0 512 512" fill="none" xmlns="http://www.w3.org/2000/svg">
<g clip-path="url(#clip0)">
<path d="M97 0C79.4 0 65 14.4 65 32V480C65 497.6 79.4 512 97 512H417C434.6 512 449 497.6 449 480V128L321 0H97Z" fill="#EAECEF"/>
<g filter="url(#filter0_d)">
<path d="M353 128H449L321 0V96C321 113.6 335.4 128 353 128Z" fill="#2FDAE4"/>
</g>
<g filter="url(#filter1_d)">
<path d="M31 274C31 265.716 37.7157 259 46 259H466C474.284 259 481 265.716 481 274V431C481 439.284 474.284 446 466 446H46C37.7157 446 31 439.284 31 431V274Z" fill="url(#paint0_linear)"/>
</g>
<path d="M184.605 388.7C179.739 388.7 175.339 387.867 171.405 386.2C167.539 384.533 164.472 382.133 162.205 379C159.939 375.867 158.772 372.167 158.705 367.9H173.705C173.905 370.767 174.905 373.033 176.705 374.7C178.572 376.367 181.105 377.2 184.305 377.2C187.572 377.2 190.139 376.433 192.005 374.9C193.872 373.3 194.805 371.233 194.805 368.7C194.805 366.633 194.172 364.933 192.905 363.6C191.639 362.267 190.039 361.233 188.105 360.5C186.239 359.7 183.639 358.833 180.305 357.9C175.772 356.567 172.072 355.267 169.205 354C166.405 352.667 163.972 350.7 161.905 348.1C159.905 345.433 158.905 341.9 158.905 337.5C158.905 333.367 159.939 329.767 162.005 326.7C164.072 323.633 166.972 321.3 170.705 319.7C174.439 318.033 178.705 317.2 183.505 317.2C190.705 317.2 196.539 318.967 201.005 322.5C205.539 325.967 208.039 330.833 208.505 337.1H193.105C192.972 334.7 191.939 332.733 190.005 331.2C188.139 329.6 185.639 328.8 182.505 328.8C179.772 328.8 177.572 329.5 175.905 330.9C174.305 332.3 173.505 334.333 173.505 337C173.505 338.867 174.105 340.433 175.305 341.7C176.572 342.9 178.105 343.9 179.905 344.7C181.772 345.433 184.372 346.3 187.705 347.3C192.239 348.633 195.939 349.967 198.805 351.3C201.672 352.633 204.139 354.633 206.205 357.3C208.272 359.967 209.305 363.467 209.305 367.8C209.305 371.533 208.339 375 206.405 378.2C204.472 381.4 201.639 383.967 197.905 385.9C194.172 387.767 189.739 388.7 184.605 388.7ZM284.143 318.2L258.543 388H241.543L215.943 318.2H230.943L250.143 373.7L269.243 318.2H284.143ZM341.137 339.2C339.537 336.267 337.337 334.033 334.537 332.5C331.737 330.967 328.47 330.2 324.737 330.2C320.603 330.2 316.937 331.133 313.737 333C310.537 334.867 308.037 337.533 306.237 341C304.437 344.467 303.537 348.467 303.537 353C303.537 357.667 304.437 361.733 306.237 365.2C308.103 368.667 310.67 371.333 313.937 373.2C317.203 375.067 321.003 376 325.337 376C330.67 376 335.037 374.6 338.437 371.8C341.837 368.933 344.07 364.967 345.137 359.9H321.137V349.2H358.937V361.4C358.003 366.267 356.003 370.767 352.937 374.9C349.87 379.033 345.903 382.367 341.037 384.9C336.237 387.367 330.837 388.6 324.837 388.6C318.103 388.6 312.003 387.1 306.537 384.1C301.137 381.033 296.87 376.8 293.737 371.4C290.67 366 289.137 359.867 289.137 353C289.137 346.133 290.67 340 293.737 334.6C296.87 329.133 301.137 324.9 306.537 321.9C312.003 318.833 318.07 317.3 324.737 317.3C332.603 317.3 339.437 319.233 345.237 323.1C351.037 326.9 355.037 332.267 357.237 339.2H341.137Z" fill="#FEFDFE"/>
<rect opacity="0.4" x="109" y="147" width="212" height="11" fill="#121317"/>
<rect opacity="0.4" x="109" y="179" width="235" height="11" fill="#121317"/>
<rect opacity="0.4" x="109" y="211" width="244" height="11" fill="#121317"/>
</g>
<defs>
<filter id="filter0_d" x="311" y="-9" width="148" height="148" filterUnits="userSpaceOnUse" color-interpolation-filters="sRGB">
<feFlood flood-opacity="0" result="BackgroundImageFix"/>
<feColorMatrix in="SourceAlpha" type="matrix" values="0 0 0 0 0 0 0 0 0 0 0 0 0 0 0 0 0 0 127 0"/>
<feOffset dy="1"/>
<feGaussianBlur stdDeviation="5"/>
<feColorMatrix type="matrix" values="0 0 0 0 0 0 0 0 0 0 0 0 0 0 0 0 0 0 0.25 0"/>
<feBlend mode="normal" in2="BackgroundImageFix" result="effect1_dropShadow"/>
<feBlend mode="normal" in="SourceGraphic" in2="effect1_dropShadow" result="shape"/>
</filter>
<filter id="filter1_d" x="-15" y="213" width="550" height="287" filterUnits="userSpaceOnUse" color-interpolation-filters="sRGB">
<feFlood flood-opacity="0" result="BackgroundImageFix"/>
<feColorMatrix in="SourceAlpha" type="matrix" values="0 0 0 0 0 0 0 0 0 0 0 0 0 0 0 0 0 0 127 0"/>
<feOffset dx="4" dy="4"/>
<feGaussianBlur stdDeviation="25"/>
<feColorMatrix type="matrix" values="0 0 0 0 0 0 0 0 0 0 0 0 0 0 0 0 0 0 0.25 0"/>
<feBlend mode="normal" in2="BackgroundImageFix" result="effect1_dropShadow"/>
<feBlend mode="normal" in="SourceGraphic" in2="effect1_dropShadow" result="shape"/>
</filter>
<linearGradient id="paint0_linear" x1="481" y1="353" x2="31" y2="353" gradientUnits="userSpaceOnUse">
<stop stop-color="#00B3BD"/>
<stop offset="1" stop-color="#00F1FF"/>
</linearGradient>
<clipPath id="clip0">
<rect width="512" height="512" fill="white"/>
</clipPath>
</defs>
</svg>
