<svg width="512" height="512" viewBox="0 0 512 512" fill="none" xmlns="http://www.w3.org/2000/svg">
<g clip-path="url(#clip0)">
<path d="M97 0C79.4 0 65 14.4 65 32V480C65 497.6 79.4 512 97 512H417C434.6 512 449 497.6 449 480V128L321 0H97Z" fill="#EAECEF"/>
<g filter="url(#filter0_d)">
<path d="M353 128H449L321 0V96C321 113.6 335.4 128 353 128Z" fill="#2FDAE4"/>
</g>
<g filter="url(#filter1_d)">
<path d="M31 274C31 265.716 37.7157 259 46 259H466C474.284 259 481 265.716 481 274V431C481 439.284 474.284 446 466 446H46C37.7157 446 31 439.284 31 431V274Z" fill="#2FDAE4"/>
</g>
<path d="M152.312 404.008C145.304 404.008 138.968 402.808 133.304 400.408C127.736 398.008 123.32 394.552 120.056 390.04C116.792 385.528 115.112 380.2 115.016 374.056H136.616C136.904 378.184 138.344 381.448 140.936 383.848C143.624 386.248 147.272 387.448 151.88 387.448C156.584 387.448 160.28 386.344 162.968 384.136C165.656 381.832 167 378.856 167 375.208C167 372.232 166.088 369.784 164.264 367.864C162.44 365.944 160.136 364.456 157.352 363.4C154.664 362.248 150.92 361 146.12 359.656C139.592 357.736 134.264 355.864 130.136 354.04C126.104 352.12 122.6 349.288 119.624 345.544C116.744 341.704 115.304 336.616 115.304 330.28C115.304 324.328 116.792 319.144 119.768 314.728C122.744 310.312 126.92 306.952 132.296 304.648C137.672 302.248 143.816 301.048 150.728 301.048C161.096 301.048 169.496 303.592 175.928 308.68C182.456 313.672 186.056 320.68 186.728 329.704H164.552C164.36 326.248 162.872 323.416 160.088 321.208C157.4 318.904 153.8 317.752 149.288 317.752C145.352 317.752 142.184 318.76 139.784 320.776C137.48 322.792 136.328 325.72 136.328 329.56C136.328 332.248 137.192 334.504 138.92 336.328C140.744 338.056 142.952 339.496 145.544 340.648C148.232 341.704 151.976 342.952 156.776 344.392C163.304 346.312 168.632 348.232 172.76 350.152C176.888 352.072 180.44 354.952 183.416 358.792C186.392 362.632 187.88 367.672 187.88 373.912C187.88 379.288 186.488 384.28 183.704 388.888C180.92 393.496 176.84 397.192 171.464 399.976C166.088 402.664 159.704 404.008 152.312 404.008ZM295.646 302.488L258.782 403H234.302L197.438 302.488H219.038L246.686 382.408L274.19 302.488H295.646ZM377.717 332.728C375.413 328.504 372.245 325.288 368.213 323.08C364.181 320.872 359.477 319.768 354.101 319.768C348.149 319.768 342.869 321.112 338.261 323.8C333.653 326.488 330.053 330.328 327.461 335.32C324.869 340.312 323.573 346.072 323.573 352.6C323.573 359.32 324.869 365.176 327.461 370.168C330.149 375.16 333.845 379 338.549 381.688C343.253 384.376 348.725 385.72 354.965 385.72C362.645 385.72 368.933 383.704 373.829 379.672C378.725 375.544 381.941 369.832 383.477 362.536H348.917V347.128H403.349V364.696C402.005 371.704 399.125 378.184 394.709 384.136C390.293 390.088 384.581 394.888 377.573 398.536C370.661 402.088 362.885 403.864 354.245 403.864C344.549 403.864 335.765 401.704 327.893 397.384C320.117 392.968 313.973 386.872 309.461 379.096C305.045 371.32 302.837 362.488 302.837 352.6C302.837 342.712 305.045 333.88 309.461 326.104C313.973 318.232 320.117 312.136 327.893 307.816C335.765 303.4 344.501 301.192 354.101 301.192C365.429 301.192 375.269 303.976 383.621 309.544C391.973 315.016 397.733 322.744 400.901 332.728H377.717Z" fill="#282C34"/>
<rect opacity="0.4" x="109" y="147" width="212" height="11" fill="#121317"/>
<rect opacity="0.4" x="109" y="179" width="235" height="11" fill="#121317"/>
<rect opacity="0.4" x="109" y="211" width="244" height="11" fill="#121317"/>
</g>
<defs>
<filter id="filter0_d" x="311" y="-9" width="148" height="148" filterUnits="userSpaceOnUse" color-interpolation-filters="sRGB">
<feFlood flood-opacity="0" result="BackgroundImageFix"/>
<feColorMatrix in="SourceAlpha" type="matrix" values="0 0 0 0 0 0 0 0 0 0 0 0 0 0 0 0 0 0 127 0"/>
<feOffset dy="1"/>
<feGaussianBlur stdDeviation="5"/>
<feColorMatrix type="matrix" values="0 0 0 0 0 0 0 0 0 0 0 0 0 0 0 0 0 0 0.25 0"/>
<feBlend mode="normal" in2="BackgroundImageFix" result="effect1_dropShadow"/>
<feBlend mode="normal" in="SourceGraphic" in2="effect1_dropShadow" result="shape"/>
</filter>
<filter id="filter1_d" x="-15" y="213" width="550" height="287" filterUnits="userSpaceOnUse" color-interpolation-filters="sRGB">
<feFlood flood-opacity="0" result="BackgroundImageFix"/>
<feColorMatrix in="SourceAlpha" type="matrix" values="0 0 0 0 0 0 0 0 0 0 0 0 0 0 0 0 0 0 127 0"/>
<feOffset dx="4" dy="4"/>
<feGaussianBlur stdDeviation="25"/>
<feColorMatrix type="matrix" values="0 0 0 0 0 0 0 0 0 0 0 0 0 0 0 0 0 0 0.25 0"/>
<feBlend mode="normal" in2="BackgroundImageFix" result="effect1_dropShadow"/>
<feBlend mode="normal" in="SourceGraphic" in2="effect1_dropShadow" result="shape"/>
</filter>
<clipPath id="clip0">
<rect width="512" height="512" fill="white"/>
</clipPath>
</defs>
</svg>
