<svg width="512" height="512" viewBox="0 0 512 512" fill="none" xmlns="http://www.w3.org/2000/svg">
<path d="M452.923 98.462H354.461C354.462 44.081 310.38 0 256 0C201.62 0 157.538 44.081 157.538 98.462H59.0769C45.4789 98.462 34.4619 109.48 34.4619 123.077C34.4619 136.674 45.4799 147.692 59.0769 147.692H68.9229V448C68.9819 483.328 97.5949 511.941 132.923 512H379.077C414.405 511.941 443.018 483.328 443.077 448V147.692H452.923C466.521 147.692 477.538 136.674 477.538 123.077C477.538 109.48 466.521 98.462 452.923 98.462ZM256 49.231C283.185 49.231 305.231 71.277 305.231 98.462H206.769C206.769 71.276 228.815 49.231 256 49.231ZM393.846 448C393.846 456.153 387.229 462.769 379.077 462.769H132.923C124.77 462.769 118.154 456.152 118.154 448V147.692H393.846V448Z" fill="#121317"/>
<path d="M201.846 379.077C188.248 379.077 177.231 368.059 177.231 354.462V256C177.231 242.402 188.249 231.385 201.846 231.385C215.443 231.385 226.461 242.403 226.461 256V354.462C226.462 368.059 215.444 379.077 201.846 379.077Z" fill="#121317"/>
<path d="M310.154 379.077C296.556 379.077 285.539 368.059 285.539 354.462V256C285.539 242.402 296.557 231.385 310.154 231.385C323.752 231.385 334.769 242.403 334.769 256V354.462C334.769 368.059 323.751 379.077 310.154 379.077Z" fill="#121317"/>
</svg>
