<svg width="512" height="512" viewBox="0 0 512 512" fill="none" xmlns="http://www.w3.org/2000/svg">
<path d="M256 0L95.6021 256L256 512C397.385 512 512 397.385 512 256C512 114.615 397.385 0 256 0Z" fill="#28ABFA"/>
<path d="M0 256C0 397.385 114.615 512 256 512V0C114.615 0 0 114.615 0 256Z" fill="#14CFFF"/>
<path d="M256 60L190.212 165L256 270C313.99 270 361 222.99 361 165C361 107.01 313.99 60 256 60Z" fill="#373E9F"/>
<path d="M151 165C151 222.99 198.01 270 256 270V60C198.01 60 151 107.01 151 165Z" fill="#6241EA"/>
<path d="M424.649 335.443C404.716 312.918 376.049 300 346 300H256L196 376L256 452C326.322 452 391.636 413.99 426.454 352.802L431.76 343.477L424.649 335.443Z" fill="#373E9F"/>
<path d="M166 300C135.951 300 107.284 312.918 87.3512 335.443L80.2412 343.478L85.5472 352.803C120.364 413.99 185.678 452 256 452V300H166Z" fill="#6241EA"/>
</svg>
