<svg width="55" height="54" viewBox="0 0 55 54" fill="none" xmlns="http://www.w3.org/2000/svg">
<g clip-path="url(#clip0)">
<path d="M30.5241 41.0533C30.5241 47.8867 24.985 53.4266 18.1516 53.4266C11.3174 53.4266 5.77832 47.8867 5.77832 41.0533C5.77832 34.22 11.3174 28.68 18.1516 28.68C24.985 28.68 30.5241 34.22 30.5241 41.0533Z" fill="#FF6600"/>
<path d="M54.9957 23.7313C54.9957 30.5637 49.4567 36.1046 42.6233 36.1046C35.7891 36.1046 30.25 30.5637 30.25 23.7313C30.25 16.8979 35.7891 11.3571 42.6233 11.3571C49.4567 11.3571 54.9957 16.8979 54.9957 23.7313Z" fill="#FFCC00"/>
<path d="M24.7501 23.4563C24.7501 30.2887 19.2111 35.8296 12.3768 35.8296C5.54436 35.8296 0.00439453 30.2887 0.00439453 23.4563C0.00439453 16.6229 5.54436 11.082 12.3768 11.082C19.2111 11.082 24.7501 16.6229 24.7501 23.4563Z" fill="#0089CC"/>
<path d="M49.4971 41.0533C49.4971 47.8867 43.9581 53.4266 37.1229 53.4266C30.2905 53.4266 24.7505 47.8867 24.7505 41.0533C24.7505 34.22 30.2905 28.68 37.1229 28.68C43.9581 28.68 49.4971 34.22 49.4971 41.0533Z" fill="#009939"/>
<path d="M39.8731 12.4571C39.8731 19.2905 34.3331 24.8304 27.4998 24.8304C20.6664 24.8304 15.1265 19.2905 15.1265 12.4571C15.1265 5.62376 20.6664 0.0837955 27.4998 0.0837955C34.3331 0.0837955 39.8731 5.62376 39.8731 12.4571Z" fill="#BF0000"/>
<path d="M30.2495 23.7309C30.2495 23.9913 30.2722 24.2461 30.2885 24.5028C35.7768 23.2366 39.8728 18.3298 39.8728 12.4569C39.8728 12.1966 39.8501 11.9408 39.8338 11.6841C34.3455 12.9512 30.2495 17.8581 30.2495 23.7309Z" fill="#FC0007"/>
<path d="M31.8823 29.8577C34.0147 33.5855 38.0218 36.1042 42.624 36.1042C44.4996 36.1042 46.271 35.6743 47.8646 34.927C45.7332 31.1992 41.726 28.6804 37.123 28.6804C35.2473 28.6804 33.4759 29.1104 31.8823 29.8577Z" fill="#1CD306"/>
<path d="M24.75 41.0536C24.75 44.0767 25.8366 46.843 27.6379 48.9917C29.4374 46.843 30.524 44.0767 30.524 41.0536C30.524 38.0306 29.4374 35.2642 27.6379 33.1155C25.8366 35.2642 24.75 38.0306 24.75 41.0536Z" fill="#0F7504"/>
<path d="M7.47803 34.8168C8.98093 35.4662 10.6353 35.83 12.3767 35.83C16.9335 35.83 20.9035 33.3602 23.0513 29.6932C21.5484 29.0438 19.8931 28.681 18.1525 28.681C13.5958 28.681 9.6249 31.1507 7.47803 34.8168Z" fill="#0C5E87"/>
<path d="M15.1795 11.4136C15.1505 11.7583 15.126 12.1048 15.126 12.4576C15.126 18.3259 19.2156 23.2283 24.6976 24.4999C24.7257 24.1552 24.7502 23.8087 24.7502 23.4568C24.7502 17.5885 20.6614 12.6844 15.1795 11.4136Z" fill="#6B0001"/>
<path d="M16.3346 39.5226H14.3991C12.6903 39.5226 11.3008 38.1376 11.3008 36.4334V18.9137C11.3008 17.2094 12.6903 15.8235 14.3991 15.8235H38.6696C40.3784 15.8235 41.767 17.2094 41.767 18.9137V36.4334C41.767 38.1376 40.3784 39.5226 38.6696 39.5226H30.4013L13.8123 47.6548L16.3346 39.5226Z" fill="white"/>
</g>
<defs>
<clipPath id="clip0">
<rect width="55" height="53.4961" fill="white"/>
</clipPath>
</defs>
</svg>
