<svg width="512" height="512" viewBox="0 0 512 512" fill="none" xmlns="http://www.w3.org/2000/svg">
<g clip-path="url(#clip0)">
<path d="M97 0C79.4 0 65 14.4 65 32V480C65 497.6 79.4 512 97 512H417C434.6 512 449 497.6 449 480V128L321 0H97Z" fill="#EAECEF"/>
<g filter="url(#filter0_d)">
<path d="M353 128H449L321 0V96C321 113.6 335.4 128 353 128Z" fill="#B241C9"/>
</g>
<path opacity="0.4" d="M129.558 97.5476H124.606C122.965 97.5491 121.391 98.2018 120.231 99.3623C119.07 100.523 118.418 102.096 118.416 103.737C118.418 105.379 119.071 106.952 120.231 108.112C121.391 109.273 122.965 109.925 124.606 109.927H129.558C131.199 109.926 132.772 109.273 133.933 108.113C135.093 106.952 135.746 105.379 135.748 103.737C135.746 102.096 135.093 100.523 133.933 99.3626C132.772 98.2022 131.199 97.5495 129.558 97.5476ZM130.424 104.617C130.311 104.731 130.176 104.821 130.027 104.883C129.878 104.944 129.719 104.976 129.558 104.975H124.606C124.278 104.975 123.963 104.845 123.73 104.613C123.498 104.381 123.368 104.066 123.368 103.737C123.369 103.41 123.5 103.095 123.732 102.864C123.964 102.632 124.278 102.501 124.606 102.499H129.558C129.886 102.499 130.201 102.63 130.433 102.862C130.665 103.094 130.796 103.409 130.796 103.737C130.796 103.901 130.763 104.064 130.699 104.215C130.635 104.366 130.542 104.503 130.424 104.617Z" fill="#121317"/>
<path opacity="0.4" d="M151.524 21H102.476C101.819 21 101.19 21.2609 100.725 21.7252C100.261 22.1895 100 22.8193 100 23.4759V221.55C100 222.207 100.261 222.837 100.725 223.301C101.19 223.765 101.819 224.026 102.476 224.026H151.524C152.181 224.026 152.81 223.765 153.275 223.301C153.739 222.837 154 222.207 154 221.55V23.4759C154 22.8193 153.739 22.1895 153.275 21.7252C152.81 21.2609 152.181 21 151.524 21ZM117.901 219.074V207.52H121.718C122.484 207.521 123.218 207.825 123.76 208.367C124.301 208.908 124.606 209.643 124.607 210.409V216.186C124.607 217.175 124.797 218.156 125.165 219.074H117.901ZM117.901 202.568V191.014H121.718C122.484 191.015 123.218 191.319 123.76 191.861C124.301 192.402 124.606 193.137 124.607 193.902V199.68C124.607 200.669 124.797 201.649 125.165 202.568H117.901ZM117.901 186.062V174.508H121.718C122.484 174.508 123.218 174.813 123.76 175.355C124.301 175.896 124.606 176.63 124.607 177.396V183.173C124.607 184.163 124.797 185.143 125.165 186.062H117.901ZM117.901 169.556V158.001H121.718C122.484 158.002 123.218 158.307 123.76 158.848C124.301 159.39 124.606 160.124 124.607 160.89V166.667C124.607 167.657 124.797 168.637 125.165 169.556H117.901ZM117.901 153.05V141.495H121.718C122.484 141.496 123.218 141.801 123.76 142.342C124.301 142.884 124.606 143.618 124.607 144.384V150.161C124.607 151.151 124.797 152.131 125.165 153.05H117.901ZM117.901 136.543V124.989H121.718C122.484 124.99 123.218 125.294 123.76 125.836C124.301 126.378 124.606 127.112 124.607 127.878V133.655C124.607 134.644 124.797 135.625 125.165 136.543H117.901ZM117.901 120.037V117.665C120.138 118.701 122.537 119.343 124.992 119.563C125.044 119.724 125.106 119.88 125.169 120.035L117.901 120.037ZM136.264 219.074H132.447C131.681 219.073 130.947 218.769 130.405 218.227C129.864 217.686 129.559 216.952 129.558 216.186V210.409C129.558 209.419 129.368 208.439 129 207.52H136.263L136.264 219.074ZM136.264 202.568H132.447C131.681 202.567 130.947 202.263 130.405 201.721C129.864 201.18 129.559 200.445 129.558 199.68V193.902C129.558 192.913 129.368 191.932 129 191.014H136.263L136.264 202.568ZM136.264 186.062H132.447C131.681 186.061 130.947 185.756 130.405 185.215C129.864 184.673 129.559 183.939 129.558 183.173V177.396C129.558 176.407 129.368 175.426 129 174.508H136.263L136.264 186.062ZM136.264 169.556H132.447C131.681 169.555 130.947 169.25 130.405 168.709C129.864 168.167 129.559 167.433 129.558 166.667V160.89C129.558 159.9 129.368 158.92 129 158.001H136.263L136.264 169.556ZM136.264 153.05H132.447C131.681 153.049 130.947 152.744 130.405 152.203C129.864 151.661 129.559 150.927 129.558 150.161V144.384C129.558 143.394 129.368 142.414 129 141.495H136.263L136.264 153.05ZM136.264 136.543H132.447C131.681 136.542 130.947 136.238 130.405 135.696C129.864 135.155 129.559 134.421 129.558 133.655V127.878C129.558 126.888 129.368 125.908 129 124.989H136.263L136.264 136.543ZM136.264 120.037H132.447C131.77 120.037 131.114 119.797 130.597 119.36C132.558 119.028 134.464 118.431 136.264 117.586V120.037ZM138.919 109.746C138.388 110.281 137.823 110.781 137.227 111.242C134.409 113.398 130.982 114.608 127.435 114.701C127.318 114.683 127.2 114.674 127.083 114.673C126.958 114.674 126.834 114.684 126.711 114.704C122.377 114.625 118.241 112.872 115.169 109.813L114.001 108.648L118.86 76.5021H120.008L121.419 81.3248C121.57 81.8384 121.883 82.2894 122.311 82.6103C122.739 82.9311 123.26 83.1045 123.795 83.1045H130.373C130.908 83.1045 131.429 82.9311 131.857 82.6103C132.286 82.2894 132.599 81.8384 132.749 81.3248L134.162 76.5021H135.531L140.016 108.642L138.919 109.746ZM122.628 67.8363H131.537L128.517 78.1527H125.648L122.628 67.8363ZM149.048 39.1568H124.528C123.871 39.1568 123.241 39.4177 122.777 39.882C122.313 40.3463 122.052 40.9761 122.052 41.6327C122.052 42.2894 122.313 42.9192 122.777 43.3835C123.241 43.8478 123.871 44.1087 124.528 44.1087H149.048V219.074H141.216V114.371C141.632 114.009 142.041 113.631 142.433 113.235L144.393 111.258C144.662 110.987 144.864 110.658 144.985 110.296C145.105 109.935 145.141 109.55 145.088 109.172L140.136 73.6841C140.053 73.0924 139.76 72.5504 139.309 72.1583C138.858 71.7661 138.281 71.5502 137.684 71.5502H135.61L137.219 66.0553C137.327 65.6861 137.347 65.2967 137.279 64.9182C137.21 64.5397 137.054 64.1824 136.823 63.8747C136.592 63.5669 136.293 63.3172 135.949 63.1453C135.605 62.9734 135.225 62.8841 134.84 62.8845H119.325C118.94 62.8844 118.561 62.974 118.217 63.146C117.873 63.318 117.574 63.5678 117.343 63.8755C117.113 64.1832 116.957 64.5404 116.888 64.9187C116.82 65.2971 116.84 65.6862 116.948 66.0553L118.557 71.5502H116.729C116.137 71.5501 115.564 71.7624 115.115 72.1486C114.665 72.5347 114.37 73.0691 114.281 73.6548L108.916 109.143C108.858 109.527 108.892 109.919 109.014 110.288C109.136 110.657 109.343 110.992 109.618 111.266L111.677 113.321C112.09 113.733 112.519 114.123 112.951 114.491V219.074H104.952V44.1087H111.365C112.021 44.1087 112.651 43.8478 113.115 43.3835C113.58 42.9192 113.84 42.2894 113.84 41.6327C113.84 40.9761 113.58 40.3463 113.115 39.882C112.651 39.4177 112.021 39.1568 111.365 39.1568H104.952V25.9519H149.048V39.1568Z" fill="#121317"/>
<g filter="url(#filter1_d)">
<path d="M31 274C31 265.716 37.7157 259 46 259H466C474.284 259 481 265.716 481 274V431C481 439.284 474.284 446 466 446H46C37.7157 446 31 439.284 31 431V274Z" fill="url(#paint0_linear)"/>
</g>
<path d="M206.055 376.2H237.455V388H189.855V377.2L221.055 330H189.855V318.2H237.455V329L206.055 376.2ZM263.373 318.2V388H249.373V318.2H263.373ZM328.105 339.8C328.105 343.533 327.205 347.033 325.405 350.3C323.671 353.567 320.905 356.2 317.105 358.2C313.371 360.2 308.638 361.2 302.905 361.2H291.205V388H277.205V318.2H302.905C308.305 318.2 312.905 319.133 316.705 321C320.505 322.867 323.338 325.433 325.205 328.7C327.138 331.967 328.105 335.667 328.105 339.8ZM302.305 349.9C306.171 349.9 309.038 349.033 310.905 347.3C312.771 345.5 313.705 343 313.705 339.8C313.705 333 309.905 329.6 302.305 329.6H291.205V349.9H302.305Z" fill="#FEFDFE"/>
</g>
<defs>
<filter id="filter0_d" x="311" y="-9" width="148" height="148" filterUnits="userSpaceOnUse" color-interpolation-filters="sRGB">
<feFlood flood-opacity="0" result="BackgroundImageFix"/>
<feColorMatrix in="SourceAlpha" type="matrix" values="0 0 0 0 0 0 0 0 0 0 0 0 0 0 0 0 0 0 127 0"/>
<feOffset dy="1"/>
<feGaussianBlur stdDeviation="5"/>
<feColorMatrix type="matrix" values="0 0 0 0 0 0 0 0 0 0 0 0 0 0 0 0 0 0 0.25 0"/>
<feBlend mode="normal" in2="BackgroundImageFix" result="effect1_dropShadow"/>
<feBlend mode="normal" in="SourceGraphic" in2="effect1_dropShadow" result="shape"/>
</filter>
<filter id="filter1_d" x="-15" y="213" width="550" height="287" filterUnits="userSpaceOnUse" color-interpolation-filters="sRGB">
<feFlood flood-opacity="0" result="BackgroundImageFix"/>
<feColorMatrix in="SourceAlpha" type="matrix" values="0 0 0 0 0 0 0 0 0 0 0 0 0 0 0 0 0 0 127 0"/>
<feOffset dx="4" dy="4"/>
<feGaussianBlur stdDeviation="25"/>
<feColorMatrix type="matrix" values="0 0 0 0 0 0 0 0 0 0 0 0 0 0 0 0 0 0 0.25 0"/>
<feBlend mode="normal" in2="BackgroundImageFix" result="effect1_dropShadow"/>
<feBlend mode="normal" in="SourceGraphic" in2="effect1_dropShadow" result="shape"/>
</filter>
<linearGradient id="paint0_linear" x1="31" y1="353" x2="481" y2="353" gradientUnits="userSpaceOnUse">
<stop stop-color="#E359FF"/>
<stop offset="1" stop-color="#B241C9"/>
</linearGradient>
<clipPath id="clip0">
<rect width="512" height="512" fill="white"/>
</clipPath>
</defs>
</svg>
