<svg width="218" height="229" viewBox="0 0 218 229" fill="none" xmlns="http://www.w3.org/2000/svg">
<path d="M74.5002 114.5C74.5002 139.886 36.7548 156.231 11.3689 156.231C-14.0171 156.231 11.3688 132.386 11.3688 107C11.3688 81.6138 -14.0171 64.3005 11.3689 64.3005C36.7548 64.3005 74.5002 89.1138 74.5002 114.5Z" fill="#2FDAE4"/>
<path d="M152.007 210.713C152.007 236.099 133.346 216.856 107.96 216.856C82.574 216.856 55.9946 242.242 55.9946 216.856C55.9946 191.47 82.574 148.713 107.96 148.713C133.346 148.713 152.007 185.327 152.007 210.713Z" fill="#C521FF"/>
<path d="M206.717 114.096C206.717 139.482 232.103 160.061 206.717 160.061C181.331 160.061 145.43 139.482 145.43 114.096C145.43 88.71 181.331 68.1306 206.717 68.1306C232.103 68.1306 206.717 88.71 206.717 114.096Z" fill="#08E789"/>
<path d="M157 9.08271C157 34.4687 133.386 78.0827 108 78.0827C82.6141 78.0827 52.0001 34.4687 52.0001 9.08271C52.0001 -16.3033 82.6141 19.5826 108 19.5826C133.386 19.5826 157 -16.3033 157 9.08271Z" fill="#FF2D92"/>
</svg>
