<svg width="207" height="200" viewBox="0 0 207 200" fill="none" xmlns="http://www.w3.org/2000/svg">
<path d="M62.5226 40C58.383 40 54.9961 43.3868 54.9961 47.5262V152.894C54.9961 157.033 58.383 160.42 62.5226 160.42H137.787C141.927 160.42 145.314 157.033 145.314 152.894V70.105L115.208 40H62.5226Z" fill="#FEFDFE"/>
<g filter="url(#filter0_d)">
<path d="M122.735 70.105H145.315L115.209 40V62.5787C115.209 66.7182 118.596 70.105 122.735 70.105Z" fill="#F9C001"/>
</g>
<g filter="url(#filter1_d)">
<rect x="47" y="100.916" width="105.841" height="43.9815" rx="10" fill="url(#paint0_linear)"/>
</g>
<path d="M80.5971 126.522H75.5931L74.7651 128.916H72.1191L76.6371 116.334H79.5711L84.0891 128.916H81.4251L80.5971 126.522ZM79.9131 124.506L78.0951 119.25L76.2771 124.506H79.9131ZM88.2618 116.352V124.128C88.2618 124.98 88.4838 125.634 88.9278 126.09C89.3718 126.534 89.9958 126.756 90.7998 126.756C91.6158 126.756 92.2458 126.534 92.6898 126.09C93.1338 125.634 93.3558 124.98 93.3558 124.128V116.352H95.8938V124.11C95.8938 125.178 95.6598 126.084 95.1918 126.828C94.7358 127.56 94.1178 128.112 93.3378 128.484C92.5698 128.856 91.7118 129.042 90.7638 129.042C89.8278 129.042 88.9758 128.856 88.2078 128.484C87.4518 128.112 86.8518 127.56 86.4078 126.828C85.9638 126.084 85.7418 125.178 85.7418 124.11V116.352H88.2618ZM102.721 116.352C104.041 116.352 105.199 116.61 106.195 117.126C107.203 117.642 107.977 118.38 108.517 119.34C109.069 120.288 109.345 121.392 109.345 122.652C109.345 123.912 109.069 125.016 108.517 125.964C107.977 126.9 107.203 127.626 106.195 128.142C105.199 128.658 104.041 128.916 102.721 128.916H98.3286V116.352H102.721ZM102.631 126.774C103.951 126.774 104.971 126.414 105.691 125.694C106.411 124.974 106.771 123.96 106.771 122.652C106.771 121.344 106.411 120.324 105.691 119.592C104.971 118.848 103.951 118.476 102.631 118.476H100.849V126.774H102.631ZM113.751 116.352V128.916H111.231V116.352H113.751ZM122.073 129.042C120.897 129.042 119.817 128.766 118.833 128.214C117.849 127.662 117.069 126.9 116.493 125.928C115.917 124.944 115.629 123.834 115.629 122.598C115.629 121.374 115.917 120.276 116.493 119.304C117.069 118.32 117.849 117.552 118.833 117C119.817 116.448 120.897 116.172 122.073 116.172C123.261 116.172 124.341 116.448 125.313 117C126.297 117.552 127.071 118.32 127.635 119.304C128.211 120.276 128.499 121.374 128.499 122.598C128.499 123.834 128.211 124.944 127.635 125.928C127.071 126.9 126.297 127.662 125.313 128.214C124.329 128.766 123.249 129.042 122.073 129.042ZM122.073 126.792C122.829 126.792 123.495 126.624 124.071 126.288C124.647 125.94 125.097 125.448 125.421 124.812C125.745 124.176 125.907 123.438 125.907 122.598C125.907 121.758 125.745 121.026 125.421 120.402C125.097 119.766 124.647 119.28 124.071 118.944C123.495 118.608 122.829 118.44 122.073 118.44C121.317 118.44 120.645 118.608 120.057 118.944C119.481 119.28 119.031 119.766 118.707 120.402C118.383 121.026 118.221 121.758 118.221 122.598C118.221 123.438 118.383 124.176 118.707 124.812C119.031 125.448 119.481 125.94 120.057 126.288C120.645 126.624 121.317 126.792 122.073 126.792Z" fill="#FEFDFE"/>
<path d="M78.8311 55.2284C77.767 54.7797 76.5923 55.0019 75.7654 55.8081C75.746 55.8271 75.7274 55.8469 75.7096 55.8675L70.4001 62.0315H68.7485C66.6816 62.0315 65 63.7131 65 65.78V68.2165C65 70.2834 66.6816 71.965 68.7485 71.965H70.4001L75.7097 78.129C75.7274 78.1495 75.746 78.1694 75.7655 78.1883C76.3119 78.7211 77.0092 79 77.7261 79C78.0979 79 78.475 78.925 78.839 78.7715C79.8982 78.3249 80.5562 77.3327 80.5562 76.182C80.5562 75.6644 80.1367 75.2449 79.6191 75.2449C79.1015 75.2449 78.6819 75.6644 78.6819 76.182C78.6819 76.7589 78.2448 76.988 78.1109 77.0445C77.977 77.1009 77.5148 77.2517 77.0991 76.8703L71.5398 70.4163C71.3618 70.2097 71.1025 70.0908 70.8298 70.0908H68.7485C67.7151 70.0908 66.8743 69.25 66.8743 68.2166V65.7801C66.8743 64.7466 67.7151 63.9058 68.7485 63.9058H70.8298C71.1025 63.9058 71.3617 63.7869 71.5398 63.5803L77.0991 57.1263C77.5103 56.7492 77.9698 56.8994 78.1029 56.9555C78.2387 57.0127 78.6819 57.245 78.6819 57.8281V71.4965C78.6819 72.0141 79.1015 72.4336 79.6191 72.4336C80.1367 72.4336 80.5562 72.0141 80.5562 71.4965V57.8281C80.5563 56.6732 79.8952 55.6771 78.8311 55.2284Z" fill="#9D9C9F"/>
<path d="M84.5206 69.6946L84.5421 69.6551C84.7872 69.2056 85.2433 68.3689 85.2433 66.9985C85.2433 65.5769 84.7497 64.706 84.5126 64.2875C84.2573 63.8372 83.6855 63.679 83.2352 63.9343C82.7849 64.1895 82.6268 64.7614 82.882 65.2117C83.0759 65.5539 83.3691 66.0711 83.3691 66.9985C83.3691 67.8912 83.0847 68.4128 82.8965 68.758L82.8736 68.8001C82.6265 69.2549 82.795 69.8238 83.2498 70.0709C83.3919 70.1481 83.5451 70.1847 83.6962 70.1847C84.0286 70.1847 84.3507 70.0074 84.5206 69.6946Z" fill="#9D9C9F"/>
<path d="M85.9013 59.6097C85.5336 59.2455 84.9402 59.2483 84.576 59.616C84.2118 59.9838 84.2146 60.5771 84.5823 60.9413C86.2163 62.5597 87.1161 64.7096 87.1161 66.9947C87.1161 69.2846 86.2163 71.437 84.5823 73.0554C84.2146 73.4196 84.2118 74.013 84.576 74.3807C84.7593 74.5657 85.0005 74.6583 85.2418 74.6583C85.4801 74.6583 85.7186 74.568 85.9013 74.387C87.8933 72.4139 88.9902 69.7886 88.9902 66.9947C88.9903 64.2055 87.8933 61.5828 85.9013 59.6097Z" fill="#9D9C9F"/>
<defs>
<filter id="filter0_d" x="105.209" y="31" width="50.1059" height="50.105" filterUnits="userSpaceOnUse" color-interpolation-filters="sRGB">
<feFlood flood-opacity="0" result="BackgroundImageFix"/>
<feColorMatrix in="SourceAlpha" type="matrix" values="0 0 0 0 0 0 0 0 0 0 0 0 0 0 0 0 0 0 127 0"/>
<feOffset dy="1"/>
<feGaussianBlur stdDeviation="5"/>
<feColorMatrix type="matrix" values="0 0 0 0 0 0 0 0 0 0 0 0 0 0 0 0 0 0 0.25 0"/>
<feBlend mode="normal" in2="BackgroundImageFix" result="effect1_dropShadow"/>
<feBlend mode="normal" in="SourceGraphic" in2="effect1_dropShadow" result="shape"/>
</filter>
<filter id="filter1_d" x="1" y="54.9155" width="205.841" height="143.982" filterUnits="userSpaceOnUse" color-interpolation-filters="sRGB">
<feFlood flood-opacity="0" result="BackgroundImageFix"/>
<feColorMatrix in="SourceAlpha" type="matrix" values="0 0 0 0 0 0 0 0 0 0 0 0 0 0 0 0 0 0 127 0"/>
<feOffset dx="4" dy="4"/>
<feGaussianBlur stdDeviation="25"/>
<feColorMatrix type="matrix" values="0 0 0 0 0 0 0 0 0 0 0 0 0 0 0 0 0 0 0.25 0"/>
<feBlend mode="normal" in2="BackgroundImageFix" result="effect1_dropShadow"/>
<feBlend mode="normal" in="SourceGraphic" in2="effect1_dropShadow" result="shape"/>
</filter>
<linearGradient id="paint0_linear" x1="152.841" y1="123.024" x2="47" y2="123.024" gradientUnits="userSpaceOnUse">
<stop stop-color="#BD7D00"/>
<stop offset="1" stop-color="#FFC700"/>
</linearGradient>
</defs>
</svg>
