<svg width="232" height="194" viewBox="0 0 232 194" fill="none" xmlns="http://www.w3.org/2000/svg">
<path d="M65.3362 9C60.1798 9 55.9609 13.2187 55.9609 18.375V149.625C55.9609 154.781 60.1798 159 65.3362 159H159.089C164.246 159 168.464 154.781 168.464 149.625V46.5L130.963 9H65.3362Z" fill="#FEFDFE"/>
<g filter="url(#filter0_d)">
<path d="M140.338 46.5H168.464L130.963 9V37.125C130.963 42.2813 135.182 46.5 140.338 46.5Z" fill="#1572B7"/>
</g>
<g filter="url(#filter1_d)">
<rect x="46" y="84.8789" width="131.84" height="54.7852" rx="10" fill="url(#paint0_linear)"/>
</g>
<path d="M95.2587 112.579C95.2587 111.343 95.5347 110.239 96.0867 109.267C96.6507 108.283 97.4127 107.521 98.3727 106.981C99.3447 106.429 100.431 106.153 101.631 106.153C103.035 106.153 104.265 106.513 105.321 107.233C106.377 107.953 107.115 108.949 107.535 110.221H104.637C104.349 109.621 103.941 109.171 103.413 108.871C102.897 108.571 102.297 108.421 101.613 108.421C100.881 108.421 100.227 108.595 99.6507 108.943C99.0867 109.279 98.6427 109.759 98.3187 110.383C98.0067 111.007 97.8507 111.739 97.8507 112.579C97.8507 113.407 98.0067 114.139 98.3187 114.775C98.6427 115.399 99.0867 115.885 99.6507 116.233C100.227 116.569 100.881 116.737 101.613 116.737C102.297 116.737 102.897 116.587 103.413 116.287C103.941 115.975 104.349 115.519 104.637 114.919H107.535C107.115 116.203 106.377 117.205 105.321 117.925C104.277 118.633 103.047 118.987 101.631 118.987C100.431 118.987 99.3447 118.717 98.3727 118.177C97.4127 117.625 96.6507 116.863 96.0867 115.891C95.5347 114.919 95.2587 113.815 95.2587 112.579ZM114.025 119.005C113.149 119.005 112.357 118.855 111.649 118.555C110.953 118.255 110.401 117.823 109.993 117.259C109.585 116.695 109.375 116.029 109.363 115.261H112.063C112.099 115.777 112.279 116.185 112.603 116.485C112.939 116.785 113.395 116.935 113.971 116.935C114.559 116.935 115.021 116.797 115.357 116.521C115.693 116.233 115.861 115.861 115.861 115.405C115.861 115.033 115.747 114.727 115.519 114.487C115.291 114.247 115.003 114.061 114.655 113.929C114.319 113.785 113.851 113.629 113.251 113.461C112.435 113.221 111.769 112.987 111.253 112.759C110.749 112.519 110.311 112.165 109.939 111.697C109.579 111.217 109.399 110.581 109.399 109.789C109.399 109.045 109.585 108.397 109.957 107.845C110.329 107.293 110.851 106.873 111.523 106.585C112.195 106.285 112.963 106.135 113.827 106.135C115.123 106.135 116.173 106.453 116.977 107.089C117.793 107.713 118.243 108.589 118.327 109.717H115.555C115.531 109.285 115.345 108.931 114.997 108.655C114.661 108.367 114.211 108.223 113.647 108.223C113.155 108.223 112.759 108.349 112.459 108.601C112.171 108.853 112.027 109.219 112.027 109.699C112.027 110.035 112.135 110.317 112.351 110.545C112.579 110.761 112.855 110.941 113.179 111.085C113.515 111.217 113.983 111.373 114.583 111.553C115.399 111.793 116.065 112.033 116.581 112.273C117.097 112.513 117.541 112.873 117.913 113.353C118.285 113.833 118.471 114.463 118.471 115.243C118.471 115.915 118.297 116.539 117.949 117.115C117.601 117.691 117.091 118.153 116.419 118.501C115.747 118.837 114.949 119.005 114.025 119.005ZM124.994 119.005C124.118 119.005 123.326 118.855 122.618 118.555C121.922 118.255 121.37 117.823 120.962 117.259C120.554 116.695 120.344 116.029 120.332 115.261H123.032C123.068 115.777 123.248 116.185 123.572 116.485C123.908 116.785 124.364 116.935 124.94 116.935C125.528 116.935 125.99 116.797 126.326 116.521C126.662 116.233 126.83 115.861 126.83 115.405C126.83 115.033 126.716 114.727 126.488 114.487C126.26 114.247 125.972 114.061 125.624 113.929C125.288 113.785 124.82 113.629 124.22 113.461C123.404 113.221 122.738 112.987 122.222 112.759C121.718 112.519 121.28 112.165 120.908 111.697C120.548 111.217 120.368 110.581 120.368 109.789C120.368 109.045 120.554 108.397 120.926 107.845C121.298 107.293 121.82 106.873 122.492 106.585C123.164 106.285 123.932 106.135 124.796 106.135C126.092 106.135 127.142 106.453 127.946 107.089C128.762 107.713 129.212 108.589 129.296 109.717H126.524C126.5 109.285 126.314 108.931 125.966 108.655C125.63 108.367 125.18 108.223 124.616 108.223C124.124 108.223 123.728 108.349 123.428 108.601C123.14 108.853 122.996 109.219 122.996 109.699C122.996 110.035 123.104 110.317 123.32 110.545C123.548 110.761 123.824 110.941 124.148 111.085C124.484 111.217 124.952 111.373 125.552 111.553C126.368 111.793 127.034 112.033 127.55 112.273C128.066 112.513 128.51 112.873 128.882 113.353C129.254 113.833 129.44 114.463 129.44 115.243C129.44 115.915 129.266 116.539 128.918 117.115C128.57 117.691 128.06 118.153 127.388 118.501C126.716 118.837 125.918 119.005 124.994 119.005Z" fill="#FEFDFE"/>
<rect opacity="0.4" x="68.8516" y="52.0664" width="62.1113" height="3.22266" fill="#121317"/>
<rect opacity="0.4" x="68.8516" y="61.4414" width="68.8498" height="3.22266" fill="#121317"/>
<rect opacity="0.4" x="68.8516" y="70.8164" width="71.4866" height="3.22266" fill="#121317"/>
<defs>
<filter id="filter0_d" x="120.963" y="0" width="57.5012" height="57.5" filterUnits="userSpaceOnUse" color-interpolation-filters="sRGB">
<feFlood flood-opacity="0" result="BackgroundImageFix"/>
<feColorMatrix in="SourceAlpha" type="matrix" values="0 0 0 0 0 0 0 0 0 0 0 0 0 0 0 0 0 0 127 0"/>
<feOffset dy="1"/>
<feGaussianBlur stdDeviation="5"/>
<feColorMatrix type="matrix" values="0 0 0 0 0 0 0 0 0 0 0 0 0 0 0 0 0 0 0.25 0"/>
<feBlend mode="normal" in2="BackgroundImageFix" result="effect1_dropShadow"/>
<feBlend mode="normal" in="SourceGraphic" in2="effect1_dropShadow" result="shape"/>
</filter>
<filter id="filter1_d" x="0" y="38.8789" width="231.84" height="154.785" filterUnits="userSpaceOnUse" color-interpolation-filters="sRGB">
<feFlood flood-opacity="0" result="BackgroundImageFix"/>
<feColorMatrix in="SourceAlpha" type="matrix" values="0 0 0 0 0 0 0 0 0 0 0 0 0 0 0 0 0 0 127 0"/>
<feOffset dx="4" dy="4"/>
<feGaussianBlur stdDeviation="25"/>
<feColorMatrix type="matrix" values="0 0 0 0 0 0 0 0 0 0 0 0 0 0 0 0 0 0 0.25 0"/>
<feBlend mode="normal" in2="BackgroundImageFix" result="effect1_dropShadow"/>
<feBlend mode="normal" in="SourceGraphic" in2="effect1_dropShadow" result="shape"/>
</filter>
<linearGradient id="paint0_linear" x1="46" y1="112.418" x2="177.84" y2="112.418" gradientUnits="userSpaceOnUse">
<stop stop-color="#35A6E0"/>
<stop offset="1" stop-color="#1572B7"/>
</linearGradient>
</defs>
</svg>
