<svg width="207" height="200" viewBox="0 0 207 200" fill="none" xmlns="http://www.w3.org/2000/svg">
<path d="M62.5226 40C58.383 40 54.9961 43.3868 54.9961 47.5262V152.894C54.9961 157.033 58.383 160.42 62.5226 160.42H137.787C141.927 160.42 145.314 157.033 145.314 152.894V70.105L115.208 40H62.5226Z" fill="#FEFDFE"/>
<g filter="url(#filter0_d)">
<path d="M122.735 70.105H145.315L115.209 40V62.5787C115.209 66.7182 118.596 70.105 122.735 70.105Z" fill="#1572B7"/>
</g>
<g filter="url(#filter1_d)">
<rect x="47" y="100.916" width="105.841" height="43.9815" rx="10" fill="url(#paint0_linear)"/>
</g>
<path d="M83.1444 122.616C83.1444 121.38 83.4204 120.276 83.9724 119.304C84.5364 118.32 85.2984 117.558 86.2584 117.018C87.2304 116.466 88.3164 116.19 89.5164 116.19C90.9204 116.19 92.1504 116.55 93.2064 117.27C94.2624 117.99 95.0004 118.986 95.4204 120.258H92.5224C92.2344 119.658 91.8264 119.208 91.2984 118.908C90.7824 118.608 90.1824 118.458 89.4984 118.458C88.7664 118.458 88.1124 118.632 87.5364 118.98C86.9724 119.316 86.5284 119.796 86.2044 120.42C85.8924 121.044 85.7364 121.776 85.7364 122.616C85.7364 123.444 85.8924 124.176 86.2044 124.812C86.5284 125.436 86.9724 125.922 87.5364 126.27C88.1124 126.606 88.7664 126.774 89.4984 126.774C90.1824 126.774 90.7824 126.624 91.2984 126.324C91.8264 126.012 92.2344 125.556 92.5224 124.956H95.4204C95.0004 126.24 94.2624 127.242 93.2064 127.962C92.1624 128.67 90.9324 129.024 89.5164 129.024C88.3164 129.024 87.2304 128.754 86.2584 128.214C85.2984 127.662 84.5364 126.9 83.9724 125.928C83.4204 124.956 83.1444 123.852 83.1444 122.616ZM101.911 129.042C101.035 129.042 100.243 128.892 99.5348 128.592C98.8388 128.292 98.2868 127.86 97.8788 127.296C97.4708 126.732 97.2608 126.066 97.2488 125.298H99.9488C99.9848 125.814 100.165 126.222 100.489 126.522C100.825 126.822 101.281 126.972 101.857 126.972C102.445 126.972 102.907 126.834 103.243 126.558C103.579 126.27 103.747 125.898 103.747 125.442C103.747 125.07 103.633 124.764 103.405 124.524C103.177 124.284 102.889 124.098 102.541 123.966C102.205 123.822 101.737 123.666 101.137 123.498C100.321 123.258 99.6548 123.024 99.1388 122.796C98.6348 122.556 98.1968 122.202 97.8248 121.734C97.4648 121.254 97.2848 120.618 97.2848 119.826C97.2848 119.082 97.4708 118.434 97.8428 117.882C98.2148 117.33 98.7368 116.91 99.4088 116.622C100.081 116.322 100.849 116.172 101.713 116.172C103.009 116.172 104.059 116.49 104.863 117.126C105.679 117.75 106.129 118.626 106.213 119.754H103.441C103.417 119.322 103.231 118.968 102.883 118.692C102.547 118.404 102.097 118.26 101.533 118.26C101.041 118.26 100.645 118.386 100.345 118.638C100.057 118.89 99.9128 119.256 99.9128 119.736C99.9128 120.072 100.021 120.354 100.237 120.582C100.465 120.798 100.741 120.978 101.065 121.122C101.401 121.254 101.869 121.41 102.469 121.59C103.285 121.83 103.951 122.07 104.467 122.31C104.983 122.55 105.427 122.91 105.799 123.39C106.171 123.87 106.357 124.5 106.357 125.28C106.357 125.952 106.183 126.576 105.835 127.152C105.487 127.728 104.977 128.19 104.305 128.538C103.633 128.874 102.835 129.042 101.911 129.042ZM112.88 129.042C112.004 129.042 111.212 128.892 110.504 128.592C109.808 128.292 109.256 127.86 108.848 127.296C108.44 126.732 108.23 126.066 108.218 125.298H110.918C110.954 125.814 111.134 126.222 111.458 126.522C111.794 126.822 112.25 126.972 112.826 126.972C113.414 126.972 113.876 126.834 114.212 126.558C114.548 126.27 114.716 125.898 114.716 125.442C114.716 125.07 114.602 124.764 114.374 124.524C114.146 124.284 113.858 124.098 113.51 123.966C113.174 123.822 112.706 123.666 112.106 123.498C111.29 123.258 110.624 123.024 110.108 122.796C109.604 122.556 109.166 122.202 108.794 121.734C108.434 121.254 108.254 120.618 108.254 119.826C108.254 119.082 108.44 118.434 108.812 117.882C109.184 117.33 109.706 116.91 110.378 116.622C111.05 116.322 111.818 116.172 112.682 116.172C113.978 116.172 115.028 116.49 115.832 117.126C116.648 117.75 117.098 118.626 117.182 119.754H114.41C114.386 119.322 114.2 118.968 113.852 118.692C113.516 118.404 113.066 118.26 112.502 118.26C112.01 118.26 111.614 118.386 111.314 118.638C111.026 118.89 110.882 119.256 110.882 119.736C110.882 120.072 110.99 120.354 111.206 120.582C111.434 120.798 111.71 120.978 112.034 121.122C112.37 121.254 112.838 121.41 113.438 121.59C114.254 121.83 114.92 122.07 115.436 122.31C115.952 122.55 116.396 122.91 116.768 123.39C117.14 123.87 117.326 124.5 117.326 125.28C117.326 125.952 117.152 126.576 116.804 127.152C116.456 127.728 115.946 128.19 115.274 128.538C114.602 128.874 113.804 129.042 112.88 129.042Z" fill="#FEFDFE"/>
<rect opacity="0.4" x="65.3457" y="74.5737" width="49.8629" height="2.58715" fill="#121317"/>
<rect opacity="0.4" x="65.3457" y="82.0999" width="55.2726" height="2.58715" fill="#121317"/>
<rect opacity="0.4" x="65.3457" y="89.6262" width="57.3894" height="2.58715" fill="#121317"/>
<defs>
<filter id="filter0_d" x="105.209" y="31" width="50.1059" height="50.105" filterUnits="userSpaceOnUse" color-interpolation-filters="sRGB">
<feFlood flood-opacity="0" result="BackgroundImageFix"/>
<feColorMatrix in="SourceAlpha" type="matrix" values="0 0 0 0 0 0 0 0 0 0 0 0 0 0 0 0 0 0 127 0"/>
<feOffset dy="1"/>
<feGaussianBlur stdDeviation="5"/>
<feColorMatrix type="matrix" values="0 0 0 0 0 0 0 0 0 0 0 0 0 0 0 0 0 0 0.25 0"/>
<feBlend mode="normal" in2="BackgroundImageFix" result="effect1_dropShadow"/>
<feBlend mode="normal" in="SourceGraphic" in2="effect1_dropShadow" result="shape"/>
</filter>
<filter id="filter1_d" x="1" y="54.9155" width="205.841" height="143.982" filterUnits="userSpaceOnUse" color-interpolation-filters="sRGB">
<feFlood flood-opacity="0" result="BackgroundImageFix"/>
<feColorMatrix in="SourceAlpha" type="matrix" values="0 0 0 0 0 0 0 0 0 0 0 0 0 0 0 0 0 0 127 0"/>
<feOffset dx="4" dy="4"/>
<feGaussianBlur stdDeviation="25"/>
<feColorMatrix type="matrix" values="0 0 0 0 0 0 0 0 0 0 0 0 0 0 0 0 0 0 0.25 0"/>
<feBlend mode="normal" in2="BackgroundImageFix" result="effect1_dropShadow"/>
<feBlend mode="normal" in="SourceGraphic" in2="effect1_dropShadow" result="shape"/>
</filter>
<linearGradient id="paint0_linear" x1="47" y1="123.024" x2="152.841" y2="123.024" gradientUnits="userSpaceOnUse">
<stop stop-color="#35A6E0"/>
<stop offset="1" stop-color="#1572B7"/>
</linearGradient>
</defs>
</svg>
