<svg width="512" height="512" viewBox="0 0 512 512" fill="none" xmlns="http://www.w3.org/2000/svg">
<g clip-path="url(#clip0)">
<path d="M97 0C79.4 0 65 14.4 65 32V480C65 497.6 79.4 512 97 512H417C434.6 512 449 497.6 449 480V128L321 0H97Z" fill="#FEFDFE"/>
<g filter="url(#filter0_d)">
<path d="M353 128H449L321 0V96C321 113.6 335.4 128 353 128Z" fill="#004BB4"/>
</g>
<g filter="url(#filter1_d)">
<path d="M31 274C31 265.716 37.7157 259 46 259H466C474.284 259 481 265.716 481 274V431C481 439.284 474.284 446 466 446H46C37.7157 446 31 439.284 31 431V274Z" fill="url(#paint0_linear)"/>
</g>
<path d="M141.546 318.2C148.879 318.2 155.313 319.633 160.846 322.5C166.446 325.367 170.746 329.467 173.746 334.8C176.813 340.067 178.346 346.2 178.346 353.2C178.346 360.2 176.813 366.333 173.746 371.6C170.746 376.8 166.446 380.833 160.846 383.7C155.313 386.567 148.879 388 141.546 388H117.146V318.2H141.546ZM141.046 376.1C148.379 376.1 154.046 374.1 158.046 370.1C162.046 366.1 164.046 360.467 164.046 353.2C164.046 345.933 162.046 340.267 158.046 336.2C154.046 332.067 148.379 330 141.046 330H131.146V376.1H141.046ZM221.226 388.7C214.692 388.7 208.692 387.167 203.226 384.1C197.759 381.033 193.426 376.8 190.226 371.4C187.026 365.933 185.426 359.767 185.426 352.9C185.426 346.1 187.026 340 190.226 334.6C193.426 329.133 197.759 324.867 203.226 321.8C208.692 318.733 214.692 317.2 221.226 317.2C227.826 317.2 233.826 318.733 239.226 321.8C244.692 324.867 248.992 329.133 252.126 334.6C255.326 340 256.926 346.1 256.926 352.9C256.926 359.767 255.326 365.933 252.126 371.4C248.992 376.8 244.692 381.033 239.226 384.1C233.759 387.167 227.759 388.7 221.226 388.7ZM221.226 376.2C225.426 376.2 229.126 375.267 232.326 373.4C235.526 371.467 238.026 368.733 239.826 365.2C241.626 361.667 242.526 357.567 242.526 352.9C242.526 348.233 241.626 344.167 239.826 340.7C238.026 337.167 235.526 334.467 232.326 332.6C229.126 330.733 225.426 329.8 221.226 329.8C217.026 329.8 213.292 330.733 210.026 332.6C206.826 334.467 204.326 337.167 202.526 340.7C200.726 344.167 199.826 348.233 199.826 352.9C199.826 357.567 200.726 361.667 202.526 365.2C204.326 368.733 206.826 371.467 210.026 373.4C213.292 375.267 217.026 376.2 221.226 376.2ZM263.941 353C263.941 346.133 265.475 340 268.541 334.6C271.675 329.133 275.908 324.9 281.241 321.9C286.641 318.833 292.675 317.3 299.341 317.3C307.141 317.3 313.975 319.3 319.841 323.3C325.708 327.3 329.808 332.833 332.141 339.9H316.041C314.441 336.567 312.175 334.067 309.241 332.4C306.375 330.733 303.041 329.9 299.241 329.9C295.175 329.9 291.541 330.867 288.341 332.8C285.208 334.667 282.741 337.333 280.941 340.8C279.208 344.267 278.341 348.333 278.341 353C278.341 357.6 279.208 361.667 280.941 365.2C282.741 368.667 285.208 371.367 288.341 373.3C291.541 375.167 295.175 376.1 299.241 376.1C303.041 376.1 306.375 375.267 309.241 373.6C312.175 371.867 314.441 369.333 316.041 366H332.141C329.808 373.133 325.708 378.7 319.841 382.7C314.041 386.633 307.208 388.6 299.341 388.6C292.675 388.6 286.641 387.1 281.241 384.1C275.908 381.033 271.675 376.8 268.541 371.4C265.475 366 263.941 359.867 263.941 353ZM385.899 388L370.799 364.5L357.099 388H341.299L363.299 352.8L340.999 318.2H357.099L372.199 341.6L385.799 318.2H401.599L379.699 353.3L401.999 388H385.899Z" fill="#FEFDFE"/>
<rect opacity="0.4" x="109" y="147" width="212" height="11" fill="#121317"/>
<rect opacity="0.4" x="109" y="179" width="235" height="11" fill="#121317"/>
<rect opacity="0.4" x="109" y="211" width="244" height="11" fill="#121317"/>
</g>
<defs>
<filter id="filter0_d" x="311" y="-9" width="148" height="148" filterUnits="userSpaceOnUse" color-interpolation-filters="sRGB">
<feFlood flood-opacity="0" result="BackgroundImageFix"/>
<feColorMatrix in="SourceAlpha" type="matrix" values="0 0 0 0 0 0 0 0 0 0 0 0 0 0 0 0 0 0 127 0"/>
<feOffset dy="1"/>
<feGaussianBlur stdDeviation="5"/>
<feColorMatrix type="matrix" values="0 0 0 0 0 0 0 0 0 0 0 0 0 0 0 0 0 0 0.25 0"/>
<feBlend mode="normal" in2="BackgroundImageFix" result="effect1_dropShadow"/>
<feBlend mode="normal" in="SourceGraphic" in2="effect1_dropShadow" result="shape"/>
</filter>
<filter id="filter1_d" x="-15" y="213" width="550" height="287" filterUnits="userSpaceOnUse" color-interpolation-filters="sRGB">
<feFlood flood-opacity="0" result="BackgroundImageFix"/>
<feColorMatrix in="SourceAlpha" type="matrix" values="0 0 0 0 0 0 0 0 0 0 0 0 0 0 0 0 0 0 127 0"/>
<feOffset dx="4" dy="4"/>
<feGaussianBlur stdDeviation="25"/>
<feColorMatrix type="matrix" values="0 0 0 0 0 0 0 0 0 0 0 0 0 0 0 0 0 0 0.25 0"/>
<feBlend mode="normal" in2="BackgroundImageFix" result="effect1_dropShadow"/>
<feBlend mode="normal" in="SourceGraphic" in2="effect1_dropShadow" result="shape"/>
</filter>
<linearGradient id="paint0_linear" x1="31" y1="353" x2="481" y2="353" gradientUnits="userSpaceOnUse">
<stop stop-color="#005FE3"/>
<stop offset="1" stop-color="#004BB4"/>
</linearGradient>
<clipPath id="clip0">
<rect width="512" height="512" fill="white"/>
</clipPath>
</defs>
</svg>
