<svg width="207" height="200" viewBox="0 0 207 200" fill="none" xmlns="http://www.w3.org/2000/svg">
<path d="M62.5222 39C58.3828 39 54.9961 42.3867 54.9961 46.5261V151.892C54.9961 156.031 58.3828 159.418 62.5222 159.418H137.783C141.923 159.418 145.309 156.031 145.309 151.892V69.1044L115.205 39H62.5222Z" fill="#FEFDFE"/>
<g filter="url(#filter0_d)">
<path d="M122.731 69.1044H145.31L115.205 39V61.5783C115.205 65.7177 118.592 69.1044 122.731 69.1044Z" fill="#004BB4"/>
</g>
<g filter="url(#filter1_d)">
<rect x="47" y="99.9148" width="105.836" height="43.9807" rx="10" fill="url(#paint0_linear)"/>
</g>
<path d="M79.4274 115.351C80.7474 115.351 81.9054 115.609 82.9014 116.125C83.9094 116.641 84.6834 117.379 85.2234 118.339C85.7754 119.287 86.0514 120.391 86.0514 121.651C86.0514 122.911 85.7754 124.015 85.2234 124.963C84.6834 125.899 83.9094 126.625 82.9014 127.141C81.9054 127.657 80.7474 127.915 79.4274 127.915H75.0354V115.351H79.4274ZM79.3374 125.773C80.6574 125.773 81.6774 125.413 82.3974 124.693C83.1174 123.973 83.4774 122.959 83.4774 121.651C83.4774 120.343 83.1174 119.323 82.3974 118.591C81.6774 117.847 80.6574 117.475 79.3374 117.475H77.5554V125.773H79.3374ZM93.7697 128.041C92.5937 128.041 91.5137 127.765 90.5297 127.213C89.5457 126.661 88.7657 125.899 88.1897 124.927C87.6137 123.943 87.3257 122.833 87.3257 121.597C87.3257 120.373 87.6137 119.275 88.1897 118.303C88.7657 117.319 89.5457 116.551 90.5297 115.999C91.5137 115.447 92.5937 115.171 93.7697 115.171C94.9577 115.171 96.0377 115.447 97.0097 115.999C97.9937 116.551 98.7677 117.319 99.3317 118.303C99.9077 119.275 100.196 120.373 100.196 121.597C100.196 122.833 99.9077 123.943 99.3317 124.927C98.7677 125.899 97.9937 126.661 97.0097 127.213C96.0257 127.765 94.9457 128.041 93.7697 128.041ZM93.7697 125.791C94.5257 125.791 95.1917 125.623 95.7677 125.287C96.3437 124.939 96.7937 124.447 97.1177 123.811C97.4417 123.175 97.6037 122.437 97.6037 121.597C97.6037 120.757 97.4417 120.025 97.1177 119.401C96.7937 118.765 96.3437 118.279 95.7677 117.943C95.1917 117.607 94.5257 117.439 93.7697 117.439C93.0137 117.439 92.3417 117.607 91.7537 117.943C91.1777 118.279 90.7277 118.765 90.4037 119.401C90.0797 120.025 89.9177 120.757 89.9177 121.597C89.9177 122.437 90.0797 123.175 90.4037 123.811C90.7277 124.447 91.1777 124.939 91.7537 125.287C92.3417 125.623 93.0137 125.791 93.7697 125.791ZM101.459 121.615C101.459 120.379 101.735 119.275 102.287 118.303C102.851 117.319 103.613 116.557 104.573 116.017C105.545 115.465 106.631 115.189 107.831 115.189C109.235 115.189 110.465 115.549 111.521 116.269C112.577 116.989 113.315 117.985 113.735 119.257H110.837C110.549 118.657 110.141 118.207 109.613 117.907C109.097 117.607 108.497 117.457 107.813 117.457C107.081 117.457 106.427 117.631 105.851 117.979C105.287 118.315 104.843 118.795 104.519 119.419C104.207 120.043 104.051 120.775 104.051 121.615C104.051 122.443 104.207 123.175 104.519 123.811C104.843 124.435 105.287 124.921 105.851 125.269C106.427 125.605 107.081 125.773 107.813 125.773C108.497 125.773 109.097 125.623 109.613 125.323C110.141 125.011 110.549 124.555 110.837 123.955H113.735C113.315 125.239 112.577 126.241 111.521 126.961C110.477 127.669 109.247 128.023 107.831 128.023C106.631 128.023 105.545 127.753 104.573 127.213C103.613 126.661 102.851 125.899 102.287 124.927C101.735 123.955 101.459 122.851 101.459 121.615ZM123.411 127.915L120.693 123.685L118.227 127.915H115.383L119.343 121.579L115.329 115.351H118.227L120.945 119.563L123.393 115.351H126.237L122.295 121.669L126.309 127.915H123.411Z" fill="#FEFDFE"/>
<rect opacity="0.4" x="65.3457" y="73.573" width="49.8605" height="2.5871" fill="#121317"/>
<rect opacity="0.4" x="65.3457" y="81.0991" width="55.2699" height="2.5871" fill="#121317"/>
<rect opacity="0.4" x="65.3457" y="88.6252" width="57.3866" height="2.5871" fill="#121317"/>
<defs>
<filter id="filter0_d" x="105.205" y="30" width="50.1044" height="50.1044" filterUnits="userSpaceOnUse" color-interpolation-filters="sRGB">
<feFlood flood-opacity="0" result="BackgroundImageFix"/>
<feColorMatrix in="SourceAlpha" type="matrix" values="0 0 0 0 0 0 0 0 0 0 0 0 0 0 0 0 0 0 127 0"/>
<feOffset dy="1"/>
<feGaussianBlur stdDeviation="5"/>
<feColorMatrix type="matrix" values="0 0 0 0 0 0 0 0 0 0 0 0 0 0 0 0 0 0 0.25 0"/>
<feBlend mode="normal" in2="BackgroundImageFix" result="effect1_dropShadow"/>
<feBlend mode="normal" in="SourceGraphic" in2="effect1_dropShadow" result="shape"/>
</filter>
<filter id="filter1_d" x="1" y="53.9148" width="205.836" height="143.981" filterUnits="userSpaceOnUse" color-interpolation-filters="sRGB">
<feFlood flood-opacity="0" result="BackgroundImageFix"/>
<feColorMatrix in="SourceAlpha" type="matrix" values="0 0 0 0 0 0 0 0 0 0 0 0 0 0 0 0 0 0 127 0"/>
<feOffset dx="4" dy="4"/>
<feGaussianBlur stdDeviation="25"/>
<feColorMatrix type="matrix" values="0 0 0 0 0 0 0 0 0 0 0 0 0 0 0 0 0 0 0.25 0"/>
<feBlend mode="normal" in2="BackgroundImageFix" result="effect1_dropShadow"/>
<feBlend mode="normal" in="SourceGraphic" in2="effect1_dropShadow" result="shape"/>
</filter>
<linearGradient id="paint0_linear" x1="47" y1="122.023" x2="152.836" y2="122.023" gradientUnits="userSpaceOnUse">
<stop stop-color="#005FE3"/>
<stop offset="1" stop-color="#004BB4"/>
</linearGradient>
</defs>
</svg>
