<svg width="232" height="194" viewBox="0 0 232 194" fill="none" xmlns="http://www.w3.org/2000/svg">
<path d="M65.3359 9C60.1797 9 55.9609 13.2188 55.9609 18.375V149.625C55.9609 154.781 60.1797 159 65.3359 159H159.086C164.242 159 168.461 154.781 168.461 149.625V46.5L130.961 9H65.3359Z" fill="#FEFDFE"/>
<g filter="url(#filter0_d)">
<path d="M140.336 46.5H168.461L130.961 9V37.125C130.961 42.2812 135.18 46.5 140.336 46.5Z" fill="#004BB4"/>
</g>
<g filter="url(#filter1_d)">
<rect x="46" y="84.8789" width="131.836" height="54.7852" rx="10" fill="url(#paint0_linear)"/>
</g>
<path d="M91.5422 106.315C92.8622 106.315 94.0202 106.573 95.0162 107.089C96.0242 107.605 96.7982 108.343 97.3382 109.303C97.8902 110.251 98.1662 111.355 98.1662 112.615C98.1662 113.875 97.8902 114.979 97.3382 115.927C96.7982 116.863 96.0242 117.589 95.0162 118.105C94.0202 118.621 92.8622 118.879 91.5422 118.879H87.1502V106.315H91.5422ZM91.4522 116.737C92.7722 116.737 93.7922 116.377 94.5122 115.657C95.2322 114.937 95.5922 113.923 95.5922 112.615C95.5922 111.307 95.2322 110.287 94.5122 109.555C93.7922 108.811 92.7722 108.439 91.4522 108.439H89.6702V116.737H91.4522ZM105.885 119.005C104.709 119.005 103.629 118.729 102.645 118.177C101.661 117.625 100.881 116.863 100.305 115.891C99.7285 114.907 99.4405 113.797 99.4405 112.561C99.4405 111.337 99.7285 110.239 100.305 109.267C100.881 108.283 101.661 107.515 102.645 106.963C103.629 106.411 104.709 106.135 105.885 106.135C107.073 106.135 108.153 106.411 109.125 106.963C110.109 107.515 110.883 108.283 111.447 109.267C112.023 110.239 112.311 111.337 112.311 112.561C112.311 113.797 112.023 114.907 111.447 115.891C110.883 116.863 110.109 117.625 109.125 118.177C108.141 118.729 107.061 119.005 105.885 119.005ZM105.885 116.755C106.641 116.755 107.307 116.587 107.883 116.251C108.459 115.903 108.909 115.411 109.233 114.775C109.557 114.139 109.719 113.401 109.719 112.561C109.719 111.721 109.557 110.989 109.233 110.365C108.909 109.729 108.459 109.243 107.883 108.907C107.307 108.571 106.641 108.403 105.885 108.403C105.129 108.403 104.457 108.571 103.869 108.907C103.293 109.243 102.843 109.729 102.519 110.365C102.195 110.989 102.033 111.721 102.033 112.561C102.033 113.401 102.195 114.139 102.519 114.775C102.843 115.411 103.293 115.903 103.869 116.251C104.457 116.587 105.129 116.755 105.885 116.755ZM113.573 112.579C113.573 111.343 113.849 110.239 114.401 109.267C114.965 108.283 115.727 107.521 116.687 106.981C117.659 106.429 118.745 106.153 119.945 106.153C121.349 106.153 122.579 106.513 123.635 107.233C124.691 107.953 125.429 108.949 125.849 110.221H122.951C122.663 109.621 122.255 109.171 121.727 108.871C121.211 108.571 120.611 108.421 119.927 108.421C119.195 108.421 118.541 108.595 117.965 108.943C117.401 109.279 116.957 109.759 116.633 110.383C116.321 111.007 116.165 111.739 116.165 112.579C116.165 113.407 116.321 114.139 116.633 114.775C116.957 115.399 117.401 115.885 117.965 116.233C118.541 116.569 119.195 116.737 119.927 116.737C120.611 116.737 121.211 116.587 121.727 116.287C122.255 115.975 122.663 115.519 122.951 114.919H125.849C125.429 116.203 124.691 117.205 123.635 117.925C122.591 118.633 121.361 118.987 119.945 118.987C118.745 118.987 117.659 118.717 116.687 118.177C115.727 117.625 114.965 116.863 114.401 115.891C113.849 114.919 113.573 113.815 113.573 112.579ZM135.526 118.879L132.808 114.649L130.342 118.879H127.498L131.458 112.543L127.444 106.315H130.342L133.06 110.527L135.508 106.315H138.352L134.41 112.633L138.424 118.879H135.526Z" fill="#FEFDFE"/>
<rect opacity="0.4" x="68.8516" y="52.0664" width="62.1094" height="3.22266" fill="#121317"/>
<rect opacity="0.4" x="68.8516" y="61.4414" width="68.8477" height="3.22266" fill="#121317"/>
<rect opacity="0.4" x="68.8516" y="70.8164" width="71.4844" height="3.22266" fill="#121317"/>
<defs>
<filter id="filter0_d" x="120.961" y="0" width="57.5" height="57.5" filterUnits="userSpaceOnUse" color-interpolation-filters="sRGB">
<feFlood flood-opacity="0" result="BackgroundImageFix"/>
<feColorMatrix in="SourceAlpha" type="matrix" values="0 0 0 0 0 0 0 0 0 0 0 0 0 0 0 0 0 0 127 0"/>
<feOffset dy="1"/>
<feGaussianBlur stdDeviation="5"/>
<feColorMatrix type="matrix" values="0 0 0 0 0 0 0 0 0 0 0 0 0 0 0 0 0 0 0.25 0"/>
<feBlend mode="normal" in2="BackgroundImageFix" result="effect1_dropShadow"/>
<feBlend mode="normal" in="SourceGraphic" in2="effect1_dropShadow" result="shape"/>
</filter>
<filter id="filter1_d" x="0" y="38.8789" width="231.836" height="154.785" filterUnits="userSpaceOnUse" color-interpolation-filters="sRGB">
<feFlood flood-opacity="0" result="BackgroundImageFix"/>
<feColorMatrix in="SourceAlpha" type="matrix" values="0 0 0 0 0 0 0 0 0 0 0 0 0 0 0 0 0 0 127 0"/>
<feOffset dx="4" dy="4"/>
<feGaussianBlur stdDeviation="25"/>
<feColorMatrix type="matrix" values="0 0 0 0 0 0 0 0 0 0 0 0 0 0 0 0 0 0 0.25 0"/>
<feBlend mode="normal" in2="BackgroundImageFix" result="effect1_dropShadow"/>
<feBlend mode="normal" in="SourceGraphic" in2="effect1_dropShadow" result="shape"/>
</filter>
<linearGradient id="paint0_linear" x1="46" y1="112.418" x2="177.836" y2="112.418" gradientUnits="userSpaceOnUse">
<stop stop-color="#005FE3"/>
<stop offset="1" stop-color="#004BB4"/>
</linearGradient>
</defs>
</svg>
