<svg width="232" height="194" viewBox="0 0 232 194" fill="none" xmlns="http://www.w3.org/2000/svg">
<path d="M65.3362 9C60.1798 9 55.9609 13.2187 55.9609 18.375V149.625C55.9609 154.781 60.1798 159 65.3362 159H159.089C164.246 159 168.464 154.781 168.464 149.625V46.5L130.963 9H65.3362Z" fill="#FEFDFE"/>
<g filter="url(#filter0_d)">
<path d="M140.338 46.5H168.464L130.963 9V37.125C130.963 42.2813 135.182 46.5 140.338 46.5Z" fill="#CC0101"/>
</g>
<g filter="url(#filter1_d)">
<rect x="46" y="84.8789" width="131.84" height="54.7852" rx="10" fill="url(#paint0_linear)"/>
</g>
<path d="M106.21 110.203C106.21 110.875 106.048 111.505 105.724 112.093C105.412 112.681 104.914 113.155 104.23 113.515C103.558 113.875 102.706 114.055 101.674 114.055H99.5684V118.879H97.0484V106.315H101.674C102.646 106.315 103.474 106.483 104.158 106.819C104.842 107.155 105.352 107.617 105.688 108.205C106.036 108.793 106.21 109.459 106.21 110.203ZM101.566 112.021C102.262 112.021 102.778 111.865 103.114 111.553C103.45 111.229 103.618 110.779 103.618 110.203C103.618 108.979 102.934 108.367 101.566 108.367H99.5684V112.021H101.566ZM112.392 106.315C113.712 106.315 114.87 106.573 115.866 107.089C116.874 107.605 117.648 108.343 118.188 109.303C118.74 110.251 119.016 111.355 119.016 112.615C119.016 113.875 118.74 114.979 118.188 115.927C117.648 116.863 116.874 117.589 115.866 118.105C114.87 118.621 113.712 118.879 112.392 118.879H108V106.315H112.392ZM112.302 116.737C113.622 116.737 114.642 116.377 115.362 115.657C116.082 114.937 116.442 113.923 116.442 112.615C116.442 111.307 116.082 110.287 115.362 109.555C114.642 108.811 113.622 108.439 112.302 108.439H110.52V116.737H112.302ZM128.66 106.315V108.349H123.422V111.571H127.436V113.569H123.422V118.879H120.902V106.315H128.66Z" fill="#FEFDFE"/>
<rect opacity="0.4" x="68.8516" y="52.0664" width="62.1113" height="3.22266" fill="#121317"/>
<rect opacity="0.4" x="68.8516" y="61.4414" width="68.8498" height="3.22266" fill="#121317"/>
<rect opacity="0.4" x="68.8516" y="70.8164" width="71.4866" height="3.22266" fill="#121317"/>
<defs>
<filter id="filter0_d" x="120.963" y="0" width="57.5012" height="57.5" filterUnits="userSpaceOnUse" color-interpolation-filters="sRGB">
<feFlood flood-opacity="0" result="BackgroundImageFix"/>
<feColorMatrix in="SourceAlpha" type="matrix" values="0 0 0 0 0 0 0 0 0 0 0 0 0 0 0 0 0 0 127 0"/>
<feOffset dy="1"/>
<feGaussianBlur stdDeviation="5"/>
<feColorMatrix type="matrix" values="0 0 0 0 0 0 0 0 0 0 0 0 0 0 0 0 0 0 0.25 0"/>
<feBlend mode="normal" in2="BackgroundImageFix" result="effect1_dropShadow"/>
<feBlend mode="normal" in="SourceGraphic" in2="effect1_dropShadow" result="shape"/>
</filter>
<filter id="filter1_d" x="0" y="38.8789" width="231.84" height="154.785" filterUnits="userSpaceOnUse" color-interpolation-filters="sRGB">
<feFlood flood-opacity="0" result="BackgroundImageFix"/>
<feColorMatrix in="SourceAlpha" type="matrix" values="0 0 0 0 0 0 0 0 0 0 0 0 0 0 0 0 0 0 127 0"/>
<feOffset dx="4" dy="4"/>
<feGaussianBlur stdDeviation="25"/>
<feColorMatrix type="matrix" values="0 0 0 0 0 0 0 0 0 0 0 0 0 0 0 0 0 0 0.25 0"/>
<feBlend mode="normal" in2="BackgroundImageFix" result="effect1_dropShadow"/>
<feBlend mode="normal" in="SourceGraphic" in2="effect1_dropShadow" result="shape"/>
</filter>
<linearGradient id="paint0_linear" x1="177.84" y1="112.418" x2="46" y2="112.418" gradientUnits="userSpaceOnUse">
<stop stop-color="#CC0101"/>
<stop offset="1" stop-color="#FF1010"/>
</linearGradient>
</defs>
</svg>
