<svg width="207" height="200" viewBox="0 0 207 200" fill="none" xmlns="http://www.w3.org/2000/svg">
<path d="M62.5226 40C58.383 40 54.9961 43.3868 54.9961 47.5262V152.894C54.9961 157.033 58.383 160.42 62.5226 160.42H137.787C141.927 160.42 145.314 157.033 145.314 152.894V70.105L115.208 40H62.5226Z" fill="#FEFDFE"/>
<g filter="url(#filter0_d)">
<path d="M122.735 70.105H145.315L115.209 40V62.5787C115.209 66.7182 118.596 70.105 122.735 70.105Z" fill="#D56EA3"/>
</g>
<g filter="url(#filter1_d)">
<rect x="47" y="100.916" width="105.841" height="43.9815" rx="10" fill="url(#paint0_linear)"/>
</g>
<path d="M82.61 129.042C81.734 129.042 80.942 128.892 80.234 128.592C79.538 128.292 78.986 127.86 78.578 127.296C78.17 126.732 77.96 126.066 77.948 125.298H80.648C80.684 125.814 80.864 126.222 81.188 126.522C81.524 126.822 81.98 126.972 82.556 126.972C83.144 126.972 83.606 126.834 83.942 126.558C84.278 126.27 84.446 125.898 84.446 125.442C84.446 125.07 84.332 124.764 84.104 124.524C83.876 124.284 83.588 124.098 83.24 123.966C82.904 123.822 82.436 123.666 81.836 123.498C81.02 123.258 80.354 123.024 79.838 122.796C79.334 122.556 78.896 122.202 78.524 121.734C78.164 121.254 77.984 120.618 77.984 119.826C77.984 119.082 78.17 118.434 78.542 117.882C78.914 117.33 79.436 116.91 80.108 116.622C80.78 116.322 81.548 116.172 82.412 116.172C83.708 116.172 84.758 116.49 85.562 117.126C86.378 117.75 86.828 118.626 86.912 119.754H84.14C84.116 119.322 83.93 118.968 83.582 118.692C83.246 118.404 82.796 118.26 82.232 118.26C81.74 118.26 81.344 118.386 81.044 118.638C80.756 118.89 80.612 119.256 80.612 119.736C80.612 120.072 80.72 120.354 80.936 120.582C81.164 120.798 81.44 120.978 81.764 121.122C82.1 121.254 82.568 121.41 83.168 121.59C83.984 121.83 84.65 122.07 85.166 122.31C85.682 122.55 86.126 122.91 86.498 123.39C86.87 123.87 87.056 124.5 87.056 125.28C87.056 125.952 86.882 126.576 86.534 127.152C86.186 127.728 85.676 128.19 85.004 128.538C84.332 128.874 83.534 129.042 82.61 129.042ZM88.6287 122.616C88.6287 121.38 88.9047 120.276 89.4567 119.304C90.0207 118.32 90.7827 117.558 91.7427 117.018C92.7147 116.466 93.8007 116.19 95.0007 116.19C96.4047 116.19 97.6347 116.55 98.6907 117.27C99.7467 117.99 100.485 118.986 100.905 120.258H98.0067C97.7187 119.658 97.3107 119.208 96.7827 118.908C96.2667 118.608 95.6667 118.458 94.9827 118.458C94.2507 118.458 93.5967 118.632 93.0207 118.98C92.4567 119.316 92.0127 119.796 91.6887 120.42C91.3767 121.044 91.2207 121.776 91.2207 122.616C91.2207 123.444 91.3767 124.176 91.6887 124.812C92.0127 125.436 92.4567 125.922 93.0207 126.27C93.5967 126.606 94.2507 126.774 94.9827 126.774C95.6667 126.774 96.2667 126.624 96.7827 126.324C97.3107 126.012 97.7187 125.556 98.0067 124.956H100.905C100.485 126.24 99.7467 127.242 98.6907 127.962C97.6467 128.67 96.4167 129.024 95.0007 129.024C93.8007 129.024 92.7147 128.754 91.7427 128.214C90.7827 127.662 90.0207 126.9 89.4567 125.928C88.9047 124.956 88.6287 123.852 88.6287 122.616ZM107.395 129.042C106.519 129.042 105.727 128.892 105.019 128.592C104.323 128.292 103.771 127.86 103.363 127.296C102.955 126.732 102.745 126.066 102.733 125.298H105.433C105.469 125.814 105.649 126.222 105.973 126.522C106.309 126.822 106.765 126.972 107.341 126.972C107.929 126.972 108.391 126.834 108.727 126.558C109.063 126.27 109.231 125.898 109.231 125.442C109.231 125.07 109.117 124.764 108.889 124.524C108.661 124.284 108.373 124.098 108.025 123.966C107.689 123.822 107.221 123.666 106.621 123.498C105.805 123.258 105.139 123.024 104.623 122.796C104.119 122.556 103.681 122.202 103.309 121.734C102.949 121.254 102.769 120.618 102.769 119.826C102.769 119.082 102.955 118.434 103.327 117.882C103.699 117.33 104.221 116.91 104.893 116.622C105.565 116.322 106.333 116.172 107.197 116.172C108.493 116.172 109.543 116.49 110.347 117.126C111.163 117.75 111.613 118.626 111.697 119.754H108.925C108.901 119.322 108.715 118.968 108.367 118.692C108.031 118.404 107.581 118.26 107.017 118.26C106.525 118.26 106.129 118.386 105.829 118.638C105.541 118.89 105.397 119.256 105.397 119.736C105.397 120.072 105.505 120.354 105.721 120.582C105.949 120.798 106.225 120.978 106.549 121.122C106.885 121.254 107.353 121.41 107.953 121.59C108.769 121.83 109.435 122.07 109.951 122.31C110.467 122.55 110.911 122.91 111.283 123.39C111.655 123.87 111.841 124.5 111.841 125.28C111.841 125.952 111.667 126.576 111.319 127.152C110.971 127.728 110.461 128.19 109.789 128.538C109.117 128.874 108.319 129.042 107.395 129.042ZM118.364 129.042C117.488 129.042 116.696 128.892 115.988 128.592C115.292 128.292 114.74 127.86 114.332 127.296C113.924 126.732 113.714 126.066 113.702 125.298H116.402C116.438 125.814 116.618 126.222 116.942 126.522C117.278 126.822 117.734 126.972 118.31 126.972C118.898 126.972 119.36 126.834 119.696 126.558C120.032 126.27 120.2 125.898 120.2 125.442C120.2 125.07 120.086 124.764 119.858 124.524C119.63 124.284 119.342 124.098 118.994 123.966C118.658 123.822 118.19 123.666 117.59 123.498C116.774 123.258 116.108 123.024 115.592 122.796C115.088 122.556 114.65 122.202 114.278 121.734C113.918 121.254 113.738 120.618 113.738 119.826C113.738 119.082 113.924 118.434 114.296 117.882C114.668 117.33 115.19 116.91 115.862 116.622C116.534 116.322 117.302 116.172 118.166 116.172C119.462 116.172 120.512 116.49 121.316 117.126C122.132 117.75 122.582 118.626 122.666 119.754H119.894C119.87 119.322 119.684 118.968 119.336 118.692C119 118.404 118.55 118.26 117.986 118.26C117.494 118.26 117.098 118.386 116.798 118.638C116.51 118.89 116.366 119.256 116.366 119.736C116.366 120.072 116.474 120.354 116.69 120.582C116.918 120.798 117.194 120.978 117.518 121.122C117.854 121.254 118.322 121.41 118.922 121.59C119.738 121.83 120.404 122.07 120.92 122.31C121.436 122.55 121.88 122.91 122.252 123.39C122.624 123.87 122.81 124.5 122.81 125.28C122.81 125.952 122.636 126.576 122.288 127.152C121.94 127.728 121.43 128.19 120.758 128.538C120.086 128.874 119.288 129.042 118.364 129.042Z" fill="#FEFDFE"/>
<rect opacity="0.4" x="65.3457" y="74.5737" width="49.8629" height="2.58715" fill="#121317"/>
<rect opacity="0.4" x="65.3457" y="82.0999" width="55.2726" height="2.58715" fill="#121317"/>
<rect opacity="0.4" x="65.3457" y="89.6262" width="57.3894" height="2.58715" fill="#121317"/>
<defs>
<filter id="filter0_d" x="105.209" y="31" width="50.1059" height="50.105" filterUnits="userSpaceOnUse" color-interpolation-filters="sRGB">
<feFlood flood-opacity="0" result="BackgroundImageFix"/>
<feColorMatrix in="SourceAlpha" type="matrix" values="0 0 0 0 0 0 0 0 0 0 0 0 0 0 0 0 0 0 127 0"/>
<feOffset dy="1"/>
<feGaussianBlur stdDeviation="5"/>
<feColorMatrix type="matrix" values="0 0 0 0 0 0 0 0 0 0 0 0 0 0 0 0 0 0 0.25 0"/>
<feBlend mode="normal" in2="BackgroundImageFix" result="effect1_dropShadow"/>
<feBlend mode="normal" in="SourceGraphic" in2="effect1_dropShadow" result="shape"/>
</filter>
<filter id="filter1_d" x="1" y="54.9155" width="205.841" height="143.982" filterUnits="userSpaceOnUse" color-interpolation-filters="sRGB">
<feFlood flood-opacity="0" result="BackgroundImageFix"/>
<feColorMatrix in="SourceAlpha" type="matrix" values="0 0 0 0 0 0 0 0 0 0 0 0 0 0 0 0 0 0 127 0"/>
<feOffset dx="4" dy="4"/>
<feGaussianBlur stdDeviation="25"/>
<feColorMatrix type="matrix" values="0 0 0 0 0 0 0 0 0 0 0 0 0 0 0 0 0 0 0.25 0"/>
<feBlend mode="normal" in2="BackgroundImageFix" result="effect1_dropShadow"/>
<feBlend mode="normal" in="SourceGraphic" in2="effect1_dropShadow" result="shape"/>
</filter>
<linearGradient id="paint0_linear" x1="47" y1="123.024" x2="152.841" y2="123.024" gradientUnits="userSpaceOnUse">
<stop stop-color="#FF65B4"/>
<stop offset="1" stop-color="#D56EA3"/>
</linearGradient>
</defs>
</svg>
