<svg width="232" height="194" viewBox="0 0 232 194" fill="none" xmlns="http://www.w3.org/2000/svg">
<path d="M65.3362 9C60.1798 9 55.9609 13.2187 55.9609 18.375V149.625C55.9609 154.781 60.1798 159 65.3362 159H159.089C164.246 159 168.464 154.781 168.464 149.625V46.5L130.963 9H65.3362Z" fill="#FEFDFE"/>
<g filter="url(#filter0_d)">
<path d="M140.338 46.5H168.464L130.963 9V37.125C130.963 42.2813 135.182 46.5 140.338 46.5Z" fill="#D56EA3"/>
</g>
<g filter="url(#filter1_d)">
<rect x="46" y="84.8789" width="131.84" height="54.7852" rx="10" fill="url(#paint0_linear)"/>
</g>
<path d="M94.7243 119.005C93.8483 119.005 93.0563 118.855 92.3483 118.555C91.6523 118.255 91.1003 117.823 90.6923 117.259C90.2843 116.695 90.0743 116.029 90.0623 115.261H92.7623C92.7983 115.777 92.9783 116.185 93.3023 116.485C93.6383 116.785 94.0943 116.935 94.6703 116.935C95.2583 116.935 95.7203 116.797 96.0563 116.521C96.3923 116.233 96.5603 115.861 96.5603 115.405C96.5603 115.033 96.4463 114.727 96.2183 114.487C95.9903 114.247 95.7023 114.061 95.3543 113.929C95.0183 113.785 94.5503 113.629 93.9503 113.461C93.1343 113.221 92.4683 112.987 91.9523 112.759C91.4483 112.519 91.0103 112.165 90.6383 111.697C90.2783 111.217 90.0983 110.581 90.0983 109.789C90.0983 109.045 90.2843 108.397 90.6563 107.845C91.0283 107.293 91.5503 106.873 92.2223 106.585C92.8943 106.285 93.6623 106.135 94.5263 106.135C95.8223 106.135 96.8723 106.453 97.6763 107.089C98.4923 107.713 98.9423 108.589 99.0263 109.717H96.2543C96.2303 109.285 96.0443 108.931 95.6963 108.655C95.3603 108.367 94.9103 108.223 94.3463 108.223C93.8543 108.223 93.4583 108.349 93.1583 108.601C92.8703 108.853 92.7263 109.219 92.7263 109.699C92.7263 110.035 92.8343 110.317 93.0503 110.545C93.2783 110.761 93.5543 110.941 93.8783 111.085C94.2143 111.217 94.6823 111.373 95.2823 111.553C96.0983 111.793 96.7643 112.033 97.2803 112.273C97.7963 112.513 98.2403 112.873 98.6123 113.353C98.9843 113.833 99.1703 114.463 99.1703 115.243C99.1703 115.915 98.9963 116.539 98.6483 117.115C98.3003 117.691 97.7903 118.153 97.1183 118.501C96.4463 118.837 95.6483 119.005 94.7243 119.005ZM100.743 112.579C100.743 111.343 101.019 110.239 101.571 109.267C102.135 108.283 102.897 107.521 103.857 106.981C104.829 106.429 105.915 106.153 107.115 106.153C108.519 106.153 109.749 106.513 110.805 107.233C111.861 107.953 112.599 108.949 113.019 110.221H110.121C109.833 109.621 109.425 109.171 108.897 108.871C108.381 108.571 107.781 108.421 107.097 108.421C106.365 108.421 105.711 108.595 105.135 108.943C104.571 109.279 104.127 109.759 103.803 110.383C103.491 111.007 103.335 111.739 103.335 112.579C103.335 113.407 103.491 114.139 103.803 114.775C104.127 115.399 104.571 115.885 105.135 116.233C105.711 116.569 106.365 116.737 107.097 116.737C107.781 116.737 108.381 116.587 108.897 116.287C109.425 115.975 109.833 115.519 110.121 114.919H113.019C112.599 116.203 111.861 117.205 110.805 117.925C109.761 118.633 108.531 118.987 107.115 118.987C105.915 118.987 104.829 118.717 103.857 118.177C102.897 117.625 102.135 116.863 101.571 115.891C101.019 114.919 100.743 113.815 100.743 112.579ZM119.509 119.005C118.633 119.005 117.841 118.855 117.133 118.555C116.437 118.255 115.885 117.823 115.477 117.259C115.069 116.695 114.859 116.029 114.847 115.261H117.547C117.583 115.777 117.763 116.185 118.087 116.485C118.423 116.785 118.879 116.935 119.455 116.935C120.043 116.935 120.505 116.797 120.841 116.521C121.177 116.233 121.345 115.861 121.345 115.405C121.345 115.033 121.231 114.727 121.003 114.487C120.775 114.247 120.487 114.061 120.139 113.929C119.803 113.785 119.335 113.629 118.735 113.461C117.919 113.221 117.253 112.987 116.737 112.759C116.233 112.519 115.795 112.165 115.423 111.697C115.063 111.217 114.883 110.581 114.883 109.789C114.883 109.045 115.069 108.397 115.441 107.845C115.813 107.293 116.335 106.873 117.007 106.585C117.679 106.285 118.447 106.135 119.311 106.135C120.607 106.135 121.657 106.453 122.461 107.089C123.277 107.713 123.727 108.589 123.811 109.717H121.039C121.015 109.285 120.829 108.931 120.481 108.655C120.145 108.367 119.695 108.223 119.131 108.223C118.639 108.223 118.243 108.349 117.943 108.601C117.655 108.853 117.511 109.219 117.511 109.699C117.511 110.035 117.619 110.317 117.835 110.545C118.063 110.761 118.339 110.941 118.663 111.085C118.999 111.217 119.467 111.373 120.067 111.553C120.883 111.793 121.549 112.033 122.065 112.273C122.581 112.513 123.025 112.873 123.397 113.353C123.769 113.833 123.955 114.463 123.955 115.243C123.955 115.915 123.781 116.539 123.433 117.115C123.085 117.691 122.575 118.153 121.903 118.501C121.231 118.837 120.433 119.005 119.509 119.005ZM130.478 119.005C129.602 119.005 128.81 118.855 128.102 118.555C127.406 118.255 126.854 117.823 126.446 117.259C126.038 116.695 125.828 116.029 125.816 115.261H128.516C128.552 115.777 128.732 116.185 129.056 116.485C129.392 116.785 129.848 116.935 130.424 116.935C131.012 116.935 131.474 116.797 131.81 116.521C132.146 116.233 132.314 115.861 132.314 115.405C132.314 115.033 132.2 114.727 131.972 114.487C131.744 114.247 131.456 114.061 131.108 113.929C130.772 113.785 130.304 113.629 129.704 113.461C128.888 113.221 128.222 112.987 127.706 112.759C127.202 112.519 126.764 112.165 126.392 111.697C126.032 111.217 125.852 110.581 125.852 109.789C125.852 109.045 126.038 108.397 126.41 107.845C126.782 107.293 127.304 106.873 127.976 106.585C128.648 106.285 129.416 106.135 130.28 106.135C131.576 106.135 132.626 106.453 133.43 107.089C134.246 107.713 134.696 108.589 134.78 109.717H132.008C131.984 109.285 131.798 108.931 131.45 108.655C131.114 108.367 130.664 108.223 130.1 108.223C129.608 108.223 129.212 108.349 128.912 108.601C128.624 108.853 128.48 109.219 128.48 109.699C128.48 110.035 128.588 110.317 128.804 110.545C129.032 110.761 129.308 110.941 129.632 111.085C129.968 111.217 130.436 111.373 131.036 111.553C131.852 111.793 132.518 112.033 133.034 112.273C133.55 112.513 133.994 112.873 134.366 113.353C134.738 113.833 134.924 114.463 134.924 115.243C134.924 115.915 134.75 116.539 134.402 117.115C134.054 117.691 133.544 118.153 132.872 118.501C132.2 118.837 131.402 119.005 130.478 119.005Z" fill="#FEFDFE"/>
<rect opacity="0.4" x="68.8516" y="52.0664" width="62.1113" height="3.22266" fill="#121317"/>
<rect opacity="0.4" x="68.8516" y="61.4414" width="68.8498" height="3.22266" fill="#121317"/>
<rect opacity="0.4" x="68.8516" y="70.8164" width="71.4866" height="3.22266" fill="#121317"/>
<defs>
<filter id="filter0_d" x="120.963" y="0" width="57.5012" height="57.5" filterUnits="userSpaceOnUse" color-interpolation-filters="sRGB">
<feFlood flood-opacity="0" result="BackgroundImageFix"/>
<feColorMatrix in="SourceAlpha" type="matrix" values="0 0 0 0 0 0 0 0 0 0 0 0 0 0 0 0 0 0 127 0"/>
<feOffset dy="1"/>
<feGaussianBlur stdDeviation="5"/>
<feColorMatrix type="matrix" values="0 0 0 0 0 0 0 0 0 0 0 0 0 0 0 0 0 0 0.25 0"/>
<feBlend mode="normal" in2="BackgroundImageFix" result="effect1_dropShadow"/>
<feBlend mode="normal" in="SourceGraphic" in2="effect1_dropShadow" result="shape"/>
</filter>
<filter id="filter1_d" x="0" y="38.8789" width="231.84" height="154.785" filterUnits="userSpaceOnUse" color-interpolation-filters="sRGB">
<feFlood flood-opacity="0" result="BackgroundImageFix"/>
<feColorMatrix in="SourceAlpha" type="matrix" values="0 0 0 0 0 0 0 0 0 0 0 0 0 0 0 0 0 0 127 0"/>
<feOffset dx="4" dy="4"/>
<feGaussianBlur stdDeviation="25"/>
<feColorMatrix type="matrix" values="0 0 0 0 0 0 0 0 0 0 0 0 0 0 0 0 0 0 0.25 0"/>
<feBlend mode="normal" in2="BackgroundImageFix" result="effect1_dropShadow"/>
<feBlend mode="normal" in="SourceGraphic" in2="effect1_dropShadow" result="shape"/>
</filter>
<linearGradient id="paint0_linear" x1="46" y1="112.418" x2="177.84" y2="112.418" gradientUnits="userSpaceOnUse">
<stop stop-color="#FF65B4"/>
<stop offset="1" stop-color="#D56EA3"/>
</linearGradient>
</defs>
</svg>
