<svg width="512" height="512" viewBox="0 0 512 512" fill="none" xmlns="http://www.w3.org/2000/svg">
<g clip-path="url(#clip0)">
<path d="M97 0C79.4 0 65 14.4 65 32V480C65 497.6 79.4 512 97 512H417C434.6 512 449 497.6 449 480V128L321 0H97Z" fill="#FEFDFE"/>
<g filter="url(#filter0_d)">
<path d="M353 128H449L321 0V96C321 113.6 335.4 128 353 128Z" fill="#D56EA3"/>
</g>
<g filter="url(#filter1_d)">
<path d="M31 274C31 265.716 37.7157 259 46 259H466C474.284 259 481 265.716 481 274V431C481 439.284 474.284 446 466 446H46C37.7157 446 31 439.284 31 431V274Z" fill="url(#paint0_linear)"/>
</g>
<path d="M159.215 388.7C154.348 388.7 149.948 387.867 146.015 386.2C142.148 384.533 139.082 382.133 136.815 379C134.548 375.867 133.382 372.167 133.315 367.9H148.315C148.515 370.767 149.515 373.033 151.315 374.7C153.182 376.367 155.715 377.2 158.915 377.2C162.182 377.2 164.748 376.433 166.615 374.9C168.482 373.3 169.415 371.233 169.415 368.7C169.415 366.633 168.782 364.933 167.515 363.6C166.248 362.267 164.648 361.233 162.715 360.5C160.848 359.7 158.248 358.833 154.915 357.9C150.382 356.567 146.682 355.267 143.815 354C141.015 352.667 138.582 350.7 136.515 348.1C134.515 345.433 133.515 341.9 133.515 337.5C133.515 333.367 134.548 329.767 136.615 326.7C138.682 323.633 141.582 321.3 145.315 319.7C149.048 318.033 153.315 317.2 158.115 317.2C165.315 317.2 171.148 318.967 175.615 322.5C180.148 325.967 182.648 330.833 183.115 337.1H167.715C167.582 334.7 166.548 332.733 164.615 331.2C162.748 329.6 160.248 328.8 157.115 328.8C154.382 328.8 152.182 329.5 150.515 330.9C148.915 332.3 148.115 334.333 148.115 337C148.115 338.867 148.715 340.433 149.915 341.7C151.182 342.9 152.715 343.9 154.515 344.7C156.382 345.433 158.982 346.3 162.315 347.3C166.848 348.633 170.548 349.967 173.415 351.3C176.282 352.633 178.748 354.633 180.815 357.3C182.882 359.967 183.915 363.467 183.915 367.8C183.915 371.533 182.948 375 181.015 378.2C179.082 381.4 176.248 383.967 172.515 385.9C168.782 387.767 164.348 388.7 159.215 388.7ZM192.652 353C192.652 346.133 194.186 340 197.252 334.6C200.386 329.133 204.619 324.9 209.952 321.9C215.352 318.833 221.386 317.3 228.052 317.3C235.852 317.3 242.686 319.3 248.552 323.3C254.419 327.3 258.519 332.833 260.852 339.9H244.752C243.152 336.567 240.886 334.067 237.952 332.4C235.086 330.733 231.752 329.9 227.952 329.9C223.886 329.9 220.252 330.867 217.052 332.8C213.919 334.667 211.452 337.333 209.652 340.8C207.919 344.267 207.052 348.333 207.052 353C207.052 357.6 207.919 361.667 209.652 365.2C211.452 368.667 213.919 371.367 217.052 373.3C220.252 375.167 223.886 376.1 227.952 376.1C231.752 376.1 235.086 375.267 237.952 373.6C240.886 371.867 243.152 369.333 244.752 366H260.852C258.519 373.133 254.419 378.7 248.552 382.7C242.752 386.633 235.919 388.6 228.052 388.6C221.386 388.6 215.352 387.1 209.952 384.1C204.619 381.033 200.386 376.8 197.252 371.4C194.186 366 192.652 359.867 192.652 353ZM296.91 388.7C292.043 388.7 287.643 387.867 283.71 386.2C279.843 384.533 276.777 382.133 274.51 379C272.243 375.867 271.077 372.167 271.01 367.9H286.01C286.21 370.767 287.21 373.033 289.01 374.7C290.877 376.367 293.41 377.2 296.61 377.2C299.877 377.2 302.443 376.433 304.31 374.9C306.177 373.3 307.11 371.233 307.11 368.7C307.11 366.633 306.477 364.933 305.21 363.6C303.943 362.267 302.343 361.233 300.41 360.5C298.543 359.7 295.943 358.833 292.61 357.9C288.077 356.567 284.377 355.267 281.51 354C278.71 352.667 276.277 350.7 274.21 348.1C272.21 345.433 271.21 341.9 271.21 337.5C271.21 333.367 272.243 329.767 274.31 326.7C276.377 323.633 279.277 321.3 283.01 319.7C286.743 318.033 291.01 317.2 295.81 317.2C303.01 317.2 308.843 318.967 313.31 322.5C317.843 325.967 320.343 330.833 320.81 337.1H305.41C305.277 334.7 304.243 332.733 302.31 331.2C300.443 329.6 297.943 328.8 294.81 328.8C292.077 328.8 289.877 329.5 288.21 330.9C286.61 332.3 285.81 334.333 285.81 337C285.81 338.867 286.41 340.433 287.61 341.7C288.877 342.9 290.41 343.9 292.21 344.7C294.077 345.433 296.677 346.3 300.01 347.3C304.543 348.633 308.243 349.967 311.11 351.3C313.977 352.633 316.443 354.633 318.51 357.3C320.577 359.967 321.61 363.467 321.61 367.8C321.61 371.533 320.643 375 318.71 378.2C316.777 381.4 313.943 383.967 310.21 385.9C306.477 387.767 302.043 388.7 296.91 388.7ZM357.848 388.7C352.981 388.7 348.581 387.867 344.648 386.2C340.781 384.533 337.714 382.133 335.448 379C333.181 375.867 332.014 372.167 331.948 367.9H346.948C347.148 370.767 348.148 373.033 349.948 374.7C351.814 376.367 354.348 377.2 357.548 377.2C360.814 377.2 363.381 376.433 365.248 374.9C367.114 373.3 368.048 371.233 368.048 368.7C368.048 366.633 367.414 364.933 366.148 363.6C364.881 362.267 363.281 361.233 361.348 360.5C359.481 359.7 356.881 358.833 353.548 357.9C349.014 356.567 345.314 355.267 342.448 354C339.648 352.667 337.214 350.7 335.148 348.1C333.148 345.433 332.148 341.9 332.148 337.5C332.148 333.367 333.181 329.767 335.248 326.7C337.314 323.633 340.214 321.3 343.948 319.7C347.681 318.033 351.948 317.2 356.748 317.2C363.948 317.2 369.781 318.967 374.248 322.5C378.781 325.967 381.281 330.833 381.748 337.1H366.348C366.214 334.7 365.181 332.733 363.248 331.2C361.381 329.6 358.881 328.8 355.748 328.8C353.014 328.8 350.814 329.5 349.148 330.9C347.548 332.3 346.748 334.333 346.748 337C346.748 338.867 347.348 340.433 348.548 341.7C349.814 342.9 351.348 343.9 353.148 344.7C355.014 345.433 357.614 346.3 360.948 347.3C365.481 348.633 369.181 349.967 372.048 351.3C374.914 352.633 377.381 354.633 379.448 357.3C381.514 359.967 382.548 363.467 382.548 367.8C382.548 371.533 381.581 375 379.648 378.2C377.714 381.4 374.881 383.967 371.148 385.9C367.414 387.767 362.981 388.7 357.848 388.7Z" fill="#FEFDFE"/>
<rect opacity="0.4" x="109" y="147" width="212" height="11" fill="#121317"/>
<rect opacity="0.4" x="109" y="179" width="235" height="11" fill="#121317"/>
<rect opacity="0.4" x="109" y="211" width="244" height="11" fill="#121317"/>
</g>
<defs>
<filter id="filter0_d" x="311" y="-9" width="148" height="148" filterUnits="userSpaceOnUse" color-interpolation-filters="sRGB">
<feFlood flood-opacity="0" result="BackgroundImageFix"/>
<feColorMatrix in="SourceAlpha" type="matrix" values="0 0 0 0 0 0 0 0 0 0 0 0 0 0 0 0 0 0 127 0"/>
<feOffset dy="1"/>
<feGaussianBlur stdDeviation="5"/>
<feColorMatrix type="matrix" values="0 0 0 0 0 0 0 0 0 0 0 0 0 0 0 0 0 0 0.25 0"/>
<feBlend mode="normal" in2="BackgroundImageFix" result="effect1_dropShadow"/>
<feBlend mode="normal" in="SourceGraphic" in2="effect1_dropShadow" result="shape"/>
</filter>
<filter id="filter1_d" x="-15" y="213" width="550" height="287" filterUnits="userSpaceOnUse" color-interpolation-filters="sRGB">
<feFlood flood-opacity="0" result="BackgroundImageFix"/>
<feColorMatrix in="SourceAlpha" type="matrix" values="0 0 0 0 0 0 0 0 0 0 0 0 0 0 0 0 0 0 127 0"/>
<feOffset dx="4" dy="4"/>
<feGaussianBlur stdDeviation="25"/>
<feColorMatrix type="matrix" values="0 0 0 0 0 0 0 0 0 0 0 0 0 0 0 0 0 0 0.25 0"/>
<feBlend mode="normal" in2="BackgroundImageFix" result="effect1_dropShadow"/>
<feBlend mode="normal" in="SourceGraphic" in2="effect1_dropShadow" result="shape"/>
</filter>
<linearGradient id="paint0_linear" x1="31" y1="353" x2="481" y2="353" gradientUnits="userSpaceOnUse">
<stop stop-color="#FF65B4"/>
<stop offset="1" stop-color="#D56EA3"/>
</linearGradient>
<clipPath id="clip0">
<rect width="512" height="512" fill="white"/>
</clipPath>
</defs>
</svg>
