<svg width="207" height="200" viewBox="0 0 207 200" fill="none" xmlns="http://www.w3.org/2000/svg">
<path d="M62.5226 40C58.383 40 54.9961 43.3868 54.9961 47.5262V152.894C54.9961 157.033 58.383 160.42 62.5226 160.42H137.787C141.927 160.42 145.314 157.033 145.314 152.894V70.105L115.208 40H62.5226Z" fill="#FEFDFE"/>
<g filter="url(#filter0_d)">
<path d="M122.735 70.105H145.315L115.209 40V62.5787C115.209 66.7182 118.596 70.105 122.735 70.105Z" fill="#2FDAE4"/>
</g>
<g filter="url(#filter1_d)">
<rect x="47" y="100.916" width="105.841" height="43.9815" rx="10" fill="url(#paint0_linear)"/>
</g>
<path d="M87.1803 129.042C86.3043 129.042 85.5123 128.892 84.8043 128.592C84.1083 128.292 83.5563 127.86 83.1483 127.296C82.7403 126.732 82.5303 126.066 82.5183 125.298H85.2183C85.2543 125.814 85.4343 126.222 85.7583 126.522C86.0943 126.822 86.5503 126.972 87.1263 126.972C87.7143 126.972 88.1763 126.834 88.5123 126.558C88.8483 126.27 89.0163 125.898 89.0163 125.442C89.0163 125.07 88.9023 124.764 88.6743 124.524C88.4463 124.284 88.1583 124.098 87.8103 123.966C87.4743 123.822 87.0063 123.666 86.4063 123.498C85.5903 123.258 84.9243 123.024 84.4083 122.796C83.9043 122.556 83.4663 122.202 83.0943 121.734C82.7343 121.254 82.5543 120.618 82.5543 119.826C82.5543 119.082 82.7403 118.434 83.1123 117.882C83.4843 117.33 84.0063 116.91 84.6783 116.622C85.3503 116.322 86.1183 116.172 86.9823 116.172C88.2783 116.172 89.3283 116.49 90.1323 117.126C90.9483 117.75 91.3983 118.626 91.4823 119.754H88.7103C88.6863 119.322 88.5003 118.968 88.1523 118.692C87.8163 118.404 87.3663 118.26 86.8023 118.26C86.3103 118.26 85.9143 118.386 85.6143 118.638C85.3263 118.89 85.1823 119.256 85.1823 119.736C85.1823 120.072 85.2903 120.354 85.5063 120.582C85.7343 120.798 86.0103 120.978 86.3343 121.122C86.6703 121.254 87.1383 121.41 87.7383 121.59C88.5543 121.83 89.2203 122.07 89.7363 122.31C90.2523 122.55 90.6963 122.91 91.0683 123.39C91.4403 123.87 91.6263 124.5 91.6263 125.28C91.6263 125.952 91.4523 126.576 91.1043 127.152C90.7563 127.728 90.2463 128.19 89.5743 128.538C88.9023 128.874 88.1043 129.042 87.1803 129.042ZM105.097 116.352L100.489 128.916H97.429L92.821 116.352H95.521L98.977 126.342L102.415 116.352H105.097ZM115.356 120.132C115.068 119.604 114.672 119.202 114.168 118.926C113.664 118.65 113.076 118.512 112.404 118.512C111.66 118.512 111 118.68 110.424 119.016C109.848 119.352 109.398 119.832 109.074 120.456C108.75 121.08 108.588 121.8 108.588 122.616C108.588 123.456 108.75 124.188 109.074 124.812C109.41 125.436 109.872 125.916 110.46 126.252C111.048 126.588 111.732 126.756 112.512 126.756C113.472 126.756 114.258 126.504 114.87 126C115.482 125.484 115.884 124.77 116.076 123.858H111.756V121.932H118.56V124.128C118.392 125.004 118.032 125.814 117.48 126.558C116.928 127.302 116.214 127.902 115.338 128.358C114.474 128.802 113.502 129.024 112.422 129.024C111.21 129.024 110.112 128.754 109.128 128.214C108.156 127.662 107.388 126.9 106.824 125.928C106.272 124.956 105.996 123.852 105.996 122.616C105.996 121.38 106.272 120.276 106.824 119.304C107.388 118.32 108.156 117.558 109.128 117.018C110.112 116.466 111.204 116.19 112.404 116.19C113.82 116.19 115.05 116.538 116.094 117.234C117.138 117.918 117.858 118.884 118.254 120.132H115.356Z" fill="#FEFDFE"/>
<rect opacity="0.4" x="65.3457" y="74.5737" width="49.8629" height="2.58715" fill="#121317"/>
<rect opacity="0.4" x="65.3457" y="82.0999" width="55.2726" height="2.58715" fill="#121317"/>
<rect opacity="0.4" x="65.3457" y="89.6262" width="57.3894" height="2.58715" fill="#121317"/>
<defs>
<filter id="filter0_d" x="105.209" y="31" width="50.1059" height="50.105" filterUnits="userSpaceOnUse" color-interpolation-filters="sRGB">
<feFlood flood-opacity="0" result="BackgroundImageFix"/>
<feColorMatrix in="SourceAlpha" type="matrix" values="0 0 0 0 0 0 0 0 0 0 0 0 0 0 0 0 0 0 127 0"/>
<feOffset dy="1"/>
<feGaussianBlur stdDeviation="5"/>
<feColorMatrix type="matrix" values="0 0 0 0 0 0 0 0 0 0 0 0 0 0 0 0 0 0 0.25 0"/>
<feBlend mode="normal" in2="BackgroundImageFix" result="effect1_dropShadow"/>
<feBlend mode="normal" in="SourceGraphic" in2="effect1_dropShadow" result="shape"/>
</filter>
<filter id="filter1_d" x="1" y="54.9155" width="205.841" height="143.982" filterUnits="userSpaceOnUse" color-interpolation-filters="sRGB">
<feFlood flood-opacity="0" result="BackgroundImageFix"/>
<feColorMatrix in="SourceAlpha" type="matrix" values="0 0 0 0 0 0 0 0 0 0 0 0 0 0 0 0 0 0 127 0"/>
<feOffset dx="4" dy="4"/>
<feGaussianBlur stdDeviation="25"/>
<feColorMatrix type="matrix" values="0 0 0 0 0 0 0 0 0 0 0 0 0 0 0 0 0 0 0.25 0"/>
<feBlend mode="normal" in2="BackgroundImageFix" result="effect1_dropShadow"/>
<feBlend mode="normal" in="SourceGraphic" in2="effect1_dropShadow" result="shape"/>
</filter>
<linearGradient id="paint0_linear" x1="152.841" y1="123.024" x2="47" y2="123.024" gradientUnits="userSpaceOnUse">
<stop stop-color="#00B3BD"/>
<stop offset="1" stop-color="#00F1FF"/>
</linearGradient>
</defs>
</svg>
