<svg width="232" height="194" viewBox="0 0 232 194" fill="none" xmlns="http://www.w3.org/2000/svg">
<path d="M65.3362 9C60.1798 9 55.9609 13.2187 55.9609 18.375V149.625C55.9609 154.781 60.1798 159 65.3362 159H159.089C164.246 159 168.464 154.781 168.464 149.625V46.5L130.963 9H65.3362Z" fill="#FEFDFE"/>
<g filter="url(#filter0_d)">
<path d="M140.338 46.5H168.464L130.963 9V37.125C130.963 42.2813 135.182 46.5 140.338 46.5Z" fill="#2FDAE4"/>
</g>
<g filter="url(#filter1_d)">
<rect x="46" y="84.8789" width="131.84" height="54.7852" rx="10" fill="url(#paint0_linear)"/>
</g>
<path d="M99.2946 119.005C98.4186 119.005 97.6266 118.855 96.9186 118.555C96.2226 118.255 95.6706 117.823 95.2626 117.259C94.8546 116.695 94.6446 116.029 94.6326 115.261H97.3326C97.3686 115.777 97.5486 116.185 97.8726 116.485C98.2086 116.785 98.6646 116.935 99.2406 116.935C99.8286 116.935 100.291 116.797 100.627 116.521C100.963 116.233 101.131 115.861 101.131 115.405C101.131 115.033 101.017 114.727 100.789 114.487C100.561 114.247 100.273 114.061 99.9246 113.929C99.5886 113.785 99.1206 113.629 98.5206 113.461C97.7046 113.221 97.0386 112.987 96.5226 112.759C96.0186 112.519 95.5806 112.165 95.2086 111.697C94.8486 111.217 94.6686 110.581 94.6686 109.789C94.6686 109.045 94.8546 108.397 95.2266 107.845C95.5986 107.293 96.1206 106.873 96.7926 106.585C97.4646 106.285 98.2326 106.135 99.0966 106.135C100.393 106.135 101.443 106.453 102.247 107.089C103.063 107.713 103.513 108.589 103.597 109.717H100.825C100.801 109.285 100.615 108.931 100.267 108.655C99.9306 108.367 99.4806 108.223 98.9166 108.223C98.4246 108.223 98.0286 108.349 97.7286 108.601C97.4406 108.853 97.2966 109.219 97.2966 109.699C97.2966 110.035 97.4046 110.317 97.6206 110.545C97.8486 110.761 98.1246 110.941 98.4486 111.085C98.7846 111.217 99.2526 111.373 99.8526 111.553C100.669 111.793 101.335 112.033 101.851 112.273C102.367 112.513 102.811 112.873 103.183 113.353C103.555 113.833 103.741 114.463 103.741 115.243C103.741 115.915 103.567 116.539 103.219 117.115C102.871 117.691 102.361 118.153 101.689 118.501C101.017 118.837 100.219 119.005 99.2946 119.005ZM117.211 106.315L112.603 118.879H109.543L104.935 106.315H107.635L111.091 116.305L114.529 106.315H117.211ZM127.47 110.095C127.182 109.567 126.786 109.165 126.282 108.889C125.778 108.613 125.19 108.475 124.518 108.475C123.774 108.475 123.114 108.643 122.538 108.979C121.962 109.315 121.512 109.795 121.188 110.419C120.864 111.043 120.702 111.763 120.702 112.579C120.702 113.419 120.864 114.151 121.188 114.775C121.524 115.399 121.986 115.879 122.574 116.215C123.162 116.551 123.846 116.719 124.626 116.719C125.586 116.719 126.372 116.467 126.984 115.963C127.596 115.447 127.998 114.733 128.19 113.821H123.87V111.895H130.674V114.091C130.506 114.967 130.146 115.777 129.594 116.521C129.042 117.265 128.328 117.865 127.452 118.321C126.588 118.765 125.616 118.987 124.536 118.987C123.324 118.987 122.226 118.717 121.242 118.177C120.27 117.625 119.502 116.863 118.938 115.891C118.386 114.919 118.11 113.815 118.11 112.579C118.11 111.343 118.386 110.239 118.938 109.267C119.502 108.283 120.27 107.521 121.242 106.981C122.226 106.429 123.318 106.153 124.518 106.153C125.934 106.153 127.164 106.501 128.208 107.197C129.252 107.881 129.972 108.847 130.368 110.095H127.47Z" fill="#FEFDFE"/>
<rect opacity="0.4" x="68.8516" y="52.0664" width="62.1113" height="3.22266" fill="#121317"/>
<rect opacity="0.4" x="68.8516" y="61.4414" width="68.8498" height="3.22266" fill="#121317"/>
<rect opacity="0.4" x="68.8516" y="70.8164" width="71.4866" height="3.22266" fill="#121317"/>
<defs>
<filter id="filter0_d" x="120.963" y="0" width="57.5012" height="57.5" filterUnits="userSpaceOnUse" color-interpolation-filters="sRGB">
<feFlood flood-opacity="0" result="BackgroundImageFix"/>
<feColorMatrix in="SourceAlpha" type="matrix" values="0 0 0 0 0 0 0 0 0 0 0 0 0 0 0 0 0 0 127 0"/>
<feOffset dy="1"/>
<feGaussianBlur stdDeviation="5"/>
<feColorMatrix type="matrix" values="0 0 0 0 0 0 0 0 0 0 0 0 0 0 0 0 0 0 0.25 0"/>
<feBlend mode="normal" in2="BackgroundImageFix" result="effect1_dropShadow"/>
<feBlend mode="normal" in="SourceGraphic" in2="effect1_dropShadow" result="shape"/>
</filter>
<filter id="filter1_d" x="0" y="38.8789" width="231.84" height="154.785" filterUnits="userSpaceOnUse" color-interpolation-filters="sRGB">
<feFlood flood-opacity="0" result="BackgroundImageFix"/>
<feColorMatrix in="SourceAlpha" type="matrix" values="0 0 0 0 0 0 0 0 0 0 0 0 0 0 0 0 0 0 127 0"/>
<feOffset dx="4" dy="4"/>
<feGaussianBlur stdDeviation="25"/>
<feColorMatrix type="matrix" values="0 0 0 0 0 0 0 0 0 0 0 0 0 0 0 0 0 0 0.25 0"/>
<feBlend mode="normal" in2="BackgroundImageFix" result="effect1_dropShadow"/>
<feBlend mode="normal" in="SourceGraphic" in2="effect1_dropShadow" result="shape"/>
</filter>
<linearGradient id="paint0_linear" x1="177.84" y1="112.418" x2="46" y2="112.418" gradientUnits="userSpaceOnUse">
<stop stop-color="#00B3BD"/>
<stop offset="1" stop-color="#00F1FF"/>
</linearGradient>
</defs>
</svg>
