<svg width="207" height="200" viewBox="0 0 207 200" fill="none" xmlns="http://www.w3.org/2000/svg">
<path d="M62.5226 40C58.383 40 54.9961 43.3868 54.9961 47.5262V152.894C54.9961 157.033 58.383 160.42 62.5226 160.42H137.787C141.927 160.42 145.314 157.033 145.314 152.894V70.105L115.208 40H62.5226Z" fill="#FEFDFE"/>
<g filter="url(#filter0_d)">
<path d="M122.735 70.105H145.315L115.209 40V62.5788C115.209 66.7182 118.596 70.105 122.735 70.105Z" fill="#EC01D3"/>
</g>
<g filter="url(#filter1_d)">
<rect x="47" y="100.916" width="105.841" height="43.9815" rx="10" fill="url(#paint0_linear)"/>
</g>
<path d="M85.7084 116.352L81.1004 128.916H78.0404L73.4324 116.352H76.1324L79.5884 126.342L83.0264 116.352H85.7084ZM89.7392 116.352V128.916H87.2192V116.352H89.7392ZM96.621 116.352C97.941 116.352 99.099 116.61 100.095 117.126C101.103 117.642 101.877 118.38 102.417 119.34C102.969 120.288 103.245 121.392 103.245 122.652C103.245 123.912 102.969 125.016 102.417 125.964C101.877 126.9 101.103 127.626 100.095 128.142C99.099 128.658 97.941 128.916 96.621 128.916H92.229V116.352H96.621ZM96.531 126.774C97.851 126.774 98.871 126.414 99.591 125.694C100.311 124.974 100.671 123.96 100.671 122.652C100.671 121.344 100.311 120.324 99.591 119.592C98.871 118.848 97.851 118.476 96.531 118.476H94.749V126.774H96.531ZM107.651 118.386V121.536H111.881V123.534H107.651V126.864H112.421V128.916H105.131V116.334H112.421V118.386H107.651ZM120.543 129.042C119.367 129.042 118.287 128.766 117.303 128.214C116.319 127.662 115.539 126.9 114.963 125.928C114.387 124.944 114.099 123.834 114.099 122.598C114.099 121.374 114.387 120.276 114.963 119.304C115.539 118.32 116.319 117.552 117.303 117C118.287 116.448 119.367 116.172 120.543 116.172C121.731 116.172 122.811 116.448 123.783 117C124.767 117.552 125.541 118.32 126.105 119.304C126.681 120.276 126.969 121.374 126.969 122.598C126.969 123.834 126.681 124.944 126.105 125.928C125.541 126.9 124.767 127.662 123.783 128.214C122.799 128.766 121.719 129.042 120.543 129.042ZM120.543 126.792C121.299 126.792 121.965 126.624 122.541 126.288C123.117 125.94 123.567 125.448 123.891 124.812C124.215 124.176 124.377 123.438 124.377 122.598C124.377 121.758 124.215 121.026 123.891 120.402C123.567 119.766 123.117 119.28 122.541 118.944C121.965 118.608 121.299 118.44 120.543 118.44C119.787 118.44 119.115 118.608 118.527 118.944C117.951 119.28 117.501 119.766 117.177 120.402C116.853 121.026 116.691 121.758 116.691 122.598C116.691 123.438 116.853 124.176 117.177 124.812C117.501 125.448 117.951 125.94 118.527 126.288C119.115 126.624 119.787 126.792 120.543 126.792Z" fill="#FEFDFE"/>
<path d="M82.3369 58H68.3841C66.516 58.0021 65.0021 59.516 65 61.3841V72.6159C65.0021 74.484 66.516 75.9979 68.3841 76H82.3369C84.2051 75.9979 85.7189 74.484 85.721 72.6159V61.3841C85.7189 59.516 84.2051 58.0021 82.3369 58ZM84.3674 72.6159C84.3663 73.7366 83.4579 74.645 82.3369 74.6464H68.3841C67.2631 74.645 66.355 73.7366 66.3536 72.6159V61.3841C66.355 60.2634 67.2631 59.355 68.3841 59.3536H82.3369C83.4579 59.355 84.3663 60.2634 84.3674 61.3841V72.6159Z" fill="#9D9C9F"/>
<path d="M95.9271 59.7619C95.7161 59.6413 95.4567 59.6434 95.2473 59.7669L87.7642 64.1853C87.558 64.3071 87.4316 64.5287 87.4316 64.7682V68.8498C87.4316 69.0589 87.5281 69.2564 87.6934 69.3846L95.1765 75.1942C95.3806 75.3525 95.6571 75.3811 95.8893 75.2674C96.1214 75.1537 96.2684 74.9179 96.2684 74.6596V60.3496C96.2684 60.1066 96.138 59.8824 95.9271 59.7619ZM94.9147 73.2771L88.7853 68.5185V65.1548L94.9147 61.5354V73.2771Z" fill="#9D9C9F"/>
<defs>
<filter id="filter0_d" x="105.209" y="31" width="50.1059" height="50.105" filterUnits="userSpaceOnUse" color-interpolation-filters="sRGB">
<feFlood flood-opacity="0" result="BackgroundImageFix"/>
<feColorMatrix in="SourceAlpha" type="matrix" values="0 0 0 0 0 0 0 0 0 0 0 0 0 0 0 0 0 0 127 0"/>
<feOffset dy="1"/>
<feGaussianBlur stdDeviation="5"/>
<feColorMatrix type="matrix" values="0 0 0 0 0 0 0 0 0 0 0 0 0 0 0 0 0 0 0.25 0"/>
<feBlend mode="normal" in2="BackgroundImageFix" result="effect1_dropShadow"/>
<feBlend mode="normal" in="SourceGraphic" in2="effect1_dropShadow" result="shape"/>
</filter>
<filter id="filter1_d" x="1" y="54.9155" width="205.841" height="143.982" filterUnits="userSpaceOnUse" color-interpolation-filters="sRGB">
<feFlood flood-opacity="0" result="BackgroundImageFix"/>
<feColorMatrix in="SourceAlpha" type="matrix" values="0 0 0 0 0 0 0 0 0 0 0 0 0 0 0 0 0 0 127 0"/>
<feOffset dx="4" dy="4"/>
<feGaussianBlur stdDeviation="25"/>
<feColorMatrix type="matrix" values="0 0 0 0 0 0 0 0 0 0 0 0 0 0 0 0 0 0 0.25 0"/>
<feBlend mode="normal" in2="BackgroundImageFix" result="effect1_dropShadow"/>
<feBlend mode="normal" in="SourceGraphic" in2="effect1_dropShadow" result="shape"/>
</filter>
<linearGradient id="paint0_linear" x1="152.841" y1="123.024" x2="47" y2="123.024" gradientUnits="userSpaceOnUse">
<stop stop-color="#8100BD"/>
<stop offset="1" stop-color="#FF00D6"/>
</linearGradient>
</defs>
</svg>
