<svg width="512" height="512" viewBox="0 0 512 512" fill="none" xmlns="http://www.w3.org/2000/svg">
<g clip-path="url(#clip0)">
<path d="M97 0C79.4 0 65 14.4 65 32V480C65 497.6 79.4 512 97 512H417C434.6 512 449 497.6 449 480V128L321 0H97Z" fill="#FEFDFE"/>
<g filter="url(#filter0_d)">
<path d="M353 128H449L321 0V96C321 113.6 335.4 128 353 128Z" fill="#01723A"/>
</g>
<g filter="url(#filter1_d)">
<path d="M31 274C31 265.716 37.7157 259 46 259H466C474.284 259 481 265.716 481 274V431C481 439.284 474.284 446 466 446H46C37.7157 446 31 439.284 31 431V274Z" fill="url(#paint0_linear)"/>
</g>
<path d="M219.005 388L203.905 364.5L190.205 388H174.405L196.405 352.8L174.105 318.2H190.205L205.305 341.6L218.905 318.2H234.705L212.805 353.3L235.105 388H219.005ZM259.759 376.9H282.759V388H245.759V318.2H259.759V376.9ZM315.758 388.7C310.891 388.7 306.491 387.867 302.558 386.2C298.691 384.533 295.624 382.133 293.358 379C291.091 375.867 289.924 372.167 289.858 367.9H304.858C305.058 370.767 306.058 373.033 307.858 374.7C309.724 376.367 312.258 377.2 315.458 377.2C318.724 377.2 321.291 376.433 323.158 374.9C325.024 373.3 325.958 371.233 325.958 368.7C325.958 366.633 325.324 364.933 324.058 363.6C322.791 362.267 321.191 361.233 319.258 360.5C317.391 359.7 314.791 358.833 311.458 357.9C306.924 356.567 303.224 355.267 300.358 354C297.558 352.667 295.124 350.7 293.058 348.1C291.058 345.433 290.058 341.9 290.058 337.5C290.058 333.367 291.091 329.767 293.158 326.7C295.224 323.633 298.124 321.3 301.858 319.7C305.591 318.033 309.858 317.2 314.658 317.2C321.858 317.2 327.691 318.967 332.158 322.5C336.691 325.967 339.191 330.833 339.658 337.1H324.258C324.124 334.7 323.091 332.733 321.158 331.2C319.291 329.6 316.791 328.8 313.658 328.8C310.924 328.8 308.724 329.5 307.058 330.9C305.458 332.3 304.658 334.333 304.658 337C304.658 338.867 305.258 340.433 306.458 341.7C307.724 342.9 309.258 343.9 311.058 344.7C312.924 345.433 315.524 346.3 318.858 347.3C323.391 348.633 327.091 349.967 329.958 351.3C332.824 352.633 335.291 354.633 337.358 357.3C339.424 359.967 340.458 363.467 340.458 367.8C340.458 371.533 339.491 375 337.558 378.2C335.624 381.4 332.791 383.967 329.058 385.9C325.324 387.767 320.891 388.7 315.758 388.7Z" fill="#FEFDFE"/>
<rect opacity="0.4" x="109" y="147" width="212" height="11" fill="#121317"/>
<rect opacity="0.4" x="109" y="179" width="235" height="11" fill="#121317"/>
<rect opacity="0.4" x="109" y="211" width="244" height="11" fill="#121317"/>
</g>
<defs>
<filter id="filter0_d" x="311" y="-9" width="148" height="148" filterUnits="userSpaceOnUse" color-interpolation-filters="sRGB">
<feFlood flood-opacity="0" result="BackgroundImageFix"/>
<feColorMatrix in="SourceAlpha" type="matrix" values="0 0 0 0 0 0 0 0 0 0 0 0 0 0 0 0 0 0 127 0"/>
<feOffset dy="1"/>
<feGaussianBlur stdDeviation="5"/>
<feColorMatrix type="matrix" values="0 0 0 0 0 0 0 0 0 0 0 0 0 0 0 0 0 0 0.25 0"/>
<feBlend mode="normal" in2="BackgroundImageFix" result="effect1_dropShadow"/>
<feBlend mode="normal" in="SourceGraphic" in2="effect1_dropShadow" result="shape"/>
</filter>
<filter id="filter1_d" x="-15" y="213" width="550" height="287" filterUnits="userSpaceOnUse" color-interpolation-filters="sRGB">
<feFlood flood-opacity="0" result="BackgroundImageFix"/>
<feColorMatrix in="SourceAlpha" type="matrix" values="0 0 0 0 0 0 0 0 0 0 0 0 0 0 0 0 0 0 127 0"/>
<feOffset dx="4" dy="4"/>
<feGaussianBlur stdDeviation="25"/>
<feColorMatrix type="matrix" values="0 0 0 0 0 0 0 0 0 0 0 0 0 0 0 0 0 0 0.25 0"/>
<feBlend mode="normal" in2="BackgroundImageFix" result="effect1_dropShadow"/>
<feBlend mode="normal" in="SourceGraphic" in2="effect1_dropShadow" result="shape"/>
</filter>
<linearGradient id="paint0_linear" x1="31" y1="353" x2="481" y2="353" gradientUnits="userSpaceOnUse">
<stop stop-color="#00B35A"/>
<stop offset="1" stop-color="#01723A"/>
</linearGradient>
<clipPath id="clip0">
<rect width="512" height="512" fill="white"/>
</clipPath>
</defs>
</svg>
