<svg width="232" height="194" viewBox="0 0 232 194" fill="none" xmlns="http://www.w3.org/2000/svg">
<path d="M65.3362 9C60.1798 9 55.9609 13.2187 55.9609 18.375V149.625C55.9609 154.781 60.1798 159 65.3362 159H159.089C164.246 159 168.464 154.781 168.464 149.625V46.5L130.963 9H65.3362Z" fill="#FEFDFE"/>
<g filter="url(#filter0_d)">
<path d="M140.338 46.5H168.464L130.963 9V37.125C130.963 42.2813 135.182 46.5 140.338 46.5Z" fill="#01723A"/>
</g>
<g filter="url(#filter1_d)">
<rect x="46" y="84.8789" width="131.84" height="54.7852" rx="10" fill="url(#paint0_linear)"/>
</g>
<path d="M105.486 118.879L102.768 114.649L100.302 118.879H97.4585L101.418 112.543L97.4045 106.315H100.302L103.02 110.527L105.468 106.315H108.312L104.37 112.633L108.384 118.879H105.486ZM112.822 116.881H116.962V118.879H110.302V106.315H112.822V116.881ZM122.902 119.005C122.026 119.005 121.234 118.855 120.526 118.555C119.83 118.255 119.278 117.823 118.87 117.259C118.462 116.695 118.252 116.029 118.24 115.261H120.94C120.976 115.777 121.156 116.185 121.48 116.485C121.816 116.785 122.272 116.935 122.848 116.935C123.436 116.935 123.898 116.797 124.234 116.521C124.57 116.233 124.738 115.861 124.738 115.405C124.738 115.033 124.624 114.727 124.396 114.487C124.168 114.247 123.88 114.061 123.532 113.929C123.196 113.785 122.728 113.629 122.128 113.461C121.312 113.221 120.646 112.987 120.13 112.759C119.626 112.519 119.188 112.165 118.816 111.697C118.456 111.217 118.276 110.581 118.276 109.789C118.276 109.045 118.462 108.397 118.834 107.845C119.206 107.293 119.728 106.873 120.4 106.585C121.072 106.285 121.84 106.135 122.704 106.135C124 106.135 125.05 106.453 125.854 107.089C126.67 107.713 127.12 108.589 127.204 109.717H124.432C124.408 109.285 124.222 108.931 123.874 108.655C123.538 108.367 123.088 108.223 122.524 108.223C122.032 108.223 121.636 108.349 121.336 108.601C121.048 108.853 120.904 109.219 120.904 109.699C120.904 110.035 121.012 110.317 121.228 110.545C121.456 110.761 121.732 110.941 122.056 111.085C122.392 111.217 122.86 111.373 123.46 111.553C124.276 111.793 124.942 112.033 125.458 112.273C125.974 112.513 126.418 112.873 126.79 113.353C127.162 113.833 127.348 114.463 127.348 115.243C127.348 115.915 127.174 116.539 126.826 117.115C126.478 117.691 125.968 118.153 125.296 118.501C124.624 118.837 123.826 119.005 122.902 119.005Z" fill="#FEFDFE"/>
<rect opacity="0.4" x="68.8516" y="52.0664" width="62.1113" height="3.22266" fill="#121317"/>
<rect opacity="0.4" x="68.8516" y="61.4414" width="68.8498" height="3.22266" fill="#121317"/>
<rect opacity="0.4" x="68.8516" y="70.8164" width="71.4866" height="3.22266" fill="#121317"/>
<defs>
<filter id="filter0_d" x="120.963" y="0" width="57.5012" height="57.5" filterUnits="userSpaceOnUse" color-interpolation-filters="sRGB">
<feFlood flood-opacity="0" result="BackgroundImageFix"/>
<feColorMatrix in="SourceAlpha" type="matrix" values="0 0 0 0 0 0 0 0 0 0 0 0 0 0 0 0 0 0 127 0"/>
<feOffset dy="1"/>
<feGaussianBlur stdDeviation="5"/>
<feColorMatrix type="matrix" values="0 0 0 0 0 0 0 0 0 0 0 0 0 0 0 0 0 0 0.25 0"/>
<feBlend mode="normal" in2="BackgroundImageFix" result="effect1_dropShadow"/>
<feBlend mode="normal" in="SourceGraphic" in2="effect1_dropShadow" result="shape"/>
</filter>
<filter id="filter1_d" x="0" y="38.8789" width="231.84" height="154.785" filterUnits="userSpaceOnUse" color-interpolation-filters="sRGB">
<feFlood flood-opacity="0" result="BackgroundImageFix"/>
<feColorMatrix in="SourceAlpha" type="matrix" values="0 0 0 0 0 0 0 0 0 0 0 0 0 0 0 0 0 0 127 0"/>
<feOffset dx="4" dy="4"/>
<feGaussianBlur stdDeviation="25"/>
<feColorMatrix type="matrix" values="0 0 0 0 0 0 0 0 0 0 0 0 0 0 0 0 0 0 0.25 0"/>
<feBlend mode="normal" in2="BackgroundImageFix" result="effect1_dropShadow"/>
<feBlend mode="normal" in="SourceGraphic" in2="effect1_dropShadow" result="shape"/>
</filter>
<linearGradient id="paint0_linear" x1="46" y1="112.418" x2="177.84" y2="112.418" gradientUnits="userSpaceOnUse">
<stop stop-color="#00B35A"/>
<stop offset="1" stop-color="#01723A"/>
</linearGradient>
</defs>
</svg>
