<svg width="207" height="200" viewBox="0 0 207 200" fill="none" xmlns="http://www.w3.org/2000/svg">
<path d="M62.5226 40C58.383 40 54.9961 43.3868 54.9961 47.5262V152.894C54.9961 157.033 58.383 160.42 62.5226 160.42H137.787C141.927 160.42 145.314 157.033 145.314 152.894V70.105L115.208 40H62.5226Z" fill="#FEFDFE"/>
<g filter="url(#filter0_d)">
<path d="M122.735 70.105H145.315L115.209 40V62.5787C115.209 66.7182 118.596 70.105 122.735 70.105Z" fill="#01723A"/>
</g>
<g filter="url(#filter1_d)">
<rect x="47" y="100.916" width="105.841" height="43.9815" rx="10" fill="url(#paint0_linear)"/>
</g>
<path d="M93.3722 128.916L90.6542 124.686L88.1882 128.916H85.3442L89.3042 122.58L85.2902 116.352H88.1882L90.9062 120.564L93.3542 116.352H96.1982L92.2562 122.67L96.2702 128.916H93.3722ZM100.708 126.918H104.848V128.916H98.188V116.352H100.708V126.918ZM110.788 129.042C109.912 129.042 109.12 128.892 108.412 128.592C107.716 128.292 107.164 127.86 106.756 127.296C106.348 126.732 106.138 126.066 106.126 125.298H108.826C108.862 125.814 109.042 126.222 109.366 126.522C109.702 126.822 110.158 126.972 110.734 126.972C111.322 126.972 111.784 126.834 112.12 126.558C112.456 126.27 112.624 125.898 112.624 125.442C112.624 125.07 112.51 124.764 112.282 124.524C112.054 124.284 111.766 124.098 111.418 123.966C111.082 123.822 110.614 123.666 110.014 123.498C109.198 123.258 108.532 123.024 108.016 122.796C107.512 122.556 107.074 122.202 106.702 121.734C106.342 121.254 106.162 120.618 106.162 119.826C106.162 119.082 106.348 118.434 106.72 117.882C107.092 117.33 107.614 116.91 108.286 116.622C108.958 116.322 109.726 116.172 110.59 116.172C111.886 116.172 112.936 116.49 113.74 117.126C114.556 117.75 115.006 118.626 115.09 119.754H112.318C112.294 119.322 112.108 118.968 111.76 118.692C111.424 118.404 110.974 118.26 110.41 118.26C109.918 118.26 109.522 118.386 109.222 118.638C108.934 118.89 108.79 119.256 108.79 119.736C108.79 120.072 108.898 120.354 109.114 120.582C109.342 120.798 109.618 120.978 109.942 121.122C110.278 121.254 110.746 121.41 111.346 121.59C112.162 121.83 112.828 122.07 113.344 122.31C113.86 122.55 114.304 122.91 114.676 123.39C115.048 123.87 115.234 124.5 115.234 125.28C115.234 125.952 115.06 126.576 114.712 127.152C114.364 127.728 113.854 128.19 113.182 128.538C112.51 128.874 111.712 129.042 110.788 129.042Z" fill="#FEFDFE"/>
<rect opacity="0.4" x="65.3457" y="74.5737" width="49.8629" height="2.58715" fill="#121317"/>
<rect opacity="0.4" x="65.3457" y="82.0999" width="55.2726" height="2.58715" fill="#121317"/>
<rect opacity="0.4" x="65.3457" y="89.6262" width="57.3894" height="2.58715" fill="#121317"/>
<defs>
<filter id="filter0_d" x="105.209" y="31" width="50.1059" height="50.105" filterUnits="userSpaceOnUse" color-interpolation-filters="sRGB">
<feFlood flood-opacity="0" result="BackgroundImageFix"/>
<feColorMatrix in="SourceAlpha" type="matrix" values="0 0 0 0 0 0 0 0 0 0 0 0 0 0 0 0 0 0 127 0"/>
<feOffset dy="1"/>
<feGaussianBlur stdDeviation="5"/>
<feColorMatrix type="matrix" values="0 0 0 0 0 0 0 0 0 0 0 0 0 0 0 0 0 0 0.25 0"/>
<feBlend mode="normal" in2="BackgroundImageFix" result="effect1_dropShadow"/>
<feBlend mode="normal" in="SourceGraphic" in2="effect1_dropShadow" result="shape"/>
</filter>
<filter id="filter1_d" x="1" y="54.9155" width="205.841" height="143.982" filterUnits="userSpaceOnUse" color-interpolation-filters="sRGB">
<feFlood flood-opacity="0" result="BackgroundImageFix"/>
<feColorMatrix in="SourceAlpha" type="matrix" values="0 0 0 0 0 0 0 0 0 0 0 0 0 0 0 0 0 0 127 0"/>
<feOffset dx="4" dy="4"/>
<feGaussianBlur stdDeviation="25"/>
<feColorMatrix type="matrix" values="0 0 0 0 0 0 0 0 0 0 0 0 0 0 0 0 0 0 0.25 0"/>
<feBlend mode="normal" in2="BackgroundImageFix" result="effect1_dropShadow"/>
<feBlend mode="normal" in="SourceGraphic" in2="effect1_dropShadow" result="shape"/>
</filter>
<linearGradient id="paint0_linear" x1="47" y1="123.024" x2="152.841" y2="123.024" gradientUnits="userSpaceOnUse">
<stop stop-color="#00B35A"/>
<stop offset="1" stop-color="#01723A"/>
</linearGradient>
</defs>
</svg>
