<svg width="207" height="200" viewBox="0 0 207 200" fill="none" xmlns="http://www.w3.org/2000/svg">
<path d="M62.5226 40C58.383 40 54.9961 43.3868 54.9961 47.5262V152.894C54.9961 157.033 58.383 160.42 62.5226 160.42H137.787C141.927 160.42 145.314 157.033 145.314 152.894V70.105L115.208 40H62.5226Z" fill="#FEFDFE"/>
<g filter="url(#filter0_d)">
<path d="M122.735 70.105H145.315L115.209 40V62.5787C115.209 66.7182 118.596 70.105 122.735 70.105Z" fill="#B241C9"/>
</g>
<path d="M70.1811 62.9426H69.0164C68.6304 62.943 68.2603 63.0965 67.9874 63.3694C67.7144 63.6424 67.5609 64.0124 67.5605 64.3984C67.561 64.7844 67.7145 65.1545 67.9874 65.4274C68.2604 65.7003 68.6304 65.8538 69.0164 65.8543H70.1811C70.5671 65.8539 70.9372 65.7004 71.2102 65.4275C71.4831 65.1545 71.6366 64.7844 71.637 64.3984C71.6365 64.0125 71.483 63.6424 71.2101 63.3695C70.9371 63.0966 70.5671 62.9431 70.1811 62.9426V62.9426ZM70.3849 64.6053C70.3582 64.6321 70.3264 64.6534 70.2915 64.6679C70.2565 64.6823 70.219 64.6897 70.1811 64.6896H69.0164C68.9392 64.6896 68.8651 64.6589 68.8105 64.6043C68.7559 64.5497 68.7252 64.4757 68.7252 64.3984C68.7256 64.3213 68.7564 64.2475 68.8109 64.1929C68.8654 64.1384 68.9393 64.1076 69.0164 64.1073H70.1811C70.2583 64.1073 70.3324 64.138 70.387 64.1926C70.4416 64.2472 70.4723 64.3212 70.4723 64.3984C70.4723 64.437 70.4646 64.4752 70.4496 64.5107C70.4345 64.5462 70.4126 64.5784 70.3849 64.6053Z" fill="#9C9C9E"/>
<path d="M75.3471 44.9392H63.8109C63.6564 44.9392 63.5083 45.0006 63.3991 45.1098C63.2899 45.219 63.2285 45.3671 63.2285 45.5215V92.1077C63.2285 92.2621 63.2899 92.4102 63.3991 92.5195C63.5083 92.6287 63.6564 92.69 63.8109 92.69H75.3471C75.5016 92.69 75.6497 92.6287 75.7589 92.5195C75.8681 92.4102 75.9295 92.2621 75.9295 92.1077V45.5215C75.9295 45.3671 75.8681 45.219 75.7589 45.1098C75.6497 45.0006 75.5016 44.9392 75.3471 44.9392ZM67.4389 91.5254V88.8078H68.3366C68.5168 88.808 68.6895 88.8797 68.8168 89.007C68.9442 89.1344 69.0158 89.3071 69.0161 89.4872V90.846C69.0163 91.0787 69.0608 91.3093 69.1474 91.5254H67.4389ZM67.4389 87.6432V84.9257H68.3366C68.5168 84.9259 68.6895 84.9975 68.8168 85.1249C68.9442 85.2522 69.0158 85.4249 69.0161 85.605V86.9638C69.0163 87.1965 69.0608 87.4271 69.1474 87.6432H67.4389ZM67.4389 83.761V81.0435H68.3366C68.5168 81.0437 68.6895 81.1153 68.8168 81.2427C68.9442 81.37 69.0158 81.5427 69.0161 81.7229V83.0816C69.0163 83.3144 69.0608 83.5449 69.1474 83.761H67.4389ZM67.4389 79.8788V77.1613H68.3366C68.5168 77.1615 68.6895 77.2331 68.8168 77.3605C68.9442 77.4879 69.0158 77.6606 69.0161 77.8407V79.1994C69.0163 79.4322 69.0608 79.6628 69.1474 79.8788H67.4389ZM67.4389 75.9966V73.2791H68.3366C68.5168 73.2793 68.6895 73.351 68.8168 73.4783C68.9442 73.6057 69.0158 73.7784 69.0161 73.9585V75.3173C69.0163 75.55 69.0608 75.7806 69.1474 75.9966H67.4389ZM67.4389 72.1145V69.3969H68.3366C68.5168 69.3971 68.6895 69.4688 68.8168 69.5961C68.9442 69.7235 69.0158 69.8962 69.0161 70.0763V71.4351C69.0163 71.6678 69.0608 71.8984 69.1474 72.1145H67.4389ZM67.4389 68.2323V67.6744C67.965 67.9179 68.5292 68.0689 69.1067 68.1209C69.119 68.1585 69.1336 68.1952 69.1482 68.2318L67.4389 68.2323ZM71.7579 91.5254H70.8601C70.68 91.5252 70.5073 91.4535 70.38 91.3261C70.2526 91.1988 70.1809 91.0261 70.1807 90.846V89.4872C70.1805 89.2545 70.136 89.0239 70.0494 88.8078H71.7576L71.7579 91.5254ZM71.7579 87.6432H70.8601C70.68 87.643 70.5073 87.5713 70.38 87.444C70.2526 87.3166 70.1809 87.1439 70.1807 86.9638V85.605C70.1805 85.3723 70.136 85.1417 70.0494 84.9257H71.7576L71.7579 87.6432ZM71.7579 83.761H70.8601C70.68 83.7608 70.5073 83.6892 70.38 83.5618C70.2526 83.4344 70.1809 83.2617 70.1807 83.0816V81.7229C70.1805 81.4901 70.136 81.2595 70.0494 81.0435H71.7576L71.7579 83.761ZM71.7579 79.8788H70.8601C70.68 79.8786 70.5073 79.807 70.38 79.6796C70.2526 79.5522 70.1809 79.3796 70.1807 79.1994V77.8407C70.1805 77.6079 70.136 77.3774 70.0494 77.1613H71.7576L71.7579 79.8788ZM71.7579 75.9966H70.8601C70.68 75.9964 70.5073 75.9248 70.38 75.7974C70.2526 75.6701 70.1809 75.4974 70.1807 75.3173V73.9585C70.1805 73.7257 70.136 73.4952 70.0494 73.2791H71.7576L71.7579 75.9966ZM71.7579 72.1145H70.8601C70.68 72.1143 70.5073 72.0426 70.38 71.9152C70.2526 71.7879 70.1809 71.6152 70.1807 71.4351V70.0763C70.1805 69.8436 70.136 69.613 70.0494 69.3969H71.7576L71.7579 72.1145ZM71.7579 68.2323H70.8601C70.7008 68.2323 70.5467 68.1758 70.425 68.073C70.8862 67.995 71.3346 67.8546 71.7579 67.6557V68.2323ZM72.3824 65.8119C72.2575 65.9377 72.1245 66.0552 71.9845 66.1638C71.3216 66.6708 70.5155 66.9555 69.6812 66.9772C69.6538 66.973 69.6261 66.9708 69.5984 66.9706C69.5691 66.9708 69.5399 66.9732 69.511 66.9779C68.4916 66.9593 67.5188 66.5472 66.7963 65.8277L66.5217 65.5536L67.6645 57.993H67.9343L68.2664 59.1273C68.3018 59.2481 68.3754 59.3542 68.4761 59.4297C68.5769 59.5051 68.6994 59.5459 68.8252 59.5459H70.3723C70.4982 59.5459 70.6207 59.5051 70.7215 59.4297C70.8222 59.3542 70.8958 59.2481 70.9312 59.1273L71.2635 57.993H71.5855L72.6403 65.5522L72.3824 65.8119ZM68.5508 55.9549H70.646L69.9358 58.3813H69.261L68.5508 55.9549ZM74.7648 49.2096H68.9975C68.8431 49.2096 68.6949 49.271 68.5857 49.3802C68.4765 49.4894 68.4152 49.6375 68.4152 49.7919C68.4152 49.9464 68.4765 50.0945 68.5857 50.2037C68.6949 50.3129 68.8431 50.3743 68.9975 50.3743H74.7648V91.5254H72.9226V66.8995C73.0204 66.8145 73.1167 66.7255 73.2089 66.6323L73.67 66.1674C73.7331 66.1038 73.7807 66.0264 73.8091 65.9413C73.8374 65.8562 73.8457 65.7658 73.8333 65.6769L72.6686 57.3303C72.6492 57.1911 72.5801 57.0636 72.4741 56.9714C72.3681 56.8792 72.2323 56.8284 72.0918 56.8284H71.604L71.9825 55.536C72.0079 55.4492 72.0127 55.3576 71.9966 55.2686C71.9804 55.1795 71.9437 55.0955 71.8894 55.0231C71.8351 54.9508 71.7647 54.892 71.6838 54.8516C71.6028 54.8112 71.5136 54.7902 71.4231 54.7902H67.7737C67.6833 54.7902 67.5941 54.8113 67.5132 54.8518C67.4323 54.8922 67.3619 54.951 67.3077 55.0233C67.2535 55.0957 67.2168 55.1797 67.2007 55.2687C67.1846 55.3577 67.1894 55.4492 67.2148 55.536L67.5933 56.8284H67.1632C67.0239 56.8284 66.8892 56.8783 66.7835 56.9691C66.6779 57.0599 66.6083 57.1856 66.5874 57.3234L65.3256 65.67C65.3121 65.7604 65.3199 65.8526 65.3486 65.9394C65.3772 66.0261 65.4259 66.1048 65.4906 66.1693L65.975 66.6526C66.072 66.7497 66.1729 66.8412 66.2747 66.9278V91.5254H64.3932V50.3743H65.9015C66.0559 50.3743 66.204 50.3129 66.3133 50.2037C66.4225 50.0945 66.4838 49.9464 66.4838 49.7919C66.4838 49.6375 66.4225 49.4894 66.3133 49.3802C66.204 49.271 66.0559 49.2096 65.9015 49.2096H64.3932V46.1039H74.7648V49.2096Z" fill="#9C9C9E"/>
<g filter="url(#filter1_d)">
<rect x="47" y="100.916" width="105.841" height="43.9815" rx="10" fill="url(#paint0_linear)"/>
</g>
<path d="M91.0413 126.792H96.6933V128.916H88.1253V126.972L93.7413 118.476H88.1253V116.352H96.6933V118.296L91.0413 126.792ZM101.358 116.352V128.916H98.8384V116.352H101.358ZM113.01 120.24C113.01 120.912 112.848 121.542 112.524 122.13C112.212 122.718 111.714 123.192 111.03 123.552C110.358 123.912 109.506 124.092 108.474 124.092H106.368V128.916H103.848V116.352H108.474C109.446 116.352 110.274 116.52 110.958 116.856C111.642 117.192 112.152 117.654 112.488 118.242C112.836 118.83 113.01 119.496 113.01 120.24ZM108.366 122.058C109.062 122.058 109.578 121.902 109.914 121.59C110.25 121.266 110.418 120.816 110.418 120.24C110.418 119.016 109.734 118.404 108.366 118.404H106.368V122.058H108.366Z" fill="#FEFDFE"/>
<defs>
<filter id="filter0_d" x="105.209" y="31" width="50.1059" height="50.105" filterUnits="userSpaceOnUse" color-interpolation-filters="sRGB">
<feFlood flood-opacity="0" result="BackgroundImageFix"/>
<feColorMatrix in="SourceAlpha" type="matrix" values="0 0 0 0 0 0 0 0 0 0 0 0 0 0 0 0 0 0 127 0"/>
<feOffset dy="1"/>
<feGaussianBlur stdDeviation="5"/>
<feColorMatrix type="matrix" values="0 0 0 0 0 0 0 0 0 0 0 0 0 0 0 0 0 0 0.25 0"/>
<feBlend mode="normal" in2="BackgroundImageFix" result="effect1_dropShadow"/>
<feBlend mode="normal" in="SourceGraphic" in2="effect1_dropShadow" result="shape"/>
</filter>
<filter id="filter1_d" x="1" y="54.9155" width="205.841" height="143.982" filterUnits="userSpaceOnUse" color-interpolation-filters="sRGB">
<feFlood flood-opacity="0" result="BackgroundImageFix"/>
<feColorMatrix in="SourceAlpha" type="matrix" values="0 0 0 0 0 0 0 0 0 0 0 0 0 0 0 0 0 0 127 0"/>
<feOffset dx="4" dy="4"/>
<feGaussianBlur stdDeviation="25"/>
<feColorMatrix type="matrix" values="0 0 0 0 0 0 0 0 0 0 0 0 0 0 0 0 0 0 0.25 0"/>
<feBlend mode="normal" in2="BackgroundImageFix" result="effect1_dropShadow"/>
<feBlend mode="normal" in="SourceGraphic" in2="effect1_dropShadow" result="shape"/>
</filter>
<linearGradient id="paint0_linear" x1="47" y1="123.024" x2="152.841" y2="123.024" gradientUnits="userSpaceOnUse">
<stop stop-color="#E359FF"/>
<stop offset="1" stop-color="#B241C9"/>
</linearGradient>
</defs>
</svg>
