<svg width="232" height="194" viewBox="0 0 232 194" fill="none" xmlns="http://www.w3.org/2000/svg">
<path d="M65.3362 9C60.1798 9 55.9609 13.2188 55.9609 18.375V149.625C55.9609 154.781 60.1798 159 65.3362 159H159.089C164.246 159 168.464 154.781 168.464 149.625V46.5L130.963 9H65.3362Z" fill="#FEFDFE"/>
<g filter="url(#filter0_d)">
<path d="M140.338 46.5H168.464L130.963 9V37.125C130.963 42.2813 135.182 46.5 140.338 46.5Z" fill="#B241C9"/>
</g>
<path opacity="0.4" d="M74.8756 37.5784H73.4248C72.944 37.5788 72.483 37.77 72.143 38.11C71.803 38.45 71.6118 38.911 71.6113 39.3918C71.6119 39.8726 71.8031 40.3335 72.1431 40.6735C72.4831 41.0134 72.944 41.2047 73.4248 41.2052H74.8756C75.3564 41.2048 75.8174 41.0136 76.1574 40.6736C76.4974 40.3336 76.6886 39.8726 76.6891 39.3918C76.6885 38.911 76.4973 38.4501 76.1573 38.1101C75.8173 37.7701 75.3564 37.5789 74.8756 37.5784V37.5784ZM75.1295 39.6494C75.0962 39.6828 75.0566 39.7093 75.0131 39.7274C74.9695 39.7454 74.9228 39.7546 74.8756 39.7545H73.4248C73.3286 39.7545 73.2364 39.7163 73.1683 39.6483C73.1003 39.5802 73.0621 39.488 73.0621 39.3918C73.0625 39.2957 73.1009 39.2037 73.1688 39.1358C73.2367 39.0679 73.3287 39.0295 73.4248 39.0291H74.8756C74.9718 39.0291 75.064 39.0673 75.1321 39.1353C75.2001 39.2034 75.2383 39.2956 75.2383 39.3918C75.2383 39.4398 75.2287 39.4874 75.21 39.5316C75.1913 39.5759 75.1639 39.6159 75.1295 39.6494Z" fill="#121317"/>
<path opacity="0.4" d="M81.3103 15.1523H66.9402C66.7478 15.1523 66.5633 15.2288 66.4273 15.3648C66.2913 15.5008 66.2148 15.6853 66.2148 15.8777V73.9073C66.2148 74.0997 66.2913 74.2842 66.4273 74.4202C66.5633 74.5562 66.7478 74.6327 66.9402 74.6327H81.3103C81.5026 74.6327 81.6871 74.5562 81.8232 74.4202C81.9592 74.2842 82.0356 74.0997 82.0356 73.9073V15.8777C82.0356 15.6853 81.9592 15.5008 81.8232 15.3648C81.6871 15.2288 81.5026 15.1523 81.3103 15.1523ZM71.4594 73.1819V69.7969H72.5777C72.8021 69.7971 73.0172 69.8864 73.1759 70.045C73.3345 70.2037 73.4238 70.4188 73.424 70.6431V72.3357C73.4243 72.6256 73.4798 72.9128 73.5876 73.1819H71.4594ZM71.4594 68.3461V64.9611H72.5777C72.8021 64.9613 73.0172 65.0506 73.1759 65.2092C73.3345 65.3679 73.4238 65.583 73.424 65.8073V67.4999C73.4243 67.7898 73.4798 68.077 73.5876 68.3461H71.4594ZM71.4594 63.5103V60.1253H72.5777C72.8021 60.1255 73.0172 60.2148 73.1759 60.3734C73.3345 60.5321 73.4238 60.7472 73.424 60.9715V62.6641C73.4243 62.954 73.4798 63.2412 73.5876 63.5103H71.4594ZM71.4594 58.6745V55.2895H72.5777C72.8021 55.2897 73.0172 55.379 73.1759 55.5376C73.3345 55.6963 73.4238 55.9114 73.424 56.1357V57.8283C73.4243 58.1182 73.4798 58.4054 73.5876 58.6745H71.4594ZM71.4594 53.8387V50.4537H72.5777C72.8021 50.4539 73.0172 50.5432 73.1759 50.7018C73.3345 50.8605 73.4238 51.0756 73.424 51.2999V52.9925C73.4243 53.2824 73.4798 53.5696 73.5876 53.8387H71.4594ZM71.4594 49.0029V45.6179H72.5777C72.8021 45.6181 73.0172 45.7074 73.1759 45.866C73.3345 46.0247 73.4238 46.2398 73.424 46.4641V48.1567C73.4243 48.4466 73.4798 48.7338 73.5876 49.0029H71.4594ZM71.4594 44.1671V43.4722C72.1149 43.7756 72.8176 43.9637 73.537 44.0283C73.5523 44.0753 73.5704 44.121 73.5887 44.1665L71.4594 44.1671ZM76.8394 73.1819H75.7211C75.4967 73.1817 75.2816 73.0924 75.123 72.9338C74.9643 72.7751 74.8751 72.56 74.8748 72.3357V70.6431C74.8746 70.3532 74.819 70.066 74.7112 69.7969H76.8391L76.8394 73.1819ZM76.8394 68.3461H75.7211C75.4967 68.3459 75.2816 68.2566 75.123 68.098C74.9643 67.9393 74.8751 67.7242 74.8748 67.4999V65.8073C74.8746 65.5174 74.819 65.2302 74.7112 64.9611H76.8391L76.8394 68.3461ZM76.8394 63.5103H75.7211C75.4967 63.5101 75.2816 63.4208 75.123 63.2622C74.9643 63.1035 74.8751 62.8884 74.8748 62.6641V60.9715C74.8746 60.6816 74.819 60.3944 74.7112 60.1253H76.8391L76.8394 63.5103ZM76.8394 58.6745H75.7211C75.4967 58.6743 75.2816 58.585 75.123 58.4264C74.9643 58.2677 74.8751 58.0526 74.8748 57.8283V56.1357C74.8746 55.8458 74.819 55.5586 74.7112 55.2895H76.8391L76.8394 58.6745ZM76.8394 53.8387H75.7211C75.4967 53.8385 75.2816 53.7492 75.123 53.5906C74.9643 53.4319 74.8751 53.2168 74.8748 52.9925V51.2999C74.8746 51.01 74.819 50.7228 74.7112 50.4537H76.8391L76.8394 53.8387ZM76.8394 49.0029H75.7211C75.4967 49.0027 75.2816 48.9134 75.123 48.7548C74.9643 48.5961 74.8751 48.381 74.8748 48.1567V46.4641C74.8746 46.1742 74.819 45.887 74.7112 45.6179H76.8391L76.8394 49.0029ZM76.8394 44.1671H75.7211C75.5227 44.1671 75.3307 44.0968 75.1791 43.9687C75.7536 43.8715 76.3121 43.6967 76.8394 43.4489V44.1671ZM77.6173 41.1523C77.4617 41.3089 77.2961 41.4553 77.1216 41.5905C76.2959 42.2221 75.2918 42.5767 74.2526 42.6037C74.2184 42.5986 74.184 42.5958 74.1494 42.5955C74.113 42.5958 74.0766 42.5988 74.0406 42.6046C72.7707 42.5815 71.559 42.0681 70.6591 41.1718L70.3169 40.8304L71.7405 31.4127H72.0766L72.4902 32.8256C72.5343 32.9761 72.626 33.1082 72.7515 33.2022C72.877 33.2962 73.0295 33.347 73.1863 33.347H75.1135C75.2703 33.347 75.4229 33.2962 75.5484 33.2022C75.6739 33.1082 75.7655 32.9761 75.8096 32.8256L76.2236 31.4127H76.6246L77.9385 40.8287L77.6173 41.1523ZM72.8444 28.8739H75.4544L74.5697 31.8963H73.7292L72.8444 28.8739ZM80.5849 20.4717H73.4009C73.2086 20.4717 73.024 20.5481 72.888 20.6842C72.752 20.8202 72.6755 21.0047 72.6755 21.1971C72.6755 21.3895 72.752 21.574 72.888 21.71C73.024 21.846 73.2086 21.9225 73.4009 21.9225H80.5849V73.1819H78.2902V42.507C78.4121 42.4011 78.532 42.2902 78.6469 42.1742L79.2211 41.5951C79.2998 41.5158 79.3591 41.4194 79.3944 41.3134C79.4297 41.2074 79.44 41.0947 79.4246 40.9841L77.9738 30.5871C77.9496 30.4138 77.8636 30.255 77.7315 30.1401C77.5995 30.0252 77.4303 29.962 77.2553 29.962H76.6477L77.1192 28.3521C77.1508 28.244 77.1568 28.1299 77.1367 28.019C77.1165 27.9081 77.0709 27.8034 77.0032 27.7133C76.9356 27.6231 76.8479 27.55 76.747 27.4996C76.6462 27.4493 76.535 27.4231 76.4223 27.4232H71.8765C71.7639 27.4232 71.6528 27.4494 71.552 27.4998C71.4512 27.5502 71.3636 27.6234 71.296 27.7135C71.2285 27.8037 71.1828 27.9083 71.1627 28.0192C71.1427 28.13 71.1487 28.244 71.1803 28.3521L71.6518 29.962H71.1161C70.9425 29.962 70.7747 30.0241 70.6431 30.1373C70.5115 30.2504 70.4248 30.407 70.3988 30.5785L68.8271 40.9755C68.8102 41.088 68.82 41.2029 68.8557 41.311C68.8914 41.419 68.952 41.5171 69.0326 41.5974L69.6359 42.1994C69.7568 42.3203 69.8825 42.4343 70.0092 42.5422V73.1819H67.6656V21.9225H69.5444C69.7368 21.9225 69.9213 21.846 70.0573 21.71C70.1934 21.574 70.2698 21.3895 70.2698 21.1971C70.2698 21.0047 70.1934 20.8202 70.0573 20.6842C69.9213 20.5481 69.7368 20.4717 69.5444 20.4717H67.6656V16.6031H80.5849V20.4717Z" fill="#121317"/>
<g filter="url(#filter1_d)">
<rect x="46" y="84.8789" width="131.84" height="54.7852" rx="10" fill="url(#paint0_linear)"/>
</g>
<path d="M103.156 116.755H108.808V118.879H100.24V116.935L105.856 108.439H100.24V106.315H108.808V108.259L103.156 116.755ZM113.473 106.315V118.879H110.953V106.315H113.473ZM125.124 110.203C125.124 110.875 124.962 111.505 124.638 112.093C124.326 112.681 123.828 113.155 123.144 113.515C122.472 113.875 121.62 114.055 120.588 114.055H118.482V118.879H115.962V106.315H120.588C121.56 106.315 122.388 106.483 123.072 106.819C123.756 107.155 124.266 107.617 124.602 108.205C124.95 108.793 125.124 109.459 125.124 110.203ZM120.48 112.021C121.176 112.021 121.692 111.865 122.028 111.553C122.364 111.229 122.532 110.779 122.532 110.203C122.532 108.979 121.848 108.367 120.48 108.367H118.482V112.021H120.48Z" fill="#FEFDFE"/>
<defs>
<filter id="filter0_d" x="120.963" y="0" width="57.5012" height="57.5" filterUnits="userSpaceOnUse" color-interpolation-filters="sRGB">
<feFlood flood-opacity="0" result="BackgroundImageFix"/>
<feColorMatrix in="SourceAlpha" type="matrix" values="0 0 0 0 0 0 0 0 0 0 0 0 0 0 0 0 0 0 127 0"/>
<feOffset dy="1"/>
<feGaussianBlur stdDeviation="5"/>
<feColorMatrix type="matrix" values="0 0 0 0 0 0 0 0 0 0 0 0 0 0 0 0 0 0 0.25 0"/>
<feBlend mode="normal" in2="BackgroundImageFix" result="effect1_dropShadow"/>
<feBlend mode="normal" in="SourceGraphic" in2="effect1_dropShadow" result="shape"/>
</filter>
<filter id="filter1_d" x="0" y="38.8789" width="231.84" height="154.785" filterUnits="userSpaceOnUse" color-interpolation-filters="sRGB">
<feFlood flood-opacity="0" result="BackgroundImageFix"/>
<feColorMatrix in="SourceAlpha" type="matrix" values="0 0 0 0 0 0 0 0 0 0 0 0 0 0 0 0 0 0 127 0"/>
<feOffset dx="4" dy="4"/>
<feGaussianBlur stdDeviation="25"/>
<feColorMatrix type="matrix" values="0 0 0 0 0 0 0 0 0 0 0 0 0 0 0 0 0 0 0.25 0"/>
<feBlend mode="normal" in2="BackgroundImageFix" result="effect1_dropShadow"/>
<feBlend mode="normal" in="SourceGraphic" in2="effect1_dropShadow" result="shape"/>
</filter>
<linearGradient id="paint0_linear" x1="46" y1="112.418" x2="177.84" y2="112.418" gradientUnits="userSpaceOnUse">
<stop stop-color="#E359FF"/>
<stop offset="1" stop-color="#B241C9"/>
</linearGradient>
</defs>
</svg>
